<svg width="1611" height="402" viewBox="0 0 1611 402" fill="none" xmlns="http://www.w3.org/2000/svg">
<path d="M65.8607 213.242C93.4407 213.242 113.951 219.542 127.391 232.142C140.831 244.602 147.551 262.522 147.551 285.902C147.551 301.162 144.261 314.532 137.681 326.012C131.101 337.352 121.511 346.172 108.911 352.472C96.4507 358.772 81.4707 361.922 63.9707 361.922C61.7307 361.922 58.7907 361.852 55.1507 361.712C51.5107 361.572 47.7307 361.502 43.8107 361.502C39.8907 361.362 36.3907 361.292 33.3107 361.292C27.1507 361.292 21.0607 361.362 15.0407 361.502C9.1607 361.502 4.4707 361.642 0.970703 361.922V357.722C5.4507 357.442 8.8107 356.882 11.0507 356.042C13.2907 355.202 14.7607 353.522 15.4607 351.002C16.3007 348.482 16.7207 344.702 16.7207 339.662V235.502C16.7207 230.322 16.3007 226.542 15.4607 224.162C14.7607 221.642 13.2207 219.962 10.8407 219.122C8.6007 218.142 5.3107 217.582 0.970703 217.442V213.242C4.4707 213.382 9.1607 213.592 15.0407 213.872C21.0607 214.012 27.0107 214.012 32.8907 213.872C37.9307 213.732 43.6007 213.592 49.9007 213.452C56.3407 213.312 61.6607 213.242 65.8607 213.242ZM65.6507 217.022C59.2107 217.022 55.0107 218.212 53.0507 220.592C51.0907 222.972 50.1107 227.802 50.1107 235.082V340.082C50.1107 347.362 51.0907 352.192 53.0507 354.572C55.1507 356.952 59.4207 358.142 65.8607 358.142C77.6207 358.142 86.8607 355.412 93.5807 349.952C100.441 344.352 105.341 336.232 108.281 325.592C111.221 314.952 112.691 302.002 112.691 286.742C112.691 271.062 111.081 258.112 107.861 247.892C104.781 237.532 99.8107 229.832 92.9507 224.792C86.0907 219.612 76.9907 217.022 65.6507 217.022Z" fill="white"/>
<path d="M216.088 250.412C228.408 250.412 238.068 254.052 245.068 261.332C252.068 268.612 255.568 280.512 255.568 297.032H186.478L186.058 293.042H229.108C229.248 286.182 228.828 279.882 227.848 274.142C226.868 268.262 225.328 263.572 223.228 260.072C221.128 256.572 218.328 254.822 214.828 254.822C209.928 254.822 205.728 257.902 202.228 264.062C198.868 270.222 196.838 280.442 196.138 294.722L196.768 295.982C196.628 297.662 196.488 299.412 196.348 301.232C196.348 303.052 196.348 304.942 196.348 306.902C196.348 316.562 197.678 324.402 200.338 330.422C203.138 336.442 206.638 340.852 210.838 343.652C215.038 346.312 219.308 347.642 223.648 347.642C226.588 347.642 229.598 347.222 232.678 346.382C235.898 345.402 239.118 343.722 242.338 341.342C245.558 338.822 248.568 335.322 251.368 330.842L255.148 332.102C253.468 337.422 250.808 342.602 247.168 347.642C243.528 352.682 238.908 356.812 233.308 360.032C227.708 363.252 220.988 364.862 213.148 364.862C203.628 364.862 195.228 362.832 187.948 358.772C180.668 354.712 174.928 348.552 170.728 340.292C166.668 332.032 164.638 321.532 164.638 308.792C164.638 295.772 166.808 284.922 171.148 276.242C175.628 267.562 181.718 261.122 189.418 256.922C197.258 252.582 206.148 250.412 216.088 250.412Z" fill="white"/>
<path d="M344.618 250.412C350.498 250.412 355.258 251.182 358.898 252.722C362.678 254.122 365.618 256.082 367.718 258.602C369.958 261.262 371.568 264.692 372.548 268.892C373.668 273.092 374.228 278.762 374.228 285.902V342.392C374.228 348.272 375.208 352.262 377.168 354.362C379.268 356.462 382.768 357.512 387.668 357.512V361.922C385.008 361.782 381.018 361.642 375.698 361.502C370.378 361.222 365.128 361.082 359.948 361.082C354.628 361.082 349.378 361.222 344.198 361.502C339.158 361.642 335.308 361.782 332.648 361.922V357.512C336.848 357.512 339.788 356.462 341.468 354.362C343.148 352.262 343.988 348.272 343.988 342.392V277.082C343.988 273.582 343.638 270.572 342.938 268.052C342.238 265.392 340.978 263.362 339.158 261.962C337.338 260.422 334.608 259.652 330.968 259.652C327.188 259.652 323.688 260.702 320.468 262.802C317.388 264.902 314.868 267.842 312.908 271.622C311.088 275.262 310.178 279.392 310.178 284.012V342.392C310.178 348.272 311.018 352.262 312.698 354.362C314.518 356.462 317.458 357.512 321.518 357.512V361.922C318.998 361.782 315.288 361.642 310.388 361.502C305.628 361.222 300.658 361.082 295.478 361.082C290.158 361.082 284.698 361.222 279.098 361.502C273.498 361.642 269.298 361.782 266.498 361.922V357.512C271.398 357.512 274.828 356.462 276.788 354.362C278.888 352.262 279.938 348.272 279.938 342.392V276.242C279.938 269.942 278.958 265.322 276.998 262.382C275.178 259.302 271.678 257.762 266.498 257.762V253.352C270.978 253.772 275.318 253.982 279.518 253.982C285.398 253.982 290.858 253.772 295.898 253.352C301.078 252.792 305.838 252.022 310.178 251.042V269.942C313.678 262.802 318.438 257.762 324.458 254.822C330.478 251.882 337.198 250.412 344.618 250.412Z" fill="white"/>
<path d="M438.122 197.702V269.942C441.622 262.662 446.312 257.622 452.192 254.822C458.212 251.882 464.932 250.412 472.352 250.412C478.372 250.412 483.202 251.182 486.842 252.722C490.482 254.122 493.352 256.082 495.452 258.602C497.832 261.262 499.512 264.692 500.492 268.892C501.612 273.092 502.172 278.762 502.172 285.902V342.392C502.172 348.272 503.152 352.262 505.112 354.362C507.212 356.462 510.712 357.512 515.612 357.512V361.922C512.952 361.782 508.892 361.642 503.432 361.502C498.112 361.222 492.932 361.082 487.892 361.082C482.432 361.082 477.112 361.222 471.932 361.502C466.892 361.642 463.112 361.782 460.592 361.922V357.512C464.792 357.512 467.732 356.462 469.412 354.362C471.092 352.262 471.932 348.272 471.932 342.392V277.082C471.932 273.582 471.582 270.572 470.882 268.052C470.182 265.392 468.852 263.362 466.892 261.962C465.072 260.422 462.412 259.652 458.912 259.652C455.132 259.652 451.632 260.702 448.412 262.802C445.332 264.762 442.812 267.562 440.852 271.202C439.032 274.842 438.122 279.042 438.122 283.802V342.392C438.122 348.272 438.962 352.262 440.642 354.362C442.322 356.462 445.262 357.512 449.462 357.512V361.922C446.942 361.782 443.232 361.642 438.332 361.502C433.432 361.222 428.462 361.082 423.422 361.082C417.962 361.082 412.432 361.222 406.832 361.502C401.372 361.642 397.242 361.782 394.442 361.922V357.512C399.342 357.512 402.772 356.462 404.732 354.362C406.832 352.262 407.882 348.272 407.882 342.392V222.902C407.882 216.602 406.902 211.982 404.942 209.042C403.122 205.962 399.622 204.422 394.442 204.422V200.012C398.922 200.432 403.262 200.642 407.462 200.642C413.202 200.642 418.662 200.432 423.842 200.012C429.022 199.452 433.782 198.682 438.122 197.702Z" fill="white"/>
<path d="M552.235 363.392C545.935 363.392 540.685 362.202 536.485 359.822C532.285 357.442 529.205 354.292 527.245 350.372C525.285 346.312 524.305 341.902 524.305 337.142C524.305 331.122 525.635 326.222 528.295 322.442C531.095 318.662 534.665 315.582 539.005 313.202C543.345 310.822 547.895 308.862 552.655 307.322C557.555 305.782 562.175 304.312 566.515 302.912C570.995 301.372 574.565 299.622 577.225 297.662C580.025 295.562 581.425 292.902 581.425 289.682V273.302C581.425 269.662 580.795 266.442 579.535 263.642C578.415 260.702 576.595 258.462 574.075 256.922C571.695 255.382 568.545 254.612 564.625 254.612C561.825 254.612 559.025 255.032 556.225 255.872C553.425 256.572 551.115 257.832 549.295 259.652C553.215 261.052 556.226 263.222 558.326 266.162C560.566 268.962 561.685 272.182 561.685 275.822C561.685 280.582 560.005 284.362 556.645 287.162C553.425 289.962 549.575 291.362 545.095 291.362C540.055 291.362 536.205 289.822 533.545 286.742C531.025 283.522 529.765 279.672 529.765 275.192C529.765 271.132 530.745 267.772 532.705 265.112C534.805 262.452 537.675 259.932 541.315 257.552C545.235 255.312 549.925 253.562 555.385 252.302C560.985 251.042 567.005 250.412 573.445 250.412C579.885 250.412 585.695 251.112 590.875 252.512C596.055 253.772 600.395 256.152 603.895 259.652C607.115 262.872 609.215 266.862 610.195 271.622C611.175 276.242 611.665 282.122 611.665 289.262V346.382C611.665 349.882 612.015 352.332 612.715 353.732C613.415 354.992 614.605 355.622 616.285 355.622C617.545 355.622 618.735 355.272 619.855 354.572C621.115 353.872 622.445 353.032 623.845 352.052L625.945 355.622C623.005 358.142 619.575 360.102 615.655 361.502C611.875 362.762 607.605 363.392 602.845 363.392C597.665 363.392 593.535 362.692 590.455 361.292C587.375 359.752 585.135 357.722 583.735 355.202C582.475 352.682 581.845 349.742 581.845 346.382C578.485 351.702 574.425 355.902 569.665 358.982C564.905 361.922 559.095 363.392 552.235 363.392ZM567.145 349.952C569.945 349.952 572.465 349.322 574.705 348.062C577.085 346.662 579.325 344.422 581.425 341.342V298.292C580.165 300.392 578.415 302.282 576.175 303.962C573.935 305.642 571.555 307.392 569.035 309.212C566.515 310.892 564.065 312.782 561.685 314.882C559.445 316.982 557.625 319.572 556.225 322.652C554.825 325.732 554.125 329.442 554.125 333.782C554.125 339.242 555.315 343.302 557.695 345.962C560.075 348.622 563.225 349.952 567.145 349.952Z" fill="white"/>
<path d="M708.177 250.412C714.057 250.412 718.817 251.182 722.457 252.722C726.097 254.122 729.037 256.082 731.277 258.602C733.517 261.262 735.127 264.762 736.107 269.102C737.087 273.302 737.577 278.902 737.577 285.902V342.392C737.577 348.272 738.487 352.262 740.307 354.362C742.127 356.462 745.277 357.512 749.757 357.512V361.922C747.237 361.782 743.387 361.642 738.207 361.502C733.167 361.222 728.197 361.082 723.297 361.082C718.257 361.082 713.287 361.222 708.387 361.502C703.487 361.642 699.777 361.782 697.257 361.922V357.512C701.037 357.512 703.627 356.462 705.027 354.362C706.567 352.262 707.337 348.272 707.337 342.392V277.082C707.337 273.582 707.057 270.572 706.497 268.052C705.937 265.392 704.817 263.362 703.137 261.962C701.597 260.422 699.217 259.652 695.997 259.652C692.357 259.652 688.997 260.702 685.917 262.802C682.837 264.902 680.317 267.842 678.357 271.622C676.537 275.262 675.627 279.392 675.627 284.012V342.392C675.627 348.272 676.397 352.262 677.937 354.362C679.477 356.462 682.067 357.512 685.707 357.512V361.922C683.467 361.782 679.967 361.642 675.207 361.502C670.587 361.222 665.827 361.082 660.927 361.082C655.607 361.082 650.147 361.222 644.547 361.502C638.947 361.642 634.747 361.782 631.947 361.922V357.512C636.847 357.512 640.277 356.462 642.237 354.362C644.337 352.262 645.387 348.272 645.387 342.392V276.242C645.387 269.942 644.407 265.322 642.447 262.382C640.627 259.302 637.127 257.762 631.947 257.762V253.352C636.427 253.772 640.767 253.982 644.967 253.982C650.847 253.982 656.307 253.772 661.347 253.352C666.527 252.792 671.287 252.022 675.627 251.042V269.942C678.987 262.942 683.537 257.972 689.277 255.032C695.017 251.952 701.317 250.412 708.177 250.412ZM771.387 250.412C777.267 250.412 782.027 251.182 785.667 252.722C789.307 254.122 792.247 256.082 794.487 258.602C796.727 261.262 798.337 264.762 799.317 269.102C800.297 273.302 800.787 278.902 800.787 285.902V342.392C800.787 348.272 801.767 352.262 803.727 354.362C805.827 356.462 809.327 357.512 814.227 357.512V361.922C811.567 361.782 807.577 361.642 802.257 361.502C796.937 361.222 791.687 361.082 786.507 361.082C781.467 361.082 776.497 361.222 771.597 361.502C766.697 361.642 762.987 361.782 760.467 361.922V357.512C764.247 357.512 766.837 356.462 768.237 354.362C769.777 352.262 770.547 348.272 770.547 342.392V277.082C770.547 273.582 770.197 270.572 769.497 268.052C768.937 265.392 767.747 263.362 765.927 261.962C764.247 260.422 761.587 259.652 757.947 259.652C754.307 259.652 750.947 260.772 747.867 263.012C744.787 265.252 742.267 268.262 740.307 272.042C738.487 275.822 737.507 280.022 737.367 284.642L736.317 271.832C740.097 263.432 745.067 257.762 751.227 254.822C757.527 251.882 764.247 250.412 771.387 250.412Z" fill="white"/>
<path d="M925.668 210.512C933.928 210.512 940.298 211.422 944.778 213.242C949.258 214.922 953.108 216.742 956.328 218.702C958.008 219.682 959.338 220.452 960.318 221.012C961.438 221.432 962.488 221.642 963.468 221.642C964.868 221.642 965.848 220.872 966.408 219.332C967.108 217.792 967.668 215.482 968.088 212.402H972.918C972.778 215.062 972.568 218.282 972.288 222.062C972.148 225.702 972.008 230.532 971.868 236.552C971.868 242.572 971.868 250.482 971.868 260.282H967.038C966.478 253.002 964.798 245.932 961.998 239.072C959.198 232.212 955.208 226.612 950.028 222.272C944.988 217.792 938.758 215.552 931.338 215.552C924.618 215.552 919.088 217.442 914.748 221.222C910.408 225.002 908.238 230.252 908.238 236.972C908.238 242.572 909.638 247.402 912.438 251.462C915.238 255.382 919.298 259.232 924.618 263.012C930.078 266.792 936.658 271.342 944.358 276.662C951.078 281.002 957.098 285.342 962.418 289.682C967.738 294.022 972.008 298.922 975.228 304.382C978.448 309.842 980.058 316.352 980.058 323.912C980.058 333.152 977.608 340.782 972.708 346.802C967.948 352.822 961.648 357.372 953.808 360.452C945.968 363.392 937.358 364.862 927.978 364.862C919.298 364.862 912.368 364.022 907.188 362.342C902.008 360.662 897.668 358.912 894.168 357.092C891.088 355.132 888.708 354.152 887.028 354.152C885.628 354.152 884.578 354.922 883.878 356.462C883.318 358.002 882.828 360.312 882.408 363.392H877.578C877.858 360.032 877.998 356.112 877.998 351.632C878.138 347.152 878.208 341.342 878.208 334.202C878.348 326.922 878.418 317.752 878.418 306.692H883.248C883.808 315.932 885.348 324.612 887.868 332.732C890.528 340.712 894.518 347.152 899.838 352.052C905.298 356.952 912.508 359.402 921.468 359.402C926.368 359.402 930.708 358.562 934.488 356.882C938.408 355.062 941.558 352.402 943.938 348.902C946.318 345.402 947.508 341.062 947.508 335.882C947.508 330.002 946.108 324.892 943.308 320.552C940.648 316.212 936.938 312.152 932.178 308.372C927.558 304.592 922.168 300.742 916.008 296.822C909.428 292.482 903.268 288.142 897.528 283.802C891.788 279.462 887.168 274.492 883.668 268.892C880.308 263.292 878.628 256.642 878.628 248.942C878.628 240.122 880.798 232.912 885.138 227.312C889.618 221.572 895.428 217.372 902.568 214.712C909.848 211.912 917.548 210.512 925.668 210.512Z" fill="white"/>
<path d="M1036.54 251.042V379.142C1036.54 385.722 1038.22 390.062 1041.58 392.162C1044.94 394.402 1049.56 395.522 1055.44 395.522V399.932C1051.8 399.792 1046.76 399.582 1040.32 399.302C1034.02 399.162 1027.3 399.092 1020.16 399.092C1014.98 399.092 1009.87 399.162 1004.83 399.302C999.935 399.582 996.225 399.792 993.705 399.932V395.522C998.325 395.522 1001.54 394.542 1003.36 392.582C1005.32 390.622 1006.3 386.842 1006.3 381.242V276.242C1006.3 269.942 1005.32 265.322 1003.36 262.382C1001.4 259.302 997.905 257.762 992.865 257.762V253.352C997.345 253.772 1001.68 253.982 1005.88 253.982C1011.62 253.982 1017.08 253.772 1022.26 253.352C1027.44 252.792 1032.2 252.022 1036.54 251.042ZM1069.09 250.412C1076.23 250.412 1082.6 252.372 1088.2 256.292C1093.8 260.072 1098.28 265.882 1101.64 273.722C1105 281.422 1106.68 291.082 1106.68 302.702C1106.68 312.922 1105.49 321.882 1103.11 329.582C1100.87 337.282 1097.58 343.792 1093.24 349.112C1089.04 354.292 1083.93 358.212 1077.91 360.872C1072.03 363.532 1065.38 364.862 1057.96 364.862C1052.5 364.862 1047.53 363.882 1043.05 361.922C1038.57 360.102 1035.14 357.442 1032.76 353.942L1034.86 351.212C1036.26 353.732 1038.22 355.692 1040.74 357.092C1043.4 358.492 1046.41 359.192 1049.77 359.192C1056.07 359.192 1061.04 357.092 1064.68 352.892C1068.32 348.552 1070.91 342.532 1072.45 334.832C1074.13 326.992 1074.97 317.682 1074.97 306.902C1074.97 294.862 1074.2 285.412 1072.66 278.552C1071.12 271.692 1069.02 266.792 1066.36 263.852C1063.7 260.912 1060.48 259.442 1056.7 259.442C1051.66 259.442 1047.04 261.402 1042.84 265.322C1038.78 269.242 1036.47 274.842 1035.91 282.122L1034.86 274.772C1037.38 266.792 1041.65 260.772 1047.67 256.712C1053.83 252.512 1060.97 250.412 1069.09 250.412Z" fill="white"/>
<path d="M1191.86 250.412C1196.34 250.412 1199.98 251.392 1202.78 253.352C1205.58 255.172 1207.61 257.552 1208.87 260.492C1210.27 263.432 1210.97 266.512 1210.97 269.732C1210.97 274.912 1209.43 279.182 1206.35 282.542C1203.41 285.762 1199.49 287.372 1194.59 287.372C1189.69 287.372 1185.84 286.182 1183.04 283.802C1180.38 281.282 1179.05 277.992 1179.05 273.932C1179.05 270.012 1179.89 266.792 1181.57 264.272C1183.39 261.612 1185.63 259.372 1188.29 257.552C1186.33 256.992 1184.37 257.062 1182.41 257.762C1179.75 258.182 1177.23 259.302 1174.85 261.122C1172.47 262.802 1170.44 264.972 1168.76 267.632C1167.08 270.152 1165.75 272.952 1164.77 276.032C1163.79 278.972 1163.3 281.842 1163.3 284.642V340.292C1163.3 347.012 1164.91 351.562 1168.13 353.942C1171.49 356.322 1176.46 357.512 1183.04 357.512V361.922C1179.82 361.782 1175.13 361.642 1168.97 361.502C1162.81 361.222 1156.37 361.082 1149.65 361.082C1144.05 361.082 1138.38 361.222 1132.64 361.502C1126.9 361.642 1122.56 361.782 1119.62 361.922V357.512C1124.52 357.512 1127.95 356.462 1129.91 354.362C1132.01 352.262 1133.06 348.272 1133.06 342.392V276.242C1133.06 269.942 1132.08 265.322 1130.12 262.382C1128.3 259.302 1124.8 257.762 1119.62 257.762V253.352C1124.1 253.772 1128.44 253.982 1132.64 253.982C1138.52 253.982 1143.98 253.772 1149.02 253.352C1154.2 252.792 1158.96 252.022 1163.3 251.042V270.572C1164.98 266.792 1167.22 263.362 1170.02 260.282C1172.82 257.202 1176.04 254.822 1179.68 253.142C1183.32 251.322 1187.38 250.412 1191.86 250.412Z" fill="white"/>
<path d="M1244.95 199.172C1250.83 199.172 1255.45 200.642 1258.81 203.582C1262.31 206.382 1264.06 210.302 1264.06 215.342C1264.06 220.382 1262.31 224.372 1258.81 227.312C1255.45 230.112 1250.83 231.512 1244.95 231.512C1239.07 231.512 1234.38 230.112 1230.88 227.312C1227.52 224.372 1225.84 220.382 1225.84 215.342C1225.84 210.302 1227.52 206.382 1230.88 203.582C1234.38 200.642 1239.07 199.172 1244.95 199.172ZM1261.33 251.042V342.392C1261.33 348.272 1262.31 352.262 1264.27 354.362C1266.37 356.462 1269.87 357.512 1274.77 357.512V361.922C1272.25 361.782 1268.33 361.642 1263.01 361.502C1257.69 361.222 1252.3 361.082 1246.84 361.082C1241.38 361.082 1235.85 361.222 1230.25 361.502C1224.65 361.642 1220.45 361.782 1217.65 361.922V357.512C1222.55 357.512 1225.98 356.462 1227.94 354.362C1230.04 352.262 1231.09 348.272 1231.09 342.392V276.242C1231.09 269.942 1230.11 265.322 1228.15 262.382C1226.33 259.302 1222.83 257.762 1217.65 257.762V253.352C1222.13 253.772 1226.47 253.982 1230.67 253.982C1236.55 253.982 1242.01 253.772 1247.05 253.352C1252.23 252.792 1256.99 252.022 1261.33 251.042Z" fill="white"/>
<path d="M1362.01 250.412C1367.89 250.412 1372.65 251.182 1376.29 252.722C1380.07 254.122 1383.01 256.082 1385.11 258.602C1387.35 261.262 1388.96 264.692 1389.94 268.892C1391.06 273.092 1391.62 278.762 1391.62 285.902V342.392C1391.62 348.272 1392.6 352.262 1394.56 354.362C1396.66 356.462 1400.16 357.512 1405.06 357.512V361.922C1402.4 361.782 1398.41 361.642 1393.09 361.502C1387.77 361.222 1382.52 361.082 1377.34 361.082C1372.02 361.082 1366.77 361.222 1361.59 361.502C1356.55 361.642 1352.7 361.782 1350.04 361.922V357.512C1354.24 357.512 1357.18 356.462 1358.86 354.362C1360.54 352.262 1361.38 348.272 1361.38 342.392V277.082C1361.38 273.582 1361.03 270.572 1360.33 268.052C1359.63 265.392 1358.37 263.362 1356.55 261.962C1354.73 260.422 1352 259.652 1348.36 259.652C1344.58 259.652 1341.08 260.702 1337.86 262.802C1334.78 264.902 1332.26 267.842 1330.3 271.622C1328.48 275.262 1327.57 279.392 1327.57 284.012V342.392C1327.57 348.272 1328.41 352.262 1330.09 354.362C1331.91 356.462 1334.85 357.512 1338.91 357.512V361.922C1336.39 361.782 1332.68 361.642 1327.78 361.502C1323.02 361.222 1318.05 361.082 1312.87 361.082C1307.55 361.082 1302.09 361.222 1296.49 361.502C1290.89 361.642 1286.69 361.782 1283.89 361.922V357.512C1288.79 357.512 1292.22 356.462 1294.18 354.362C1296.28 352.262 1297.33 348.272 1297.33 342.392V276.242C1297.33 269.942 1296.35 265.322 1294.39 262.382C1292.57 259.302 1289.07 257.762 1283.89 257.762V253.352C1288.37 253.772 1292.71 253.982 1296.91 253.982C1302.79 253.982 1308.25 253.772 1313.29 253.352C1318.47 252.792 1323.23 252.022 1327.57 251.042V269.942C1331.07 262.802 1335.83 257.762 1341.85 254.822C1347.87 251.882 1354.59 250.412 1362.01 250.412Z" fill="white"/>
<path d="M1452.19 401.402C1443.51 401.402 1435.74 400.632 1428.88 399.092C1422.16 397.692 1416.84 395.452 1412.92 392.372C1409.14 389.432 1407.25 385.792 1407.25 381.452C1407.25 377.112 1409.21 373.192 1413.13 369.692C1417.05 366.332 1422.86 363.672 1430.56 361.712L1432.45 365.072C1429.79 367.172 1427.83 369.412 1426.57 371.792C1425.45 374.312 1424.89 376.902 1424.89 379.562C1424.89 385.442 1427.55 389.922 1432.87 393.002C1438.33 396.222 1445.68 397.832 1454.92 397.832C1461.22 397.832 1466.82 396.992 1471.72 395.312C1476.76 393.632 1480.68 391.112 1483.48 387.752C1486.42 384.392 1487.89 380.262 1487.89 375.362C1487.89 371.162 1486.35 367.592 1483.27 364.652C1480.19 361.852 1474.03 360.452 1464.79 360.452H1451.77C1446.03 360.452 1440.99 359.822 1436.65 358.562C1432.45 357.302 1429.16 355.342 1426.78 352.682C1424.4 349.882 1423.21 346.382 1423.21 342.182C1423.21 336.302 1425.52 331.122 1430.14 326.642C1434.76 322.162 1441.62 317.962 1450.72 314.042L1452.82 315.722C1450.16 317.402 1447.64 319.222 1445.26 321.182C1443.02 323.002 1441.9 325.382 1441.9 328.322C1441.9 332.802 1444.7 335.042 1450.3 335.042H1473.19C1480.89 335.042 1487.75 335.952 1493.77 337.772C1499.93 339.592 1504.76 342.602 1508.26 346.802C1511.9 350.862 1513.72 356.182 1513.72 362.762C1513.72 369.622 1511.48 375.992 1507 381.872C1502.66 387.752 1495.94 392.442 1486.84 395.942C1477.74 399.582 1466.19 401.402 1452.19 401.402ZM1454.29 317.192C1446.31 317.192 1439.17 316.002 1432.87 313.622C1426.57 311.242 1421.6 307.602 1417.96 302.702C1414.32 297.802 1412.5 291.502 1412.5 283.802C1412.5 276.102 1414.32 269.802 1417.96 264.902C1421.6 259.862 1426.57 256.222 1432.87 253.982C1439.17 251.602 1446.31 250.412 1454.29 250.412C1462.27 250.412 1469.41 251.602 1475.71 253.982C1482.01 256.222 1486.98 259.862 1490.62 264.902C1494.26 269.802 1496.08 276.102 1496.08 283.802C1496.08 291.502 1494.26 297.802 1490.62 302.702C1486.98 307.602 1482.01 311.242 1475.71 313.622C1469.41 316.002 1462.27 317.192 1454.29 317.192ZM1454.29 313.412C1458.07 313.412 1461.01 311.312 1463.11 307.112C1465.21 302.772 1466.26 295.002 1466.26 283.802C1466.26 272.602 1465.21 264.902 1463.11 260.702C1461.01 256.362 1458.07 254.192 1454.29 254.192C1450.65 254.192 1447.71 256.362 1445.47 260.702C1443.37 264.902 1442.32 272.602 1442.32 283.802C1442.32 295.002 1443.37 302.772 1445.47 307.112C1447.71 311.312 1450.65 313.412 1454.29 313.412ZM1487.05 268.472L1482.85 267.002C1484.95 261.542 1488.31 256.992 1492.93 253.352C1497.69 249.712 1502.8 247.892 1508.26 247.892C1512.74 247.892 1516.1 249.152 1518.34 251.672C1520.72 254.052 1521.91 257.202 1521.91 261.122C1521.91 265.322 1520.79 268.472 1518.55 270.572C1516.31 272.532 1513.79 273.512 1510.99 273.512C1508.61 273.512 1506.37 272.672 1504.27 270.992C1502.31 269.312 1501.19 266.792 1500.91 263.432C1500.63 259.932 1501.82 255.452 1504.48 249.992L1505.95 251.252C1500.63 253.212 1496.64 255.522 1493.98 258.182C1491.32 260.702 1489.01 264.132 1487.05 268.472Z" fill="white"/>
<path d="M1567.46 250.412C1573.34 250.412 1578.45 251.182 1582.79 252.722C1587.27 254.122 1590.49 255.522 1592.45 256.922C1597.21 260.142 1600.15 258.042 1601.27 250.622H1605.68C1605.4 254.542 1605.19 259.372 1605.05 265.112C1604.91 270.712 1604.84 278.202 1604.84 287.582H1600.43C1599.73 282.402 1598.4 277.292 1596.44 272.252C1594.48 267.212 1591.61 263.082 1587.83 259.862C1584.19 256.642 1579.43 255.032 1573.55 255.032C1569.49 255.032 1566.06 256.222 1563.26 258.602C1560.46 260.842 1559.06 264.132 1559.06 268.472C1559.06 272.672 1560.32 276.382 1562.84 279.602C1565.36 282.682 1568.58 285.692 1572.5 288.632C1576.56 291.432 1580.76 294.442 1585.1 297.662C1589.72 301.162 1593.92 304.662 1597.7 308.162C1601.48 311.522 1604.49 315.232 1606.73 319.292C1608.97 323.352 1610.09 328.182 1610.09 333.782C1610.09 340.082 1608.27 345.612 1604.63 350.372C1600.99 354.992 1596.16 358.562 1590.14 361.082C1584.26 363.602 1577.68 364.862 1570.4 364.862C1566.2 364.862 1562.42 364.442 1559.06 363.602C1555.84 362.762 1553.04 361.712 1550.66 360.452C1548.84 359.612 1547.09 358.842 1545.41 358.142C1543.87 357.302 1542.4 356.602 1541 356.042C1539.6 355.622 1538.34 356.112 1537.22 357.512C1536.24 358.912 1535.47 360.872 1534.91 363.392H1530.5C1530.78 358.912 1530.99 353.452 1531.13 347.012C1531.27 340.572 1531.34 332.032 1531.34 321.392H1535.75C1536.59 328.952 1538.13 335.672 1540.37 341.552C1542.61 347.292 1545.62 351.842 1549.4 355.202C1553.32 358.422 1558.22 360.032 1564.1 360.032C1566.48 360.032 1568.79 359.542 1571.03 358.562C1573.27 357.582 1575.09 355.972 1576.49 353.732C1578.03 351.492 1578.8 348.622 1578.8 345.122C1578.8 338.962 1576.77 333.852 1572.71 329.792C1568.79 325.732 1563.75 321.322 1557.59 316.562C1553.11 312.922 1548.84 309.352 1544.78 305.852C1540.86 302.212 1537.64 298.292 1535.12 294.092C1532.6 289.752 1531.34 284.852 1531.34 279.392C1531.34 273.092 1533.02 267.772 1536.38 263.432C1539.74 259.092 1544.15 255.872 1549.61 253.772C1555.21 251.532 1561.16 250.412 1567.46 250.412Z" fill="white"/>
<path d="M42.7607 171.372C35.0607 171.372 29.7407 169.832 26.8007 166.752C23.8607 163.812 22.3207 159.962 22.1807 155.202C22.1807 151.142 22.9507 146.312 24.4907 140.712C26.1707 134.972 27.8507 129.512 29.5307 124.332C32.8907 114.392 36.3907 104.592 40.0307 94.9323C43.6707 85.2723 47.3107 75.9623 50.9507 67.0023C54.7307 58.0423 58.3007 49.5023 61.6607 41.3823C65.1607 33.2623 68.3807 25.7723 71.3207 18.9123C61.8007 19.0523 53.5407 19.3323 46.5407 19.7523C39.6807 20.1723 33.3807 20.7323 27.6407 21.4323C21.9007 21.9923 15.9507 22.8323 9.79066 23.9523C10.4907 18.0723 13.2207 13.5923 17.9807 10.5123C22.8807 7.29234 29.3907 5.05234 37.5107 3.79234C45.6307 2.53234 54.9407 1.90234 65.4407 1.90234C70.9007 1.90234 76.0107 2.04234 80.7707 2.32234C85.6707 2.46234 90.2907 2.74234 94.6307 3.16234C99.1107 3.58234 103.451 4.00235 107.651 4.42235C116.471 5.26235 123.471 5.82234 128.651 6.10234C133.971 6.38234 137.751 6.52235 139.991 6.52235C135.791 10.4423 130.471 13.3123 124.031 15.1323C117.731 16.8123 111.081 17.8623 104.081 18.2823C97.0807 18.7023 90.4307 18.9123 84.1307 18.9123C77.4107 35.4323 71.2507 52.5823 65.6507 70.3623C60.0507 88.1423 54.8707 105.712 50.1107 123.072C48.2907 129.792 46.7507 135.532 45.4907 140.292C44.3707 144.912 43.5307 149.182 42.9707 153.102C42.4107 156.882 42.1307 160.942 42.1307 165.282C42.1307 165.982 42.1307 166.752 42.1307 167.592C42.2707 168.572 42.4807 169.832 42.7607 171.372Z" fill="white"/>
<path d="M107.055 161.082C103.975 161.082 101.735 158.702 100.335 153.942C99.0751 149.182 98.4451 143.652 98.4451 137.352C98.4451 130.912 99.4951 123.142 101.595 114.042C103.835 104.942 106.775 95.3523 110.415 85.2723C114.195 75.1923 118.325 65.3223 122.805 55.6623C127.425 46.0023 132.115 37.2523 136.875 29.4123C141.775 21.4323 146.395 15.0623 150.735 10.3023C155.215 5.54234 159.135 3.16234 162.495 3.16234C165.435 3.16234 167.675 4.77234 169.215 7.99234C170.755 11.2123 171.525 14.5723 171.525 18.0723C171.525 21.8523 170.615 26.5423 168.795 32.1423C167.115 37.6023 164.735 43.4823 161.655 49.7823C158.575 56.0823 154.935 62.3123 150.735 68.4723C146.675 74.4923 142.195 80.0223 137.295 85.0623C132.535 90.1023 127.565 94.1623 122.385 97.2423C120.565 102.002 119.095 106.482 117.975 110.682C116.995 114.742 116.295 118.592 115.875 122.232C115.455 125.872 115.245 129.442 115.245 132.942C115.245 133.642 115.245 134.412 115.245 135.252C115.385 135.952 115.455 136.652 115.455 137.352C116.015 136.512 116.925 134.342 118.185 130.842C119.445 127.342 121.125 123.282 123.225 118.662C125.465 113.902 128.195 109.282 131.415 104.802C134.635 100.182 138.415 96.4023 142.755 93.4623C147.095 90.3823 152.065 88.8423 157.665 88.8423C162.425 88.8423 166.135 89.9623 168.795 92.2023C171.455 94.3023 173.345 96.9623 174.465 100.182C175.585 103.262 176.145 106.412 176.145 109.632C176.145 114.112 175.375 118.312 173.835 122.232C172.435 126.152 170.965 129.862 169.425 133.362C168.025 136.722 167.325 139.942 167.325 143.022C167.325 145.542 167.885 147.292 169.005 148.272C170.125 149.252 171.455 149.742 172.995 149.742C176.075 149.742 179.645 148.202 183.705 145.122C187.905 142.042 192.035 137.982 196.095 132.942C200.295 127.762 203.865 122.092 206.805 115.932L210.165 119.502C206.945 126.502 203.165 132.942 198.825 138.822C198.755 145.122 189.725 149.392 184.545 152.892C179.365 156.392 173.765 158.142 167.745 158.142C162.425 158.142 158.365 156.742 155.565 153.942C152.765 151.142 151.365 147.642 151.365 143.442C151.365 140.502 151.855 137.282 152.835 133.782C153.955 130.142 155.005 126.502 155.985 122.862C156.965 119.222 157.455 115.932 157.455 112.992C157.455 109.632 156.685 107.322 155.145 106.062C153.745 104.802 151.995 104.172 149.895 104.172C146.395 104.172 143.245 105.572 140.445 108.372C137.645 111.032 135.125 114.532 132.885 118.872C130.645 123.212 128.545 127.832 126.585 132.732C124.625 137.492 122.665 142.042 120.705 146.382C118.745 150.722 116.645 154.222 114.405 156.882C112.305 159.682 109.855 161.082 107.055 161.082ZM126.795 83.8023C130.435 80.5823 133.935 76.7323 137.295 72.2523C140.655 67.7723 143.735 63.1523 146.535 58.3923C149.475 53.4923 151.995 48.8023 154.095 44.3223C156.335 39.7023 158.085 35.5723 159.345 31.9323C160.605 28.2923 161.305 25.4923 161.445 23.5323C161.445 23.3923 161.445 23.3223 161.445 23.3223C161.445 23.1823 161.445 23.0423 161.445 22.9023C160.605 22.9023 158.785 24.6523 155.985 28.1523C153.325 31.5123 150.175 36.1323 146.535 42.0123C143.035 47.7523 139.465 54.2623 135.825 61.5423C132.325 68.8223 129.315 76.2423 126.795 83.8023Z" fill="white"/>
<path d="M225.525 162.342C216.565 162.342 209.635 159.892 204.735 154.992C199.975 150.232 197.595 144.212 197.595 136.932C197.595 130.772 199.135 124.262 202.215 117.402C205.435 110.402 209.705 103.892 215.025 97.8723C220.345 91.7123 226.225 86.7423 232.665 82.9623C239.105 79.1823 245.545 77.2923 251.985 77.2923C255.625 77.2923 259.055 78.2723 262.275 80.2323C265.635 82.0523 267.315 85.7623 267.315 91.3624C267.315 96.6823 265.775 101.652 262.695 106.272C259.615 110.892 255.485 115.022 250.305 118.662C245.125 122.302 239.385 125.312 233.085 127.692C226.925 129.932 220.695 131.402 214.395 132.102C214.255 132.662 214.115 133.292 213.975 133.992C213.975 134.552 213.975 135.532 213.975 136.932C213.975 137.632 214.045 138.892 214.185 140.712C214.465 142.392 215.095 144.212 216.075 146.172C217.055 148.132 218.665 149.812 220.905 151.212C223.145 152.612 226.225 153.312 230.145 153.312C236.025 153.312 241.905 151.702 247.785 148.482C253.805 145.122 259.405 140.712 264.585 135.252C269.905 129.792 274.315 123.702 277.815 116.982L282.015 120.342C278.235 128.742 273.335 136.092 267.315 142.392C261.435 148.692 254.855 153.592 247.575 157.092C240.435 160.592 233.085 162.342 225.525 162.342ZM216.705 124.332C220.345 123.912 224.405 122.652 228.885 120.552C233.365 118.452 237.635 115.792 241.695 112.572C245.895 109.352 249.325 105.852 251.985 102.072C254.645 98.1523 255.975 94.2323 255.975 90.3123C255.975 88.7724 255.695 87.7223 255.135 87.1623C254.575 86.6023 253.665 86.3223 252.405 86.3223C249.185 86.3223 245.825 87.5123 242.325 89.8923C238.825 92.1323 235.395 95.1423 232.035 98.9223C228.675 102.562 225.665 106.622 223.005 111.102C220.345 115.582 218.245 119.992 216.705 124.332Z" fill="white"/>
<path d="M379.788 171.372C369.148 171.372 360.398 168.852 353.538 163.812C346.818 158.772 341.848 152.262 338.628 144.282C335.548 136.302 334.008 128.042 334.008 119.502C334.008 108.442 335.688 97.3823 339.048 86.3223C342.408 75.1223 347.028 64.4823 352.908 54.4023C358.928 44.3223 365.718 35.3623 373.278 27.5223C380.838 19.6823 388.888 13.5223 397.428 9.04234C406.108 4.42234 414.718 2.11234 423.258 2.11234C429.418 2.11234 434.598 3.58234 438.798 6.52235C442.998 9.32234 445.098 14.2223 445.098 21.2223C445.098 25.4223 444.328 30.1123 442.788 35.2923C441.388 40.4723 439.428 45.5123 436.908 50.4123C434.528 55.1723 431.798 59.0923 428.718 62.1723C425.638 65.2523 422.488 66.7923 419.268 66.7923C417.868 66.7923 416.398 66.3023 414.858 65.3223C413.318 64.3423 411.918 62.6623 410.658 60.2823C412.758 57.9023 415.138 55.0323 417.798 51.6723C420.458 48.1723 422.978 44.5323 425.358 40.7523C427.738 36.8323 429.698 33.0523 431.238 29.4123C432.778 25.6323 433.548 22.3423 433.548 19.5423C433.548 17.0223 432.848 15.0623 431.448 13.6623C430.048 12.1223 427.598 11.3523 424.098 11.3523C417.938 11.3523 411.568 13.6623 404.988 18.2823C398.548 22.9023 392.318 29.1323 386.298 36.9723C380.278 44.6723 374.818 53.3523 369.918 63.0123C365.158 72.5323 361.378 82.4023 358.578 92.6223C355.778 102.702 354.378 112.292 354.378 121.392C354.378 128.112 355.358 134.552 357.318 140.712C359.418 146.732 362.708 151.632 367.188 155.412C371.668 159.332 377.548 161.292 384.828 161.292C392.388 161.292 399.878 159.192 407.298 154.992C414.858 150.792 421.718 145.262 427.878 138.402C434.178 131.542 439.218 124.192 442.998 116.352L448.458 119.922C443.558 129.302 437.678 137.912 430.818 145.752C423.958 153.452 416.188 159.612 407.508 164.232C398.968 168.992 389.728 171.372 379.788 171.372Z" fill="white"/>
<path d="M454.83 159.402C448.67 159.402 444.05 157.582 440.97 153.942C437.89 150.302 436.35 145.892 436.35 140.712C436.35 137.492 436.91 133.432 438.03 128.532C439.15 123.632 440.69 118.522 442.65 113.202C444.75 107.742 447.13 102.632 449.79 97.8723C452.45 93.1123 455.32 89.2623 458.4 86.3223C461.48 83.2423 464.56 81.7023 467.64 81.7023C469.32 81.7023 470.79 82.2623 472.05 83.3823C473.31 84.3623 473.94 85.8323 473.94 87.7923C473.94 89.6123 472.82 92.3423 470.58 95.9823C468.48 99.6223 465.96 103.822 463.02 108.582C460.22 113.342 457.7 118.312 455.46 123.492C453.36 128.532 452.31 133.362 452.31 137.982C452.31 142.462 453.08 145.472 454.62 147.012C456.3 148.412 458.68 149.112 461.76 149.112C466.52 149.112 471.7 146.732 477.3 141.972C482.9 137.212 488.71 128.882 494.73 116.982L497.88 120.342C492.98 132.662 486.75 142.252 479.19 149.112C471.63 155.972 463.51 159.402 454.83 159.402ZM479.61 64.6923C476.95 64.6923 474.5 64.0623 472.26 62.8023C470.16 61.4023 469.11 59.3023 469.11 56.5023C469.11 53.1423 470.93 50.2723 474.57 47.8923C478.21 45.5123 481.99 44.3223 485.91 44.3223C488.43 44.3223 490.53 44.8823 492.21 46.0023C494.03 47.1223 494.94 49.1523 494.94 52.0923C494.94 55.0323 493.33 57.9023 490.11 60.7023C486.89 63.3623 483.39 64.6923 479.61 64.6923Z" fill="white"/>
<path d="M508.409 162.762C502.249 162.762 497.279 160.942 493.499 157.302C489.719 153.662 487.829 148.132 487.829 140.712C487.829 134.972 488.879 127.832 490.979 119.292C493.219 110.752 496.019 101.932 499.379 92.8324C498.399 92.5524 497.209 92.3423 495.809 92.2023C494.549 91.9223 493.289 91.5023 492.029 90.9424V84.4323C494.269 84.7123 496.089 84.9223 497.489 85.0623C499.029 85.2023 500.569 85.3423 502.109 85.4823C505.049 78.0623 508.199 70.9223 511.559 64.0623C515.059 57.0623 518.489 50.8323 521.849 45.3723C525.349 39.9123 528.639 35.6423 531.719 32.5623C534.799 29.3423 537.529 27.7323 539.909 27.7323C541.309 27.7323 542.639 28.2923 543.899 29.4123C545.159 30.3923 545.789 31.8623 545.789 33.8223C545.789 36.6223 544.319 40.6123 541.379 45.7923C538.579 50.9723 535.079 57.0623 530.879 64.0623C526.679 70.9223 522.619 78.2723 518.699 86.1124C519.819 86.1124 520.939 86.1124 522.059 86.1124C523.179 86.1124 524.229 86.1124 525.209 86.1124C531.369 86.1124 536.899 86.0423 541.799 85.9023C546.839 85.6223 551.949 85.2023 557.129 84.6423V91.5723C549.429 92.2723 542.359 92.8323 535.919 93.2523C529.479 93.6723 523.319 93.9523 517.439 94.0923C517.019 94.0923 516.599 94.0923 516.179 94.0923C515.759 94.0923 515.339 94.0923 514.919 94.0923C511.979 100.952 509.389 108.022 507.149 115.302C505.049 122.442 503.999 129.442 503.999 136.302C503.999 142.042 504.909 146.102 506.729 148.482C508.549 150.862 511.419 152.052 515.339 152.052C522.339 152.052 529.479 148.902 536.759 142.602C544.179 136.162 550.619 127.482 556.079 116.562L559.019 118.662C555.379 126.922 550.829 134.412 545.369 141.132C540.049 147.852 534.239 153.102 527.939 156.882C521.639 160.802 515.129 162.762 508.409 162.762Z" fill="white"/>
<path d="M559.877 211.902C556.377 211.902 553.087 210.782 550.007 208.542C547.067 206.442 545.597 203.012 545.597 198.252C545.597 193.772 546.927 189.712 549.587 186.072C552.247 182.572 555.677 179.282 559.877 176.202C564.077 173.262 568.557 170.532 573.317 168.012C578.217 165.632 582.907 163.392 587.387 161.292C588.927 157.232 590.607 152.122 592.427 145.962C594.387 139.662 596.067 133.852 597.467 128.532C593.127 134.552 588.507 139.872 583.607 144.492C578.707 149.112 573.247 151.422 567.227 151.422C564.707 151.422 562.047 150.932 559.247 149.952C556.447 148.832 554.067 147.012 552.107 144.492C550.287 141.832 549.377 138.332 549.377 133.992C549.377 130.352 550.007 125.942 551.267 120.762C552.667 115.582 554.347 110.542 556.307 105.642C558.407 100.602 560.577 96.4723 562.817 93.2523C565.057 89.8923 567.017 88.2123 568.697 88.2123C569.537 88.2123 570.727 88.5623 572.267 89.2623C573.947 89.8223 575.557 90.6624 577.097 91.7823C578.637 92.7623 579.617 93.8823 580.037 95.1423C578.777 96.8223 577.377 99.2723 575.837 102.492C574.297 105.572 572.827 109.072 571.427 112.992C570.027 116.772 568.837 120.482 567.857 124.122C567.017 127.762 566.597 130.912 566.597 133.572C566.597 135.672 567.017 137.492 567.857 139.032C568.697 140.572 570.307 141.342 572.687 141.342C575.767 141.342 578.917 140.082 582.137 137.562C585.497 135.042 588.717 131.822 591.797 127.902C595.017 123.982 597.887 119.992 600.407 115.932C600.687 114.952 600.967 113.412 601.247 111.312C601.527 109.212 602.017 107.042 602.717 104.802C603.417 102.422 604.607 100.252 606.287 98.2923C608.107 96.3323 610.627 95.3523 613.847 95.3523C614.967 95.3523 616.017 95.4223 616.997 95.5623C617.977 95.7023 619.167 95.9123 620.567 96.1923C620.567 98.2923 619.797 102.422 618.257 108.582C616.857 114.602 614.967 121.602 612.587 129.582C610.207 137.562 607.547 145.542 604.607 153.522C610.487 151.142 616.577 147.222 622.877 141.762C629.317 136.162 634.497 128.252 638.417 118.032L641.987 120.972C639.887 127.972 636.667 134.062 632.327 139.242C628.127 144.422 623.367 148.832 618.047 152.472C612.727 156.112 607.337 159.122 601.877 161.502C598.097 170.602 593.967 179.002 589.487 186.702C585.147 194.402 580.527 200.492 575.627 204.972C570.727 209.592 565.477 211.902 559.877 211.902ZM557.777 204.132C560.437 204.132 564.147 201.332 568.907 195.732C573.667 190.132 578.497 181.732 583.397 170.532C578.917 172.772 574.367 175.362 569.747 178.302C565.267 181.382 561.487 184.602 558.407 187.962C555.327 191.322 553.787 194.752 553.787 198.252C553.787 199.652 554.067 200.982 554.627 202.242C555.327 203.502 556.377 204.132 557.777 204.132Z" fill="white"/>
<path d="M702.29 159.822C695.99 159.822 691.65 157.722 689.27 153.522C687.03 149.462 685.91 144.982 685.91 140.082C685.91 135.602 686.61 131.052 688.01 126.432C689.41 121.672 691.3 117.262 693.68 113.202C696.2 109.142 698.93 105.922 701.87 103.542C704.95 101.022 708.03 99.7623 711.11 99.7623C712.09 99.7623 713.21 99.9724 714.47 100.392C715.87 100.672 716.85 101.162 717.41 101.862C715.73 103.962 713.98 106.552 712.16 109.632C710.48 112.712 708.87 116.002 707.33 119.502C705.93 122.862 704.81 126.292 703.97 129.792C703.13 133.292 702.71 136.512 702.71 139.452C702.71 142.252 703.2 144.562 704.18 146.382C705.3 148.202 707.19 149.112 709.85 149.112C712.51 149.112 715.66 147.642 719.3 144.702C723.08 141.622 726.65 138.122 730.01 134.202C725.53 130.142 722.31 125.732 720.35 120.972C718.39 116.072 717.41 110.192 717.41 103.332C717.41 100.392 718.11 97.0323 719.51 93.2523C721.05 89.4723 723.43 86.1823 726.65 83.3823C730.01 80.5823 734.49 79.1823 740.09 79.1823C746.11 79.1823 750.31 80.8623 752.69 84.2224C755.21 87.5823 756.47 91.5723 756.47 96.1923C756.47 101.372 755.07 107.182 752.27 113.622C749.61 120.062 746.39 126.152 742.61 131.892C744.29 132.732 746.25 133.152 748.49 133.152C750.59 133.152 753.11 132.662 756.05 131.682C758.99 130.702 761.86 129.092 764.66 126.852C767.46 124.472 769.7 121.322 771.38 117.402L775.16 120.132C772.08 127.272 767.95 132.522 762.77 135.882C757.73 139.102 752.76 140.712 747.86 140.712C746.04 140.712 744.22 140.572 742.4 140.292C740.58 139.872 738.9 139.382 737.36 138.822C732.6 144.422 727.14 149.322 720.98 153.522C714.82 157.722 708.59 159.822 702.29 159.822ZM735.47 127.482C738.83 122.582 741.7 117.332 744.08 111.732C746.46 106.132 747.65 100.952 747.65 96.1923C747.65 92.9723 747.16 90.6623 746.18 89.2623C745.2 87.7223 743.73 86.9523 741.77 86.9523C739.11 86.9523 736.38 88.8423 733.58 92.6223C730.78 96.4023 729.38 101.162 729.38 106.902C729.38 109.842 729.87 113.412 730.85 117.612C731.97 121.812 733.51 125.102 735.47 127.482Z" fill="white"/>
<path d="M766.355 211.902C764.815 211.902 762.995 211.412 760.895 210.432C758.655 209.452 756.765 207.492 755.225 204.552C753.545 201.752 752.705 197.482 752.705 191.742C752.705 185.722 753.755 177.812 755.855 168.012C757.815 158.352 760.615 147.642 764.255 135.882C767.755 123.982 771.885 111.802 776.645 99.3423C781.545 86.8823 786.725 74.9123 792.185 63.4323C797.785 51.8123 803.525 41.3823 809.405 32.1423C815.425 22.9023 821.375 15.5523 827.255 10.0923C833.135 4.63234 838.805 1.90234 844.265 1.90234C847.905 1.90234 850.285 3.02234 851.405 5.26234C852.525 7.36234 853.085 9.81235 853.085 12.6123C853.085 18.6323 851.405 25.2123 848.045 32.3523C844.825 39.4923 840.485 46.7023 835.025 53.9823C829.565 61.1223 823.405 67.9123 816.545 74.3523C809.825 80.7923 802.895 86.3223 795.755 90.9424C795.195 92.3424 794.635 93.7423 794.075 95.1423C793.515 96.5423 792.955 97.9423 792.395 99.3423C793.935 99.9023 795.125 100.882 795.965 102.282C796.945 103.682 797.505 105.152 797.645 106.692C798.765 112.712 799.885 118.102 801.005 122.862C802.125 127.482 803.805 131.122 806.045 133.782C808.425 136.442 811.785 137.772 816.125 137.772C821.025 137.772 825.365 135.952 829.145 132.312C832.925 128.672 836.775 123.562 840.695 116.982L845.315 120.342C840.835 129.302 835.795 135.882 830.195 140.082C824.595 144.142 819.555 146.172 815.075 146.172C812.695 146.172 810.175 145.682 807.515 144.702C804.995 143.722 802.545 142.322 800.165 140.502C800.025 149.182 798.975 157.722 797.015 166.122C795.195 174.662 792.675 182.362 789.455 189.222C786.235 196.082 782.595 201.542 778.535 205.602C774.615 209.802 770.555 211.902 766.355 211.902ZM772.235 198.882C773.775 198.882 775.385 197.552 777.065 194.892C778.885 192.232 780.635 188.732 782.315 184.392C783.995 180.052 785.535 175.222 786.935 169.902C788.335 164.722 789.455 159.542 790.295 154.362C791.135 149.322 791.555 144.702 791.555 140.502C791.555 136.442 791.065 132.872 790.085 129.792C789.245 126.572 787.705 123.002 785.465 119.082C782.245 128.742 779.375 138.052 776.855 147.012C774.335 155.972 772.375 164.092 770.975 171.372C769.575 178.792 768.875 184.952 768.875 189.852C768.875 195.872 769.995 198.882 772.235 198.882ZM801.845 76.2423C810.385 68.2623 817.665 60.4923 823.685 52.9323C829.705 45.3723 834.255 38.7223 837.335 32.9823C840.555 27.1023 842.165 22.9723 842.165 20.5923C842.165 19.4723 841.605 18.9123 840.485 18.9123C837.125 18.9123 833.275 21.5023 828.935 26.6823C824.595 31.7223 820.115 38.5823 815.495 47.2623C810.875 55.9423 806.325 65.6023 801.845 76.2423Z" fill="white"/>
<path fill-rule="evenodd" clip-rule="evenodd" d="M398.133 10.3665C406.629 5.84434 414.998 3.61234 423.258 3.61234C429.173 3.61234 434.037 5.02078 437.938 7.75119L437.951 7.76097L437.966 7.77042C441.599 10.1923 443.598 14.512 443.598 21.2223C443.598 25.243 442.86 29.7861 441.35 34.8649L441.345 34.8829L441.34 34.901C439.968 39.9763 438.047 44.9177 435.574 49.7263L435.57 49.7339L435.566 49.7415C433.243 54.3881 430.601 58.1677 427.657 61.1117C424.756 64.0124 421.966 65.2923 419.268 65.2923C418.228 65.2923 417.034 64.9294 415.663 64.0569C414.595 63.3772 413.522 62.2192 412.484 60.4735L413.622 54.467C412.154 56.2563 410.791 57.8637 409.533 59.2899L408.847 60.0676L409.332 60.9842C410.66 63.4924 412.213 65.4173 414.052 66.5878C415.761 67.6752 417.508 68.2923 419.268 68.2923C423.01 68.2923 426.519 66.4923 429.778 63.233C432.992 60.0189 435.809 55.9615 438.245 51.0921C440.807 46.1082 442.804 40.9777 444.231 35.7014C445.797 30.4274 446.598 25.5965 446.598 21.2223C446.598 13.9402 444.402 8.46376 439.645 5.28417C435.148 2.14088 429.656 0.612339 423.258 0.612339C414.439 0.612339 405.59 2.99945 396.728 7.7156C388.03 12.279 379.854 18.5412 372.198 26.4811C364.553 34.4097 357.694 43.4625 351.62 53.6332L351.616 53.6399L351.612 53.6465C345.673 63.8276 341.006 74.5749 337.612 85.8863C334.211 97.0813 332.508 108.288 332.508 119.502C332.508 128.227 334.082 136.67 337.228 144.822L337.232 144.833L337.237 144.844C340.556 153.071 345.693 159.804 352.638 165.012L352.644 165.017L352.65 165.021C359.825 170.293 368.909 172.872 379.788 172.872C389.974 172.872 399.461 170.432 408.225 165.55C417.064 160.843 424.969 154.572 431.938 146.75L431.947 146.74C432.974 145.566 433.98 144.375 434.964 143.166C435.388 147.641 437.001 151.574 439.825 154.911C443.268 158.981 448.367 160.902 454.83 160.902C463.947 160.902 472.413 157.287 480.198 150.223C482.388 148.236 484.464 146.03 486.429 143.608C486.874 149.89 488.823 154.882 492.459 158.383C496.567 162.338 501.934 164.262 508.409 164.262C515.434 164.262 522.212 162.21 528.721 158.163C535.194 154.277 541.13 148.902 546.54 142.071C547.192 141.268 547.831 140.454 548.458 139.63C548.943 141.777 549.739 143.687 550.87 145.339L550.895 145.377L550.923 145.413C553.037 148.131 555.629 150.12 558.69 151.345L558.721 151.357L558.752 151.368C561.684 152.394 564.512 152.922 567.227 152.922C573.677 152.922 579.494 150.432 584.637 145.584C587.878 142.528 590.995 139.174 593.987 135.523C593.076 138.703 592.079 142.034 590.995 145.517L590.992 145.527L590.989 145.537C589.26 151.391 587.663 156.274 586.198 160.193C581.879 162.221 577.367 164.378 572.662 166.663L572.639 166.674L572.616 166.687C567.804 169.234 563.271 171.996 559.017 174.974L559.004 174.983L558.99 174.993C554.695 178.143 551.155 181.531 548.393 185.165L548.385 185.176L548.376 185.187C545.53 189.082 544.097 193.452 544.097 198.252C544.097 203.326 545.68 207.293 549.131 209.76C552.442 212.166 556.035 213.402 559.878 213.402C565.931 213.402 571.531 210.893 576.647 206.073C581.691 201.459 586.399 195.236 590.789 187.449C595.212 179.845 599.292 171.572 603.031 162.634C608.394 160.252 613.682 157.277 618.895 153.71C624.335 149.988 629.198 145.482 633.484 140.198C637.962 134.851 641.272 128.579 643.424 121.403L643.711 120.448L637.763 115.55L637.017 117.495C633.161 127.548 628.104 135.229 621.895 140.629C616.833 145.016 611.945 148.363 607.231 150.697C609.703 143.803 611.968 136.907 614.025 130.011C616.409 122.016 618.307 114.99 619.716 108.934C621.246 102.813 622.068 98.5067 622.068 96.1923V94.9626L620.862 94.7215C619.445 94.4382 618.226 94.2226 617.21 94.0774C616.151 93.9262 615.029 93.8523 613.847 93.8523C610.302 93.8523 607.349 94.9445 605.188 97.2717L605.168 97.2935L605.149 97.3162C603.339 99.4271 602.045 101.78 601.282 104.367C600.561 106.675 600.053 108.925 599.761 111.114C599.502 113.052 599.252 114.441 599.019 115.325C596.563 119.262 593.77 123.137 590.638 126.95L590.628 126.963L590.618 126.976C587.604 130.811 584.475 133.934 581.237 136.362L581.225 136.372L581.213 136.381C578.171 138.762 575.337 139.842 572.688 139.842C570.633 139.842 569.659 139.203 569.174 138.314C568.476 137.034 568.097 135.471 568.097 133.572C568.097 131.067 568.493 128.044 569.313 124.486C570.279 120.901 571.452 117.244 572.834 113.513L572.837 113.505L572.84 113.497C574.224 109.622 575.671 106.179 577.179 103.163L577.185 103.151L577.191 103.14C578.713 99.9561 580.064 97.6074 581.237 96.0423L581.709 95.4136L581.461 94.668C580.901 92.9906 579.645 91.6342 577.943 90.5423C576.321 89.3683 574.612 88.4719 572.817 87.8646C571.268 87.1661 569.858 86.7123 568.698 86.7123C567.351 86.7123 566.104 87.3801 564.991 88.3335C563.868 89.2961 562.733 90.6762 561.577 92.4082C559.261 95.7404 557.047 99.9685 554.923 105.065L554.919 105.075L554.915 105.085C552.933 110.04 551.234 115.136 549.819 120.371L549.814 120.389L549.81 120.408C549.269 122.633 548.839 124.731 548.523 126.698C544.65 132.538 540.399 137.457 535.776 141.47C528.667 147.621 521.863 150.552 515.339 150.552C511.73 150.552 509.374 149.471 507.921 147.571C506.415 145.602 505.499 141.971 505.499 136.302C505.499 129.6 506.525 122.746 508.586 115.735C510.711 108.829 513.153 102.115 515.911 95.5923H517.457L517.475 95.5919C523.378 95.4514 529.558 95.1704 536.017 94.7492C542.472 94.3282 549.555 93.7671 557.265 93.0662L558.629 92.9422V82.9714L556.968 83.151C551.82 83.7076 546.743 84.125 541.736 84.4035C536.859 84.5426 531.35 84.6124 525.209 84.6124H521.136C524.698 77.6186 528.372 71.0299 532.159 64.8456L532.166 64.8341C536.369 57.8279 539.879 51.7224 542.691 46.5199C545.641 41.321 547.289 37.04 547.289 33.8223C547.289 31.5343 546.541 29.5878 544.86 28.2594C543.393 26.9674 541.734 26.2323 539.909 26.2323C536.887 26.2323 533.784 28.2371 530.648 31.5123C527.468 34.6949 524.116 39.0576 520.587 44.5628L520.579 44.5745L520.572 44.5862C517.185 50.0908 513.733 56.3604 510.218 63.3915L510.212 63.4025C506.992 69.9771 503.965 76.8054 501.13 83.8871L497.639 83.5698L497.632 83.5691C496.25 83.4308 494.446 83.2227 492.215 82.9439L490.529 82.7332V91.9172L491.42 92.3131C492.765 92.9109 494.12 93.3635 495.484 93.6666L495.571 93.686L495.66 93.6949C496.287 93.7576 496.861 93.8341 497.382 93.9231C494.268 102.496 491.649 110.826 489.529 118.912L489.526 118.923L489.523 118.934C488.896 121.483 488.36 123.916 487.917 126.23C483.905 132.829 480.038 137.676 476.328 140.829C470.859 145.479 466.015 147.612 461.76 147.612C458.929 147.612 456.954 146.977 455.635 145.905C455.137 145.385 454.676 144.538 454.341 143.228C453.997 141.885 453.81 140.147 453.81 137.982C453.81 133.596 454.806 128.966 456.84 124.08C459.053 118.963 461.541 114.056 464.304 109.357C467.241 104.602 469.763 100.399 471.869 96.7503C473.009 94.8962 473.888 93.2347 474.488 91.7742C475.081 90.327 475.44 88.9815 475.44 87.7923C475.44 85.5042 474.691 83.5576 473.01 82.2292C471.484 80.8872 469.673 80.2023 467.64 80.2023C464.026 80.2023 460.591 82.0137 457.351 85.2498C454.142 88.3158 451.191 92.2911 448.48 97.1406C445.783 101.967 443.374 107.142 441.25 112.664L441.246 112.674L441.242 112.684C440.032 115.969 438.979 119.179 438.083 122.314C434.939 127.575 431.171 132.599 426.773 137.388L426.767 137.394L426.762 137.4C420.705 144.145 413.974 149.567 406.569 153.681L406.559 153.687C399.335 157.776 392.097 159.792 384.828 159.792C377.827 159.792 372.325 157.914 368.175 154.283L368.165 154.275L368.155 154.266C363.903 150.678 360.761 146.018 358.741 140.238C356.834 134.237 355.878 127.957 355.878 121.392C355.878 112.447 357.254 102.992 360.023 93.0238L360.024 93.0187C360.747 90.381 361.536 87.7668 362.39 85.1761L357.132 92.2218C354.301 102.413 352.878 112.138 352.878 121.392C352.878 128.261 353.88 134.854 355.888 141.167L355.895 141.187L355.901 141.206C358.08 147.452 361.512 152.582 366.209 156.549C371.019 160.754 377.274 162.792 384.828 162.792C392.677 162.792 400.418 160.61 408.032 156.3C415.743 152.016 422.728 146.381 428.989 139.41C431.522 136.651 433.856 133.812 435.991 130.893C435.441 133.661 435.086 136.154 434.934 138.367C433.257 140.552 431.511 142.682 429.694 144.758C422.948 152.33 415.317 158.376 406.803 162.908L406.79 162.915L406.777 162.922C398.465 167.556 389.477 169.872 379.788 169.872C369.389 169.872 360.974 167.413 354.431 162.607C347.942 157.738 343.142 151.457 340.023 143.732C337.012 135.927 335.508 127.854 335.508 119.502C335.508 108.597 337.164 97.6834 340.483 86.7584L340.484 86.7534C343.81 75.6685 348.382 65.1393 354.2 55.1633C360.165 45.1774 366.885 36.3129 374.357 28.5635C381.82 20.8244 389.744 14.7671 398.125 10.3707L398.133 10.3665ZM440.862 123.511C440.35 125.325 439.894 127.11 439.492 128.867C439.126 130.467 438.823 131.969 438.581 133.373C441.449 129.24 444.086 124.926 446.493 120.43L443.593 118.533C442.74 120.216 441.83 121.875 440.862 123.511ZM449.787 120.617C446.307 127.278 442.338 133.558 437.878 139.454C437.859 139.888 437.85 140.308 437.85 140.712C437.85 145.571 439.285 149.628 442.115 152.973C444.831 156.184 448.973 157.902 454.83 157.902C463.073 157.902 470.846 154.658 478.182 148.002C481.106 145.348 483.836 142.265 486.367 138.748C486.43 137.077 486.571 135.307 486.789 133.439C483.926 137.489 481.088 140.721 478.271 143.115C472.541 147.986 467.025 150.612 461.76 150.612C458.47 150.612 455.701 149.866 453.66 148.165L453.607 148.121L453.559 148.073C452.535 147.048 451.859 145.632 451.434 143.972C451.008 142.305 450.81 140.298 450.81 137.982C450.81 133.132 451.913 128.106 454.075 122.915L454.079 122.906L454.083 122.897C456.347 117.661 458.895 112.636 461.727 107.822L461.735 107.808L461.744 107.794C464.678 103.043 467.19 98.8563 469.281 95.2328L469.291 95.2143L469.302 95.1962C470.397 93.4176 471.193 91.9003 471.712 90.6355C472.238 89.3527 472.44 88.4232 472.44 87.7923C472.44 86.1783 471.94 85.1974 471.129 84.5664L471.09 84.5362L471.053 84.5035C470.067 83.6266 468.951 83.2023 467.64 83.2023C465.098 83.2023 462.377 84.4665 459.461 87.383L459.448 87.3953L459.436 87.4074C456.489 90.2196 453.706 93.9401 451.099 98.6041C448.478 103.294 446.129 108.336 444.054 113.73C443.903 114.141 443.754 114.551 443.608 114.959L450.417 119.411L449.787 120.617ZM489.339 139.743C489.333 140.071 489.329 140.394 489.329 140.712C489.329 147.896 491.158 152.965 494.54 156.222C497.992 159.546 502.565 161.262 508.409 161.262C514.821 161.262 521.059 159.397 527.147 155.609L527.157 155.602L527.168 155.596C533.289 151.923 538.967 146.803 544.193 140.201L544.199 140.194L544.205 140.186C545.49 138.606 546.723 136.982 547.905 135.314C547.887 134.88 547.878 134.44 547.878 133.992C547.878 133.593 547.885 133.186 547.899 132.77C544.75 136.934 541.366 140.591 537.743 143.735L537.741 143.737C530.291 150.184 522.815 153.552 515.339 153.552C511.109 153.552 507.725 152.254 505.538 149.394C503.403 146.602 502.499 142.113 502.499 136.302C502.499 129.287 503.573 122.145 505.71 114.879L505.713 114.87L505.716 114.861C507.971 107.531 510.579 100.411 513.541 93.5015L513.93 92.5923H517.422C523.274 92.4527 529.407 92.1739 535.822 91.7555C541.865 91.3614 548.467 90.8435 555.629 90.2016V86.3087C550.992 86.7847 546.41 87.1485 541.883 87.4L541.862 87.4012L541.842 87.4017C536.925 87.5422 531.38 87.6124 525.209 87.6124H516.272L517.358 85.4415C521.294 77.5686 525.374 70.1826 529.597 63.2845C533.788 56.2996 537.275 50.232 540.06 45.0791L540.067 45.0654L540.075 45.0519C543.001 39.8966 544.289 36.2021 544.289 33.8223C544.289 32.2083 543.79 31.2274 542.979 30.5964L542.94 30.5662L542.903 30.5335C541.859 29.6052 540.87 29.2323 539.909 29.2323C538.176 29.2323 535.823 30.4422 532.803 33.5992L532.792 33.6112L532.78 33.623C529.806 36.5971 526.585 40.7663 523.121 46.1686C519.792 51.5792 516.386 57.7631 512.906 64.7238C509.564 71.5466 506.43 78.6503 503.504 86.0349L503.091 87.0777L497.354 86.5562L497.34 86.5549C496.296 86.4504 495.025 86.308 493.529 86.1279V89.9425C494.375 90.2706 495.215 90.5289 496.05 90.7191C497.471 90.865 498.723 91.0848 499.792 91.3901L501.347 91.8344L500.787 93.3519C497.852 101.299 495.349 109.026 493.276 116.534L493.391 116.305L494.359 114.393L499.626 120.011L499.274 120.897C496.422 128.066 493.114 134.353 489.339 139.743ZM490.763 127.32C490.355 129.504 490.035 131.566 489.802 133.506C492.104 129.65 494.215 125.373 496.131 120.67L495.092 119.562C493.642 122.346 492.199 124.933 490.763 127.32ZM551.388 127.802C551.243 128.772 551.13 129.7 551.047 130.588C553.299 126.969 555.333 123.163 557.149 119.17L556.625 118.796C554.969 121.99 553.223 124.992 551.388 127.802ZM550.964 136.176C551.219 139.25 552.029 141.705 553.32 143.608C555.114 145.902 557.263 147.537 559.775 148.548C562.431 149.474 564.912 149.922 567.227 149.922C572.818 149.922 577.921 147.792 582.578 143.401C587.403 138.852 591.961 133.606 596.251 127.655L598.918 128.914C597.512 134.257 595.827 140.085 593.863 146.399C592.038 152.575 590.347 157.719 588.79 161.824L588.574 162.393L588.024 162.651C583.558 164.744 578.882 166.977 573.996 169.35C569.302 171.837 564.887 174.527 560.751 177.422C556.658 180.425 553.345 183.61 550.791 186.968C548.322 190.35 547.097 194.097 547.097 198.252C547.097 202.697 548.453 205.589 550.879 207.322L550.89 207.329C553.737 209.4 556.723 210.402 559.878 210.402C565.02 210.402 569.917 208.295 574.598 203.881L574.607 203.873L574.615 203.865C579.367 199.521 583.895 193.57 588.181 185.966L588.186 185.957L588.191 185.948C592.634 178.311 596.735 169.972 600.492 160.927L600.724 160.369L601.278 160.127C606.645 157.788 611.952 154.825 617.2 151.234C622.397 147.679 627.05 143.369 631.162 138.298L631.17 138.288L631.178 138.279C635.181 133.501 638.21 127.912 640.257 121.491L639.052 120.498C635.163 129.968 630.114 137.458 623.862 142.894L623.86 142.896C617.472 148.432 611.243 152.455 605.17 154.913L602.028 156.185L603.2 153.004C606.129 145.053 608.779 137.103 611.15 129.154C613.524 121.194 615.405 114.225 616.796 108.243L616.799 108.231L616.802 108.219C618.071 103.145 618.781 99.5766 618.997 97.4166C618.159 97.2612 617.423 97.1383 616.785 97.0473C615.884 96.9185 614.906 96.8523 613.847 96.8523C610.966 96.8523 608.885 97.7122 607.407 99.2913C605.87 101.091 604.792 103.066 604.157 105.226L604.153 105.238L604.149 105.25C603.472 107.417 603.002 109.504 602.734 111.511C602.453 113.623 602.161 115.254 601.85 116.344L601.792 116.546L601.682 116.723C599.128 120.839 596.222 124.878 592.967 128.842C589.827 132.836 586.524 136.146 583.05 138.753C579.656 141.406 576.194 142.842 572.688 142.842C569.982 142.842 567.736 141.941 566.541 139.751C565.559 137.951 565.097 135.874 565.097 133.572C565.097 130.764 565.54 127.495 566.396 123.785L566.402 123.759L566.409 123.732C567.401 120.048 568.604 116.296 570.018 112.479C571.432 108.521 572.922 104.971 574.49 101.832C575.846 98.9986 577.12 96.6996 578.315 94.9689C577.94 94.3379 577.301 93.6896 576.292 93.0478L576.253 93.0228L576.215 92.9955C574.79 91.9591 573.317 91.1932 571.793 90.6854L571.718 90.6605L571.647 90.6279C570.144 89.9446 569.2 89.7123 568.698 89.7123C568.364 89.7123 567.791 89.8846 566.944 90.6112C566.109 91.3264 565.147 92.4621 564.066 94.0844L564.057 94.0967L564.049 94.1089C561.89 97.2126 559.769 101.237 557.697 106.208C556.133 110.117 554.75 114.117 553.547 118.208C553.949 117.448 554.346 116.676 554.738 115.892L555.523 114.321L560.884 118.151L560.392 119.267C557.731 125.305 554.589 130.942 550.964 136.176Z" fill="white"/>
<path d="M415.108 14.5326C417.272 13.7396 419.395 13.231 421.479 12.999L423.258 3.61234L415.108 14.5326Z" fill="white"/>
<path d="M423.258 3.61234C414.998 3.61234 406.629 5.84434 398.133 10.3665L398.125 10.3707C389.744 14.7671 381.82 20.8244 374.357 28.5635C366.885 36.3129 360.165 45.1774 354.2 55.1633C348.382 65.1393 343.81 75.6685 340.484 86.7534L340.483 86.7584C337.164 97.6834 335.508 108.597 335.508 119.502C335.508 127.854 337.012 135.927 340.023 143.732C343.142 151.457 347.942 157.738 354.431 162.607C360.974 167.413 369.389 169.872 379.788 169.872C389.477 169.872 398.465 167.556 406.777 162.922L406.79 162.915L406.803 162.908C415.317 158.376 422.948 152.33 429.694 144.758C431.511 142.682 433.257 140.552 434.934 138.367C435.086 136.154 435.441 133.661 435.991 130.893C433.856 133.812 431.522 136.651 428.989 139.41C422.728 146.381 415.743 152.016 408.032 156.3C400.418 160.61 392.677 162.792 384.828 162.792C377.274 162.792 371.019 160.754 366.209 156.549C361.512 152.582 358.08 147.452 355.901 141.206L355.895 141.187L355.888 141.167C353.88 134.854 352.878 128.261 352.878 121.392C352.878 112.138 354.301 102.413 357.132 92.2218L362.39 85.1761C364.815 77.8236 367.771 70.6604 371.258 63.6861C376.118 54.1055 381.526 45.5107 387.479 37.8962L387.487 37.8859C393.437 30.1375 399.563 24.0211 405.856 19.5054C409.02 17.2849 412.103 15.6343 415.108 14.5326L423.258 3.61234Z" fill="white"/>
<path d="M412.484 60.4735C413.522 62.2192 414.595 63.3772 415.663 64.0569C417.034 64.9294 418.228 65.2923 419.268 65.2923C421.966 65.2923 424.756 64.0124 427.657 61.1117C430.601 58.1677 433.243 54.3881 435.566 49.7415L435.57 49.7339L435.574 49.7263C438.047 44.9177 439.968 39.9763 441.34 34.901L441.345 34.8829L441.35 34.8649C442.86 29.7861 443.598 25.243 443.598 21.2223C443.598 14.512 441.599 10.1923 437.966 7.77042L437.951 7.76097L437.938 7.75119C434.037 5.02078 429.173 3.61234 423.258 3.61234L421.479 12.999C422.359 12.901 423.232 12.8523 424.098 12.8523C427.45 12.8523 429.366 13.602 430.338 14.6714L430.362 14.6978L430.387 14.723C431.434 15.7702 432.048 17.3062 432.048 19.5423C432.048 22.0784 431.347 25.1647 429.853 28.8354C428.347 32.3934 426.425 36.103 424.081 39.9641C421.729 43.6991 419.24 47.2952 416.613 50.7524C415.572 52.0674 414.575 53.3055 413.622 54.467L412.484 60.4735Z" fill="white"/>
<path fill-rule="evenodd" clip-rule="evenodd" d="M485.91 42.8223C481.667 42.8223 477.605 44.1154 473.749 46.6369C469.826 49.2023 467.61 52.4887 467.61 56.5023C467.61 59.7393 468.86 62.3382 471.428 64.0504L471.475 64.0819L471.525 64.1097C473.997 65.5005 476.702 66.1923 479.61 66.1923C483.776 66.1923 487.607 64.716 491.065 61.8588L491.08 61.8467L491.094 61.8343C494.49 58.881 496.44 55.6334 496.44 52.0923C496.44 48.8596 495.425 46.2325 493.02 44.7395C491.043 43.4289 488.642 42.8223 485.91 42.8223ZM485.91 45.8223C482.313 45.8223 478.814 46.9093 475.391 49.1478C472.034 51.3424 470.61 53.796 470.61 56.5023C470.61 58.8431 471.444 60.4362 473.046 61.5233C475.04 62.6337 477.218 63.1923 479.61 63.1923C482.998 63.1923 486.163 62.0126 489.14 59.5581C492.173 56.916 493.44 54.4277 493.44 52.0923C493.44 49.4556 492.642 48.0295 491.424 47.2798L491.401 47.2655L491.378 47.2504C489.999 46.3313 488.207 45.8223 485.91 45.8223Z" fill="white"/>
<path d="M719.631 97.913C719.948 96.6162 720.373 95.2441 720.909 93.7953C722.354 90.2574 724.584 87.1696 727.622 84.5248C730.644 82.0127 734.748 80.6823 740.09 80.6823C745.481 80.6823 748.995 82.0826 751.052 84.5509L753.903 83.3388C751.126 79.4325 746.35 77.6823 740.09 77.6823C734.24 77.6823 729.388 79.1485 725.69 82.23L725.678 82.2401L725.666 82.2504C722.277 85.1975 719.754 88.6786 718.121 92.6864L718.112 92.7087L718.104 92.7314C717.241 95.0616 716.624 97.267 716.269 99.3425L719.631 97.913Z" fill="white"/>
<path fill-rule="evenodd" clip-rule="evenodd" d="M764.904 128.565C764.375 130.264 763.858 131.959 763.353 133.647C762.898 133.989 762.434 134.313 761.961 134.619C757.109 137.719 752.416 139.212 747.86 139.212C746.136 139.212 744.41 139.081 742.683 138.818C740.936 138.413 739.333 137.944 737.873 137.413L736.893 137.056L736.217 137.851C731.546 143.347 726.186 148.157 720.135 152.283C714.178 156.345 708.237 158.322 702.29 158.322C696.346 158.322 692.613 156.371 690.58 152.792C688.472 148.968 687.41 144.741 687.41 140.082C687.41 135.761 688.085 131.357 689.446 126.867L689.449 126.856C690.815 122.213 692.654 117.922 694.965 113.977C697.416 110.032 700.038 106.956 702.814 104.708L702.82 104.703C705.712 102.338 708.467 101.262 711.11 101.262C711.883 101.262 712.838 101.429 713.996 101.815L714.085 101.845L714.176 101.863C714.623 101.953 714.984 102.06 715.274 102.174C713.842 104.088 712.374 106.322 710.869 108.869L710.856 108.891L710.843 108.914C709.141 112.034 707.513 115.363 705.957 118.898L705.951 118.912L705.946 118.925C704.515 122.358 703.371 125.864 702.512 129.442C701.65 133.032 701.21 136.372 701.21 139.452C701.21 142.416 701.728 144.991 702.86 147.094L702.88 147.132L702.903 147.168C704.365 149.544 706.816 150.612 709.85 150.612C713.03 150.612 716.518 148.878 720.243 145.869L720.248 145.865C724.101 142.726 727.734 139.162 731.149 135.179L732.099 134.071L731.018 133.091C726.677 129.158 723.604 124.928 721.742 120.411C719.871 115.734 718.91 110.054 718.91 103.332C718.91 103.031 718.918 102.723 718.934 102.41L716.017 101.205C716.077 100.596 716.161 99.9755 716.269 99.3425C715.823 99.1746 715.349 99.0428 714.857 98.9404L714.945 98.9693L714.47 100.392L714.764 98.9215C714.795 98.9277 714.826 98.934 714.857 98.9404C713.527 98.5045 712.272 98.2623 711.11 98.2623C707.595 98.2623 704.192 99.7057 700.925 102.377L700.927 102.376L701.87 103.542L700.92 102.381L700.925 102.377C697.826 104.887 694.992 108.245 692.406 112.411L692.396 112.427L692.386 112.444C689.942 116.614 688.005 121.137 686.572 126.007L686.575 125.997L688.01 126.432L686.571 126.009L686.572 126.007C685.134 130.754 684.41 135.447 684.41 140.082C684.41 145.221 685.588 149.952 687.957 154.247L687.961 154.254L687.965 154.262C690.694 159.076 695.64 161.322 702.29 161.322C708.944 161.322 715.463 159.1 721.825 154.762C727.807 150.683 733.143 145.954 737.831 140.574C739.157 141.016 740.568 141.409 742.063 141.754L742.117 141.766L742.172 141.775C744.067 142.066 745.963 142.212 747.86 142.212C752.579 142.212 757.3 140.815 762.007 138.101C758.75 148.856 756.209 158.726 754.386 167.707C752.278 177.548 751.205 185.572 751.205 191.742C751.205 197.551 752.042 202.137 753.916 205.286C755.552 208.395 757.648 210.643 760.277 211.799C762.478 212.825 764.518 213.402 766.355 213.402C771.1 213.402 775.524 211.021 779.615 206.644C783.822 202.431 787.546 196.819 790.813 189.86C794.086 182.886 796.639 175.079 798.479 166.45C800.25 158.857 801.286 151.152 801.588 143.336C803.338 144.462 805.133 145.385 806.971 146.1L806.984 146.105L806.997 146.11C809.792 147.14 812.488 147.672 815.075 147.672C820.001 147.672 825.35 145.448 831.076 141.297L831.085 141.29L831.095 141.282C836.944 136.896 842.114 130.098 846.657 121.013L847.225 119.877L840.248 114.802L839.406 116.215C835.526 122.727 831.755 127.716 828.105 131.232C824.582 134.624 820.608 136.272 816.125 136.272C812.122 136.272 809.212 135.063 807.178 132.799C805.14 130.372 803.547 126.976 802.465 122.518C801.356 117.803 800.245 112.459 799.132 106.484C798.957 104.7 798.305 103.023 797.224 101.465C796.481 100.243 795.505 99.2792 794.313 98.587L796.971 91.941C804.055 87.3192 810.923 81.817 817.579 75.4395C824.493 68.9478 830.706 62.0993 836.217 54.8935L836.225 54.8823C841.738 47.5311 846.137 40.2299 849.408 32.978C852.83 25.7026 854.585 18.9068 854.585 12.6123C854.585 9.61705 853.986 6.92253 852.738 4.57402C851.252 1.62185 848.174 0.402344 844.265 0.402344C838.282 0.402344 832.263 3.39473 826.234 8.99314C820.238 14.5611 814.212 22.0161 808.148 31.3235L808.144 31.3302L808.14 31.337C802.223 40.6345 796.455 51.1172 790.834 62.7811L790.83 62.7881C785.355 74.301 780.161 86.3028 775.249 98.7934L775.246 98.8002L775.244 98.807C772.218 106.728 769.445 114.539 766.926 122.237C765.953 123.545 764.879 124.696 763.706 125.695C761.028 127.834 758.318 129.345 755.576 130.259C752.723 131.21 750.372 131.652 748.49 131.652C747.143 131.652 745.938 131.487 744.863 131.17C747.85 126.464 750.472 121.531 752.73 116.373L749.957 115.227C747.522 120.779 744.656 126.059 741.358 131.067L740.428 132.478L741.939 133.234C743.864 134.196 746.062 134.652 748.49 134.652C750.809 134.652 753.497 134.114 756.525 133.105C759.409 132.144 762.202 130.622 764.904 128.565ZM844.265 3.40234C839.328 3.40234 834.007 5.86995 828.276 11.1915C822.513 16.5426 816.64 23.7861 810.665 32.9564C804.825 42.135 799.116 52.5071 793.54 64.0766C788.096 75.5212 782.931 87.4566 778.044 99.8832C775.957 105.346 773.992 110.754 772.149 116.107L777.014 119.621L776.538 120.726C773.841 126.977 770.325 131.903 765.954 135.425C765.867 135.719 765.78 136.012 765.694 136.306L765.691 136.316L765.688 136.326C762.059 148.049 759.273 158.71 757.325 168.311L757.323 168.319L757.322 168.327C755.231 178.082 754.205 185.874 754.205 191.742C754.205 197.39 755.041 201.33 756.511 203.781L756.534 203.818L756.554 203.856C757.992 206.602 759.664 208.257 761.496 209.058L761.513 209.065L761.529 209.073C763.522 210.003 765.117 210.402 766.355 210.402C770.004 210.402 773.694 208.591 777.438 204.579L777.456 204.56L777.474 204.542C781.379 200.637 784.929 195.335 788.097 188.585C791.262 181.843 793.748 174.254 795.548 165.81L795.551 165.796L795.554 165.781C797.49 157.486 798.527 149.052 798.665 140.478L798.713 137.504L801.076 139.311C803.352 141.051 805.675 142.376 808.045 143.299C810.566 144.226 812.906 144.672 815.075 144.672C819.106 144.672 823.834 142.839 829.303 138.876C834.42 135.036 839.133 129.048 843.398 120.803L841.134 119.156C837.461 125.139 833.815 129.898 830.186 133.393C826.148 137.281 821.442 139.272 816.125 139.272C811.458 139.272 807.652 137.828 804.927 134.783L804.912 134.766L804.898 134.749C802.464 131.858 800.703 127.983 799.547 123.216L799.545 123.206C798.418 118.418 797.294 113.004 796.17 106.967L796.158 106.898L796.151 106.828C796.037 105.575 795.582 104.351 794.736 103.143L794.706 103.099L794.679 103.054C794.017 101.95 793.1 101.195 791.882 100.752L790.427 100.223L794.54 89.9422L794.94 89.683C801.993 85.1192 808.849 79.6497 815.507 73.2694L815.513 73.264L815.518 73.2587C822.319 66.8744 828.422 60.1474 833.828 53.0781C839.231 45.8738 843.51 38.7594 846.678 31.7357L846.683 31.7246L846.688 31.7136C849.982 24.714 851.585 18.3541 851.585 12.6123C851.585 10.0151 851.067 7.81561 850.082 5.96822L850.072 5.95081L850.063 5.93316C849.306 4.41801 847.628 3.40234 844.265 3.40234ZM767.757 129.493C769.853 127.043 771.702 124.097 773.294 120.635L771.978 119.685C771.277 121.097 770.495 122.41 769.63 123.62C768.989 125.585 768.365 127.543 767.757 129.493ZM715.976 106.375C715.159 107.592 714.322 108.924 713.466 110.372C711.814 113.401 710.228 116.641 708.71 120.092C707.342 123.375 706.249 126.725 705.429 130.142C704.611 133.552 704.21 136.653 704.21 139.452C704.21 142.066 704.665 144.099 705.48 145.632C706.261 146.874 707.586 147.612 709.85 147.612C711.99 147.612 714.802 146.407 718.355 143.537C721.71 140.803 724.901 137.728 727.927 134.31C723.861 130.399 720.858 126.146 718.963 121.543L718.96 121.536L718.958 121.529C717.212 117.165 716.229 112.105 715.976 106.375Z" fill="white"/>
<path d="M718.937 102.355L719.331 101.862L719.007 101.457C719.118 100.345 719.324 99.1639 719.631 97.913L716.269 99.3425C716.161 99.9755 716.077 100.596 716.017 101.205L718.934 102.41L718.937 102.355Z" fill="white"/>
<path d="M751.466 85.0894L751.478 85.106L751.49 85.1223C753.796 88.1966 754.97 91.8626 754.97 96.1923C754.97 101.107 753.64 106.71 750.895 113.024L750.889 113.037L750.884 113.05C750.582 113.78 750.273 114.506 749.957 115.227L752.73 116.373C753.044 115.656 753.351 114.935 753.651 114.21C756.502 107.649 757.97 101.634 757.97 96.1923C757.97 95.9462 757.967 95.7015 757.96 95.4583L753.903 83.3388L751.052 84.5509C751.197 84.7251 751.335 84.9046 751.466 85.0894Z" fill="white"/>
<path d="M747.429 88.4304C746.993 87.7522 746.478 87.1905 745.893 86.7447L741.876 88.4533C743.309 88.4785 744.25 89.0226 744.915 90.0677L744.932 90.0955L744.951 90.1225C745.657 91.1304 746.15 93.0475 746.15 96.1923C746.15 100.703 745.022 105.682 742.7 111.146C742.569 111.453 742.437 111.76 742.303 112.065L745.077 113.211C745.206 112.914 745.334 112.617 745.461 112.319C747.899 106.583 749.15 101.202 749.15 96.1923C749.15 92.9144 748.669 90.2226 747.429 88.4304Z" fill="white"/>
<path d="M735.58 129.975L736.707 128.331C739.946 123.608 742.736 118.567 745.077 113.211L742.303 112.065C740.335 116.561 738.042 120.823 735.424 124.85C734.184 122.871 733.135 120.351 732.306 117.249C731.395 113.341 730.931 110.047 730.884 107.347L727.889 106.11C727.883 106.372 727.88 106.636 727.88 106.902C727.88 109.997 728.394 113.688 729.39 117.953L729.395 117.976L729.401 117.999C730.555 122.327 732.172 125.837 734.312 128.436L735.58 129.975Z" fill="white"/>
<path d="M734.786 93.5152C735.863 92.0602 736.881 90.9645 737.835 90.1714L731.624 92.8127C729.225 96.5182 728.002 100.974 727.889 106.11L730.884 107.347C730.882 107.197 730.88 107.049 730.88 106.902C730.88 101.412 732.216 96.9842 734.786 93.5152Z" fill="white"/>
<path d="M741.77 85.4523C738.368 85.4523 735.248 87.8512 732.375 91.7295C732.113 92.0831 731.863 92.4442 731.624 92.8127L737.835 90.1714C739.296 88.9576 740.611 88.4523 741.77 88.4523C741.806 88.4523 741.841 88.4526 741.876 88.4533L745.893 86.7447C744.76 85.8813 743.364 85.4523 741.77 85.4523Z" fill="white"/>
<path fill-rule="evenodd" clip-rule="evenodd" d="M840.485 17.4123C836.399 17.4123 832.158 20.5014 827.792 25.711C823.356 30.864 818.819 37.8256 814.171 46.5576C809.526 55.2837 804.957 64.9855 800.463 75.6603L802.869 77.3383C811.452 69.3182 818.784 61.4946 824.858 53.8667C830.909 46.2687 835.517 39.5429 838.654 33.6966C840.28 30.7281 841.519 28.1656 842.355 26.0197C843.18 23.9044 843.665 22.0665 843.665 20.5923C843.665 19.8011 843.466 18.9322 842.806 18.2717C842.145 17.6112 841.276 17.4123 840.485 17.4123ZM840.485 20.4123C837.854 20.4123 834.396 22.5001 830.085 27.6457L830.078 27.6534L830.072 27.6611C825.83 32.5874 821.409 39.3433 816.819 47.9671C813.227 54.7166 809.674 62.0677 806.161 70.0216C812.388 63.8763 817.837 57.8683 822.512 51.998C828.5 44.4781 832.991 37.9057 836.013 32.2731L836.019 32.2619C837.612 29.353 838.787 26.9126 839.56 24.93C840.345 22.9153 840.665 21.4982 840.665 20.5923C840.665 20.5194 840.661 20.4634 840.655 20.422C840.614 20.4166 840.558 20.4123 840.485 20.4123Z" fill="white"/>
<path d="M18.8045 11.7659C20.3771 10.7325 22.134 9.79882 24.0784 8.96766L17.1611 9.25607C12.0107 12.5905 9.05103 17.4765 8.30122 23.775L8.06117 25.7914L10.059 25.4282C16.1818 24.3149 22.0908 23.4809 27.7864 22.9253L27.8043 22.9235L27.8223 22.9213C33.5273 22.2256 39.7966 21.6681 46.6317 21.2496C53.0308 20.8657 60.496 20.5987 69.0297 20.4494C66.3398 26.7215 63.4243 33.5012 60.2832 40.7886L60.2789 40.7987L60.2747 40.8088C56.9161 48.9253 53.3475 57.4621 49.5687 66.4193L49.5648 66.4285L49.561 66.4378C45.9159 75.4104 42.2712 84.7323 38.627 94.4034C34.9809 104.08 31.4751 113.896 28.1097 123.852L28.1067 123.861L28.1039 123.87C26.419 129.065 24.7348 134.538 23.0511 140.291L23.0476 140.303L23.0444 140.315C21.4827 145.994 20.6807 150.964 20.6807 155.202V155.224L20.6813 155.246C20.8306 160.323 22.4859 164.552 25.7279 167.801C29.1102 171.333 34.9643 172.872 42.7607 172.872H44.558L44.2365 171.104C43.9683 169.629 43.7669 168.424 43.6307 167.485V165.282C43.6307 161.006 43.9066 157.02 44.4545 153.322L44.4556 153.314C45.007 149.455 45.8358 145.237 46.9448 140.661C48.2029 135.908 49.7406 130.177 51.5579 123.467C56.3126 106.126 61.4871 88.575 67.0814 70.813C72.5644 53.4045 78.5845 36.6039 85.1415 20.4106C91.1735 20.3893 97.5167 20.1789 104.171 19.7797C111.263 19.3541 118.013 18.2894 124.417 16.5817L124.428 16.5788L124.439 16.5758C131.071 14.7016 136.613 11.7268 141.014 7.61893L143.796 5.02235H139.991C137.794 5.02235 134.049 4.88439 128.73 4.60441L104.482 5.61536C105.497 5.71521 106.503 5.81506 107.501 5.9149L107.508 5.91559C116.337 6.75638 123.36 7.31855 128.57 7.60015L128.572 7.60027C131.466 7.75258 133.914 7.86407 135.913 7.93409C132.47 10.4199 128.385 12.342 123.634 13.6858C117.441 15.3364 110.894 16.3708 103.991 16.785C97.0175 17.2034 90.3976 17.4123 84.1307 17.4123H83.1215L82.7413 18.3471C76.0053 34.9064 69.8316 52.0947 64.22 69.9117C58.6145 87.709 53.4292 105.297 48.6641 122.676L48.6629 122.68C46.8424 129.402 45.3016 135.145 44.0406 139.909L44.0366 139.924L44.0329 139.939C42.9042 144.595 42.0543 148.911 41.4864 152.886C40.9146 156.747 40.6307 160.88 40.6307 165.282V167.699L40.6458 167.804C40.7296 168.391 40.8371 169.071 40.968 169.842C34.4059 169.616 30.1826 168.123 27.8857 165.717L27.8737 165.704L27.8614 165.692C25.2357 163.066 23.8153 159.607 23.6807 155.18C23.6835 151.306 24.4206 146.627 25.9338 141.122C27.608 135.402 29.2817 129.963 30.9547 124.804C34.3084 114.883 37.8016 105.102 41.4344 95.4613C45.0689 85.8157 48.703 76.5206 52.3367 67.576C56.1148 58.6204 59.6834 50.0837 63.0425 41.9661C66.5412 33.8492 69.7601 26.3615 72.6994 19.5032L73.61 17.3785L71.2986 17.4125C61.7634 17.5527 53.4798 17.8333 46.4509 18.255L46.449 18.2551C39.5715 18.6762 33.247 19.238 27.477 19.9412C22.3533 20.4415 17.0675 21.1629 11.6199 22.1045C12.5992 17.6496 14.9869 14.2362 18.7956 11.7717L18.8045 11.7659Z" fill="white"/>
<path d="M65.4407 0.402344C54.8837 0.402344 45.4943 1.03556 37.2807 2.31008L128.73 4.60441C123.58 4.32602 116.605 3.76835 107.797 2.92945C103.595 2.50933 99.2544 2.08924 94.7738 1.66917C90.4032 1.24627 85.7571 0.964657 80.8362 0.823597C76.0495 0.542534 70.9174 0.402344 65.4407 0.402344Z" fill="white"/>
<path d="M37.7407 5.2746C45.7671 4.02913 54.9977 3.40234 65.4407 3.40234C70.8754 3.40234 75.9558 3.5417 80.6826 3.81975L80.7052 3.82108L80.7279 3.82172C85.598 3.96088 90.1839 4.23901 94.4862 4.65536L94.4907 4.65579C97.9026 4.97566 101.233 5.29552 104.482 5.61536L128.73 4.60441L37.2807 2.31008L17.1611 9.25607L24.0784 8.96766C27.9004 7.3339 32.4466 6.09611 37.7407 5.2746Z" fill="white"/>
<path d="M37.2807 2.31008C29.0304 3.59031 22.2967 5.88239 17.1611 9.25607L37.2807 2.31008Z" fill="white"/>
<path fill-rule="evenodd" clip-rule="evenodd" d="M161.445 21.4023C160.779 21.4023 160.199 21.7197 159.807 21.9773C159.367 22.2671 158.898 22.6647 158.41 23.1336C157.431 24.0755 156.229 25.4469 154.814 27.2153L154.809 27.2213C152.098 30.6453 148.914 35.3196 145.26 41.2228L145.254 41.2314C141.729 47.0138 138.139 53.5615 134.484 60.8715L134.478 60.8819L134.473 60.8924C130.946 68.2286 127.912 75.7072 125.372 83.328L123.606 88.6261L127.789 84.9258C131.516 81.6293 135.083 77.7016 138.495 73.1523C141.887 68.6299 144.997 63.9651 147.825 59.158C150.784 54.2262 153.326 49.496 155.449 44.9679C157.705 40.3146 159.479 36.1314 160.763 32.423C162.033 28.7536 162.787 25.802 162.941 23.6392L162.945 23.5858V21.4023H161.445ZM157.158 29.087C154.55 32.382 151.436 36.9451 147.813 42.7977C144.342 48.4915 140.794 54.9589 137.172 62.2027C134.637 67.477 132.361 72.8247 130.344 78.2458C132.301 76.1524 134.218 73.8551 136.095 71.3523C139.422 66.9164 142.471 62.343 145.242 57.6318L145.249 57.6206C148.167 52.7578 150.662 48.113 152.737 43.6857L152.741 43.6768L152.745 43.6679C154.968 39.0848 156.692 35.011 157.928 31.4417C158.61 29.4698 159.113 27.785 159.449 26.3755C158.794 27.095 158.031 27.9961 157.158 29.087Z" fill="white"/>
<path fill-rule="evenodd" clip-rule="evenodd" d="M252.405 84.8223C248.808 84.8223 245.164 86.1511 241.498 88.6402C237.87 90.9651 234.347 94.0649 230.923 97.9152C227.492 101.634 224.423 105.775 221.715 110.337C219.012 114.89 216.868 119.388 215.291 123.831L214.486 126.098L216.877 125.822C220.723 125.379 224.943 124.057 229.521 121.911C234.108 119.761 238.473 117.04 242.617 113.755C246.916 110.458 250.454 106.853 253.211 102.936L253.219 102.925L253.226 102.915C256.019 98.7986 257.475 94.5905 257.475 90.3123C257.475 88.7052 257.206 87.1124 256.195 86.1017C255.226 85.1328 253.836 84.8223 252.405 84.8223ZM252.405 87.8223C249.567 87.8223 246.497 88.8694 243.168 91.1327L243.151 91.1445L243.133 91.1557C239.771 93.3075 236.443 96.2203 233.156 99.9189L233.146 99.9294L233.137 99.9398C229.852 103.499 226.904 107.474 224.294 111.868C222.171 115.445 220.416 118.965 219.027 122.43C221.823 121.837 224.895 120.766 228.248 119.194C232.618 117.146 236.789 114.548 240.763 111.397L240.772 111.389L240.782 111.382C244.875 108.244 248.191 104.855 250.751 101.219C253.273 97.499 254.475 93.8708 254.475 90.3123C254.475 88.8395 254.183 88.3323 254.074 88.223C253.923 88.0719 253.494 87.8223 252.405 87.8223Z" fill="white"/>
<path d="M200.656 133.583C200.567 133.718 200.478 133.852 200.389 133.986L196.835 143.746C197.919 148.459 200.195 152.574 203.674 156.053C208.931 161.31 216.289 163.842 225.525 163.842C233.323 163.842 240.896 162.036 248.229 158.442C255.684 154.857 262.409 149.845 268.405 143.423C274.546 136.994 279.538 129.502 283.383 120.958L283.86 119.897L277.327 114.671L276.484 116.289C273.052 122.879 268.729 128.85 263.51 134.206L263.503 134.213L263.496 134.22C258.413 139.578 252.933 143.89 247.059 147.169C241.371 150.284 235.738 151.812 230.145 151.812C226.378 151.812 223.612 151.136 221.7 149.94C219.645 148.656 218.25 147.168 217.416 145.502C216.498 143.665 215.93 142.01 215.675 140.529C215.538 138.744 215.475 137.559 215.475 136.932V134.142C215.522 133.909 215.569 133.684 215.616 133.469C221.679 132.713 227.673 131.256 233.597 129.102L233.606 129.099L233.615 129.096C240.025 126.674 245.878 123.606 251.167 119.89C256.478 116.158 260.746 111.899 263.943 107.104C267.179 102.249 268.815 96.9919 268.815 91.3624C268.815 85.5128 267.05 81.1323 263.023 78.9318C259.586 76.8469 255.898 75.7923 251.985 75.7923C245.238 75.7923 238.538 77.7754 231.905 81.6687C225.314 85.5377 219.311 90.6154 213.895 96.8857C207.346 106.301 204.879 110.932 202.094 118.022L210.65 105.798C212.334 103.419 214.167 101.109 216.149 98.8656L216.154 98.8592L216.16 98.8528C221.382 92.8059 227.138 87.9457 233.424 84.256C239.671 80.5893 245.852 78.7923 251.985 78.7923C255.339 78.7923 258.501 79.6913 261.495 81.5136L261.527 81.5333L261.56 81.5513C264.229 82.9969 265.815 86.0282 265.815 91.3624C265.815 96.3728 264.37 101.055 261.447 105.44C258.483 109.886 254.491 113.887 249.442 117.435C244.374 120.997 238.75 123.948 232.564 126.286C226.515 128.485 220.404 129.925 214.229 130.612L213.192 130.727L212.939 131.739C212.793 132.326 212.647 132.98 212.504 133.698L212.475 133.844V136.932C212.475 137.697 212.549 139.011 212.689 140.827L212.694 140.894L212.705 140.959C213.016 142.822 213.704 144.786 214.733 146.843C215.86 149.096 217.684 150.968 220.11 152.484C222.677 154.089 226.071 154.812 230.145 154.812C236.31 154.812 242.436 153.122 248.505 149.798L248.516 149.792C254.677 146.353 260.393 141.849 265.666 136.292C270.658 131.167 274.865 125.496 278.286 119.28L280.163 120.782C276.519 128.596 271.873 135.451 266.23 141.356L266.224 141.362L266.218 141.369C260.457 147.542 254.026 152.327 246.925 155.74L246.914 155.745C239.969 159.15 232.844 160.842 225.525 160.842C216.841 160.842 210.338 158.475 205.795 153.932C202.168 150.304 200.005 145.9 199.327 140.654L200.656 133.583Z" fill="white"/>
</svg>
