<?xml version="1.0" encoding="utf-8"?>
<!-- Generator: Adobe Illustrator 26.3.1, SVG Export Plug-In . SVG Version: 6.00 Build 0)  -->
<svg version="1.1" id="Layer_1" xmlns="http://www.w3.org/2000/svg" xmlns:xlink="http://www.w3.org/1999/xlink" x="0px" y="0px"
	 viewBox="0 0 489 124.5" style="enable-background:new 0 0 489 124.5;" xml:space="preserve">
<style type="text/css">
	.st0{fill:#FFFFFF;}
	.st1{fill:#00468B;}
	.st2{fill:#004E95;}
	.st3{fill:none;stroke:#B3B3B3;stroke-width:0.2541;}
	.st4{fill:#EA8D3A;}
	.st5{fill:#666666;}
	.st6{fill:#FFFFFF;stroke:#000000;stroke-width:0.5;stroke-miterlimit:10;}
	.st7{fill:#002F87;}
</style>
<g>
	<g>
		<g>
			<path class="st0" d="M23.5,26.9h15.8V32h-9.3v12.7h7.2v5.1h-7.2v14.6h9.6v5.1h-16V26.9z"/>
			<path class="st0" d="M51.1,48l-7.8-21.1h6.9l4,13.6h0.2l4-13.6h6.7L57.3,48l7.8,21.4h-6.6l-4-13.7H54l-4.2,13.7h-6.4L51.1,48z"/>
			<path class="st0" d="M76.7,69.8c-0.7,0-1.4-0.1-2.2-0.2c-0.8-0.1-1.5-0.3-2.3-0.7c-0.8-0.3-1.5-0.8-2.2-1.5
				c-0.7-0.6-1.3-1.5-1.9-2.5c-0.5-1-1-2.3-1.3-3.9c-0.3-1.5-0.5-3.4-0.5-5.5V40.5c0-2.1,0.2-4,0.5-5.5c0.3-1.5,0.8-2.8,1.3-3.8
				c0.5-1,1.2-1.9,1.9-2.5c0.7-0.6,1.5-1.1,2.2-1.4c0.8-0.3,1.5-0.5,2.3-0.6c0.8-0.1,1.5-0.1,2.1-0.1c1.7,0,3.1,0.2,4.2,0.7
				c1.1,0.5,2.1,1.1,2.7,1.9c0.7,0.8,1.2,1.8,1.5,2.9c0.3,1.1,0.4,2.3,0.4,3.5c0,0.9,0,1.8-0.1,2.5c-0.1,0.8-0.2,1.6-0.4,2.6h-5.2
				v-2.2c0-2.3-0.3-4.1-0.8-5.3c-0.5-1.2-1.3-1.7-2.3-1.7c-0.6,0-1.1,0.1-1.6,0.3C74.7,32,74.3,32.4,74,33c-0.3,0.6-0.5,1.3-0.7,2.2
				c-0.2,0.9-0.2,2.1-0.2,3.4V58c0,1.3,0.1,2.4,0.2,3.3c0.1,0.9,0.3,1.6,0.6,2.1c0.3,0.5,0.7,0.9,1.1,1.1c0.5,0.2,1,0.3,1.7,0.3
				c0.4,0,0.8-0.1,1.2-0.3c0.4-0.2,0.7-0.5,1-0.9c0.3-0.4,0.5-0.9,0.7-1.5c0.2-0.6,0.3-1.4,0.3-2.2v-4.2h5.9v3.9
				c0,3.4-0.8,5.9-2.3,7.6C81.8,68.9,79.6,69.8,76.7,69.8z"/>
			<path class="st0" d="M90.8,26.9h15.8V32h-9.3v12.7h7.2v5.1h-7.2v14.6h9.6v5.1h-16V26.9z"/>
			<path class="st0" d="M111.5,26.9h6.5v37.5h8.8v5.1h-15.2V26.9z"/>
			<path class="st0" d="M130.8,26.9h6.5v37.5h8.8v5.1h-15.2V26.9z"/>
			<path class="st0" d="M150.2,26.9h15.8V32h-9.3v12.7h7.2v5.1h-7.2v14.6h9.6v5.1h-16V26.9z"/>
			<path class="st0" d="M170.8,26.9h5.2l10.3,28.5h0.1c0-0.7-0.1-1.4-0.2-2.2c-0.1-0.8-0.2-1.7-0.2-2.8c-0.1-1-0.1-2.2-0.2-3.5
				c0-1.3-0.1-2.8-0.1-4.4V26.9h5.8v42.5h-5.3l-10.3-27.7h-0.2c0,0.7,0.1,1.6,0.2,2.4c0.1,0.9,0.2,1.9,0.2,3.1
				c0.1,1.2,0.1,2.6,0.2,4.1c0,1.6,0.1,3.4,0.1,5.6v12.5h-5.7V26.9z"/>
			<path class="st0" d="M207,69.8c-0.7,0-1.4-0.1-2.2-0.2c-0.8-0.1-1.5-0.3-2.3-0.7c-0.8-0.3-1.5-0.8-2.2-1.5
				c-0.7-0.6-1.3-1.5-1.9-2.5c-0.5-1-1-2.3-1.3-3.9c-0.3-1.5-0.5-3.4-0.5-5.5V40.5c0-2.1,0.2-4,0.5-5.5c0.3-1.5,0.8-2.8,1.3-3.8
				c0.5-1,1.2-1.9,1.9-2.5c0.7-0.6,1.5-1.1,2.2-1.4c0.8-0.3,1.5-0.5,2.3-0.6c0.8-0.1,1.5-0.1,2.1-0.1c1.7,0,3.1,0.2,4.2,0.7
				c1.1,0.5,2.1,1.1,2.7,1.9c0.7,0.8,1.2,1.8,1.5,2.9c0.3,1.1,0.4,2.3,0.4,3.5c0,0.9,0,1.8-0.1,2.5c-0.1,0.8-0.2,1.6-0.4,2.6h-5.2
				v-2.2c0-2.3-0.3-4.1-0.8-5.3c-0.5-1.2-1.3-1.7-2.3-1.7c-0.6,0-1.1,0.1-1.6,0.3c-0.4,0.2-0.8,0.6-1.1,1.2
				c-0.3,0.6-0.5,1.3-0.7,2.2c-0.2,0.9-0.2,2.1-0.2,3.4V58c0,1.3,0.1,2.4,0.2,3.3c0.1,0.9,0.3,1.6,0.6,2.1c0.3,0.5,0.7,0.9,1.1,1.1
				c0.5,0.2,1,0.3,1.7,0.3c0.4,0,0.8-0.1,1.2-0.3c0.4-0.2,0.7-0.5,1-0.9c0.3-0.4,0.5-0.9,0.7-1.5c0.2-0.6,0.3-1.4,0.3-2.2v-4.2h5.9
				v3.9c0,3.4-0.8,5.9-2.3,7.6C212.2,68.9,210,69.8,207,69.8z"/>
			<path class="st0" d="M220.2,26.9h15.8V32h-9.3v12.7h7.2v5.1h-7.2v14.6h9.6v5.1h-16V26.9z"/>
		</g>
		<g>
			<path class="st0" d="M253.2,26.3h8.6l4.2,16.9c0.4,1.9,0.8,3.7,1,5.3c0.3,1.7,0.5,3.3,0.7,4.8h0.2c0.2-1.5,0.5-3.1,0.7-4.8
				c0.3-1.7,0.6-3.5,1-5.3l4.3-16.9h8.5V70h-6.2V55.5c0-2.2,0-4.3,0.1-6.4c0-2,0.1-3.9,0.2-5.6c0.1-1.7,0.1-3.2,0.2-4.5
				c0.1-1.3,0.2-2.3,0.2-3.1h-0.5L270,64.3h-4.2l-6.6-28.5h-0.5c0.1,0.8,0.1,1.8,0.2,3.1c0.1,1.3,0.2,2.8,0.2,4.5
				c0.1,1.7,0.1,3.6,0.2,5.6c0,2,0.1,4.2,0.1,6.4V70h-6.2V26.3z"/>
			<path class="st0" d="M294.8,26.3h7.6l8.1,43.6h-6.7l-1.2-7.8h-8l-1.1,7.8h-6.7L294.8,26.3z M301.9,57.2l-3.1-21.7h-0.3l-3.1,21.7
				H301.9z"/>
			<path class="st0" d="M314.7,26.3h6.9c1,0,2.1,0,3.2,0.1c1.1,0.1,2.2,0.2,3.3,0.5c1.1,0.3,2.1,0.8,3,1.4c0.9,0.6,1.8,1.5,2.5,2.7
				c0.7,1.1,1.3,2.6,1.7,4.3c0.4,1.7,0.6,3.9,0.6,6.4v12.7c0,2.5-0.2,4.7-0.6,6.4c-0.4,1.8-1,3.2-1.7,4.3c-0.7,1.1-1.5,2-2.5,2.7
				c-0.9,0.6-1.9,1.1-3,1.4c-1.1,0.3-2.2,0.5-3.3,0.5c-1.1,0.1-2.2,0.1-3.2,0.1h-6.9V26.3z M323,65.3c1.2,0,2.2-0.2,2.9-0.5
				c0.8-0.3,1.4-0.8,1.8-1.6c0.5-0.8,0.8-1.8,0.9-3.2c0.2-1.3,0.3-3,0.3-5.1V41.5c0-2-0.1-3.7-0.3-5.1c-0.2-1.3-0.5-2.4-0.9-3.2
				c-0.5-0.8-1.1-1.3-1.8-1.6c-0.8-0.3-1.8-0.5-2.9-0.5h-1.7v34.2H323z"/>
			<path class="st0" d="M340.8,26.3H357v5.2h-9.6v13h7.4v5.2h-7.4v14.9h9.8V70h-16.4V26.3z"/>
			<path class="st0" d="M373.2,26.3h6.6v18.3h7.8V26.3h6.6V70h-6.6V49.8h-7.8V70h-6.6V26.3z"/>
			<path class="st0" d="M401.7,26.3h16.2v5.2h-9.6v13h7.4v5.2h-7.4v14.9h9.8V70h-16.4V26.3z"/>
			<path class="st0" d="M422.9,26.3h7.2c0.8,0,1.7,0,2.7,0.1c1,0.1,2,0.2,2.9,0.5c1,0.3,1.9,0.7,2.8,1.2c0.9,0.5,1.7,1.3,2.4,2.2
				c0.7,0.9,1.3,2.1,1.7,3.5c0.4,1.4,0.6,3.1,0.6,5v1.1c0,3.3-0.5,6-1.4,8.1c-1,2.1-2.4,3.6-4.2,4.5l7,17.4h-7l-5.8-16.3h-2.5V70
				h-6.5V26.3z M430.4,48.9c1.2,0,2.1-0.1,2.9-0.4c0.8-0.3,1.4-0.7,1.9-1.3c0.5-0.6,0.9-1.4,1.1-2.4c0.2-1,0.3-2.2,0.3-3.7v-3.4
				c0-1.1-0.1-2.1-0.3-2.9c-0.2-0.8-0.5-1.5-1-2c-0.5-0.5-1.1-0.9-1.9-1.2c-0.8-0.3-1.8-0.4-3-0.4h-1v17.7H430.4z"/>
			<path class="st0" d="M449.7,26.3h16.2v5.2h-9.6v13h7.4v5.2h-7.4v14.9h9.8V70h-16.4V26.3z"/>
		</g>
	</g>
	<g>
		<rect x="372.3" y="90.4" class="st0" width="86.8" height="2.8"/>
		<rect x="30.4" y="90.4" class="st0" width="86.8" height="2.8"/>
		<g>
			<path class="st0" d="M150,85.8c0-1.5-0.1-2.9-0.7-3.7S147,81,146.4,81c-2.7,0-3.8,1.6-3.9,2c-0.1,0.3-0.7,0.9-0.7,5.3v6.8
				c0,6.3,2.1,7,4.6,7c1,0,4-0.4,4-5.3h3.4c0.1,8.1-5.6,8.1-7.2,8.1c-3.2,0-8.1-0.2-8.1-10.1v-7.2c0-7.2,3.2-9.3,8.2-9.3
				c5.1,0,7,2.6,6.7,7.6H150z"/>
			<path class="st0" d="M162.8,104.3h-3.3V78.8h3.3V104.3z"/>
			<path class="st0" d="M183.3,78.8v2.8h-6.7v22.7h-3.3V81.6h-6.7v-2.8H183.3z"/>
			<path class="st0" d="M198.6,78.8h3.3l-7,15.8v9.7h-3.3v-9.7l-6.9-15.8h3.6l5,12.4L198.6,78.8z"/>
			<path class="st0" d="M239.7,92.6v11.8h-3.3V78.8h8.8c4.5,0,6.1,3.2,6.1,6.4c0,3-1.7,5.3-4.7,5.8v0.1c2.9,0.5,4,1.5,4.2,6.6
				c0,1.1,0.4,5.1,0.9,6.7h-3.4c-0.9-1.8-0.7-5.1-1-8.5c-0.2-3.1-2.8-3.3-3.9-3.3H239.7z M239.7,89.7h4.9c2.3,0,3.5-2,3.5-4.2
				c0-1.8-0.9-3.9-3.4-3.9h-4.9V89.7z"/>
			<path class="st0" d="M256.1,78.8h3.3v16.4c0,5.6,1.7,7,4.8,7c3.1,0,4.8-1.4,4.8-7V78.8h3.3V95c0,7.1-2.6,9.9-8,9.9
				c-5.4,0-8-2.8-8-9.9V78.8z"/>
			<path class="st0" d="M279.6,96.7v0.7c0,3.5,2.2,4.6,4.3,4.6c2.6,0,4.6-1.1,4.6-4.1c0-5.7-11.5-5-11.5-12.7c0-4.5,3.2-6.9,7.5-6.9
				c4.7,0,7.3,2.3,7.1,7.5h-3.4c0-2.8-0.8-4.6-3.9-4.6c-1.9,0-3.9,1-3.9,3.8c0,5.6,11.5,4.8,11.5,12.9c0,5.4-3.7,7.1-7.9,7.1
				c-7.5,0.1-7.5-5.7-7.5-8.1H279.6z"/>
			<path class="st0" d="M311.1,78.8v2.8h-6.7v22.7h-3.3V81.6h-6.7v-2.8H311.1z"/>
			<path class="st0" d="M313.7,95v-8.4c0-5.1,2.6-8.4,8-8.4s8,3.3,8,8.4V95c0,7.1-2.6,9.9-8,9.9S313.7,102.1,313.7,95z M326.4,95.1
				v-8.6c0-5.3-3.7-5.5-4.7-5.5c-1,0-4.7,0.2-4.7,5.5v8.6c0,5.6,1.6,7,4.7,7S326.4,100.7,326.4,95.1z"/>
			<path class="st0" d="M352.4,78.8v25.6h-4.5l-10.1-22.2h-0.1v22.2h-2.9V78.8h4.6l9.9,21.9h0.1V78.8H352.4z"/>
		</g>
		<g>
			<g>
				<path class="st0" d="M209,94.4v-4.6c0-2.8,1.4-4.6,4.4-4.6c3,0,4.4,1.8,4.4,4.6v4.6c0,3.9-1.4,5.4-4.4,5.4
					C210.4,99.8,209,98.3,209,94.4z M216,94.5v-4.7c0-2.9-2-3-2.6-3c-0.6,0-2.6,0.1-2.6,3v4.7c0,3.1,0.9,3.8,2.6,3.8
					S216,97.5,216,94.5z"/>
				<path class="st0" d="M220.7,99.5V85.6h6.9v1.5h-5.1v4.5h4.9v1.5h-4.9v6.4H220.7z"/>
			</g>
		</g>
	</g>
</g>
</svg>
