<?xml version="1.0" encoding="UTF-8" standalone="yes"?>
<svg xmlns:dc="http://purl.org/dc/elements/1.1/" xmlns:cc="http://creativecommons.org/ns#" xmlns:rdf="http://www.w3.org/1999/02/22-rdf-syntax-ns#" xmlns:svg="http://www.w3.org/2000/svg" xmlns="http://www.w3.org/2000/svg" xmlns:sodipodi="http://sodipodi.sourceforge.net/DTD/sodipodi-0.dtd" xmlns:inkscape="http://www.inkscape.org/namespaces/inkscape" width="733.2677" height="800" id="svg3205" version="1.1" inkscape:version="0.48.4 r9939" sodipodi:docname="Sabal leaf by Rones.svg">
  <defs id="defs3207"/>
  <sodipodi:namedview id="base" pagecolor="#ffffff" bordercolor="#666666" borderopacity="1.0" inkscape:pageopacity="0.0" inkscape:pageshadow="2" inkscape:zoom="0.35" inkscape:cx="204.29463" inkscape:cy="871.25653" inkscape:document-units="px" inkscape:current-layer="layer1" showgrid="false" fit-margin-top="0" fit-margin-left="0" fit-margin-right="0" fit-margin-bottom="0" inkscape:window-width="1920" inkscape:window-height="1018" inkscape:window-x="-8" inkscape:window-y="-8" inkscape:window-maximized="1"/>
  <metadata id="metadata3210">
    <rdf:RDF>
      <cc:Work rdf:about="">
        <dc:format>image/svg+xml</dc:format>
        <dc:type rdf:resource="http://purl.org/dc/dcmitype/StillImage"/>
        <dc:title/>
      </cc:Work>
    </rdf:RDF>
  </metadata>
  <g inkscape:label="Layer 1" inkscape:groupmode="layer" id="layer1" transform="translate(423.58035,-603.6187)">
    <g id="g3416" transform="matrix(0.45910703,0,0,0.45910703,-229.11163,759.20749)">
      <path sodipodi:nodetypes="ccccc" style="fill:#1b320d;fill-opacity:1;stroke:none" d="m 391.39962,1403.6187 0,-548.18717 -32.79922,0 0,548.18717 z" id="path4004" inkscape:connector-curvature="0"/>
      <path sodipodi:nodetypes="ccc" inkscape:connector-curvature="0" id="path4010" d="M 375.00001,865.34763 C 310.89076,997.93183 186.52379,1138.8472 84.28572,1256.9062 169.96932,1138.0559 275.96731,1003.0094 329.82317,898.30473" style="fill:none;stroke:none"/>
      <path sodipodi:nodetypes="ccc" inkscape:connector-curvature="0" id="path4024" d="M 375.00001,865.34763 C 233.78713,1041.1034 54.85255,1131.5997 -74.04632,1203.6085 68.23686,1095.2359 232.8341,947.89143 375.00001,865.34763 z" style="fill:none;stroke:none"/>
      <path sodipodi:nodetypes="ccccc" inkscape:connector-curvature="0" id="path4026" d="m 375.00001,865.34763 0,0 C 233.68966,948.05663 67.32675,1095.9031 -73.7991,1203.4101 90.35029,1107.4933 245.70679,978.10643 375.00001,865.34763 c 1.17554,-1.4367 -1.1706,1.4495 0,0 z" style="fill:none;stroke:none"/>
      <path sodipodi:nodetypes="cscsc" inkscape:connector-curvature="0" id="path4031" d="m 375.00001,865.34763 c -56.89176,61.2814 -140.43305,114.5088 -233.56252,148.86097 -124.24969,45.8313 -311.39118,97.02 -398.32142,109.0928 38.88295,-9.3513 77.95129,-20.1096 115.02721,-36.7027 183.9448,-82.3232 337.26207,-157.20637 516.85673,-221.25107 z" style="fill:none;stroke:none"/>
      <path sodipodi:nodetypes="cscsc" inkscape:connector-curvature="0" id="path4033" d="m 375.00001,865.34763 c -179.05736,63.9013 -333.33516,139.11397 -516.86161,221.24997 -37.03619,16.5753 -76.06457,27.3432 -114.90625,36.6875 115.01368,-22.1048 267.62173,-74.1365 407.6875,-136.06247 78.95908,-34.9095 147.19356,-82.7544 224.08036,-121.875 z" style="fill:none;stroke:none"/>
      <path sodipodi:nodetypes="ccc" inkscape:connector-curvature="0" id="path4038" d="m 375.00001,865.34763 c -168.21067,106.078 -478.9607,117.0364 -747.04134,137.74557 348.23552,-79.13297 517.16788,-107.40567 747.04134,-137.74557 z" style="fill:none;stroke:none"/>
      <path sodipodi:nodetypes="cccc" inkscape:connector-curvature="0" id="path4040" d="m 375.00001,865.34763 c -226.72418,29.8587 -401.67399,59.2833 -746.51786,137.62497 l 0.0625,0.062 C 30.80589,957.32233 225.35257,909.07953 375.00001,865.34713 z" style="fill:none;stroke:none"/>
      <path sodipodi:nodetypes="ccc" inkscape:connector-curvature="0" id="path4045" d="m -396.42856,852.62053 c 300.32265,-12.9002 610.69517,-5.455 771.42857,12.7271 -222.27622,72.0078 -451.0904,30.6088 -771.42857,-12.7271 z" style="fill:none;stroke:none"/>
      <path sodipodi:nodetypes="sccs" inkscape:connector-curvature="0" id="path4047" d="m -199.58035,848.37893 c -64.98584,0.1111 -131.14817,1.428 -196.84375,4.25 357.60361,32.2051 592.82417,22.5246 771.42411,12.7187 -127.18443,-13.7493 -350.18486,-17.3526 -574.58036,-16.9687 z" style="fill:none;stroke:none"/>
      <path sodipodi:nodetypes="ccc" inkscape:connector-curvature="0" id="path4052" d="m 375.00001,865.34763 c -261.72545,30.9695 -527.15349,-77.6884 -798.57143,-178.4414 287.23394,51.0274 580.84014,117.4594 798.57143,178.4414 z" style="fill:none;stroke:none"/>
      <path sodipodi:nodetypes="ccccc" inkscape:connector-curvature="0" id="path4054" d="m -423.58035,686.91013 c 267.36079,91.4288 565.21652,148.2325 798.58036,178.4375 1.24577,-0.137 -1.2456,0.1437 0,0 -0.23433,-0.1377 0.52442,0.3079 0,0 -217.25616,-60.759 -513.3646,-127.7686 -798.58036,-178.4375 z" style="fill:none;stroke:none"/>
      <path sodipodi:nodetypes="ccc" inkscape:connector-curvature="0" id="path4059" d="m 375.00001,865.34763 c -259.17835,-11.2121 -520.52689,-165.5479 -791.42857,-332.7271 276.39175,94.8615 550.02103,214.2176 791.42857,332.7271 z" style="fill:none;stroke:none"/>
      <path sodipodi:nodetypes="cccc" inkscape:connector-curvature="0" id="path4061" d="m -416.1116,532.81643 c 262.33003,146.9019 547.06535,256.7274 791.11161,332.5312 -240.917,-118.2427 -515.10395,-237.8277 -790.79911,-332.5 z" style="fill:none;stroke:none"/>
      <path sodipodi:nodetypes="ccsc" inkscape:connector-curvature="0" id="path4066" d="m 375.00001,865.34763 c -131.82048,-27.6574 -585.97233,-252.479 -790,-515.5842 20.27517,18.9195 45.31964,40.704 76.47934,59.6047 247.78172,150.2982 493.45021,307.1439 713.52066,455.9795 z" style="fill:none;stroke:none"/>
      <path sodipodi:nodetypes="ccccscc" inkscape:connector-curvature="0" id="path4068" d="m -412.76785,351.81643 c 168.88454,179.6606 506.06391,352.8605 787.76786,513.5312 1.45406,0.4567 -1.39944,-0.4228 0,0 l 0,0 c -219.36735,-148.3527 -466.75733,-306.29 -713.51786,-455.9688 -30.04204,-18.2227 -54.33928,-39.1305 -74.21875,-57.5624 -0.006,-0.01 -0.0257,0.01 -0.0312,0 z" style="fill:none;stroke:none"/>
      <path sodipodi:nodetypes="ccc" inkscape:connector-curvature="0" id="path4073" d="M 375.00001,865.34763 C 73.89706,713.38193 -147.59328,514.24753 -378.10224,229.82143 -197.5366,369.88073 97.96069,621.24253 375.00001,865.34763 z" style="fill:none;stroke:none"/>
      <path sodipodi:nodetypes="cccccc" inkscape:connector-curvature="0" id="path4075" d="m -375.83035,232.62883 c 0.02,0.022 0.0425,0.041 0.0625,0.063 223.00302,241.8163 480.77597,438.8738 750.76786,632.6562 1.47131,0.7472 -1.47519,-0.7445 0,0 -274.95455,-242.2681 -568.06084,-491.5056 -748.95536,-632.2812 -0.0132,0 -1.875,-0.4376 -1.875,-0.4376 z" style="fill:none;stroke:none"/>
      <path sodipodi:nodetypes="cscsc" inkscape:connector-curvature="0" id="path4080" d="M 375.00001,865.34763 C 165.29434,680.87013 28.94831,620.88923 -282.1336,191.05833 c -28.32464,-39.137 -44.45564,-83.0766 -58.58068,-124.152097 22.27246,52.857097 76.93744,106.533997 131.42857,158.571397 227.41637,217.1759 393.40368,423.5212 584.28572,639.87 z" style="fill:none;stroke:none"/>
      <path sodipodi:nodetypes="cscccsc" inkscape:connector-curvature="0" id="path4084" d="m -340.70535,66.910133 c 13.19217,32.3196 28.84295,72.909997 60.03125,109.437497 169.09344,198.0409 417.05103,471.4297 617.78125,666.0625 11.54772,9.8671 25.91011,12.4125 37.89286,22.9375 2e-5,0 -2e-5,0.01 0,0 C 184.86237,649.66953 17.41759,441.98033 -209.2991,225.47263 -263.79023,173.43523 -318.4329,119.76723 -340.70535,66.910133 z" style="fill:none;stroke:none"/>
      <path sodipodi:nodetypes="cscssc" inkscape:connector-curvature="0" id="path4089" d="M 375.00001,865.34763 C 197.17322,657.69863 22.3776,519.50263 -166.42856,188.33483 -233.94733,69.906233 -241.05668,27.411233 -254.99999,-17.379467 c 28.12664,45.6877 57.27397,81.8578 108.57143,147.142897 85.69017,109.056 187.55271,256.0673 282.85714,389.2857 97.57777,136.3961 162.29822,230.9078 238.57143,346.2985 z" style="fill:none;stroke:none"/>
      <path sodipodi:nodetypes="cssscssc" inkscape:connector-curvature="0" id="path4098" d="m -74.04632,-201.51367 c 13.4687,67.3435 20.26155,136.374203 40.4061,202.03050262 C 0.92363,113.16943 42.81662,223.69543 89.59839,331.84683 c 47.28899,109.324 103.30165,214.716 158.59395,320.2184 39.68623,75.7247 84.72841,138.8609 126.80767,213.2824 -50.4972,-144.7954 -95.0858,-282.0335 -152.06149,-424.4043 C 167.00725,301.18233 99.22589,166.45513 36.0603,29.811233 0.22739,-47.704867 -37.34411,-124.40537 -74.04632,-201.51367 z" style="fill:none;stroke:none"/>
      <path sodipodi:nodetypes="cscssc" inkscape:connector-curvature="0" id="path4102" d="m -254.9866,-17.371167 c 23.53355,47.4672 37.91945,84.1486 81.9375,149.218797 183.1621,270.7616 345.90122,479.7854 548.04911,733.5 C 302.3212,754.89783 230.37924,650.37363 136.41965,519.03513 41.11522,385.81673 -60.73393,238.80993 -146.4241,129.75383 -197.72156,64.468733 -226.85996,28.316533 -254.9866,-17.371167 z" style="fill:none;stroke:none"/>
      <path sodipodi:nodetypes="cscssc" inkscape:connector-curvature="0" id="path4091" d="M 375.00001,865.34763 C 264.34297,705.12983 167.65829,593.70523 68.08123,426.37583 -36.81335,250.11073 -120.28583,72.399333 -172.03112,-109.58977 c 24.24366,36.028803 50.25588,70.928603 72.73098,108.0863026 C -29.47996,113.92913 42.73314,228.20373 104.75068,348.00933 c 93.94357,181.4803 181.55931,349.3062 270.24933,517.3383 z" style="fill:none;stroke:none"/>
      <path sodipodi:nodetypes="csscccssc" inkscape:connector-curvature="0" id="path4093" d="m -171.70535,-109.12117 c 48.04556,100.1858026 93.42301,201.694503 144.125,300.5626 42.50332,82.8806 88.19316,164.128 135.375,244.4374 82.95059,141.1926 182.15445,289.5301 267.20536,429.4688 3.40934,4.8918 -3.43545,-4.9654 0,0 0.008,-0.037 -0.0122,0.054 0,0 C 287.04965,698.54943 197.93967,528.00193 104.7634,348.00383 42.74586,228.19833 -29.47892,113.93653 -99.2991,-1.4961674 -121.67702,-38.493167 -147.55138,-73.257767 -171.70535,-109.12117 z" style="fill:none;stroke:none"/>
      <path sodipodi:nodetypes="cssscssc" inkscape:connector-curvature="0" id="path4107" d="m -73.8616,-201.12117 c 19.13069,57.1114 36.84959,114.730103 57.40625,171.343803 31.24635,86.0534 62.78572,172.042197 97.96875,256.562497 41.88455,100.6194 87.88507,199.5001 133.125,298.6563 49.58709,108.684 109.87656,231.6359 160.36161,339.9062 C 328.04232,728.62443 276.65591,575.13943 222.9509,440.94143 167.01963,301.18043 99.24149,166.46033 36.0759,29.816433 0.30554,-47.564367 -37.22044,-124.14887 -73.8616,-201.12117 z" style="fill:none;stroke:none"/>
      <path sodipodi:nodetypes="cscssssc" inkscape:connector-curvature="0" id="path4112" d="M 375.00001,865.34763 C 314.21132,707.25873 248.50698,560.42953 192.63395,400.53723 114.6569,177.38963 31.34488,-24.666667 31.00954,-270.20407 c 9.42809,29.2944 19.13981,58.4991 28.28427,87.8833 16.11002,51.7669 30.46034,104.087603 47.47717,155.563503 23.39708,70.7762 50.24907,140.377197 73.74114,211.121897 35.43814,106.7194 72.5465,212.9912 103.03556,321.2285 34.37713,122.0401 60.96822,236.6843 91.45233,359.7545 z" style="fill:none;stroke:none"/>
      <path sodipodi:nodetypes="csccssssc" inkscape:connector-curvature="0" id="path4118" d="m 31.0134,-270.21487 c 8.9867,115.7439 36.52853,224.492403 70.40625,334.968703 82.71622,269.740197 184.77959,532.767897 273.58036,800.593797 1.06902,2.7714 -1.06608,-2.7725 0,0 -30.48411,-123.0702 -57.07823,-237.7099 -91.45536,-359.75 C 253.05559,397.36033 215.95154,291.09823 180.5134,184.37883 157.02133,113.63413 130.16048,44.030133 106.7634,-26.746167 89.74657,-78.222067 75.40467,-130.54167 59.29465,-182.30857 c -9.14446,-29.3843 -18.85316,-58.6119 -28.28125,-87.9063 z" style="fill:none;stroke:none"/>
      <path sodipodi:nodetypes="cssscsssc" inkscape:connector-curvature="0" id="path4123" d="m 121.41819,-319.19647 c -5.62769,77.9058 0.19699,177.4644 18.18275,278.802103 13.67602,77.0552 26.00251,154.412997 42.92598,230.820697 22.65802,102.2986 47.43947,204.1894 75.76694,305.0653 35.85354,127.6767 77.8041,243.0749 116.70615,369.856 -18.02556,-133.1787 -30.72619,-256.7 -54.07669,-389.0489 -20.9787,-118.9058 -51.38364,-235.9631 -78.7919,-353.5534 C 227.78294,61.185733 212.31957,-0.12646738 195.66441,-61.102467 172.07665,-147.45937 146.16693,-233.16517 121.41819,-319.19647 z" style="fill:none;stroke:none"/>
      <path sodipodi:nodetypes="cccsccsssc" inkscape:connector-curvature="0" id="path4125" d="m 121.6384,-318.40237 -0.3125,0.6875 c -0.004,0.052 -0.0276,0.1038 -0.0312,0.1563 19.55709,152.7178 53.20693,302.784903 84.46875,453.4374 51.08183,246.1665 111.75315,484.742 169.23661,729.4688 0.48662,1.5826 -0.48569,-1.5829 0,0 C 356.9745,732.16893 344.2702,608.63403 320.9197,476.28513 299.941,357.37933 269.54671,240.34413 242.13845,122.75383 227.78997,61.194233 212.32486,-0.11386738 195.6697,-61.089867 172.1532,-147.18587 146.31939,-232.63297 121.63845,-318.40237 z" style="fill:none;stroke:none"/>
      <path sodipodi:nodetypes="csssscsssc" inkscape:connector-curvature="0" id="path4130" d="m 236.07051,-338.89437 c -2.69374,70.3739 -10.49784,140.7378 -8.08122,211.1218 2.98238,86.861703 14.18923,173.279803 24.24366,259.6092 9.48059,81.4023 21.82565,162.4562 34.34519,243.4468 14.7566,95.4625 30.12965,190.8474 47.47716,285.8732 12.96225,71.0043 26.46586,133.4803 40.94471,204.191 -0.83062,-74.4146 4.26992,-141.0061 0,-215.3027 -7.52235,-130.8889 -16.59684,-261.8474 -32.86348,-391.9392 -18.95659,-151.6046 -46.00494,-302.118797 -72.73099,-452.5483 -8.64414,-48.6542 -22.22335,-96.3012 -33.33503,-144.4518 z" style="fill:none;stroke:none"/>
      <path sodipodi:nodetypes="cccsssc" inkscape:connector-curvature="0" id="path4132" d="m 236.10715,-338.74617 c 36.76384,390.865803 86.55443,780.5139 132.71875,1170.4063 2.92526,13.8673 3.33134,19.8042 6.17411,33.6875 -0.83062,-74.4146 4.28331,-141.0159 0.0134,-215.3125 -7.52235,-130.8889 -16.60836,-261.8457 -32.875,-391.9375 -18.95659,-151.6046 -45.9927,-302.101697 -72.71875,-452.5312 -8.63486,-48.602 -22.20747,-96.2147 -33.3125,-144.3126 z" style="fill:none;stroke:none"/>
      <path inkscape:transform-center-y="-310.24779" inkscape:transform-center-x="145.10461" style="fill:#213e10;fill-opacity:1;stroke:none" d="M 375.00001,865.34763 C 310.89076,997.93183 186.52379,1138.8472 84.28572,1256.9062 169.96932,1138.0559 275.96731,1003.0094 329.82317,898.30473" id="path4144" inkscape:connector-curvature="0" sodipodi:nodetypes="ccc"/>
      <path inkscape:transform-center-y="-336.39157" inkscape:transform-center-x="225.04501" style="fill:#213e10;fill-opacity:1;stroke:none" d="M 375.00001,865.34763 C 233.78713,1041.1034 54.85255,1131.5997 -74.04632,1203.6085 68.23686,1095.2359 232.8341,947.89143 375.00001,865.34763 z" id="path4146" inkscape:connector-curvature="0" sodipodi:nodetypes="ccc"/>
      <path sodipodi:nodetypes="ccccc" inkscape:transform-center-y="-335.65384" inkscape:transform-center-x="225.61161" inkscape:connector-curvature="0" style="fill:#446037;fill-opacity:1;stroke:none" d="m 375.00001,865.34763 0,0 C 233.68966,948.05663 67.32675,1095.9031 -73.7991,1203.4101 90.35029,1107.4933 245.70679,978.10643 375.00001,865.34763 c 1.17554,-1.4367 -1.1706,1.4495 0,0 z" id="path4148"/>
      <path inkscape:transform-center-y="-375.83885" inkscape:transform-center-x="317.0325" style="fill:#213e10;fill-opacity:1;stroke:none" d="m 375.00001,865.34763 c -56.89176,61.2814 -140.43305,114.5088 -233.56252,148.86097 -124.24969,45.8313 -311.39118,97.02 -398.32142,109.0928 38.88295,-9.3513 77.95129,-20.1096 115.02721,-36.7027 183.9448,-82.3232 337.26207,-157.20637 516.85673,-221.25107 z" id="path4150" inkscape:connector-curvature="0" sodipodi:nodetypes="cscsc"/>
      <path sodipodi:nodetypes="cscsc" inkscape:transform-center-y="-375.62259" inkscape:transform-center-x="317.58036" inkscape:connector-curvature="0" style="fill:#446037;fill-opacity:1;stroke:none" d="m 375.00001,865.34763 c -179.05736,63.9013 -333.33516,139.11397 -516.86161,221.24997 -37.03619,16.5753 -76.06457,27.3432 -114.90625,36.6875 115.01368,-22.1048 267.62173,-74.1365 407.6875,-136.06247 78.95908,-34.9095 147.19356,-82.7544 224.08036,-121.875 z" id="path4152"/>
      <path inkscape:transform-center-y="-436.14413" inkscape:transform-center-x="373.52067" style="fill:#213e10;fill-opacity:1;stroke:none" d="m 375.00001,865.34763 c -168.21067,106.078 -478.9607,117.0364 -747.04134,137.74557 348.23552,-79.13297 517.16788,-107.40567 747.04134,-137.74557 z" id="path4154" inkscape:connector-curvature="0" sodipodi:nodetypes="ccc"/>
      <path inkscape:transform-center-y="-435.77884" inkscape:transform-center-x="376.20536" style="fill:#446037;fill-opacity:1;stroke:none" d="m 375.00001,865.34763 c -226.72418,29.8587 -401.67399,59.2833 -746.51786,137.62497 l 0.0625,0.062 C 30.80589,957.32233 225.35257,909.07953 375.00001,865.34713 z" id="path4156" inkscape:connector-curvature="0" sodipodi:nodetypes="cccc"/>
      <path inkscape:transform-center-y="-494.96803" inkscape:transform-center-x="385.71429" style="fill:#213e10;fill-opacity:1;stroke:none" d="m -396.42856,852.62053 c 300.32265,-12.9002 610.69517,-5.455 771.42857,12.7271 -222.27622,72.0078 -451.0904,30.6088 -771.42857,-12.7271 z" id="path4158" inkscape:connector-curvature="0" sodipodi:nodetypes="ccc"/>
      <path sodipodi:nodetypes="sccs" inkscape:transform-center-y="-510.61994" inkscape:transform-center-x="392.14286" inkscape:connector-curvature="0" style="fill:#446037;fill-opacity:1;stroke:none" d="m -199.58035,848.37893 c -64.98584,0.1111 -131.14817,1.428 -196.84375,4.25 357.60361,32.2051 592.82417,22.5246 771.42411,12.7187 -127.18443,-13.7493 -350.18486,-17.3526 -574.58036,-16.9687 z" id="path4160"/>
      <path inkscape:transform-center-y="-591.99475" inkscape:transform-center-x="399.28572" style="fill:#213e10;fill-opacity:1;stroke:none" d="m 375.00001,865.34763 c -261.72545,30.9695 -527.15349,-77.6884 -798.57143,-178.4414 287.23394,51.0274 580.84014,117.4594 798.57143,178.4414 z" id="path4162" inkscape:connector-curvature="0" sodipodi:nodetypes="ccc"/>
      <path sodipodi:nodetypes="ccccc" inkscape:transform-center-y="-594.16947" inkscape:transform-center-x="400.31474" inkscape:connector-curvature="0" style="fill:#446037;fill-opacity:1;stroke:none" d="m -423.58035,686.91013 c 267.36079,91.4288 565.21652,148.2325 798.58036,178.4375 1.24577,-0.137 -1.2456,0.1437 0,0 -0.23433,-0.1377 0.52442,0.3079 0,0 -217.25616,-60.759 -513.3646,-127.7686 -798.58036,-178.4375 z" id="path4164"/>
      <path inkscape:transform-center-y="-672.39064" inkscape:transform-center-x="395.35715" style="fill:#213e10;fill-opacity:1;stroke:none" d="m 375.00001,865.34763 c -259.17835,-11.2121 -520.52689,-165.5479 -791.42857,-332.7271 276.39175,94.8615 550.02103,214.2176 791.42857,332.7271 z" id="path4166" inkscape:connector-curvature="0" sodipodi:nodetypes="ccc"/>
      <path sodipodi:nodetypes="ccccc" inkscape:transform-center-y="-672.60694" inkscape:transform-center-x="395.84599" inkscape:connector-curvature="0" style="fill:#446037;fill-opacity:1;stroke:none" d="m -416.1116,532.81643 c 262.33003,146.9019 547.06535,256.7274 791.11161,332.5312 -240.917,-118.2427 -515.10395,-237.8277 -790.79911,-332.5 l -0.3125,-0.031 z" id="path4168"/>
      <path inkscape:transform-center-y="-763.81919" inkscape:transform-center-x="395.35715" style="fill:#213e10;fill-opacity:1;stroke:none" d="m 375.00001,865.34763 c -131.82048,-27.6574 -585.97233,-252.479 -790,-515.5842 20.27517,18.9195 45.31964,40.704 76.47934,59.6047 247.78172,150.2982 493.45021,307.1439 713.52066,455.9795 z" id="path4170" inkscape:connector-curvature="0" sodipodi:nodetypes="ccsc"/>
      <path sodipodi:nodetypes="ccccscc" inkscape:transform-center-y="-763.0452" inkscape:transform-center-x="395.06474" inkscape:connector-curvature="0" style="fill:#446037;fill-opacity:1;stroke:none" d="m -412.76785,351.81643 c 168.88454,179.6606 506.06391,352.8605 787.76786,513.5312 1.45406,0.4567 -1.39944,-0.4228 0,0 l 0,0 c -219.36735,-148.3527 -466.75733,-306.29 -713.51786,-455.9688 -30.04204,-18.2227 -54.33928,-39.1305 -74.21875,-57.5624 -0.006,-0.01 -0.0257,0.01 -0.0312,0 z" id="path4172"/>
      <path inkscape:transform-center-y="-823.90075" inkscape:transform-center-x="377.27886" style="fill:#213e10;fill-opacity:1;stroke:none" d="M 375.00001,865.34763 C 73.89706,713.38193 -147.59328,514.24753 -378.10224,229.82143 -197.5366,369.88073 97.96069,621.24253 375.00001,865.34763 z" id="path4174" inkscape:connector-curvature="0" sodipodi:nodetypes="ccc"/>
      <path sodipodi:nodetypes="ccccccc" inkscape:transform-center-y="-822.49762" inkscape:transform-center-x="376.14286" inkscape:connector-curvature="0" style="fill:#446037;fill-opacity:1;stroke:none" d="m -375.83035,232.62883 c 0.02,0.022 0.0425,0.041 0.0625,0.063 223.00302,241.8163 480.77597,438.8734 750.76786,632.6558 1.47131,0.7472 -1.47519,-0.7445 0,0 -274.95455,-242.2681 -568.06084,-491.5052 -748.95536,-632.2808 -0.0132,0 -1.875,-0.4376 -1.875,-0.4376 z" id="path4176"/>
      <path inkscape:transform-center-y="-904.63003" inkscape:transform-center-x="358.28426" style="fill:#213e10;fill-opacity:1;stroke:none" d="M 375.00001,865.34763 C 165.29434,680.87013 28.94831,620.88923 -282.1336,191.05833 c -28.32464,-39.137 -44.45564,-83.0766 -58.58068,-124.152097 22.27246,52.857097 76.93744,106.533997 131.42857,158.571397 227.41637,217.1759 393.40368,423.5212 584.28572,639.87 z" id="path4178" inkscape:connector-curvature="0" sodipodi:nodetypes="cscsc"/>
      <path sodipodi:nodetypes="cscccsc" inkscape:transform-center-y="-905.40384" inkscape:transform-center-x="359.15849" inkscape:connector-curvature="0" style="fill:#446037;fill-opacity:1;stroke:none" d="m -340.70535,66.910133 c 13.19217,32.3196 28.84295,72.909997 60.03125,109.437497 169.09344,198.0409 421.4748,462.0802 622.20502,656.713 11.54772,9.8671 21.48634,21.762 33.46909,32.287 2e-5,0 0,0.01 0,0 C 184.86242,649.66953 17.41759,441.98033 -209.2991,225.47263 -263.79023,173.43523 -318.4329,119.76723 -340.70535,66.910133 z" id="path4180"/>
      <path inkscape:transform-center-y="-945.93898" inkscape:transform-center-x="315" style="fill:#446037;fill-opacity:1;stroke:none" d="M 375.00001,865.34763 C 189.58663,657.25233 22.3776,519.50263 -166.42856,188.33483 -233.94735,69.906233 -241.05668,27.411233 -254.99999,-17.379467 c 28.12664,45.6877 57.27397,81.8578 108.57143,147.142897 85.69017,109.056 187.55271,256.0673 282.85714,389.2857 97.57777,136.3961 162.29822,230.9078 238.57143,346.2985 z" id="path4182" inkscape:connector-curvature="0" sodipodi:nodetypes="cscssc"/>
      <path inkscape:transform-center-y="-1038.4372" inkscape:transform-center-x="224.80812" style="fill:#446037;fill-opacity:1;stroke:none" d="m -74.04632,-201.51367 c 13.4687,67.3435 20.26155,136.374203 40.4061,202.03050262 C 0.92363,113.16943 42.81662,223.69543 89.59839,331.84683 c 47.28899,109.324 103.30165,214.716 158.59395,320.2184 39.68623,75.7247 84.72841,138.8609 126.80767,213.2824 -50.4972,-144.7954 -95.0858,-282.0335 -152.06149,-424.4043 C 167.00725,301.18233 99.22589,166.45513 36.0603,29.811233 0.22739,-47.704867 -37.34411,-124.40537 -74.04632,-201.51367 z" id="path4184" inkscape:connector-curvature="0" sodipodi:nodetypes="cssscssc"/>
      <path sodipodi:nodetypes="cscssc" inkscape:transform-center-y="-952.32574" inkscape:transform-center-x="319.18974" inkscape:connector-curvature="0" style="fill:#213e10;fill-opacity:1;stroke:none" d="m -254.9866,-17.371167 c 23.53355,47.4672 37.91945,84.1486 81.9375,149.218797 183.1621,270.7616 345.90122,479.7854 548.04911,733.5 C 302.3212,754.89783 230.37924,650.37363 136.41965,519.03513 41.11522,385.81673 -60.73393,238.80993 -146.4241,129.75383 -197.72156,64.468733 -226.85996,28.316533 -254.9866,-17.371167 z" id="path4186"/>
      <path inkscape:transform-center-y="-993.0803" inkscape:transform-center-x="273.46433" style="fill:#446037;fill-opacity:1;stroke:none" d="M 375.00001,865.34763 C 264.34297,705.12983 167.65829,593.70523 68.08123,426.37583 -36.81335,250.11073 -120.28583,72.399333 -172.03112,-109.58977 c 24.24366,36.028803 50.25588,70.928603 72.73098,108.0863026 C -29.47996,113.92913 42.73314,228.20373 104.75068,348.00933 c 93.94357,181.4803 181.55931,349.3062 270.24933,517.3383 z" id="path4188" inkscape:connector-curvature="0" sodipodi:nodetypes="cscssc"/>
      <path sodipodi:nodetypes="csscccssc" inkscape:transform-center-y="-994.52887" inkscape:transform-center-x="274.39286" inkscape:connector-curvature="0" style="fill:#213e10;fill-opacity:1;stroke:none" d="m -171.70535,-109.12117 c 48.04556,100.1858026 93.42301,201.694503 144.125,300.5626 42.50332,82.8806 88.19316,164.128 135.375,244.4374 82.95059,141.1926 182.15445,289.5301 267.20536,429.4688 3.40934,4.8918 -3.43545,-4.9654 0,0 0.008,-0.037 -0.0122,0.054 0,0 C 287.04965,698.54943 197.93967,528.00193 104.7634,348.00383 42.74586,228.19833 -29.47892,113.93653 -99.2991,-1.4961674 -121.67702,-38.493167 -147.55138,-73.257767 -171.70535,-109.12117 z" id="path4190"/>
      <path sodipodi:nodetypes="cssscssc" inkscape:transform-center-y="-1050.7164" inkscape:transform-center-x="229.03349" inkscape:connector-curvature="0" style="fill:#213e10;fill-opacity:1;stroke:none" d="m -73.8616,-201.12117 c 19.13069,57.1114 36.84959,114.730103 57.40625,171.343803 31.24635,86.0534 62.78572,172.042197 97.96875,256.562497 41.88455,100.6194 87.88507,199.5001 133.125,298.6563 49.58709,108.684 109.87656,231.6359 160.36161,339.9062 C 328.04232,728.62443 276.65591,575.13943 222.9509,440.94143 167.01963,301.18043 99.24149,166.46033 36.0759,29.816433 0.30554,-47.564367 -37.22044,-124.14887 -73.8616,-201.12117 z" id="path4192"/>
      <path inkscape:transform-center-y="-1073.0453" inkscape:transform-center-x="171.99523" style="fill:#446037;fill-opacity:1;stroke:none" d="M 375.00001,865.34763 C 314.21132,707.25873 248.50698,560.42953 192.63395,400.53723 114.6569,177.38963 31.34488,-24.666667 31.00954,-270.20407 c 9.42809,29.2944 19.13981,58.4991 28.28427,87.8833 16.11002,51.7669 30.46034,104.087603 47.47717,155.563503 23.39708,70.7762 50.24907,140.377197 73.74114,211.121897 35.43814,106.7194 72.5465,212.9912 103.03556,321.2285 34.37713,122.0401 60.96822,236.6843 91.45233,359.7545 z" id="path4194" inkscape:connector-curvature="0" sodipodi:nodetypes="cscssssc"/>
      <path sodipodi:nodetypes="csccssssc" inkscape:transform-center-y="-1073.0445" inkscape:transform-center-x="171.98661" inkscape:connector-curvature="0" style="fill:#213e10;fill-opacity:1;stroke:none" d="m 31.0134,-270.21487 c 8.9867,115.7439 36.52853,224.492403 70.40625,334.968703 82.71622,269.740197 184.77959,532.767897 273.58036,800.593797 1.06902,2.7714 -1.06608,-2.7725 0,0 -30.48411,-123.0702 -57.07823,-237.7099 -91.45536,-359.75 C 253.05559,397.36033 215.95154,291.09823 180.5134,184.37883 157.02133,113.63413 130.16048,44.030133 106.7634,-26.746167 89.74657,-78.222067 75.40467,-130.54167 59.29465,-182.30857 c -9.14446,-29.3843 -18.85316,-58.6119 -28.28125,-87.9063 z" id="path4196"/>
      <path inkscape:transform-center-y="-1097.0261" inkscape:transform-center-x="127.82275" style="fill:#446037;fill-opacity:1;stroke:none" d="m 121.41819,-319.19647 c -5.62769,77.9058 0.19699,177.4644 18.18275,278.802103 13.67602,77.0552 26.00251,154.412997 42.92598,230.820697 22.65802,102.2986 47.43947,204.1894 75.76694,305.0653 35.85354,127.6767 77.8041,243.0749 116.70615,369.856 -18.02556,-133.1787 -30.72619,-256.7 -54.07669,-389.0489 -20.9787,-118.9058 -51.38364,-235.9631 -78.7919,-353.5534 C 227.78294,61.185733 212.31957,-0.12646738 195.66441,-61.102467 172.07665,-147.45937 146.16693,-233.16517 121.41819,-319.19647 z" id="path4198" inkscape:connector-curvature="0" sodipodi:nodetypes="cssscsssc"/>
      <path sodipodi:nodetypes="cccsccssscc" inkscape:transform-center-y="-1096.6226" inkscape:transform-center-x="126.84599" inkscape:connector-curvature="0" style="fill:#213e10;fill-opacity:1;stroke:none" d="m 121.6384,-318.40237 -0.3125,0.6875 c -0.004,0.052 -0.0276,0.1038 -0.0312,0.1563 19.55709,152.7178 53.20693,302.784903 84.46875,453.4374 51.08183,246.1665 111.7531,484.742 169.23656,729.4688 0.48662,1.5826 -0.48569,-1.5829 0,0 C 356.97445,732.16893 344.2702,608.63403 320.9197,476.28513 299.941,357.37933 269.54671,240.34413 242.13845,122.75383 227.78997,61.194233 212.32486,-0.11386738 195.6697,-61.089867 172.1532,-147.18587 146.31939,-232.63297 121.63845,-318.40237 z" id="path4200"/>
      <path inkscape:transform-center-y="-1108.1481" inkscape:transform-center-x="72.466348" style="fill:#446037;fill-opacity:1;stroke:none" d="m 236.07051,-338.89437 c -2.69374,70.3739 -10.49784,140.7378 -8.08122,211.1218 2.98238,86.861703 14.18923,173.279803 24.24366,259.6092 9.48059,81.4023 21.82565,162.4562 34.34519,243.4468 14.7566,95.4625 30.12965,190.8474 47.47716,285.8732 12.96225,71.0043 26.46586,133.4803 40.94471,204.191 -0.83062,-74.4146 4.26992,-141.0061 0,-215.3027 -7.52235,-130.8889 -16.59684,-261.8474 -32.86348,-391.9392 -18.95659,-151.6046 -46.00494,-302.118797 -72.73099,-452.5483 -8.64414,-48.6542 -22.22335,-96.3012 -33.33503,-144.4518 z" id="path4202" inkscape:connector-curvature="0" sodipodi:nodetypes="csssscsssc"/>
      <path sodipodi:nodetypes="cccsssc" inkscape:transform-center-y="-1108.0757" inkscape:transform-center-x="68.177325" inkscape:connector-curvature="0" style="fill:#213e10;fill-opacity:1;stroke:none" d="m 236.10715,-338.74617 c 36.76384,390.865803 86.55443,780.5139 132.71875,1170.4063 2.92526,13.8673 3.33134,19.8042 6.17411,33.6875 -0.83062,-74.4146 4.28331,-141.0159 0.0134,-215.3125 -7.52235,-130.8889 -16.60836,-261.8457 -32.875,-391.9375 -18.95659,-151.6046 -45.9927,-302.101697 -72.71875,-452.5312 -8.63486,-48.602 -22.20747,-96.2147 -33.3125,-144.3126 z" id="path4204"/>
      <path inkscape:transform-center-y="-1106.3803" inkscape:transform-center-x="19.999118" style="fill:#446037;fill-opacity:1;stroke:none" d="m 341.63145,-335.35887 c -8.41794,52.8646 -21.85829,105.171 -25.25381,158.5939 -4.20795,66.2051 2.17346,132.662303 2.52538,199.000103 0.32153,60.6085 -3.50032,121.292097 -0.50508,181.827397 3.41006,68.9192 13.90592,137.3112 19.69798,206.0712 5.5873,66.3291 8.93995,132.8329 14.43786,199.1695 7.29787,88.0545 14.48359,168.0493 22.46623,256.0444 6.06092,-88.22 18.46959,-168.2991 19.66445,-256.719 1.83858,-136.0552 -3.09423,-272.1662 -9.09138,-408.1016 -6.1275,-138.890097 -15.91244,-277.622697 -27.27411,-416.1828 -3.29232,-40.1512 -11.11168,-79.8021 -16.66752,-119.7031 z" id="path4206" inkscape:connector-curvature="0" sodipodi:nodetypes="cssssscsssc"/>
      <path sodipodi:nodetypes="ccc" inkscape:connector-curvature="0" id="path4210" d="m 375.00001,865.34763 c 64.10925,132.5842 188.47622,273.49957 290.71424,391.55857 -85.6835,-118.8503 -191.68154,-253.8968 -245.5374,-358.60147" style="fill:#213e10;fill-opacity:1;stroke:none" inkscape:transform-center-x="-145.10459" inkscape:transform-center-y="-310.24779"/>
      <path sodipodi:nodetypes="ccc" inkscape:connector-curvature="0" id="path4212" d="M 375.00001,865.34763 C 516.21289,1041.1034 695.14745,1131.5997 824.04635,1203.6085 681.76315,1095.2359 517.16592,947.89143 375.00001,865.34763 z" style="fill:#213e10;fill-opacity:1;stroke:none" inkscape:transform-center-x="-225.04502" inkscape:transform-center-y="-336.39157"/>
      <path sodipodi:nodetypes="ccccc" id="path4214" d="m 375.00001,865.34763 0,0 c 141.31035,82.709 307.67324,230.55547 448.79914,338.06247 -164.1494,-95.9168 -319.50592,-225.30367 -448.79914,-338.06247 -1.17554,-1.4367 1.1706,1.4495 0,0 z" style="fill:#446037;fill-opacity:1;stroke:none" inkscape:connector-curvature="0" inkscape:transform-center-x="-225.61163" inkscape:transform-center-y="-335.65384"/>
      <path sodipodi:nodetypes="cscsc" inkscape:connector-curvature="0" id="path4216" d="m 375.00001,865.34763 c 56.89176,61.2814 140.43305,114.5088 233.56254,148.86097 124.2497,45.8313 311.3912,97.02 398.32135,109.0928 -38.88295,-9.3513 -77.95125,-20.1096 -115.02715,-36.7027 C 707.91195,1004.2755 554.59467,929.39233 375.00001,865.34763 z" style="fill:#213e10;fill-opacity:1;stroke:none" inkscape:transform-center-x="-317.0325" inkscape:transform-center-y="-375.83885"/>
      <path sodipodi:nodetypes="cscsc" id="path4218" d="m 375.00001,865.34763 c 179.05736,63.9013 333.33514,139.11397 516.86164,221.24997 37.0362,16.5753 76.0645,27.3432 114.90615,36.6875 -115.01365,-22.1048 -267.62165,-74.1365 -407.68745,-136.06247 -78.95906,-34.9095 -147.19354,-82.7544 -224.08034,-121.875 z" style="fill:#446037;fill-opacity:1;stroke:none" inkscape:connector-curvature="0" inkscape:transform-center-x="-317.58035" inkscape:transform-center-y="-375.62259"/>
      <path sodipodi:nodetypes="ccc" inkscape:connector-curvature="0" id="path4220" d="m 375.00001,865.34763 c 168.21067,106.078 478.96074,117.0364 747.04139,137.74557 C 773.80585,923.96023 604.87345,895.68753 375.00001,865.34763 z" style="fill:#213e10;fill-opacity:1;stroke:none" inkscape:transform-center-x="-373.52067" inkscape:transform-center-y="-436.14413"/>
      <path sodipodi:nodetypes="cccc" inkscape:connector-curvature="0" id="path4222" d="m 375.00001,865.34763 c 226.72414,29.8587 401.67394,59.2833 746.51779,137.62497 l -0.062,0.062 C 719.19415,957.32283 524.64745,909.08003 375.00001,865.34763 z" style="fill:#446037;fill-opacity:1;stroke:none" inkscape:transform-center-x="-376.20535" inkscape:transform-center-y="-435.77884"/>
      <path sodipodi:nodetypes="ccc" inkscape:connector-curvature="0" id="path4224" d="m 1146.4285,852.62053 c -300.32255,-12.9002 -610.69509,-5.455 -771.42849,12.7271 222.27624,72.0078 451.09044,30.6088 771.42849,-12.7271 z" style="fill:#213e10;fill-opacity:1;stroke:none" inkscape:transform-center-x="-385.71427" inkscape:transform-center-y="-494.96803"/>
      <path sodipodi:nodetypes="sccs" id="path4226" d="m 949.58035,848.37893 c 64.98585,0.1111 131.14815,1.428 196.84375,4.25 -357.60355,32.2051 -592.82415,22.5246 -771.42409,12.7187 127.18443,-13.7493 350.18484,-17.3526 574.58034,-16.9687 z" style="fill:#446037;fill-opacity:1;stroke:none" inkscape:connector-curvature="0" inkscape:transform-center-x="-392.14288" inkscape:transform-center-y="-510.61994"/>
      <path sodipodi:nodetypes="ccc" inkscape:connector-curvature="0" id="path4228" d="m 375.00001,865.34763 c 261.72544,30.9695 527.15344,-77.6884 798.57149,-178.4414 -287.23405,51.0274 -580.84015,117.4594 -798.57149,178.4414 z" style="fill:#213e10;fill-opacity:1;stroke:none" inkscape:transform-center-x="-399.28572" inkscape:transform-center-y="-591.99475"/>
      <path sodipodi:nodetypes="ccccc" id="path4230" d="m 1173.5803,686.91013 c -267.36075,91.4288 -565.21645,148.2325 -798.58029,178.4375 -1.24577,-0.137 1.2456,0.1437 0,0 0.23433,-0.1377 -0.52442,0.3079 0,0 217.25614,-60.759 513.36464,-127.7686 798.58029,-178.4375 z" style="fill:#446037;fill-opacity:1;stroke:none" inkscape:connector-curvature="0" inkscape:transform-center-x="-400.31473" inkscape:transform-center-y="-594.16947"/>
      <path sodipodi:nodetypes="ccc" inkscape:connector-curvature="0" id="path4232" d="m 375.00001,865.34763 c 259.17834,-11.2121 520.52684,-165.5479 791.42849,-332.7271 -276.39165,94.8615 -550.02095,214.2176 -791.42849,332.7271 z" style="fill:#213e10;fill-opacity:1;stroke:none" inkscape:transform-center-x="-395.35713" inkscape:transform-center-y="-672.39064"/>
      <path sodipodi:nodetypes="ccccc" id="path4234" d="m 1166.1116,532.81643 c -262.33005,146.9019 -547.06535,256.7274 -791.11159,332.5312 240.91704,-118.2427 515.10394,-237.8277 790.79909,-332.5 l 0.3125,-0.031 z" style="fill:#446037;fill-opacity:1;stroke:none" inkscape:connector-curvature="0" inkscape:transform-center-x="-395.84601" inkscape:transform-center-y="-672.60694"/>
      <path sodipodi:nodetypes="ccsc" inkscape:connector-curvature="0" id="path4236" d="M 375.00001,865.34763 C 506.82049,837.69023 960.97235,612.86863 1165,349.76343 c -20.2752,18.9195 -45.3197,40.704 -76.4793,59.6047 -247.78175,150.2982 -493.45025,307.1439 -713.52069,455.9795 z" style="fill:#213e10;fill-opacity:1;stroke:none" inkscape:transform-center-x="-395.35717" inkscape:transform-center-y="-763.81919"/>
      <path sodipodi:nodetypes="ccccsccc" id="path4238" d="m 1162.7678,351.81643 c -168.88445,179.6606 -506.06385,352.8605 -787.76779,513.5312 -1.45406,0.4567 1.39944,-0.4228 0,0 l 0,0 c 219.36734,-148.3527 466.75734,-306.29 713.51779,-455.9688 30.0421,-18.2227 54.3393,-39.1305 74.2188,-57.5624 0.01,-0.01 0.026,0.01 0.031,0 z" style="fill:#446037;fill-opacity:1;stroke:none" inkscape:connector-curvature="0" inkscape:transform-center-x="-395.06473" inkscape:transform-center-y="-763.0452"/>
      <path sodipodi:nodetypes="ccc" inkscape:connector-curvature="0" id="path4240" d="M 375.00001,865.34763 C 676.10295,713.38193 897.59325,514.24753 1128.1023,229.82143 947.53665,369.88073 652.03935,621.24253 375.00001,865.34763 z" style="fill:#213e10;fill-opacity:1;stroke:none" inkscape:transform-center-x="-377.27886" inkscape:transform-center-y="-823.90075"/>
      <path sodipodi:nodetypes="ccccccc" id="path4242" d="m 1125.8303,232.62883 c -0.02,0.022 -0.043,0.041 -0.062,0.063 -223.00295,241.8163 -480.77635,438.8734 -750.76829,632.6558 -1.47131,0.7472 1.47519,-0.7445 0,0 274.95454,-242.2681 568.06134,-491.5052 748.95579,-632.2808 0.013,0 1.875,-0.4376 1.875,-0.4376 z" style="fill:#446037;fill-opacity:1;stroke:none" inkscape:connector-curvature="0" inkscape:transform-center-x="-376.14335" inkscape:transform-center-y="-822.49762"/>
      <path sodipodi:nodetypes="cscsc" inkscape:connector-curvature="0" id="path4244" d="m 375.00001,865.34763 c 209.70564,-184.4775 346.05174,-244.4584 657.13359,-674.2893 28.3246,-39.137 44.4556,-83.0766 58.5806,-124.152097 -22.2724,52.857097 -76.9374,106.533997 -131.42845,158.571397 -227.4164,217.1759 -393.4037,423.5212 -584.28574,639.87 z" style="fill:#213e10;fill-opacity:1;stroke:none" inkscape:transform-center-x="-358.28424" inkscape:transform-center-y="-904.63003"/>
      <path sodipodi:nodetypes="cscccsc" id="path4246" d="m 1090.7053,66.910133 c -13.1921,32.3196 -28.8429,72.909997 -60.0312,109.437497 -169.09345,198.0409 -419.55105,460.7154 -620.28123,655.3482 -11.54772,9.8672 -23.41011,23.1268 -35.39286,33.6518 -2e-5,0 0,0.01 0,0 190.13759,-215.6781 357.58244,-423.3673 584.29914,-639.875 54.49105,-52.0374 109.13375,-105.7054 131.40615,-158.562497 z" style="fill:#446037;fill-opacity:1;stroke:none" inkscape:connector-curvature="0" inkscape:transform-center-x="-359.15848" inkscape:transform-center-y="-905.40384"/>
      <path sodipodi:nodetypes="cscssc" inkscape:connector-curvature="0" id="path4248" d="M 375.00001,865.34763 C 556.72085,659.46863 727.62245,519.50263 916.42855,188.33483 983.94735,69.906233 991.05665,27.411233 1005,-17.379467 c -28.12665,45.6877 -57.27395,81.8578 -108.57145,147.142897 -85.6901,109.056 -187.5527,256.0673 -282.8571,389.2857 -97.57778,136.3961 -162.29823,230.9078 -238.57144,346.2985 z" style="fill:#213e10;fill-opacity:1;stroke:none" inkscape:transform-center-x="-315.00002" inkscape:transform-center-y="-945.93898"/>
      <path sodipodi:nodetypes="cssscssc" inkscape:connector-curvature="0" id="path4250" d="m 824.04635,-201.51367 c -13.4687,67.3435 -20.2616,136.374203 -40.4061,202.03050262 C 749.07635,113.16943 707.18335,223.69543 660.40165,331.84683 c -47.289,109.324 -103.30167,214.716 -158.59397,320.2184 -39.68623,75.7247 -84.72841,138.8609 -126.80767,213.2824 50.4972,-144.7954 95.0858,-282.0335 152.06149,-424.4043 55.93125,-139.761 123.71265,-274.4882 186.87825,-411.132097 35.8329,-77.5161 73.4044,-154.216603 110.1066,-231.324903 z" style="fill:#213e10;fill-opacity:1;stroke:none" inkscape:transform-center-x="-224.80813" inkscape:transform-center-y="-1038.4372"/>
      <path sodipodi:nodetypes="cscssc" id="path4252" d="m 1004.9866,-17.371167 c -23.53355,47.4672 -37.91945,84.1486 -81.93745,149.218797 -183.1621,270.7616 -345.9013,479.7854 -548.04914,733.5 72.67881,-110.4498 144.62077,-214.974 238.58034,-346.3125 95.3044,-133.2184 197.1536,-280.2252 282.8438,-389.2813 51.2974,-65.285097 80.4358,-101.437297 108.56245,-147.124997 z" style="fill:#446037;fill-opacity:1;stroke:none" inkscape:connector-curvature="0" inkscape:transform-center-x="-319.18976" inkscape:transform-center-y="-952.32574"/>
      <path sodipodi:nodetypes="cscssc" inkscape:connector-curvature="0" id="path4254" d="m 375.00001,865.34763 c 110.65704,-160.2178 207.34174,-271.6424 306.91874,-438.9718 104.8946,-176.2651 188.3671,-353.976497 240.1124,-535.9656 -24.2437,36.028803 -50.2559,70.928603 -72.731,108.0863026 C 779.47995,113.92913 707.26685,228.20373 645.24935,348.00933 551.30577,529.48963 463.69003,697.31553 375.00001,865.34763 z" style="fill:#213e10;fill-opacity:1;stroke:none" inkscape:transform-center-x="-273.46434" inkscape:transform-center-y="-993.0803"/>
      <path sodipodi:nodetypes="csscccssc" id="path4256" d="m 921.70535,-109.12117 c -48.0455,100.1858026 -93.423,201.694503 -144.125,300.5626 -42.5033,82.8806 -88.1931,164.128 -135.375,244.4374 -82.95057,141.1926 -182.15443,289.5301 -267.20534,429.4688 -3.40934,4.8918 3.43545,-4.9654 0,0 -0.008,-0.037 0.0122,0.054 0,0 87.95036,-166.7982 177.06034,-337.3457 270.23664,-517.3438 62.0175,-119.8055 134.2423,-234.0673 204.0625,-349.4999974 22.3779,-36.9969996 48.2522,-71.7615996 72.4062,-107.6250026 z" style="fill:#446037;fill-opacity:1;stroke:none" inkscape:connector-curvature="0" inkscape:transform-center-x="-274.39285" inkscape:transform-center-y="-994.52887"/>
      <path sodipodi:nodetypes="cssscssc" id="path4258" d="m 823.86165,-201.12117 c -19.1307,57.1114 -36.8496,114.730103 -57.4063,171.343803 -31.2463,86.0534 -62.7857,172.042197 -97.9687,256.562497 -41.8846,100.6194 -87.8851,199.5001 -133.12503,298.6563 -49.58709,108.684 -109.87656,231.6359 -160.36161,339.9062 46.95769,-136.7232 98.3441,-290.2082 152.04911,-424.4062 55.93123,-139.761 123.70943,-274.4811 186.87503,-411.124997 35.7703,-77.3808 73.2963,-153.965303 109.9375,-230.937603 z" style="fill:#446037;fill-opacity:1;stroke:none" inkscape:connector-curvature="0" inkscape:transform-center-x="-229.03351" inkscape:transform-center-y="-1050.7164"/>
      <path sodipodi:nodetypes="cscssssc" inkscape:connector-curvature="0" id="path4260" d="m 375.00001,865.34763 c 60.78869,-158.0889 126.49303,-304.9181 182.36606,-464.8104 77.97708,-223.1476 161.28908,-425.203897 161.62438,-670.7413 -9.4281,29.2944 -19.1398,58.4991 -28.2842,87.8833 -16.1101,51.7669 -30.4604,104.087603 -47.4772,155.563503 -23.3971,70.7762 -50.2491,140.377197 -73.74115,211.121897 -35.43814,106.7194 -72.5465,212.9912 -103.03556,321.2285 -34.37713,122.0401 -60.96822,236.6843 -91.45233,359.7545 z" style="fill:#213e10;fill-opacity:1;stroke:none" inkscape:transform-center-x="-171.99522" inkscape:transform-center-y="-1073.0453"/>
      <path sodipodi:nodetypes="csccssssc" id="path4262" d="m 718.98665,-270.21487 c -8.9867,115.7439 -36.5286,224.492403 -70.4063,334.968703 -82.7162,269.740197 -184.77957,532.767897 -273.58034,800.593797 -1.06902,2.7714 1.06608,-2.7725 0,0 30.48411,-123.0702 57.07823,-237.7099 91.45536,-359.75 30.48906,-108.2373 67.59311,-214.4994 103.03125,-321.2188 23.49203,-70.7447 50.35293,-140.348697 73.75003,-211.124997 17.0168,-51.4759 31.3587,-103.795503 47.4687,-155.562403 9.1445,-29.3843 18.8532,-58.6119 28.2813,-87.9063 z" style="fill:#446037;fill-opacity:1;stroke:none" inkscape:connector-curvature="0" inkscape:transform-center-x="-171.98663" inkscape:transform-center-y="-1073.0445"/>
      <path sodipodi:nodetypes="cssscsssc" inkscape:connector-curvature="0" id="path4264" d="m 628.58185,-319.19647 c 5.6277,77.9058 -0.197,177.4644 -18.1828,278.802103 -13.676,77.0552 -26.0025,154.412997 -42.92595,230.820697 -22.65802,102.2986 -47.43947,204.1894 -75.76694,305.0653 -35.85354,127.6767 -77.8041,243.0749 -116.70615,369.856 18.02556,-133.1787 30.72619,-256.7 54.07669,-389.0489 20.9787,-118.9058 51.38364,-235.9631 78.7919,-353.5534 14.34848,-61.559597 29.81185,-122.87179738 46.46701,-183.847797 23.58774,-86.356903 49.49744,-172.062703 74.24624,-258.094003 z" style="fill:#213e10;fill-opacity:1;stroke:none" inkscape:transform-center-x="-127.82276" inkscape:transform-center-y="-1097.0261"/>
      <path sodipodi:nodetypes="cccsccssscc" id="path4266" d="m 628.36165,-318.40237 0.3125,0.6875 c 0,0.052 0.028,0.1038 0.031,0.1563 -19.5571,152.7178 -53.20696,302.784903 -84.46878,453.4374 -51.08183,246.1665 -111.7529,484.742 -169.23636,729.4688 -0.48662,1.5826 0.48569,-1.5829 0,0 18.02556,-133.1787 30.72961,-256.7136 54.08011,-389.0625 20.9787,-118.9058 51.37299,-235.941 78.78125,-353.5313 14.34848,-61.559597 29.81359,-122.86769738 46.46875,-183.843697 23.51653,-86.096003 49.35033,-171.543103 74.03123,-257.312503 z" style="fill:#446037;fill-opacity:1;stroke:none" inkscape:connector-curvature="0" inkscape:transform-center-x="-126.84581" inkscape:transform-center-y="-1096.6226"/>
      <path sodipodi:nodetypes="csssscsssc" inkscape:connector-curvature="0" id="path4268" d="m 513.92951,-338.89437 c 2.69374,70.3739 10.49784,140.7378 8.08122,211.1218 -2.98238,86.861703 -14.18923,173.279803 -24.24366,259.6092 -9.48059,81.4023 -21.82565,162.4562 -34.34519,243.4468 -14.7566,95.4625 -30.12965,190.8474 -47.47716,285.8732 -12.96225,71.0043 -26.46586,133.4803 -40.94471,204.191 0.83062,-74.4146 -4.26992,-141.0061 0,-215.3027 7.52235,-130.8889 16.59684,-261.8474 32.86348,-391.9392 18.95659,-151.6046 46.00494,-302.118797 72.73099,-452.5483 8.64414,-48.6542 22.22335,-96.3012 33.33503,-144.4518 z" style="fill:#213e10;fill-opacity:1;stroke:none" inkscape:transform-center-x="-72.466348" inkscape:transform-center-y="-1108.1481"/>
      <path sodipodi:nodetypes="cccsssc" id="path4270" d="m 513.89287,-338.74617 c -36.76384,390.865803 -86.55443,780.5139 -132.71875,1170.4063 -2.92526,13.8673 -3.33134,19.8042 -6.17411,33.6875 0.83062,-74.4146 -4.28331,-141.0159 -0.0134,-215.3125 7.52235,-130.8889 16.60836,-261.8457 32.875,-391.9375 18.95659,-151.6046 45.9927,-302.101697 72.71875,-452.5312 8.63486,-48.602 22.20747,-96.2147 33.3125,-144.3126 z" style="fill:#446037;fill-opacity:1;stroke:none" inkscape:connector-curvature="0" inkscape:transform-center-x="-68.177325" inkscape:transform-center-y="-1108.0757"/>
      <path sodipodi:nodetypes="cssssscsssc" inkscape:connector-curvature="0" id="path4272" d="m 408.36857,-335.35887 c 8.41794,52.8646 21.85829,105.171 25.25381,158.5939 4.20795,66.2051 -2.17346,132.662303 -2.52538,199.000103 -0.32153,60.6085 3.50032,121.292097 0.50508,181.827397 -3.41006,68.9192 -13.90592,137.3112 -19.69798,206.0712 -5.5873,66.3291 -8.93995,132.8329 -14.43786,199.1695 -7.29787,88.0545 -14.48359,168.0493 -22.46623,256.0444 -6.06092,-88.22 -18.46959,-168.2991 -19.66445,-256.719 -1.83858,-136.0552 3.09423,-272.1662 9.09138,-408.1016 6.1275,-138.890097 15.91244,-277.622697 27.27411,-416.1828 3.29232,-40.1512 11.11168,-79.8021 16.66752,-119.7031 z" style="fill:#213e10;fill-opacity:1;stroke:none" inkscape:transform-center-x="-19.999118" inkscape:transform-center-y="-1106.3803"/>
      <path sodipodi:nodetypes="cccsssccc" id="path4274" d="m 408.64287,-333.71487 c -4.2e-4,0.021 4.2e-4,0.042 0,0.062 -7.88505,393.363003 -22.81163,718.2032 -33.64286,1199.0005 -6.14074,-85.8962 -18.50612,-170.6185 -19.66964,-256.7193 -1.83858,-136.0552 3.0966,-272.1583 9.09375,-408.0937 6.1275,-138.890097 15.91958,-277.627397 27.28125,-416.1875 3.24337,-39.5543 10.86818,-78.6369 16.40625,-117.9375 l 0.53125,-0.125 z" style="fill:#446037;fill-opacity:1;stroke:none" inkscape:connector-curvature="0" inkscape:transform-center-x="-6.7916983" inkscape:transform-center-y="-1109.0288"/>
      <path sodipodi:nodetypes="cssssscsssc" inkscape:connector-curvature="0" id="path4137" d="m 341.63145,-335.35887 c -8.41794,52.8646 -21.85829,105.171 -25.25381,158.5939 -4.20795,66.2051 2.17346,132.662303 2.52538,199.000103 0.32153,60.6085 -3.50032,121.292097 -0.50508,181.827397 3.41006,68.9192 13.90592,137.3112 19.69798,206.0712 5.5873,66.3291 8.93995,132.8329 14.43786,199.1695 7.29787,88.0545 14.48359,168.0493 22.46623,256.0444 6.06092,-88.22 18.46959,-168.2991 19.66445,-256.719 1.83858,-136.0552 -3.09423,-272.1662 -9.09138,-408.1016 -6.1275,-138.890097 -15.91244,-277.622697 -27.27411,-416.1828 -3.29232,-40.1512 -11.11168,-79.8021 -16.66752,-119.7031 z" style="fill:none;stroke:none"/>
      <path sodipodi:nodetypes="cccssscc" inkscape:connector-curvature="0" id="path4139" d="m 341.35715,-333.71487 c 4.2e-4,0.021 -4.2e-4,0.042 0,0.062 7.88505,393.363003 22.81163,718.2027 33.64286,1199 6.14074,-85.8962 18.50612,-170.618 19.66964,-256.7188 1.83858,-136.0552 -3.0966,-272.1583 -9.09375,-408.0937 -6.1275,-138.890097 -15.91958,-277.627397 -27.28125,-416.1875 -3.24337,-39.5543 -10.86818,-78.6369 -16.40625,-117.9375 z" style="fill:#213e10;fill-opacity:1;stroke:none"/>
    </g>
  </g>
</svg>