<?xml version="1.0" encoding="UTF-8"?>
<svg id="Layer_2" data-name="Layer 2" xmlns="http://www.w3.org/2000/svg" viewBox="0 0 195.6 70.9">
  <defs>
    <style>
      .cls-1 {
        fill: #0485b2;
      }

      .cls-2 {
        fill: none;
        stroke: #005e7c;
        stroke-miterlimit: 10;
        stroke-width: .7px;
      }

      .cls-3 {
        fill: #005e7c;
      }

      .cls-4 {
        fill: #4595b2;
        opacity: .74;
      }

      .cls-5 {
        fill: #107da5;
      }

      .cls-6 {
        fill: #0baad7;
      }
    </style>
  </defs>
  <g id="Logos">
    <g>
      <g>
        <polygon class="cls-6" points="1.69 22.14 1.69 11.51 40.06 11.51 40.06 22.14 17.19 48.03 40.98 48.03 40.98 58.53 0 58.53 0 48 24.92 22.16 1.69 22.14"/>
        <g>
          <polygon class="cls-5" points="1.69 11.51 32.73 16.53 1.69 22.14 1.69 11.51"/>
          <polygon class="cls-5" points="40.06 11.51 24.92 22.16 0 48 6.6 53.02 40.06 22.14 40.06 11.51"/>
          <polygon class="cls-5" points="6.6 53.02 0 58.53 40.98 58.53 40.98 48.03 6.6 53.02"/>
        </g>
        <g>
          <polygon class="cls-1" points="1.69 22.14 32.73 16.53 24.92 22.16 1.69 22.14"/>
          <polygon class="cls-1" points="6.6 53.02 17.19 48.03 40.98 48.03 6.6 53.02"/>
        </g>
        <polygon class="cls-4" points="32.73 16.53 0 48 6.6 53.02 32.73 16.53"/>
      </g>
      <line class="cls-2" x1="55.04" x2="55.04" y2="70.9"/>
      <g>
        <path class="cls-5" d="M67.04,38.65l14.58-19.11h-14.15v-3.26h18.49v3.26l-14.51,19.11h14.73v3.26h-19.14v-3.26Z"/>
        <path class="cls-5" d="M89.98,26.85c.92-.84,1.98-1.48,3.18-1.9,1.21-.42,2.41-.63,3.62-.63s2.33.16,3.24.47c.9.31,1.65.74,2.23,1.27.58.53,1.01,1.14,1.28,1.83.28.69.42,1.41.42,2.15v8.76c0,.6.01,1.16.04,1.66.02.51.06.99.11,1.45h-2.89c-.07-.87-.11-1.74-.11-2.61h-.07c-.72,1.11-1.58,1.89-2.57,2.35-.99.46-2.14.69-3.44.69-.8,0-1.56-.11-2.28-.33s-1.36-.54-1.9-.98-.97-.97-1.28-1.61c-.31-.64-.47-1.38-.47-2.23,0-1.11.25-2.04.74-2.79.49-.75,1.17-1.36,2.03-1.83.86-.47,1.86-.81,3-1.01,1.15-.2,2.37-.31,3.67-.31h2.39v-.72c0-.43-.08-.87-.25-1.3-.17-.43-.42-.83-.76-1.18-.34-.35-.76-.63-1.27-.83-.51-.2-1.11-.31-1.81-.31-.63,0-1.18.06-1.65.18-.47.12-.9.27-1.28.45-.39.18-.74.39-1.05.63-.31.24-.62.47-.9.69l-1.95-2.03ZM99.18,33.65c-.77,0-1.56.04-2.37.13-.81.08-1.54.25-2.21.49-.66.24-1.21.58-1.63,1.01-.42.43-.63.99-.63,1.66,0,.99.33,1.7,1,2.14.66.43,1.56.65,2.7.65.89,0,1.65-.15,2.28-.45.63-.3,1.13-.69,1.52-1.18.39-.48.66-1.02.83-1.61.17-.59.25-1.18.25-1.76v-1.09h-1.74Z"/>
        <path class="cls-5" d="M121.07,29.31c-.6-.63-1.24-1.1-1.9-1.43-.66-.33-1.45-.49-2.37-.49s-1.67.16-2.33.49c-.66.33-1.22.77-1.66,1.34-.45.57-.78,1.22-1.01,1.95-.23.74-.34,1.5-.34,2.3s.13,1.55.4,2.26c.27.71.64,1.33,1.12,1.86.48.53,1.06.95,1.74,1.25.68.3,1.44.45,2.28.45.92,0,1.7-.16,2.35-.49s1.25-.8,1.81-1.43l2.32,2.32c-.84.94-1.83,1.62-2.95,2.03-1.12.41-2.31.62-3.56.62-1.33,0-2.54-.22-3.64-.65-1.1-.43-2.04-1.04-2.84-1.83-.8-.78-1.41-1.72-1.85-2.82-.43-1.1-.65-2.31-.65-3.64s.22-2.55.65-3.65c.43-1.11,1.04-2.06,1.83-2.86.78-.8,1.72-1.42,2.82-1.86,1.1-.45,2.32-.67,3.67-.67,1.25,0,2.45.22,3.6.67,1.15.45,2.14,1.13,2.99,2.04l-2.46,2.24Z"/>
        <path class="cls-5" d="M126.35,14.54h3.26v12.85h.07c.41-.92,1.12-1.66,2.13-2.23,1.01-.57,2.18-.85,3.51-.85.82,0,1.61.13,2.37.38.76.25,1.42.65,1.99,1.18.57.53,1.02,1.21,1.36,2.04.34.83.51,1.82.51,2.95v11.04h-3.26v-10.13c0-.8-.11-1.48-.33-2.04-.22-.57-.51-1.03-.87-1.38-.36-.35-.78-.6-1.25-.76-.47-.16-.96-.24-1.47-.24-.68,0-1.3.11-1.88.33-.58.22-1.09.56-1.52,1.03-.43.47-.77,1.07-1.01,1.79-.24.72-.36,1.58-.36,2.57v8.83h-3.26V14.54Z"/>
        <path class="cls-5" d="M146.65,26.85c.92-.84,1.98-1.48,3.18-1.9,1.21-.42,2.41-.63,3.62-.63s2.33.16,3.24.47c.9.31,1.65.74,2.23,1.27.58.53,1.01,1.14,1.28,1.83.28.69.42,1.41.42,2.15v8.76c0,.6.01,1.16.04,1.66.02.51.06.99.11,1.45h-2.89c-.07-.87-.11-1.74-.11-2.61h-.07c-.72,1.11-1.58,1.89-2.57,2.35-.99.46-2.14.69-3.44.69-.8,0-1.56-.11-2.28-.33s-1.36-.54-1.9-.98-.97-.97-1.28-1.61c-.31-.64-.47-1.38-.47-2.23,0-1.11.25-2.04.74-2.79.49-.75,1.17-1.36,2.03-1.83.86-.47,1.86-.81,3-1.01,1.15-.2,2.37-.31,3.67-.31h2.39v-.72c0-.43-.08-.87-.25-1.3-.17-.43-.42-.83-.76-1.18-.34-.35-.76-.63-1.27-.83-.51-.2-1.11-.31-1.81-.31-.63,0-1.18.06-1.65.18-.47.12-.9.27-1.28.45-.39.18-.74.39-1.05.63-.31.24-.62.47-.9.69l-1.95-2.03ZM155.85,33.65c-.77,0-1.56.04-2.37.13-.81.08-1.54.25-2.21.49-.66.24-1.21.58-1.63,1.01-.42.43-.63.99-.63,1.66,0,.99.33,1.7,1,2.14.66.43,1.56.65,2.7.65.89,0,1.65-.15,2.28-.45.63-.3,1.13-.69,1.52-1.18.39-.48.66-1.02.83-1.61.17-.59.25-1.18.25-1.76v-1.09h-1.74Z"/>
        <path class="cls-5" d="M165.47,24.75h3.26v2.64h.07c.22-.46.51-.87.87-1.25.36-.37.77-.69,1.21-.96.45-.27.93-.48,1.47-.63.53-.16,1.06-.24,1.59-.24s1.01.07,1.45.22l-.14,3.51c-.27-.07-.53-.13-.8-.18-.27-.05-.53-.07-.8-.07-1.59,0-2.81.45-3.66,1.34-.84.89-1.27,2.28-1.27,4.16v8.61h-3.26v-17.15Z"/>
        <path class="cls-5" d="M178.34,24.75h3.76l5.08,13.39h.07l4.87-13.39h3.47l-8.14,20.84c-.29.75-.59,1.43-.9,2.04-.31.62-.68,1.14-1.12,1.57-.43.43-.96.77-1.57,1.01-.61.24-1.36.36-2.25.36-.48,0-.97-.03-1.46-.09-.49-.06-.97-.19-1.42-.38l.4-2.97c.65.27,1.29.4,1.94.4.5,0,.93-.07,1.28-.2.35-.13.65-.33.9-.58.25-.25.46-.55.63-.89.17-.34.34-.72.5-1.16l1.05-2.71-7.1-17.26Z"/>
      </g>
      <g>
        <path class="cls-3" d="M83.63,47.44h1.18v7.57h3.98v1.1h-5.16v-8.67Z"/>
        <path class="cls-3" d="M97.03,56.33c-.66,0-1.27-.12-1.82-.35-.56-.23-1.03-.55-1.43-.96-.4-.41-.71-.89-.93-1.45-.22-.56-.34-1.16-.34-1.8s.11-1.24.34-1.8c.22-.56.53-1.04.93-1.45.4-.41.87-.73,1.43-.96.56-.23,1.16-.35,1.82-.35s1.27.12,1.82.35c.56.23,1.03.55,1.43.96s.71.89.93,1.45c.22.56.34,1.16.34,1.8s-.11,1.25-.34,1.8c-.22.56-.53,1.04-.93,1.45-.4.41-.87.73-1.43.96-.56.23-1.16.35-1.82.35ZM97.03,55.23c.5,0,.95-.09,1.35-.28.4-.18.74-.43,1.03-.74.29-.31.51-.68.66-1.1.16-.42.23-.87.23-1.34s-.08-.92-.23-1.34c-.16-.42-.38-.79-.66-1.1-.29-.31-.63-.56-1.03-.74-.4-.18-.85-.28-1.35-.28s-.95.09-1.35.28c-.4.18-.74.43-1.03.74-.29.31-.51.68-.66,1.1-.16.42-.23.87-.23,1.34s.08.92.23,1.34c.16.42.38.79.66,1.1.29.31.63.56,1.03.74.4.18.85.28,1.35.28Z"/>
        <path class="cls-3" d="M107.31,47.44v5.31c0,.27.04.55.11.84s.2.56.37.8c.17.24.4.45.67.6.28.16.62.23,1.03.23s.75-.08,1.03-.23c.28-.16.5-.36.67-.6.17-.25.29-.51.37-.8.07-.29.11-.57.11-.84v-5.31h1.18v5.5c0,.51-.09.97-.26,1.38-.17.41-.41.77-.71,1.07s-.66.53-1.07.7c-.41.16-.85.24-1.32.24s-.91-.08-1.32-.24c-.41-.16-.76-.4-1.07-.7-.3-.3-.54-.66-.71-1.07-.17-.41-.26-.87-.26-1.38v-5.5h1.18Z"/>
        <path class="cls-3" d="M117.98,47.44h1.18v8.67h-1.18v-8.67Z"/>
        <path class="cls-3" d="M124.7,54.3c.21.32.48.55.81.7.33.15.67.23,1.02.23.2,0,.4-.03.6-.09.2-.06.39-.15.56-.28.17-.12.3-.27.41-.45.11-.18.16-.39.16-.62,0-.33-.11-.59-.32-.77-.21-.18-.48-.32-.79-.44-.31-.12-.66-.23-1.03-.34-.37-.11-.71-.26-1.03-.46-.31-.2-.58-.46-.79-.79-.21-.33-.32-.78-.32-1.34,0-.25.06-.52.17-.81.11-.29.28-.55.52-.78s.54-.43.91-.59c.37-.16.82-.24,1.34-.24.47,0,.93.07,1.36.2.43.13.81.4,1.14.8l-.96.87c-.15-.23-.36-.41-.62-.55-.27-.14-.58-.21-.92-.21s-.6.04-.81.13-.39.2-.52.33c-.13.13-.22.28-.28.43-.05.16-.08.3-.08.43,0,.37.11.65.32.84.21.2.48.36.79.48.31.12.66.23,1.03.33.37.1.71.23,1.03.41.31.18.58.41.79.71.21.3.32.71.32,1.23,0,.42-.08.79-.24,1.13-.16.33-.37.62-.64.84-.27.23-.59.4-.96.53s-.76.18-1.18.18c-.56,0-1.08-.1-1.58-.29-.5-.2-.89-.5-1.19-.91l.97-.83Z"/>
        <path class="cls-3" d="M134.32,47.44h1.18v8.67h-1.18v-8.67Z"/>
        <path class="cls-3" d="M143.5,47.44h1.07l3.71,8.67h-1.37l-.87-2.14h-4.13l-.86,2.14h-1.37l3.82-8.67ZM145.61,52.94l-1.62-3.98h-.02l-1.64,3.98h3.28Z"/>
        <path class="cls-3" d="M152.47,47.44h1.54l4.78,7.13h.02v-7.13h1.18v8.67h-1.49l-4.83-7.13h-.02v7.13h-1.18v-8.67Z"/>
        <path class="cls-3" d="M168,47.44h1.07l3.71,8.67h-1.37l-.87-2.14h-4.13l-.86,2.14h-1.37l3.82-8.67ZM170.1,52.94l-1.62-3.98h-.02l-1.64,3.98h3.28Z"/>
      </g>
    </g>
  </g>
</svg>