<svg width="204" height="30" viewBox="0 0 204 30" fill="none" xmlns="http://www.w3.org/2000/svg">
<path d="M104.003 11.8098H98.5906L97.6768 13.7078H94.654L99.7505 3.8663H102.879L107.975 13.7078H104.917L104.003 11.8098ZM103.019 9.77119L101.332 6.29153L99.6099 9.77119H103.019Z" fill="#014851"/>
<path d="M119.504 10.6147C119.504 12.6533 117.641 14.0241 114.056 14.0241C111.525 14.0241 109.416 13.3211 107.87 12.091L109.381 10.3336C110.541 11.3177 112.158 11.8801 114.126 11.8801C115.813 11.8801 116.657 11.5637 116.657 10.9311C116.657 10.2984 115.884 10.0875 113.845 9.91178C110.928 9.66574 108.256 8.99792 108.256 6.81874C108.256 4.70985 110.541 3.54996 113.669 3.54996C115.778 3.54996 117.711 4.04203 119.082 5.02618L117.641 6.81874C116.551 6.04548 115.216 5.72914 113.704 5.72914C112.544 5.72914 111.174 5.90488 111.174 6.60785C111.174 7.27566 112.298 7.34596 114.056 7.48655C117.254 7.73259 119.504 8.36526 119.504 10.6147Z" fill="#014851"/>
<path d="M129.872 10.193L132.333 11.4583C131.419 12.8994 129.451 14.0241 126.779 14.0241C123.054 14.0241 120.558 12.091 120.558 8.78703C120.558 5.48311 123.054 3.54996 126.885 3.54996C129.416 3.54996 131.384 4.70985 132.298 6.11577L129.837 7.38111C129.205 6.36181 128.185 5.90488 126.885 5.90488C124.846 5.90488 123.511 6.92418 123.511 8.82218C123.511 10.7202 124.846 11.7395 126.885 11.7395C128.185 11.7043 129.205 11.2474 129.872 10.193Z" fill="#014851"/>
<path d="M144.283 11.4935V13.7078H133.774V3.8663H144.108V6.04549H136.586V7.6623H142.772V9.77119H136.586V11.5286H144.283V11.4935Z" fill="#014851"/>
<path d="M157.64 3.8663V13.7078H155.109L148.747 7.24053V13.7078H145.97V3.8663H148.993L154.828 9.87664V3.8663H157.64Z" fill="#014851"/>
<path d="M170.785 10.6147C170.785 12.6533 168.922 14.0241 165.337 14.0241C162.806 14.0241 160.697 13.3211 159.151 12.091L160.662 10.3336C161.822 11.3177 163.439 11.8801 165.407 11.8801C167.094 11.8801 167.938 11.5637 167.938 10.9311C167.938 10.2984 167.165 10.0875 165.126 9.91178C162.209 9.66574 159.538 8.99792 159.538 6.81874C159.538 4.70985 161.822 3.54996 164.95 3.54996C167.059 3.54996 168.992 4.04203 170.363 5.02618L168.922 6.81874C167.833 6.04548 166.497 5.72914 164.986 5.72914C163.826 5.72914 162.455 5.90488 162.455 6.60785C162.455 7.27566 163.58 7.34596 165.337 7.48655C168.5 7.73259 170.785 8.36526 170.785 10.6147Z" fill="#014851"/>
<path d="M172.402 13.7078V3.8663H175.284V13.7078H172.402Z" fill="#014851"/>
<path d="M177.041 8.78703C177.041 5.44796 179.572 3.54996 183.438 3.54996C187.34 3.54996 189.87 5.44796 189.87 8.78703C189.87 12.1261 187.34 14.0241 183.438 14.0241C179.537 14.0241 177.041 12.1261 177.041 8.78703ZM186.953 8.78703C186.953 6.92418 185.618 5.86974 183.438 5.86974C181.294 5.86974 179.923 6.92418 179.923 8.78703C179.923 10.6499 181.259 11.7043 183.438 11.7043C185.618 11.7043 186.953 10.6499 186.953 8.78703Z" fill="#014851"/>
<path d="M203.262 3.8663V13.7078H200.731L194.369 7.24053V13.7078H191.593V3.8663H194.615L200.45 9.87664V3.8663H203.262Z" fill="#014851"/>
<path d="M111.631 27.1344H106.218L105.304 29.0324H102.281L107.378 19.1909H110.506L115.602 29.0324H112.544L111.631 27.1344ZM110.646 25.0958L108.959 21.6161L107.237 25.0958H110.646Z" fill="#014851"/>
<path d="M127.166 25.9394C127.166 27.978 125.303 29.3487 121.718 29.3487C119.187 29.3487 117.079 28.6458 115.532 27.4156L117.043 25.6582C118.203 26.6423 119.82 27.2047 121.788 27.2047C123.476 27.2047 124.319 26.8884 124.319 26.2557C124.319 25.623 123.546 25.4121 121.507 25.2364C118.59 24.9904 115.919 24.3225 115.919 22.1434C115.919 20.0345 118.203 18.8746 121.331 18.8746C123.44 18.8746 125.374 19.3666 126.744 20.3508L125.303 22.1434C124.214 21.3701 122.878 21.0538 121.367 21.0538C120.207 21.0538 118.836 21.2295 118.836 21.9325C118.836 22.6003 119.961 22.6706 121.718 22.8112C124.881 23.0572 127.166 23.6899 127.166 25.9394Z" fill="#014851"/>
<path d="M139.573 25.9394C139.573 27.978 137.711 29.3487 134.125 29.3487C131.595 29.3487 129.486 28.6458 127.939 27.4156L129.451 25.6582C130.611 26.6423 132.227 27.2047 134.196 27.2047C135.883 27.2047 136.726 26.8884 136.726 26.2557C136.726 25.623 135.953 25.4121 133.915 25.2364C130.997 24.9904 128.326 24.3225 128.326 22.1434C128.326 20.0345 130.611 18.8746 133.739 18.8746C135.848 18.8746 137.781 19.3666 139.152 20.3508L137.711 22.1434C136.621 21.3701 135.285 21.0538 133.774 21.0538C132.614 21.0538 131.243 21.2295 131.243 21.9325C131.243 22.6003 132.368 22.6706 134.125 22.8112C137.324 23.0572 139.573 23.6899 139.573 25.9394Z" fill="#014851"/>
<path d="M151.7 26.8181V28.9972H141.19V19.1558H151.559V21.3349H144.037V22.9518H150.223V25.0607H144.037V26.8181H151.7Z" fill="#014851"/>
<path d="M164.283 25.9394C164.283 27.978 162.42 29.3487 158.835 29.3487C156.304 29.3487 154.195 28.6458 152.648 27.4156L154.16 25.6582C155.32 26.6423 156.937 27.2047 158.905 27.2047C160.592 27.2047 161.436 26.8884 161.436 26.2557C161.436 25.623 160.662 25.4121 158.624 25.2364C155.706 24.9904 153.035 24.3225 153.035 22.1434C153.035 20.0345 155.32 18.8746 158.448 18.8746C160.557 18.8746 162.49 19.3666 163.861 20.3508L162.42 22.1434C161.33 21.3701 159.994 21.0538 158.483 21.0538C157.323 21.0538 155.952 21.2295 155.952 21.9325C155.952 22.6003 157.077 22.6706 158.835 22.8112C161.998 23.0572 164.283 23.6899 164.283 25.9394Z" fill="#014851"/>
<path d="M176.725 25.9394C176.725 27.978 174.862 29.3487 171.277 29.3487C168.746 29.3487 166.637 28.6458 165.091 27.4156L166.602 25.6582C167.762 26.6423 169.379 27.2047 171.347 27.2047C173.034 27.2047 173.878 26.8884 173.878 26.2557C173.878 25.623 173.105 25.4121 171.066 25.2364C168.149 24.9904 165.478 24.3225 165.478 22.1434C165.478 20.0345 167.762 18.8746 170.89 18.8746C172.999 18.8746 174.932 19.3666 176.303 20.3508L174.862 22.1434C173.773 21.3701 172.437 21.0538 170.926 21.0538C169.766 21.0538 168.395 21.2295 168.395 21.9325C168.395 22.6003 169.52 22.6706 171.277 22.8112C174.44 23.0572 176.725 23.6899 176.725 25.9394Z" fill="#014851"/>
<path d="M177.779 24.1116C177.779 20.7726 180.31 18.8746 184.176 18.8746C188.078 18.8746 190.609 20.7726 190.609 24.1116C190.609 27.4507 188.078 29.3487 184.176 29.3487C180.275 29.3487 177.779 27.4507 177.779 24.1116ZM187.691 24.1116C187.691 22.2488 186.356 21.1944 184.176 21.1944C182.032 21.1944 180.662 22.2488 180.662 24.1116C180.662 25.9745 181.997 27.0289 184.176 27.0289C186.356 27.0289 187.691 25.9745 187.691 24.1116Z" fill="#014851"/>
<path d="M200.696 29.0324L198.095 25.9393H195.213V29.0324H192.366V19.1909H199.255C201.786 19.1909 203.719 20.3156 203.719 22.5651C203.719 24.2171 202.664 25.2364 201.118 25.6933L204 29.0324H200.696ZM199.044 23.8304C200.063 23.8304 200.801 23.5493 200.801 22.6003C200.801 21.6513 200.063 21.3701 199.044 21.3701H195.178V23.8304H199.044Z" fill="#014851"/>
<path d="M34.621 26.0096H25.131V29.8759H34.621V26.0096Z" fill="#D3BB8C"/>
<path d="M34.621 20.5617H25.131V24.428H34.621V20.5617Z" fill="#D3BB8C"/>
<path d="M76.0958 14.3053V2.98759H70.0152V8.22467L61.7905 0L49.1371 12.6533L53.4604 16.9414L61.7905 8.6113L83.0551 29.8759H91.6664L76.0958 14.3053Z" fill="#D3BB8C"/>
<path d="M29.8759 0L21.3701 8.50586V2.98759H15.2895V14.5865L0 29.8759H8.6113L29.8759 8.6113L51.1406 29.8759H59.7519L29.8759 0Z" fill="#D3BB8C"/>
</svg>
