<?xml version="1.0" encoding="utf-8"?>
<!-- Generator: Adobe Illustrator 23.0.3, SVG Export Plug-In . SVG Version: 6.00 Build 0)  -->
<svg version="1.0" id="Layer_1" xmlns="http://www.w3.org/2000/svg" xmlns:xlink="http://www.w3.org/1999/xlink" x="0px" y="0px"
	 viewBox="0 0 284.6 101" style="enable-background:new 0 0 284.6 101;" xml:space="preserve">
<style type="text/css">
	.st0{fill:#6BA246;}
	.st1{fill:#3E93B1;}
	.st2{fill:#EF3C2C;}
</style>
<g>
	<g>
		<g>
			<path class="st0" d="M107.2,49.9h-4.8c-0.7,0-1.2-0.2-1.5-0.5c-0.3-0.3-0.4-0.8-0.4-1.5V36.3c0-0.7,0.2-1.2,0.5-1.5
				c0.3-0.3,0.8-0.5,1.5-0.5h5c0.7,0,1.4,0,1.9,0.1c0.5,0.1,1,0.3,1.5,0.5c0.4,0.2,0.7,0.5,1,0.8c0.3,0.3,0.5,0.7,0.6,1.1
				c0.1,0.4,0.2,0.8,0.2,1.3c0,1.6-0.8,2.7-2.3,3.4c2,0.7,3.1,1.9,3.1,3.8c0,0.9-0.2,1.7-0.7,2.4c-0.4,0.7-1,1.2-1.8,1.5
				c-0.5,0.2-1,0.3-1.6,0.4C108.7,49.9,108,49.9,107.2,49.9z M103.6,36.7v4h2.9c0.8,0,1.4-0.1,1.8-0.2c0.4-0.1,0.8-0.4,1-0.8
				c0.2-0.3,0.3-0.6,0.3-1c0-0.8-0.3-1.3-0.8-1.6c-0.6-0.3-1.4-0.4-2.6-0.4H103.6z M106.9,43h-3.3v4.5h3.4c2.1,0,3.2-0.8,3.2-2.3
				c0-0.8-0.3-1.4-0.8-1.7C108.8,43.2,108,43,106.9,43z"/>
			<path class="st0" d="M123,34.1c1.6,0,3,0.3,4.2,1c1.2,0.7,2,1.6,2.6,2.8c0.6,1.2,0.9,2.6,0.9,4.3c0,1.2-0.2,2.3-0.5,3.3
				c-0.3,1-0.8,1.8-1.5,2.6c-0.7,0.7-1.5,1.3-2.4,1.7c-0.9,0.4-2,0.6-3.3,0.6c-1.2,0-2.3-0.2-3.3-0.6c-1-0.4-1.8-0.9-2.4-1.7
				c-0.6-0.7-1.1-1.6-1.5-2.6c-0.3-1-0.5-2.1-0.5-3.3c0-1.2,0.2-2.3,0.5-3.3c0.3-1,0.8-1.8,1.5-2.5c0.7-0.7,1.4-1.2,2.4-1.6
				C120.7,34.3,121.8,34.1,123,34.1z M127.5,42.1c0-1.1-0.2-2.1-0.6-3c-0.4-0.8-0.9-1.5-1.6-1.9c-0.7-0.4-1.5-0.6-2.4-0.6
				c-0.6,0-1.2,0.1-1.7,0.4c-0.5,0.2-1,0.6-1.4,1c-0.4,0.5-0.7,1-0.9,1.7c-0.2,0.7-0.3,1.5-0.3,2.4c0,0.9,0.1,1.7,0.3,2.4
				c0.2,0.7,0.5,1.3,0.9,1.8c0.4,0.5,0.9,0.8,1.4,1.1c0.5,0.2,1.1,0.3,1.7,0.3c0.8,0,1.5-0.2,2.2-0.6c0.7-0.4,1.2-1,1.6-1.9
				C127.3,44.3,127.5,43.3,127.5,42.1z"/>
			<path class="st0" d="M145.2,45.2c0,0.9-0.2,1.8-0.7,2.5c-0.5,0.8-1.2,1.3-2.1,1.8s-2,0.6-3.3,0.6c-1.5,0-2.8-0.3-3.8-0.9
				c-0.7-0.4-1.3-1-1.7-1.7c-0.4-0.7-0.7-1.4-0.7-2c0-0.4,0.1-0.7,0.4-1c0.3-0.3,0.6-0.4,1-0.4c0.3,0,0.6,0.1,0.8,0.3
				s0.4,0.5,0.6,0.9c0.2,0.5,0.4,0.9,0.6,1.2c0.2,0.3,0.6,0.6,1,0.8c0.4,0.2,1,0.3,1.6,0.3c0.9,0,1.7-0.2,2.3-0.7
				c0.6-0.4,0.9-1,0.9-1.6c0-0.5-0.2-0.9-0.5-1.3c-0.3-0.3-0.7-0.6-1.2-0.7c-0.5-0.2-1.2-0.3-2-0.5c-1.1-0.3-2.1-0.6-2.8-0.9
				s-1.4-0.8-1.8-1.4c-0.4-0.6-0.7-1.4-0.7-2.3c0-0.9,0.2-1.6,0.7-2.3c0.5-0.7,1.1-1.2,2-1.5c0.9-0.4,1.9-0.5,3.1-0.5
				c1,0,1.8,0.1,2.5,0.4c0.7,0.2,1.3,0.6,1.7,0.9c0.5,0.4,0.8,0.8,1,1.2c0.2,0.4,0.3,0.9,0.3,1.3c0,0.4-0.1,0.7-0.4,1
				c-0.3,0.3-0.6,0.5-1,0.5c-0.4,0-0.6-0.1-0.8-0.3c-0.2-0.2-0.4-0.5-0.6-0.9c-0.3-0.6-0.6-1-1-1.4c-0.4-0.3-1-0.5-1.9-0.5
				c-0.8,0-1.5,0.2-2,0.5c-0.5,0.4-0.7,0.8-0.7,1.3c0,0.3,0.1,0.6,0.3,0.8c0.2,0.2,0.4,0.4,0.7,0.6c0.3,0.2,0.6,0.3,0.9,0.4
				c0.3,0.1,0.8,0.2,1.5,0.4c0.9,0.2,1.7,0.4,2.4,0.7c0.7,0.2,1.3,0.5,1.8,0.9c0.5,0.4,0.9,0.8,1.2,1.3
				C145.1,43.8,145.2,44.4,145.2,45.2z"/>
			<path class="st0" d="M159.7,45.2c0,0.9-0.2,1.8-0.7,2.5c-0.5,0.8-1.2,1.3-2.1,1.8s-2,0.6-3.3,0.6c-1.5,0-2.8-0.3-3.8-0.9
				c-0.7-0.4-1.3-1-1.7-1.7c-0.4-0.7-0.7-1.4-0.7-2c0-0.4,0.1-0.7,0.4-1c0.3-0.3,0.6-0.4,1-0.4c0.3,0,0.6,0.1,0.8,0.3
				s0.4,0.5,0.6,0.9c0.2,0.5,0.4,0.9,0.6,1.2c0.2,0.3,0.6,0.6,1,0.8c0.4,0.2,1,0.3,1.6,0.3c0.9,0,1.7-0.2,2.3-0.7
				c0.6-0.4,0.9-1,0.9-1.6c0-0.5-0.2-0.9-0.5-1.3c-0.3-0.3-0.7-0.6-1.2-0.7c-0.5-0.2-1.2-0.3-2-0.5c-1.1-0.3-2.1-0.6-2.8-0.9
				c-0.8-0.4-1.4-0.8-1.8-1.4c-0.4-0.6-0.7-1.4-0.7-2.3c0-0.9,0.2-1.6,0.7-2.3c0.5-0.7,1.1-1.2,2-1.5c0.9-0.4,1.9-0.5,3.1-0.5
				c1,0,1.8,0.1,2.5,0.4c0.7,0.2,1.3,0.6,1.7,0.9c0.5,0.4,0.8,0.8,1,1.2c0.2,0.4,0.3,0.9,0.3,1.3c0,0.4-0.1,0.7-0.4,1
				c-0.3,0.3-0.6,0.5-1,0.5c-0.4,0-0.6-0.1-0.8-0.3c-0.2-0.2-0.4-0.5-0.6-0.9c-0.3-0.6-0.6-1-1-1.4c-0.4-0.3-1-0.5-1.9-0.5
				c-0.8,0-1.5,0.2-2,0.5c-0.5,0.4-0.7,0.8-0.7,1.3c0,0.3,0.1,0.6,0.3,0.8c0.2,0.2,0.4,0.4,0.7,0.6c0.3,0.2,0.6,0.3,0.9,0.4
				c0.3,0.1,0.8,0.2,1.5,0.4c0.9,0.2,1.7,0.4,2.4,0.7c0.7,0.2,1.3,0.5,1.8,0.9c0.5,0.4,0.9,0.8,1.2,1.3
				C159.6,43.8,159.7,44.4,159.7,45.2z"/>
			<path class="st0" d="M162.5,48.2V36c0-0.6,0.1-1.1,0.4-1.4c0.3-0.3,0.7-0.5,1.1-0.5c0.5,0,0.9,0.2,1.2,0.5
				c0.3,0.3,0.4,0.8,0.4,1.4v12.3c0,0.6-0.1,1.1-0.4,1.4c-0.3,0.3-0.7,0.5-1.2,0.5c-0.5,0-0.8-0.2-1.1-0.5
				C162.6,49.4,162.5,48.9,162.5,48.2z"/>
			<path class="st0" d="M179.4,36.8h-7.1v3.8h6.5c0.5,0,0.8,0.1,1.1,0.3s0.4,0.5,0.4,0.9c0,0.4-0.1,0.6-0.4,0.9
				c-0.2,0.2-0.6,0.3-1.1,0.3h-6.5v4.4h7.3c0.5,0,0.9,0.1,1.1,0.3c0.3,0.2,0.4,0.5,0.4,0.9c0,0.4-0.1,0.7-0.4,0.9
				c-0.3,0.2-0.6,0.3-1.1,0.3h-8.6c-0.7,0-1.2-0.2-1.5-0.5c-0.3-0.3-0.5-0.8-0.5-1.5V36.3c0-0.5,0.1-0.8,0.2-1.1
				c0.1-0.3,0.3-0.5,0.6-0.6c0.3-0.1,0.7-0.2,1.1-0.2h8.3c0.5,0,0.9,0.1,1.1,0.3c0.2,0.2,0.4,0.5,0.4,0.9c0,0.4-0.1,0.7-0.4,0.9
				C180.3,36.6,179.9,36.8,179.4,36.8z"/>
			<path class="st0" d="M187.9,43.2h-1.1v5c0,0.7-0.1,1.1-0.4,1.5c-0.3,0.3-0.7,0.5-1.1,0.5c-0.5,0-0.9-0.2-1.2-0.5
				c-0.3-0.3-0.4-0.8-0.4-1.4v-12c0-0.7,0.2-1.2,0.5-1.5c0.3-0.3,0.8-0.5,1.5-0.5h5.1c0.7,0,1.3,0,1.8,0.1c0.5,0.1,1,0.2,1.4,0.4
				c0.5,0.2,0.9,0.5,1.3,0.9c0.4,0.4,0.7,0.8,0.9,1.3c0.2,0.5,0.3,1,0.3,1.6c0,1.2-0.3,2.1-1,2.8c-0.7,0.7-1.6,1.2-3,1.5
				c0.6,0.3,1.1,0.7,1.6,1.3c0.5,0.6,1,1.2,1.4,1.9c0.4,0.7,0.7,1.2,0.9,1.8c0.2,0.5,0.3,0.9,0.3,1.1c0,0.2-0.1,0.4-0.2,0.6
				c-0.1,0.2-0.3,0.4-0.5,0.5c-0.2,0.1-0.5,0.2-0.8,0.2c-0.4,0-0.7-0.1-0.9-0.2c-0.2-0.2-0.4-0.4-0.6-0.6c-0.2-0.3-0.4-0.6-0.7-1.1
				l-1.3-2.1c-0.5-0.8-0.9-1.4-1.2-1.8c-0.4-0.4-0.7-0.7-1.1-0.8C188.9,43.3,188.5,43.2,187.9,43.2z M189.7,36.7h-2.9V41h2.8
				c0.8,0,1.4-0.1,1.9-0.2c0.5-0.1,0.9-0.4,1.2-0.7c0.3-0.3,0.4-0.7,0.4-1.3c0-0.4-0.1-0.8-0.3-1.1c-0.2-0.3-0.5-0.6-0.9-0.7
				C191.5,36.8,190.8,36.7,189.7,36.7z"/>
			<path class="st0" d="M210.8,43.8h-2.9v4.4c0,0.6-0.1,1.1-0.4,1.4c-0.3,0.3-0.7,0.5-1.1,0.5c-0.5,0-0.9-0.2-1.1-0.5
				c-0.3-0.3-0.4-0.8-0.4-1.4v-12c0-0.7,0.2-1.2,0.5-1.5c0.3-0.3,0.8-0.4,1.5-0.4h4c1.2,0,2.1,0.1,2.8,0.3c0.6,0.2,1.2,0.5,1.7,0.9
				c0.5,0.4,0.8,0.9,1.1,1.5c0.2,0.6,0.4,1.3,0.4,2c0,1.6-0.5,2.8-1.5,3.6C214.2,43.4,212.7,43.8,210.8,43.8z M210,36.7h-2.1v4.8
				h2.1c0.7,0,1.4-0.1,1.9-0.2c0.5-0.2,0.9-0.4,1.1-0.8c0.3-0.4,0.4-0.8,0.4-1.4c0-0.7-0.2-1.2-0.6-1.7
				C212.4,36.9,211.4,36.7,210,36.7z"/>
			<path class="st0" d="M227.3,48.1l-0.7-2h-6.3l-0.7,2c-0.3,0.8-0.5,1.3-0.7,1.6c-0.2,0.3-0.5,0.4-1,0.4c-0.4,0-0.7-0.1-1.1-0.4
				c-0.3-0.3-0.5-0.6-0.5-1c0-0.2,0-0.4,0.1-0.7c0.1-0.2,0.2-0.5,0.3-0.9l4-10.1c0.1-0.3,0.2-0.6,0.4-1c0.2-0.4,0.3-0.7,0.5-1
				c0.2-0.3,0.4-0.5,0.7-0.7c0.3-0.2,0.7-0.2,1.1-0.2c0.4,0,0.8,0.1,1.1,0.2c0.3,0.2,0.5,0.4,0.7,0.6c0.2,0.3,0.3,0.5,0.5,0.8
				c0.1,0.3,0.3,0.7,0.5,1.2l4.1,10c0.3,0.8,0.5,1.3,0.5,1.7c0,0.4-0.2,0.7-0.5,1c-0.3,0.3-0.7,0.5-1.1,0.5c-0.2,0-0.5,0-0.6-0.1
				s-0.3-0.2-0.4-0.4c-0.1-0.2-0.2-0.4-0.4-0.7C227.5,48.6,227.4,48.4,227.3,48.1z M221.1,43.8h4.6l-2.3-6.4L221.1,43.8z"/>
			<path class="st0" d="M237.2,43.2h-1.1v5c0,0.7-0.1,1.1-0.4,1.5c-0.3,0.3-0.7,0.5-1.1,0.5c-0.5,0-0.9-0.2-1.2-0.5
				c-0.3-0.3-0.4-0.8-0.4-1.4v-12c0-0.7,0.2-1.2,0.5-1.5c0.3-0.3,0.8-0.5,1.5-0.5h5.1c0.7,0,1.3,0,1.8,0.1c0.5,0.1,1,0.2,1.4,0.4
				c0.5,0.2,0.9,0.5,1.3,0.9c0.4,0.4,0.7,0.8,0.9,1.3c0.2,0.5,0.3,1,0.3,1.6c0,1.2-0.3,2.1-1,2.8c-0.7,0.7-1.6,1.2-3,1.5
				c0.6,0.3,1.1,0.7,1.6,1.3c0.5,0.6,1,1.2,1.4,1.9c0.4,0.7,0.7,1.2,0.9,1.8c0.2,0.5,0.3,0.9,0.3,1.1c0,0.2-0.1,0.4-0.2,0.6
				c-0.1,0.2-0.3,0.4-0.5,0.5c-0.2,0.1-0.5,0.2-0.8,0.2c-0.4,0-0.7-0.1-0.9-0.2c-0.2-0.2-0.4-0.4-0.6-0.6c-0.2-0.3-0.4-0.6-0.7-1.1
				l-1.3-2.1c-0.5-0.8-0.9-1.4-1.2-1.8c-0.4-0.4-0.7-0.7-1.1-0.8C238.2,43.3,237.8,43.2,237.2,43.2z M239,36.7h-2.9V41h2.8
				c0.8,0,1.4-0.1,1.9-0.2c0.5-0.1,0.9-0.4,1.2-0.7c0.3-0.3,0.4-0.7,0.4-1.3c0-0.4-0.1-0.8-0.3-1.1c-0.2-0.3-0.5-0.6-0.9-0.7
				C240.8,36.8,240.1,36.7,239,36.7z"/>
			<path class="st0" d="M248.7,48.2V36c0-0.6,0.1-1.1,0.4-1.4c0.3-0.3,0.7-0.5,1.1-0.5c0.5,0,0.9,0.2,1.2,0.5
				c0.3,0.3,0.4,0.8,0.4,1.4v12.3c0,0.6-0.1,1.1-0.4,1.4c-0.3,0.3-0.7,0.5-1.2,0.5c-0.5,0-0.8-0.2-1.1-0.5
				C248.9,49.4,248.7,48.9,248.7,48.2z"/>
			<path class="st0" d="M267.2,45.2c0,0.9-0.2,1.8-0.7,2.5c-0.5,0.8-1.2,1.3-2.1,1.8c-0.9,0.4-2,0.6-3.3,0.6c-1.5,0-2.8-0.3-3.8-0.9
				c-0.7-0.4-1.3-1-1.7-1.7c-0.4-0.7-0.7-1.4-0.7-2c0-0.4,0.1-0.7,0.4-1c0.3-0.3,0.6-0.4,1-0.4c0.3,0,0.6,0.1,0.8,0.3
				s0.4,0.5,0.6,0.9c0.2,0.5,0.4,0.9,0.6,1.2c0.2,0.3,0.6,0.6,1,0.8c0.4,0.2,1,0.3,1.6,0.3c0.9,0,1.7-0.2,2.3-0.7
				c0.6-0.4,0.9-1,0.9-1.6c0-0.5-0.2-0.9-0.5-1.3c-0.3-0.3-0.7-0.6-1.2-0.7c-0.5-0.2-1.2-0.3-2-0.5c-1.1-0.3-2.1-0.6-2.8-0.9
				c-0.8-0.4-1.4-0.8-1.8-1.4c-0.4-0.6-0.7-1.4-0.7-2.3c0-0.9,0.2-1.6,0.7-2.3c0.5-0.7,1.1-1.2,2-1.5c0.9-0.4,1.9-0.5,3.1-0.5
				c1,0,1.8,0.1,2.5,0.4c0.7,0.2,1.3,0.6,1.7,0.9c0.5,0.4,0.8,0.8,1,1.2c0.2,0.4,0.3,0.9,0.3,1.3c0,0.4-0.1,0.7-0.4,1
				c-0.3,0.3-0.6,0.5-1,0.5c-0.4,0-0.6-0.1-0.8-0.3c-0.2-0.2-0.4-0.5-0.6-0.9c-0.3-0.6-0.6-1-1-1.4c-0.4-0.3-1-0.5-1.9-0.5
				c-0.8,0-1.5,0.2-2,0.5c-0.5,0.4-0.7,0.8-0.7,1.3c0,0.3,0.1,0.6,0.3,0.8c0.2,0.2,0.4,0.4,0.7,0.6c0.3,0.2,0.6,0.3,0.9,0.4
				c0.3,0.1,0.8,0.2,1.5,0.4c0.9,0.2,1.7,0.4,2.4,0.7c0.7,0.2,1.3,0.5,1.8,0.9c0.5,0.4,0.9,0.8,1.2,1.3
				C267.1,43.8,267.2,44.4,267.2,45.2z"/>
			<path class="st0" d="M273.1,36v4.5h6.8V36c0-0.6,0.1-1.1,0.4-1.4c0.3-0.3,0.7-0.5,1.1-0.5c0.5,0,0.9,0.2,1.2,0.5
				c0.3,0.3,0.4,0.8,0.4,1.4v12.3c0,0.6-0.1,1.1-0.4,1.4c-0.3,0.3-0.7,0.5-1.1,0.5c-0.5,0-0.9-0.2-1.1-0.5c-0.3-0.3-0.4-0.8-0.4-1.4
				V43h-6.8v5.2c0,0.6-0.1,1.1-0.4,1.4c-0.3,0.3-0.7,0.5-1.1,0.5c-0.5,0-0.9-0.2-1.1-0.5c-0.3-0.3-0.4-0.8-0.4-1.4V36
				c0-0.6,0.1-1.1,0.4-1.4c0.3-0.3,0.7-0.5,1.1-0.5c0.5,0,0.9,0.2,1.2,0.5C272.9,34.9,273.1,35.3,273.1,36z"/>
		</g>
		<g>
			<path class="st1" d="M106.4,61.2v17.9h10.1c0.8,0,1.4,0.2,1.9,0.6c0.4,0.4,0.6,0.9,0.6,1.5c0,0.6-0.2,1.1-0.6,1.5
				c-0.4,0.4-1,0.6-1.9,0.6h-12.1c-1.1,0-1.9-0.2-2.3-0.7c-0.5-0.5-0.7-1.3-0.7-2.3v-19c0-1,0.2-1.8,0.7-2.3
				c0.5-0.5,1.1-0.8,1.8-0.8c0.8,0,1.4,0.2,1.8,0.7S106.4,60.2,106.4,61.2z"/>
			<path class="st1" d="M122.5,80.6V61.2c0-1,0.2-1.8,0.7-2.3s1.1-0.8,1.8-0.8c0.7,0,1.4,0.2,1.8,0.7s0.7,1.3,0.7,2.3v19.4
				c0,1-0.2,1.8-0.7,2.3s-1.1,0.8-1.8,0.8c-0.7,0-1.3-0.3-1.8-0.8C122.7,82.4,122.5,81.6,122.5,80.6z"/>
			<path class="st1" d="M143.6,83.2h-7.5c-1.1,0-1.9-0.2-2.3-0.7c-0.5-0.5-0.7-1.3-0.7-2.3V61.6c0-1.1,0.2-1.9,0.7-2.3
				c0.5-0.5,1.2-0.7,2.3-0.7h8c1.2,0,2.2,0.1,3.1,0.2c0.9,0.1,1.6,0.4,2.3,0.8c0.6,0.3,1.1,0.8,1.5,1.3c0.4,0.5,0.8,1.1,1,1.8
				c0.2,0.6,0.4,1.3,0.4,2c0,2.5-1.2,4.3-3.7,5.4c3.2,1,4.9,3,4.9,6c0,1.4-0.4,2.6-1.1,3.7c-0.7,1.1-1.7,1.9-2.9,2.4
				c-0.8,0.3-1.6,0.5-2.6,0.7S144.9,83.2,143.6,83.2z M138,62.3v6.4h4.6c1.2,0,2.2-0.1,2.9-0.4c0.7-0.2,1.2-0.7,1.6-1.3
				c0.3-0.5,0.4-1,0.4-1.6c0-1.2-0.4-2.1-1.3-2.5c-0.9-0.4-2.2-0.6-4.1-0.6H138z M143.2,72.3H138v7.2h5.4c3.4,0,5.1-1.2,5.1-3.6
				c0-1.2-0.4-2.1-1.3-2.7C146.3,72.6,145,72.3,143.2,72.3z"/>
			<path class="st1" d="M164.5,72.7h-1.7v7.9c0,1-0.2,1.8-0.7,2.3c-0.5,0.5-1.1,0.7-1.8,0.7c-0.8,0-1.4-0.3-1.8-0.8
				c-0.4-0.5-0.7-1.3-0.7-2.3v-19c0-1.1,0.2-1.9,0.7-2.3c0.5-0.5,1.3-0.7,2.3-0.7h8.1c1.1,0,2.1,0,2.9,0.1c0.8,0.1,1.5,0.3,2.2,0.6
				c0.8,0.3,1.5,0.8,2.1,1.4c0.6,0.6,1,1.3,1.4,2.1c0.3,0.8,0.5,1.6,0.5,2.5c0,1.8-0.5,3.3-1.6,4.4c-1,1.1-2.6,1.9-4.7,2.3
				c0.9,0.5,1.7,1.2,2.5,2.1c0.8,0.9,1.5,1.9,2.2,2.9c0.6,1,1.1,2,1.5,2.8c0.4,0.8,0.5,1.4,0.5,1.7c0,0.3-0.1,0.6-0.3,1
				c-0.2,0.3-0.5,0.6-0.8,0.8c-0.4,0.2-0.8,0.3-1.2,0.3c-0.6,0-1-0.1-1.4-0.4c-0.4-0.3-0.7-0.6-1-1c-0.3-0.4-0.6-1-1.1-1.8l-2-3.3
				c-0.7-1.2-1.4-2.2-1.9-2.8c-0.6-0.6-1.1-1.1-1.7-1.3C166.2,72.8,165.4,72.7,164.5,72.7z M167.4,62.3h-4.6v6.8h4.5
				c1.2,0,2.2-0.1,3-0.3c0.8-0.2,1.4-0.6,1.9-1.1c0.4-0.5,0.6-1.2,0.6-2.1c0-0.7-0.2-1.3-0.5-1.8s-0.8-0.9-1.4-1.2
				C170.3,62.5,169.1,62.3,167.4,62.3z"/>
			<path class="st1" d="M198.4,80.4l-1.2-3.1h-10l-1.2,3.2c-0.5,1.2-0.9,2.1-1.2,2.5c-0.3,0.4-0.9,0.6-1.6,0.6
				c-0.6,0-1.2-0.2-1.7-0.7c-0.5-0.5-0.7-1-0.7-1.6c0-0.3,0.1-0.7,0.2-1c0.1-0.4,0.3-0.9,0.6-1.5l6.3-16c0.2-0.5,0.4-1,0.6-1.7
				c0.3-0.6,0.5-1.2,0.8-1.6c0.3-0.4,0.7-0.8,1.1-1c0.5-0.3,1-0.4,1.7-0.4c0.7,0,1.3,0.1,1.7,0.4c0.5,0.3,0.8,0.6,1.1,1
				s0.5,0.9,0.7,1.3c0.2,0.5,0.4,1.1,0.7,1.9l6.4,15.9c0.5,1.2,0.8,2.1,0.8,2.6c0,0.6-0.2,1.1-0.7,1.6c-0.5,0.5-1.1,0.7-1.7,0.7
				c-0.4,0-0.7-0.1-1-0.2c-0.3-0.1-0.5-0.3-0.7-0.6c-0.2-0.2-0.4-0.6-0.6-1.1C198.7,81.3,198.5,80.8,198.4,80.4z M188.5,73.6h7.4
				l-3.7-10.2L188.5,73.6z"/>
			<path class="st1" d="M214.1,72.7h-1.7v7.9c0,1-0.2,1.8-0.7,2.3c-0.5,0.5-1.1,0.7-1.8,0.7c-0.8,0-1.4-0.3-1.8-0.8
				c-0.4-0.5-0.7-1.3-0.7-2.3v-19c0-1.1,0.2-1.9,0.7-2.3c0.5-0.5,1.3-0.7,2.3-0.7h8.1c1.1,0,2.1,0,2.9,0.1c0.8,0.1,1.5,0.3,2.2,0.6
				c0.8,0.3,1.5,0.8,2.1,1.4c0.6,0.6,1,1.3,1.4,2.1c0.3,0.8,0.5,1.6,0.5,2.5c0,1.8-0.5,3.3-1.6,4.4c-1,1.1-2.6,1.9-4.7,2.3
				c0.9,0.5,1.7,1.2,2.5,2.1c0.8,0.9,1.5,1.9,2.2,2.9c0.6,1,1.1,2,1.5,2.8c0.4,0.8,0.5,1.4,0.5,1.7c0,0.3-0.1,0.6-0.3,1
				c-0.2,0.3-0.5,0.6-0.8,0.8c-0.4,0.2-0.8,0.3-1.2,0.3c-0.6,0-1-0.1-1.4-0.4c-0.4-0.3-0.7-0.6-1-1c-0.3-0.4-0.6-1-1.1-1.8l-2-3.3
				c-0.7-1.2-1.4-2.2-1.9-2.8c-0.6-0.6-1.1-1.1-1.7-1.3C215.7,72.8,214.9,72.7,214.1,72.7z M216.9,62.3h-4.6v6.8h4.5
				c1.2,0,2.2-0.1,3-0.3c0.8-0.2,1.4-0.6,1.9-1.1c0.4-0.5,0.6-1.2,0.6-2.1c0-0.7-0.2-1.3-0.5-1.8c-0.3-0.5-0.8-0.9-1.4-1.2
				C219.8,62.5,218.6,62.3,216.9,62.3z"/>
			<path class="st1" d="M232.3,80.6V61.2c0-1,0.2-1.8,0.7-2.3c0.5-0.5,1.1-0.8,1.8-0.8c0.7,0,1.4,0.2,1.8,0.7
				c0.5,0.5,0.7,1.3,0.7,2.3v19.4c0,1-0.2,1.8-0.7,2.3c-0.5,0.5-1.1,0.8-1.8,0.8c-0.7,0-1.3-0.3-1.8-0.8
				C232.5,82.4,232.3,81.6,232.3,80.6z"/>
			<path class="st1" d="M259.1,62.4h-11.2v6.1h10.4c0.8,0,1.3,0.2,1.7,0.5c0.4,0.3,0.6,0.8,0.6,1.4s-0.2,1-0.6,1.4
				c-0.4,0.4-0.9,0.5-1.7,0.5h-10.4v7h11.6c0.8,0,1.4,0.2,1.8,0.5c0.4,0.4,0.6,0.8,0.6,1.5c0,0.6-0.2,1.1-0.6,1.4
				c-0.4,0.4-1,0.5-1.8,0.5h-13.6c-1.1,0-1.9-0.2-2.3-0.7c-0.5-0.5-0.7-1.3-0.7-2.3V61.6c0-0.7,0.1-1.3,0.3-1.8c0.2-0.5,0.5-0.8,1-1
				c0.5-0.2,1-0.3,1.7-0.3h13.2c0.8,0,1.4,0.2,1.8,0.5c0.4,0.4,0.6,0.8,0.6,1.4c0,0.6-0.2,1.1-0.6,1.4
				C260.5,62.3,259.9,62.4,259.1,62.4z"/>
			<path class="st1" d="M284.6,75.8c0,1.5-0.4,2.8-1.2,4c-0.8,1.2-1.9,2.1-3.4,2.8c-1.5,0.7-3.2,1-5.3,1c-2.4,0-4.4-0.5-6-1.4
				c-1.1-0.7-2-1.5-2.7-2.6c-0.7-1.1-1.1-2.2-1.1-3.2c0-0.6,0.2-1.1,0.6-1.6c0.4-0.4,1-0.6,1.6-0.6c0.5,0,1,0.2,1.3,0.5
				c0.4,0.3,0.7,0.8,0.9,1.5c0.3,0.8,0.7,1.4,1,2s0.9,1,1.5,1.3c0.7,0.3,1.5,0.5,2.6,0.5c1.5,0,2.7-0.3,3.6-1
				c0.9-0.7,1.4-1.5,1.4-2.6c0-0.8-0.2-1.5-0.7-2s-1.1-0.9-1.9-1.2c-0.8-0.3-1.8-0.6-3.2-0.9c-1.8-0.4-3.3-0.9-4.4-1.5
				c-1.2-0.6-2.1-1.3-2.8-2.3c-0.7-1-1.1-2.1-1.1-3.6c0-1.4,0.4-2.6,1.1-3.6c0.7-1.1,1.8-1.9,3.2-2.4c1.4-0.6,3-0.8,4.9-0.8
				c1.5,0,2.8,0.2,3.9,0.6c1.1,0.4,2,0.9,2.7,1.5c0.7,0.6,1.3,1.3,1.6,2c0.3,0.7,0.5,1.4,0.5,2c0,0.6-0.2,1.1-0.6,1.6
				c-0.4,0.5-0.9,0.7-1.6,0.7c-0.6,0-1-0.1-1.3-0.4c-0.3-0.3-0.6-0.8-1-1.4c-0.4-0.9-1-1.7-1.6-2.2c-0.6-0.5-1.6-0.8-3-0.8
				c-1.3,0-2.3,0.3-3.1,0.8c-0.8,0.6-1.2,1.2-1.2,2c0,0.5,0.1,0.9,0.4,1.3c0.3,0.4,0.6,0.7,1.1,0.9c0.5,0.3,0.9,0.5,1.4,0.6
				c0.5,0.1,1.3,0.4,2.4,0.6c1.4,0.3,2.6,0.7,3.8,1.1c1.1,0.4,2.1,0.9,2.9,1.4c0.8,0.6,1.4,1.3,1.8,2.1
				C284.3,73.5,284.6,74.6,284.6,75.8z"/>
		</g>
	</g>
	<g>
		<path class="st2" d="M13.7,101c-0.4,0-0.8-0.1-1.1-0.2c-1.1-0.5-1.9-1.6-1.9-2.8V58c0-8.3,3.5-16.2,9.5-21.9
			c6.1-5.7,14.1-8.6,22.5-8.1c15.1,0.9,27.1,13,28.1,28.1c0.5,8.4-2.4,16.4-8.1,22.5c-5.7,6-13.6,9.5-21.9,9.5
			c-3.8,0-7.5-0.7-11.1-2.1l-13.8,14.1C15.3,100.7,14.5,101,13.7,101z M40.7,34.1c-6.1,0-11.9,2.3-16.4,6.5
			c-4.9,4.6-7.6,10.8-7.6,17.5v32.4l10-10.3c0.9-0.9,2.3-1.2,3.5-0.6C33.5,81.2,37,82,40.7,82c6.7,0,12.9-2.7,17.5-7.6
			c4.6-4.9,6.9-11.2,6.4-17.9c-0.7-12-10.4-21.6-22.4-22.4C41.7,34.1,41.2,34.1,40.7,34.1z"/>
		<g>
			<g>
				<path class="st1" d="M3,101c-1.7,0-3-1.4-3-3V3c0-1.7,1.4-3,3-3s3,1.4,3,3V98C6.1,99.7,4.7,101,3,101z"/>
			</g>
			<path class="st1" d="M40.8,98.6c-3.1,0-6.3-0.4-9.3-1.1c-1.6-0.4-2.7-2-2.3-3.7c0.4-1.6,2-2.7,3.7-2.3c2.6,0.6,5.2,0.9,7.9,0.9
				c19.1,0,34.7-15.5,34.7-34.7S59.9,23.2,40.8,23.2c-9.5,0-18.3,3.8-24.9,10.6c-1.2,1.2-3.1,1.2-4.3,0.1c-1.2-1.2-1.2-3.1-0.1-4.3
				c7.7-8,18.1-12.4,29.3-12.4c22.5,0,40.8,18.3,40.8,40.8S63.3,98.6,40.8,98.6z"/>
		</g>
		<path class="st0" d="M40.4,77.3c-4.1,0-8-1.3-11.2-3.7c-0.6-0.5-1.5-0.4-2.1,0.1L24.7,76c-0.5,0.5-1.3,0.6-2,0.4
			c-0.7-0.3-1.1-1-1.1-1.7V58.8c0-10.3,8.6-19.1,18.7-19.2l0,0c0,0,0.1,0,0.1,0c5.2,0,10.2,2.2,13.8,6c3.6,3.9,5.4,9,5,14.4
			c-0.7,9.2-8.2,16.7-17.5,17.3C41.3,77.3,40.9,77.3,40.4,77.3z"/>
	</g>
</g>
</svg>
