<?xml version="1.0" encoding="UTF-8"?><svg id="Layer_2" xmlns="http://www.w3.org/2000/svg" xmlns:xlink="http://www.w3.org/1999/xlink" viewBox="0 0 404.39 104.19"><defs><style>.cls-1{fill:url(#New_Gradient_Swatch_2);}.cls-1,.cls-2,.cls-3{stroke-width:0px;}.cls-2{fill:#017247;}.cls-3{fill:#00427b;}</style><radialGradient id="New_Gradient_Swatch_2" cx="11.23" cy="55.02" fx="11.23" fy="55.02" r="69.68" gradientUnits="userSpaceOnUse"><stop offset="0" stop-color="#00a058"/><stop offset="1" stop-color="#00427b"/></radialGradient></defs><g id="Layer_1-2"><path class="cls-1" d="M48.15,50.41s-2.53-10.14,12.67-23.09S80.81,7.87,81.65,0l25.9,57.73s1.37,7.25-9.68,16.09c-14.08,11.26-37.06,9.25-31.15,30.37,0,0-5.07-12.67-14.64-11.26s-26.75,5.35-34.35-.56L0,49.57s8.17.56,18.02-1.41,19.99-7.32,30.13,2.25ZM36.05,67.44c15.65,10.3,24.5,24.51,24.5,24.51,0,0-4.8-13.25-20.29-25.21-14.15-10.93-35.6-13.64-35.6-13.64,15.86,5.02,19.88,6.77,31.39,14.35ZM110.62,57.65c-.84,5.91-1.51,9.31-8.86,15.59-11.02,9.42-22.67,10.16-29.53,15.02-7.88,5.58-5.5,15.94-5.5,15.94-.59-9.4,3.82-14.25,8.71-16.65,6.39-3.14,18.02-4.28,28.99-13.93,8.71-7.66,8.73-16.14,8.73-16.14L90.91,2.37c-.28,1.41-1.69,4.97-2.16,4.97l21.87,50.31ZM115.7,58.66c-.84,5.91-2.05,9.65-9.48,15.83-11.14,9.26-21.87,10.21-30,13.83-9.82,4.38-9.48,15.87-9.48,15.87.82-5.51,2.62-12.03,11-15.13,6.49-2.4,18.48-4.01,31.15-14.21,10.27-8.27,9.36-16.39,9.36-16.39L99.36,4.62c-.28,1.41-1.69,4.97-2.16,4.97l18.5,49.06Z"/><path class="cls-2" d="M137.19,22.25c-.19.99-1.15,4.3-1.47,5.29h-14.83v-.89c2.9-.29,3.16-.45,3.16-3.16v-12.66c0-2.71-.32-2.87-2.87-3.12v-.89h8.55v.89c-2.55.25-2.9.38-2.9,3.12v12.98c0,1.95.26,2.39,2.07,2.42.03,0,2.33.03,2.52.03,1.63,0,2.1-.19,2.84-.99.8-.83,1.47-2.1,1.94-3.28l.99.25Z"/><path class="cls-2" d="M138.88,27.55v-.89c2.01-.19,2.23-.35,2.23-2.52v-6.57c0-1.98-.1-2.1-2.01-2.42v-.77c1.66-.29,3.16-.7,4.53-1.28v11.03c0,2.17.22,2.33,2.3,2.52v.89h-7.05ZM142.19,9.98c-.89,0-1.69-.8-1.69-1.69,0-1.02.8-1.75,1.72-1.75s1.63.73,1.63,1.75c0,.89-.73,1.69-1.66,1.69Z"/><path class="cls-2" d="M156.7,27.55v-.89c1.85-.19,2.04-.41,2.04-2.58v-5.26c0-2.23-.8-3.73-2.9-3.73-1.31,0-2.55.77-3.54,1.66v7.46c0,2.2.19,2.26,2.07,2.46v.89h-6.89v-.89c2.1-.22,2.3-.35,2.3-2.46v-6.57c0-2.07-.22-2.17-1.95-2.46v-.83c1.56-.26,3.12-.67,4.46-1.28v2.52c.64-.45,1.34-.92,2.17-1.47.89-.57,1.72-.96,2.65-.96,2.55,0,4.15,1.88,4.15,4.97v6.06c0,2.17.19,2.26,2.04,2.46v.89h-6.6Z"/><path class="cls-2" d="M177.1,24.68c-1.4,1.85-3.54,3.25-5.45,3.25-4.05,0-6.44-3.28-6.44-6.7,0-2.52,1.08-4.62,3.22-6.25,1.69-1.31,3.6-1.82,4.85-1.82,1.43,0,2.49.45,2.97.86.45.35.51.57.51.93,0,.77-.8,1.43-1.15,1.43-.16,0-.29-.06-.61-.32-.99-.89-2.07-1.34-3.22-1.34-2.1,0-3.95,1.79-3.95,5.1-.03,4.43,3,5.9,4.85,5.9,1.34,0,2.42-.35,3.89-1.75l.54.7Z"/><path class="cls-2" d="M185.93,13.17c3.99,0,6.95,3.03,6.95,7.14,0,5.17-3.83,7.62-6.95,7.62-4.4,0-7.08-3.54-7.08-7.11,0-5.2,4.05-7.65,7.08-7.65ZM185.55,14.25c-1.95,0-3.7,1.88-3.7,5.58,0,4.05,1.79,6.98,4.4,6.98,1.98,0,3.64-1.43,3.64-5.8,0-3.73-1.53-6.76-4.34-6.76Z"/><path class="cls-2" d="M194.67,27.55v-.89c2.04-.19,2.3-.35,2.3-2.46v-15.27c0-1.94-.16-2.14-2.2-2.39v-.83c1.72-.19,3.7-.7,4.72-1.08v19.58c0,2.1.19,2.26,2.26,2.46v.89h-7.08Z"/><path class="cls-2" d="M212.59,27.55v-.89c1.85-.19,2.04-.41,2.04-2.58v-5.26c0-2.23-.8-3.73-2.9-3.73-1.31,0-2.55.77-3.54,1.66v7.46c0,2.2.19,2.26,2.07,2.46v.89h-6.89v-.89c2.1-.22,2.3-.35,2.3-2.46v-6.57c0-2.07-.22-2.17-1.95-2.46v-.83c1.56-.26,3.12-.67,4.46-1.28v2.52c.64-.45,1.34-.92,2.17-1.47.89-.57,1.72-.96,2.65-.96,2.55,0,4.15,1.88,4.15,4.97v6.06c0,2.17.19,2.26,2.04,2.46v.89h-6.6Z"/><path class="cls-2" d="M237.1,6.82c2.26,0,4.08.41,5.39,1.37,1.24.92,2.1,2.42,2.1,4.53,0,4.66-3.99,6.54-7.01,6.54-.35,0-.67-.03-.86-.06l-2.2-.57v4.97c0,2.68.22,2.74,3.16,3.06v.89h-8.8v-.89c2.74-.29,2.87-.48,2.87-3.12v-12.66c0-2.84-.35-2.9-2.87-3.16v-.89h8.23ZM234.52,17.5c.38.19,1.24.41,2.33.41,2.14,0,4.78-1.08,4.78-5.1,0-3.51-2.3-4.91-4.97-4.91-.92,0-1.59.16-1.79.38-.25.22-.35.61-.35,1.47v7.75Z"/><path class="cls-2" d="M256.42,27.93c-.48,0-1.18-.25-1.5-.61-.41-.41-.61-.86-.77-1.43-1.28.86-2.84,2.04-3.83,2.04-2.26,0-3.89-1.88-3.89-3.92,0-1.56.86-2.58,2.61-3.19,1.94-.67,4.34-1.5,5.04-2.07v-.64c0-2.26-1.15-3.57-2.81-3.57-.73,0-1.18.35-1.5.73-.35.45-.57,1.15-.86,2.07-.16.51-.45.73-.93.73-.61,0-1.4-.64-1.4-1.4,0-.45.41-.83,1.05-1.28.92-.67,2.77-1.85,4.59-2.23.96,0,1.94.29,2.68.86,1.12.96,1.63,2.04,1.63,3.7v6.15c0,1.47.54,1.91,1.12,1.91.38,0,.8-.16,1.15-.35l.32.89-2.71,1.59ZM254.09,19.86c-.7.35-2.23,1.02-2.97,1.34-1.21.54-1.94,1.15-1.94,2.33,0,1.69,1.28,2.46,2.3,2.46.83,0,1.98-.51,2.61-1.15v-4.97Z"/><path class="cls-2" d="M267.8,27.55h-7.33v-.89c2.01-.19,2.2-.35,2.2-2.42v-6.63c0-2.1-.13-2.2-1.98-2.42v-.8c1.56-.26,3-.64,4.5-1.31v3.51c1.12-1.66,2.46-3.41,4.05-3.41,1.18,0,1.85.73,1.85,1.53,0,.73-.51,1.43-1.08,1.75-.32.19-.57.16-.83-.06-.48-.48-.86-.8-1.43-.8-.67,0-1.85.99-2.55,2.61v5.99c0,2.1.16,2.26,2.61,2.46v.89Z"/><path class="cls-2" d="M272.55,27.55v-.89c2.01-.19,2.23-.35,2.23-2.52v-6.57c0-1.98-.1-2.1-2.01-2.42v-.77c1.66-.29,3.16-.7,4.53-1.28v11.03c0,2.17.22,2.33,2.3,2.52v.89h-7.05ZM275.87,9.98c-.89,0-1.69-.8-1.69-1.69,0-1.02.8-1.75,1.72-1.75s1.63.73,1.63,1.75c0,.89-.73,1.69-1.66,1.69Z"/><path class="cls-2" d="M289.35,17.34c-.57-1.85-1.4-3.12-3.35-3.12-1.12,0-1.98.8-1.98,2.07,0,1.37.92,2.01,2.71,2.84,2.74,1.31,4.11,2.26,4.11,4.37,0,2.93-2.68,4.43-5.2,4.43-1.66,0-3.12-.51-3.79-.89-.16-.92-.45-2.68-.57-3.73l.93-.16c.57,2.04,1.69,3.7,3.92,3.7,1.21,0,2.23-.83,2.23-2.17,0-1.44-.86-2.17-2.55-3-2.23-1.08-4.05-2.1-4.05-4.4s1.98-4.11,4.97-4.11c1.34,0,2.42.32,3.06.41.1.77.32,2.77.48,3.54l-.92.22Z"/><path class="cls-2" d="M301.69,27.55v-.89c1.85-.19,2.1-.35,2.1-2.46v-5.23c0-2.65-1.02-3.99-3.16-3.95-1.21,0-2.49.61-3.38,1.66v7.53c0,2.07.26,2.26,2.17,2.46v.89h-6.95v-.89c1.85-.16,2.26-.32,2.26-2.46v-15.37c0-1.69-.1-2.1-2.23-2.3v-.83c1.69-.16,3.6-.64,4.75-1.08v10.87c1.15-1.15,2.9-2.33,4.62-2.33,2.61,0,4.43,1.63,4.43,5.45v5.61c0,2.1.25,2.26,2.1,2.42v.89h-6.73Z"/><path class="cls-3" d="M200.96,61.28c-.32,1.67-1.94,7.29-2.48,8.96h-25.1v-1.51c4.91-.49,5.34-.76,5.34-5.34v-21.43c0-4.59-.54-4.86-4.86-5.29v-1.51h14.47v1.51c-4.32.43-4.91.65-4.91,5.29v21.97c0,3.29.43,4.05,3.51,4.1.05,0,3.94.05,4.26.05,2.75,0,3.56-.32,4.8-1.67,1.35-1.4,2.48-3.56,3.29-5.56l1.67.43Z"/><path class="cls-3" d="M203.83,70.24v-1.51c3.4-.32,3.78-.59,3.78-4.26v-11.12c0-3.35-.16-3.56-3.4-4.1v-1.3c2.81-.49,5.34-1.19,7.67-2.16v18.68c0,3.67.38,3.94,3.89,4.26v1.51h-11.93ZM209.44,40.5c-1.51,0-2.86-1.35-2.86-2.86,0-1.73,1.35-2.97,2.91-2.97s2.75,1.24,2.75,2.97c0,1.51-1.24,2.86-2.81,2.86Z"/><path class="cls-3" d="M229.74,46.43c.92-.38,1.73-.54,2.38-.54,5.78,0,10.63,5.02,10.63,11.44,0,7.29-6.26,13.6-13.33,13.55-2.32,0-5.34-.54-8.31-1.94v-30.34c0-3.35-.16-3.67-3.62-3.94v-1.4c2.54-.32,5.88-1.13,7.88-1.84v16.9l4.37-1.89ZM225.37,63.98c0,.86.05,1.35.27,1.89.65,1.35,2.75,2.91,5.34,2.91,4.64,0,6.96-3.99,6.96-10.09s-3.72-9.77-8.2-9.77c-1.57,0-3.35.49-4.37,1.03v14.03Z"/><path class="cls-3" d="M258.67,70.24h-12.41v-1.51c3.4-.32,3.72-.59,3.72-4.1v-11.23c0-3.56-.22-3.72-3.35-4.1v-1.35c2.65-.43,5.07-1.08,7.61-2.21v5.94c1.89-2.81,4.16-5.78,6.86-5.78,2,0,3.13,1.24,3.13,2.59,0,1.24-.86,2.43-1.84,2.97-.54.32-.97.27-1.4-.11-.81-.81-1.46-1.35-2.43-1.35-1.13,0-3.13,1.67-4.32,4.43v10.15c0,3.56.27,3.83,4.43,4.16v1.51Z"/><path class="cls-3" d="M283.67,70.89c-.81,0-2-.43-2.54-1.03-.7-.7-1.03-1.46-1.3-2.43-2.16,1.46-4.8,3.45-6.48,3.45-3.83,0-6.59-3.18-6.59-6.64,0-2.64,1.46-4.37,4.43-5.4,3.29-1.13,7.34-2.54,8.53-3.51v-1.08c0-3.83-1.94-6.05-4.75-6.05-1.24,0-2,.59-2.54,1.24-.59.76-.97,1.94-1.46,3.51-.27.86-.76,1.24-1.57,1.24-1.03,0-2.37-1.08-2.37-2.37,0-.76.7-1.4,1.78-2.16,1.57-1.13,4.7-3.13,7.77-3.78,1.62,0,3.29.49,4.53,1.46,1.89,1.62,2.75,3.45,2.75,6.26v10.42c0,2.48.92,3.24,1.89,3.24.65,0,1.35-.27,1.94-.59l.54,1.51-4.59,2.7ZM279.73,57.23c-1.19.59-3.78,1.73-5.02,2.27-2.05.92-3.29,1.94-3.29,3.94,0,2.86,2.16,4.16,3.89,4.16,1.4,0,3.35-.86,4.43-1.94v-8.42Z"/><path class="cls-3" d="M302.94,70.24h-12.41v-1.51c3.4-.32,3.72-.59,3.72-4.1v-11.23c0-3.56-.22-3.72-3.35-4.1v-1.35c2.65-.43,5.07-1.08,7.61-2.21v5.94c1.89-2.81,4.16-5.78,6.86-5.78,2,0,3.13,1.24,3.13,2.59,0,1.24-.86,2.43-1.84,2.97-.54.32-.97.27-1.4-.11-.81-.81-1.46-1.35-2.43-1.35-1.13,0-3.13,1.67-4.32,4.43v10.15c0,3.56.27,3.83,4.43,4.16v1.51Z"/><path class="cls-3" d="M337,48c-2.81.43-3.4.86-4.75,3.94-1.35,3.02-2.81,6.69-6.53,16.09-3.51,8.64-4.48,11.98-5.34,14.79-.32,1.13-.92,1.4-1.62,1.4-1.73,0-3.29-1.24-3.29-2.59,0-.7.38-1.19,1.19-1.89,1.73-1.35,2.97-2.65,3.62-3.99,1.13-2.27,1.94-4.16,2.21-4.86.22-.81.22-1.3-.11-2.21-2.1-6.15-5.02-12.79-6.64-16.68-1.19-2.97-1.67-3.62-4.64-3.99v-1.46h10.9v1.46c-2.48.38-2.75.92-2.05,2.91l5.24,13.28c1.51-3.72,3.67-9.72,4.8-13.12.65-2.05.27-2.65-2.86-3.08v-1.46h9.88v1.46Z"/><path class="cls-3" d="M178.65,95.63v.2c0,.72.05,1.34.34,1.86.36.66.99.97,1.68.97.73,0,1.36-.32,1.94-.86l.64,1.02c-.79.79-1.74,1.18-2.8,1.18-2.28,0-3.6-1.79-3.6-4.79,0-1.54.27-2.6.93-3.48.63-.82,1.47-1.2,2.46-1.2.91,0,1.7.36,2.24.99.68.81.93,1.74.93,3.8v.3h-4.77ZM181.44,92.5c-.23-.45-.59-.73-1.22-.73-1.06,0-1.52.95-1.58,2.67h3.08c-.02-.84-.09-1.54-.29-1.94Z"/><path class="cls-3" d="M191.94,99.79v-6.13c0-.82-.07-1.11-.27-1.36-.16-.22-.43-.3-.75-.3-.5,0-1.27.38-1.81.99v6.81h-1.61v-6.78c0-.79-.07-1.27-.27-2.08l1.54-.38c.13.25.25.72.27,1.13.72-.72,1.54-1.09,2.42-1.09.66,0,1.24.27,1.61.7.39.45.5,1.04.5,1.63v6.87h-1.63Z"/><path class="cls-3" d="M202,92.34c-.18-.09-.34-.13-.48-.13-.9,0-1.49.72-1.49,1.58v6h-1.65v-6.78c0-.91-.11-1.47-.27-2.1l1.58-.38c.16.41.23.77.23,1.15v.13c.45-.88,1.24-1.31,2.04-1.31.18,0,.41.05.59.14l-.56,1.69Z"/><path class="cls-3" d="M206.79,89.38c-.66,0-1.18-.52-1.18-1.18s.54-1.18,1.2-1.18,1.18.52,1.18,1.18-.54,1.18-1.2,1.18ZM206,99.79v-9l1.68-.2v9.19h-1.68Z"/><path class="cls-3" d="M215.3,100.01c-1.13,0-1.97-.41-2.55-1.31-.54-.84-.81-1.9-.81-3.28,0-1.92.48-3.08,1.22-3.87.61-.66,1.36-1,2.24-1,.99,0,1.61.36,2.2.93l-.81,1.08c-.45-.45-.84-.63-1.4-.63-1.67,0-1.68,2.53-1.68,3.66,0,1.83.54,3.1,1.68,3.1.61,0,1.16-.27,1.6-.84l.82,1c-.75.88-1.56,1.17-2.53,1.17Z"/><path class="cls-3" d="M225.89,99.79v-6.11c0-.59-.07-.97-.25-1.18-.18-.22-.47-.34-.81-.34-.59,0-1.29.32-1.88,1.11v6.52h-1.65v-10.9c0-1.08-.13-1.7-.18-1.9l1.63-.27c.05.2.2.93.2,2.17v1.79c0,.39-.02.66-.05,1.02.61-.65,1.49-1.06,2.46-1.06.7,0,1.29.27,1.65.7.39.47.5,1.2.5,1.79v6.65h-1.61Z"/><path class="cls-3" d="M242.97,95.65c-1.31,0-2.22-1.04-3.35-1.04-.66,0-1.04.39-1.34.97l-.54-1.26c.45-.66.99-1.25,1.95-1.25,1.25,0,2.2,1.04,3.37,1.04.66,0,1.08-.43,1.38-1.02l.52,1.27c-.47.72-1.06,1.29-1.99,1.29Z"/><path class="cls-3" d="M255.98,89.38c-.66,0-1.18-.52-1.18-1.18s.54-1.18,1.2-1.18,1.18.52,1.18,1.18-.54,1.18-1.2,1.18ZM255.2,99.79v-9l1.69-.2v9.19h-1.69Z"/><path class="cls-3" d="M266.13,99.79v-6.13c0-.82-.07-1.11-.27-1.36-.16-.22-.43-.3-.75-.3-.5,0-1.27.38-1.81.99v6.81h-1.61v-6.78c0-.79-.07-1.27-.27-2.08l1.54-.38c.13.25.25.72.27,1.13.72-.72,1.54-1.09,2.42-1.09.66,0,1.24.27,1.61.7.39.45.5,1.04.5,1.63v6.87h-1.63Z"/><path class="cls-3" d="M274.84,100.04c-1.02,0-2.12-.34-2.99-.95l.63-1.25c.75.54,1.63.9,2.46.9s1.36-.57,1.36-1.36-.64-1.09-1.4-1.36l-.68-.25c-1.11-.41-2.03-1.15-2.03-2.44,0-1.69,1.18-2.85,2.89-2.85.95,0,1.81.29,2.53.73l-.56,1.22c-.66-.38-1.24-.65-1.9-.65-.75,0-1.25.54-1.25,1.15,0,.75.38,1.09,1.25,1.42l.72.27c1.02.38,2.1,1.09,2.1,2.47,0,1.81-1.27,2.96-3.12,2.96Z"/><path class="cls-3" d="M285.56,100.01c-.81,0-1.34-.34-1.9-.82.02.34.04,1,.04,1.42v2.67l-1.65.36v-10.66c0-.79-.05-1.51-.2-2.13l1.6-.29c.05.23.11.65.11,1.04v.14c.52-.72,1.27-1.15,2.15-1.15,1.52,0,2.99,1.06,2.99,4.55,0,3.8-1.74,4.88-3.14,4.88ZM285.42,92.03c-.75,0-1.22.36-1.72,1.02v4.68c.47.57.88.91,1.51.91,1.69,0,1.76-2.08,1.76-3.3,0-1.33-.02-3.32-1.54-3.32Z"/><path class="cls-3" d="M293.75,89.38c-.66,0-1.18-.52-1.18-1.18s.54-1.18,1.2-1.18,1.18.52,1.18,1.18-.54,1.18-1.2,1.18ZM292.96,99.79v-9l1.68-.2v9.19h-1.68Z"/><path class="cls-3" d="M303.07,92.34c-.18-.09-.34-.13-.48-.13-.9,0-1.49.72-1.49,1.58v6h-1.65v-6.78c0-.91-.11-1.47-.27-2.1l1.58-.38c.16.41.23.77.23,1.15v.13c.45-.88,1.24-1.31,2.04-1.31.18,0,.41.05.59.14l-.56,1.69Z"/><path class="cls-3" d="M308.14,95.63v.2c0,.72.05,1.34.34,1.86.36.66.99.97,1.68.97.73,0,1.36-.32,1.94-.86l.64,1.02c-.79.79-1.74,1.18-2.8,1.18-2.28,0-3.6-1.79-3.6-4.79,0-1.54.27-2.6.93-3.48.63-.82,1.47-1.2,2.46-1.2.91,0,1.7.36,2.24.99.68.81.93,1.74.93,3.8v.3h-4.77ZM310.94,92.5c-.23-.45-.59-.73-1.22-.73-1.06,0-1.52.95-1.58,2.67h3.08c-.02-.84-.09-1.54-.29-1.94Z"/><path class="cls-3" d="M327.66,95.65c-1.31,0-2.22-1.04-3.35-1.04-.66,0-1.04.39-1.34.97l-.54-1.26c.45-.66.99-1.25,1.95-1.25,1.25,0,2.2,1.04,3.37,1.04.66,0,1.08-.43,1.38-1.02l.52,1.27c-.47.72-1.06,1.29-1.99,1.29Z"/><path class="cls-3" d="M341.14,95.63v.2c0,.72.05,1.34.34,1.86.36.66.99.97,1.68.97.73,0,1.36-.32,1.94-.86l.64,1.02c-.79.79-1.74,1.18-2.8,1.18-2.28,0-3.6-1.79-3.6-4.79,0-1.54.27-2.6.93-3.48.63-.82,1.47-1.2,2.46-1.2.91,0,1.7.36,2.24.99.68.81.93,1.74.93,3.8v.3h-4.77ZM343.93,92.5c-.23-.45-.59-.73-1.22-.73-1.06,0-1.52.95-1.58,2.67h3.08c-.02-.84-.09-1.54-.29-1.94Z"/><path class="cls-3" d="M354.92,99.79c-.07-.2-.16-.56-.18-.82-.47.59-1,.99-1.94.99-2.03,0-3.19-1.7-3.19-4.57,0-1.97.84-4.77,3.24-4.77.73,0,1.42.34,1.81.86-.04-.54-.05-.88-.05-1.34v-3.41l1.63.25v10.11c0,1.34.05,2.15.21,2.71h-1.54ZM354.62,92.71c-.3-.45-.79-.73-1.52-.73-1.61,0-1.68,2.31-1.68,3.42s.02,3.16,1.61,3.16c.65,0,1.36-.32,1.6-.95v-4.89Z"/><path class="cls-3" d="M366.39,100.12c-.43-.41-.59-.73-.68-1.22-.59.79-1.29,1.18-2.35,1.18-.68,0-1.24-.18-1.63-.56-.56-.52-.77-1.31-.77-2.33v-6.36l1.63-.25v6.6c0,.66.09,1.08.39,1.33.2.16.47.25.84.25.73,0,1.2-.48,1.67-1.27v-6.63l1.61-.23v6.58c0,1.08.16,1.56.52,1.99l-1.24.93Z"/><path class="cls-3" d="M374.64,100.01c-1.13,0-1.97-.41-2.55-1.31-.54-.84-.81-1.9-.81-3.28,0-1.92.48-3.08,1.22-3.87.61-.66,1.36-1,2.24-1,.99,0,1.61.36,2.2.93l-.81,1.08c-.45-.45-.84-.63-1.4-.63-1.67,0-1.69,2.53-1.69,3.66,0,1.83.54,3.1,1.69,3.1.61,0,1.16-.27,1.59-.84l.82,1c-.75.88-1.56,1.17-2.53,1.17Z"/><path class="cls-3" d="M386.11,100.15c-.48-.18-.93-.66-1.08-1.2-.64.73-1.27,1.08-2.19,1.08-1.94,0-2.56-1.34-2.56-2.67,0-1.95,1.47-3.12,3.98-3.12.18,0,.25,0,.52.02v-.64c0-.66-.04-1.08-.23-1.33-.22-.27-.48-.39-.9-.39-.88,0-1.85.45-2.4.99l-.73-1.15c1.02-.77,2.17-1.18,3.35-1.18s2.04.5,2.37,1.47c.18.54.18,1.18.18,1.51,0,.04-.07,2.71-.07,3.69s.07,1.38.63,1.77l-.86,1.16ZM384.75,95.44c-.2-.02-.41-.04-.48-.04-1.56,0-2.26.73-2.26,1.85,0,.91.39,1.47,1.16,1.47.65,0,1.27-.45,1.56-1.09l.02-2.19Z"/><path class="cls-3" d="M393.17,100.06c-.43,0-.77-.07-1.09-.21-.57-.23-.9-.9-.9-1.86v-5.91h-.91v-1.29h.91c0-.88.13-2.13.14-2.29l1.61-.32c-.02.29-.11,1.52-.11,2.62h1.83l-.32,1.29h-1.52v5.34c0,1.08.22,1.4.97,1.4.32,0,.47-.05.68-.16l.27,1.02c-.52.29-.99.39-1.56.39Z"/><path class="cls-3" d="M399.62,95.63v.2c0,.72.05,1.34.34,1.86.36.66.99.97,1.68.97.73,0,1.36-.32,1.94-.86l.65,1.02c-.79.79-1.74,1.18-2.8,1.18-2.28,0-3.6-1.79-3.6-4.79,0-1.54.27-2.6.93-3.48.63-.82,1.47-1.2,2.46-1.2.91,0,1.7.36,2.24.99.68.81.93,1.74.93,3.8v.3h-4.77ZM402.42,92.5c-.23-.45-.59-.73-1.22-.73-1.06,0-1.52.95-1.58,2.67h3.08c-.02-.84-.09-1.54-.29-1.94Z"/></g></svg>