<svg xmlns="http://www.w3.org/2000/svg" xmlns:xlink="http://www.w3.org/1999/xlink" width="332" height="85" viewBox="0 0 332 85">
  <defs>
    <clipPath id="clip-path">
      <rect id="Rectangle_2975" data-name="Rectangle 2975" width="330.614" height="84" fill="none"/>
    </clipPath>
    <clipPath id="clip-logo">
      <rect width="332" height="85"/>
    </clipPath>
  </defs>
  <g id="logo" clip-path="url(#clip-logo)">
    <g id="Group_6075" data-name="Group 6075" transform="translate(-668.201 -1195.871)">
      <g id="Group_6012" data-name="Group 6012" transform="translate(669.201 1196.871)">
        <g id="Group_6011" data-name="Group 6011" transform="translate(0 0)" clip-path="url(#clip-path)">
          <path id="Path_53246" data-name="Path 53246" d="M76.955,19.752c.115,0,.172.058.172.23a6.638,6.638,0,0,0,1.09,3.271,4.459,4.459,0,0,0,3.788,2.066,3.508,3.508,0,0,0,3.731-3.357c0-2.641-1.205-3.5-4.246-4.648A13.621,13.621,0,0,1,77.3,14.9a5.459,5.459,0,0,1-1.435-4.1,4.866,4.866,0,0,1,2.009-4.018A5.861,5.861,0,0,1,81.948,5.4a9.028,9.028,0,0,1,3.616.689.494.494,0,0,0,.6-.086l.373-.374a.525.525,0,0,1,.4-.172c.173,0,.23.172.23.46,0,.459.459,4.476.459,4.763,0,.115-.057.172-.172.2L87,11.028a.222.222,0,0,1-.288-.172,8.225,8.225,0,0,0-1.779-3.042,3.765,3.765,0,0,0-2.984-1.2,3.063,3.063,0,0,0-3.214,2.9,3.5,3.5,0,0,0,.8,2.582,9.606,9.606,0,0,0,3.5,1.779,9.032,9.032,0,0,1,4.133,2.239,5.509,5.509,0,0,1,1.434,4.1c0,3.5-2.294,6.37-6.083,6.37a7.5,7.5,0,0,1-4.878-1.377c-.344-.23-.517-.345-.689-.345s-.287.23-.46.517-.285.345-.515.345-.345-.173-.345-.46c.057-.344.46-4.993.517-5.338.029-.172.058-.229.172-.229Z" transform="translate(24.323 1.739)" fill="#579e98"/>
          <path id="Path_53247" data-name="Path 53247" d="M88.331,14.423a.362.362,0,0,1-.4-.4c0-.229.172-.4.544-.544a12.113,12.113,0,0,0,3.933-3.616.47.47,0,0,1,.459-.287c.23,0,.344.172.344.4l-.114,2.84h3.788c.172,0,.23.115.2.23L96.8,14.251c-.028.115-.115.172-.285.172H93.037c-.057,1.205-.086,2.582-.086,3.846v2.582c0,2.239.946,2.7,1.52,2.7a4,4,0,0,0,1.665-.344c.2-.087.287-.087.345.057l.172.344a.357.357,0,0,1-.115.4,5.969,5.969,0,0,1-3.616,1.147,2.942,2.942,0,0,1-3.013-2.582c0-1.033.086-3.329.086-4.419V14.423Z" transform="translate(28.277 3.079)" fill="#579e98"/>
          <path id="Path_53248" data-name="Path 53248" d="M96.964,20.3a2.01,2.01,0,0,1,4.018.115,1.839,1.839,0,0,1-1.894,1.894A1.983,1.983,0,0,1,96.964,20.3" transform="translate(31.182 5.921)" fill="#579e98"/>
          <path id="Path_53249" data-name="Path 53249" d="M128.217,21.475a.223.223,0,0,1,.057.287,10.3,10.3,0,0,1-8.551,4.821,10.16,10.16,0,0,1-7.519-2.7c-2.124-1.894-3.1-5.223-3.1-7.748a11.128,11.128,0,0,1,2.926-7.69A9.922,9.922,0,0,1,119.494,5.4a12.488,12.488,0,0,1,5.8,1.378c.4.229.517.229.574,0l.23-.747c.058-.172.115-.172.459-.172s.4.058.4.459c0,.517.575,5.108.689,5.97.029.172,0,.258-.114.287l-.546.172c-.143.057-.229-.058-.316-.287a10.167,10.167,0,0,0-2.237-3.731,6.843,6.843,0,0,0-4.994-2.122c-4.591,0-6.485,4.131-6.485,8.264a11.615,11.615,0,0,0,2.641,7.46,6.184,6.184,0,0,0,4.936,2.239,8.372,8.372,0,0,0,6.858-3.329c.144-.2.258-.287.345-.2Z" transform="translate(35.087 1.738)" fill="#579e98"/>
          <path id="Path_53250" data-name="Path 53250" d="M135.454,19.867c0-1.492,0-3.1-.745-3.844a2.086,2.086,0,0,0-1.607-.69,3.115,3.115,0,0,0-2.124,1.033,2.492,2.492,0,0,0-.515,1.406v6.2c0,.919.114,1.205.515,1.205h.689c.172,0,.288.058.288.258v.518c0,.172-.058.285-.23.285-.23,0-1.492-.086-2.986-.086-1.78,0-2.869.086-3.1.086-.144,0-.23-.057-.23-.229v-.632c0-.143.115-.2.259-.2h.718c.459,0,.86-.115.946-.459a28.74,28.74,0,0,0,.144-3.559l-.058-10.244c0-1.607-.344-2.182-1.32-2.584l-.515-.172c-.173-.057-.23-.115-.23-.23V7.642c0-.114.057-.172.4-.344a29.8,29.8,0,0,0,3.731-1.665,2.484,2.484,0,0,1,.8-.229c.23,0,.287.229.23.689-.057.517-.057,6.312-.057,7.718v1.78h.171a4.724,4.724,0,0,1,3.7-1.751,3.933,3.933,0,0,1,2.869,1.148c1.32,1.147,1.262,2.582,1.262,4.219v5.51c0,.4.518.459.977.459h.517c.229,0,.287.058.287.2v.632c0,.143-.058.229-.229.229s-1.092-.086-2.841-.086c-1.722,0-2.754.086-3.041.086-.173,0-.23-.057-.23-.2v-.689c0-.114.057-.172.2-.172h.488c.344,0,.745-.115.8-.574.057-.4.057-1.894.057-2.812Z" transform="translate(40.312 1.739)" fill="#579e98"/>
          <path id="Path_53251" data-name="Path 53251" d="M145.037,22.692a5.578,5.578,0,0,1-2.5,1.55,6,6,0,0,1-1.834.2c-1.063,0-1.98-.86-1.98-2.469,0-1.319.572-2.61,2.638-3.529a30.176,30.176,0,0,0,3.5-1.779V15.174a2.8,2.8,0,0,0-.46-1.606,1.908,1.908,0,0,0-1.435-.431,2.982,2.982,0,0,0-1.663.517c-.4.287-.115.716-.115,1.4a1.5,1.5,0,0,1-1.722,1.665.931.931,0,0,1-.975-.975,3.046,3.046,0,0,1,1.319-2.354,7.562,7.562,0,0,1,4.649-1.607,3.3,3.3,0,0,1,2.639.8,2.69,2.69,0,0,1,.69,2.153l.057,4.533v1.378c0,1.549.231,2.009.747,2.009a1.11,1.11,0,0,0,.92-.46c.114-.172.17-.172.284-.115l.345.23c.115.058.172.173.057.459a2.881,2.881,0,0,1-2.639,1.665,2.368,2.368,0,0,1-2.411-1.751Zm-.173-4.964c-1.262.8-3.156,1.291-3.156,3.386,0,1.176.632,1.751,1.318,1.751.806-.058,1.838-.862,1.838-1.378Z" transform="translate(44.538 3.791)" fill="#579e98"/>
          <path id="Path_53252" data-name="Path 53252" d="M150.6,16.752c0-1.32-.23-1.78-1.09-2.239l-.518-.287c-.17-.058-.229-.115-.229-.23v-.172c0-.115.058-.172.229-.258l3.473-1.636a1.368,1.368,0,0,1,.46-.115c.172,0,.229.173.258.345l.258,2.122h.115c.977-1.606,2.182-2.582,3.444-2.582a1.4,1.4,0,0,1,1.492,1.435,1.665,1.665,0,0,1-1.549,1.549,2.208,2.208,0,0,1-.975-.229,1.314,1.314,0,0,0-.8-.23,1.493,1.493,0,0,0-1.2.833,3.266,3.266,0,0,0-.346,1.406v5.481c0,.917.23,1.205.8,1.205h1.263c.17,0,.229.057.229.2v.659c0,.144-.058.2-.2.2-.2,0-1.463-.086-3.559-.086-2.009,0-3.127.086-3.357.086-.144,0-.2-.057-.2-.2v-.63c0-.173.056-.23.258-.23h1a.676.676,0,0,0,.745-.776Z" transform="translate(47.786 3.763)" fill="#579e98"/>
          <path id="Path_53253" data-name="Path 53253" d="M159.518,15.161c0-2.009-.058-4.476-.115-5.223a1.749,1.749,0,0,0-1.463-1.721l-.574-.173c-.173-.057-.173-.115-.173-.23V7.471c0-.057.057-.172.23-.23a23.913,23.913,0,0,0,4.3-1.664,2.611,2.611,0,0,1,.63-.172c.173,0,.287.115.287.517-.057,1.549-.114,7.517-.114,9.1V19.15c0,1.32,0,4.248.057,5.108.057.517.115.919.747.919h1.09c.288,0,.345.058.345.258v.518c0,.172-.057.285-.173.285-.23,0-1.492-.086-3.5-.086-2.181,0-3.329.086-3.558.086-.172,0-.23-.114-.23-.285v-.546c0-.172.058-.23.4-.23h1.09c.288,0,.718-.23.718-1.033V15.161Z" transform="translate(50.551 1.739)" fill="#579e98"/>
          <path id="Path_53254" data-name="Path 53254" d="M167.28,17.73c0,2.926,2.095,4.648,3.731,4.648a3.9,3.9,0,0,0,3.472-1.664c.114-.2.23-.2.344-.144l.431.259c.144.086.2.2,0,.574a5.684,5.684,0,0,1-5.222,3.042,4.988,4.988,0,0,1-4.133-1.55,6.5,6.5,0,0,1-1.608-4.735,5.935,5.935,0,0,1,1.406-4.246c1.205-1.55,2.5-2.124,4.994-2.124,3.271,0,4.332,3.415,4.332,4.591,0,.431-.287.459-.8.459H167.28Zm3.558-1.923c.6,0,.948-.172.948-.4,0-.862-.287-2.555-1.78-2.555-1.4,0-2.268,1.033-2.639,2.956Z" transform="translate(52.835 3.792)" fill="#579e98"/>
          <path id="Path_53255" data-name="Path 53255" d="M174.681,20.484c-.028-.115,0-.2.086-.23l.544-.172c.116-.029.2-.029.258.086l.948,1.607a2.569,2.569,0,0,0,2.467,1.549,1.853,1.853,0,0,0,2.039-1.75c0-1.147-.747-1.664-2.757-2.239-1.952-.574-3.5-1.549-3.5-3.587a3.49,3.49,0,0,1,1.463-3.013,4.747,4.747,0,0,1,2.984-.946,5.564,5.564,0,0,1,2.785.63c.428.23.517.345.544.518l.371,1.951a.363.363,0,0,1-.028.316l-.544.258a.181.181,0,0,1-.23-.115L180.736,13.8a2.332,2.332,0,0,0-1.809-.889,1.785,1.785,0,0,0-1.98,1.635c0,1.178.862,1.521,2.584,1.98a5.3,5.3,0,0,1,2.868,1.493,2.942,2.942,0,0,1,.862,2.3c0,2.411-1.951,4.133-4.793,4.133a6.035,6.035,0,0,1-3.1-.747.724.724,0,0,1-.229-.316Z" transform="translate(56.172 3.792)" fill="#579e98"/>
          <path id="Path_53256" data-name="Path 53256" d="M192.492,12.7c0-1.9,0-4.936-.029-5.252-.057-.488-.374-.632-1-.632h-1.491c-.116,0-.173-.057-.173-.2V5.895c0-.172.057-.229.173-.229.342,0,1.376.086,4.245.086.517,0,2.182-.086,3.157-.086,3.444,0,5.108.316,6.773,1.463a5.435,5.435,0,0,1,2.179,4.361c0,3.559-2.754,5.8-7.633,5.8a17.735,17.735,0,0,1-2.581-.115v1.262c0,1.377,0,5.28.029,5.654.085.63.371.919.889.919h1.606c.23,0,.23.114.23.2v.661c0,.172,0,.287-.23.287-.4,0-1.319-.086-4.419-.086-2.524,0-3.673.086-3.959.086-.229,0-.229-.115-.229-.2v-.718c0-.172,0-.229.172-.229h.917c.975,0,1.205-.115,1.292-.891.029-.287.086-4.763.086-8.092Zm3.616,3.443a7.335,7.335,0,0,0,2.066.23,4.823,4.823,0,0,0,3.443-1.952,5.319,5.319,0,0,0,.689-2.984,4.5,4.5,0,0,0-4.532-4.792,4.027,4.027,0,0,0-1.665.2Z" transform="translate(61.036 1.823)" fill="#579e98"/>
          <path id="Path_53257" data-name="Path 53257" d="M210.26,22.692a5.575,5.575,0,0,1-2.5,1.55,5.988,5.988,0,0,1-1.834.2c-1.061,0-1.98-.86-1.98-2.469,0-1.319.572-2.61,2.641-3.529a30.366,30.366,0,0,0,3.5-1.779V15.174a2.776,2.776,0,0,0-.46-1.606,1.91,1.91,0,0,0-1.435-.431,2.986,2.986,0,0,0-1.664.517c-.4.287-.114.716-.114,1.4a1.5,1.5,0,0,1-1.722,1.665.932.932,0,0,1-.975-.975,3.049,3.049,0,0,1,1.319-2.354,7.567,7.567,0,0,1,4.648-1.607,3.308,3.308,0,0,1,2.641.8,2.689,2.689,0,0,1,.69,2.153l.057,4.533v1.378c0,1.549.23,2.009.745,2.009a1.107,1.107,0,0,0,.92-.46c.114-.172.172-.172.285-.115l.346.23c.114.058.17.173.057.459a2.883,2.883,0,0,1-2.641,1.665,2.37,2.37,0,0,1-2.411-1.751Zm-.173-4.964c-1.262.8-3.157,1.291-3.157,3.386,0,1.176.633,1.751,1.319,1.751.806-.058,1.838-.862,1.838-1.378Z" transform="translate(65.513 3.791)" fill="#579e98"/>
          <path id="Path_53258" data-name="Path 53258" d="M215.825,16.752c0-1.32-.23-1.78-1.092-2.239l-.517-.287c-.171-.058-.23-.115-.23-.23v-.172c0-.115.059-.172.23-.258l3.474-1.636a1.355,1.355,0,0,1,.457-.115c.173,0,.23.173.258.345l.26,2.122h.114c.977-1.606,2.182-2.582,3.444-2.582a1.4,1.4,0,0,1,1.492,1.435,1.665,1.665,0,0,1-1.549,1.549,2.208,2.208,0,0,1-.975-.229,1.313,1.313,0,0,0-.8-.23,1.493,1.493,0,0,0-1.205.833,3.266,3.266,0,0,0-.346,1.406v5.481c0,.917.23,1.205.8,1.205h1.265c.17,0,.23.057.23.2v.659c0,.144-.059.2-.2.2-.2,0-1.463-.086-3.559-.086-2.009,0-3.128.086-3.356.086-.145,0-.2-.057-.2-.2v-.63c0-.173.057-.23.259-.23h1a.676.676,0,0,0,.745-.776Z" transform="translate(68.761 3.763)" fill="#579e98"/>
          <path id="Path_53259" data-name="Path 53259" d="M224.593,17.477c0-.86-.173-1.434-1.492-1.779-.259-.057-.289-.143-.289-.258v-.316c0-.115.059-.172.2-.23.4-.172,3.243-1.176,3.731-1.377a1.991,1.991,0,0,1,.689-.172c.173,0,.258.115.23.345-.057.459-.057,2.294-.057,4.677v3.1c0,1.09,0,2.122.057,2.467.057.517.173.747.46.747h1.148c.23,0,.287.057.287.2v.575c0,.172-.057.287-.23.287-.23,0-1.549-.086-3.472-.086-1.665,0-2.754.086-3.1.086-.141,0-.23-.058-.23-.287V24.91c0-.172.116-.229.287-.229h1.265c.287,0,.428-.115.457-.575.03-.86.06-1.779.06-2.582Zm.975-7.03a1.809,1.809,0,0,1-1.838-1.722,1.943,1.943,0,0,1,2.009-1.779,1.725,1.725,0,0,1,1.781,1.664,1.822,1.822,0,0,1-1.952,1.837" transform="translate(71.561 2.235)" fill="#579e98"/>
          <path id="Path_53260" data-name="Path 53260" d="M229.7,20.484c-.028-.115,0-.2.085-.23l.546-.172c.115-.029.2-.029.258.086l.948,1.607A2.569,2.569,0,0,0,234,23.324a1.853,1.853,0,0,0,2.039-1.75c0-1.147-.747-1.664-2.757-2.239-1.952-.574-3.5-1.549-3.5-3.587a3.491,3.491,0,0,1,1.464-3.013,4.747,4.747,0,0,1,2.984-.946,5.564,5.564,0,0,1,2.785.63c.428.23.517.345.544.518l.371,1.951a.364.364,0,0,1-.028.316l-.544.258a.181.181,0,0,1-.23-.115L235.751,13.8a2.332,2.332,0,0,0-1.809-.889,1.785,1.785,0,0,0-1.98,1.635c0,1.178.862,1.521,2.584,1.98a5.3,5.3,0,0,1,2.868,1.493,2.941,2.941,0,0,1,.862,2.3c0,2.411-1.951,4.133-4.793,4.133a6.035,6.035,0,0,1-3.1-.747.724.724,0,0,1-.229-.316Z" transform="translate(73.864 3.792)" fill="#579e98"/>
          <path id="Path_53261" data-name="Path 53261" d="M248.069,19.867c0-1.492,0-3.1-.745-3.844a2.087,2.087,0,0,0-1.608-.69,3.115,3.115,0,0,0-2.122,1.033,2.5,2.5,0,0,0-.515,1.406v6.2c0,.919.114,1.205.515,1.205h.69c.17,0,.287.058.287.258v.518c0,.172-.059.285-.23.285-.23,0-1.492-.086-2.984-.086-1.782,0-2.871.086-3.1.086-.144,0-.23-.057-.23-.229v-.632c0-.143.114-.2.259-.2H239c.459,0,.862-.115.948-.459a29.11,29.11,0,0,0,.141-3.559l-.057-10.244c0-1.607-.344-2.182-1.319-2.584l-.517-.172c-.173-.057-.229-.115-.229-.23V7.642c0-.114.056-.172.4-.344A29.727,29.727,0,0,0,242.1,5.634a2.484,2.484,0,0,1,.8-.229c.23,0,.287.229.23.689-.057.517-.057,6.312-.057,7.718v1.78h.17a4.726,4.726,0,0,1,3.7-1.751,3.931,3.931,0,0,1,2.87,1.148c1.322,1.147,1.262,2.582,1.262,4.219v5.51c0,.4.517.459.977.459h.515c.23,0,.289.058.289.2v.632c0,.143-.06.229-.23.229s-1.092-.086-2.841-.086c-1.722,0-2.754.086-3.041.086-.173,0-.23-.057-.23-.2v-.689c0-.114.057-.172.2-.172h.488c.342,0,.745-.115.8-.574.057-.4.057-1.894.057-2.812Z" transform="translate(76.528 1.739)" fill="#579e98"/>
          <path id="Path_53262" data-name="Path 53262" d="M75.872,70.747V26.3h5.774V65.844h23.326v4.9Z" transform="translate(24.399 8.457)" fill="#475469"/>
          <rect id="Rectangle_2974" data-name="Rectangle 2974" width="5.774" height="44.452" transform="translate(134.503 34.752)" fill="#475469"/>
          <path id="Path_53263" data-name="Path 53263" d="M132.5,47.375q5.269,1.285,7.641,4.331a10.936,10.936,0,0,1,2.371,6.9,11.7,11.7,0,0,1-1.636,5.991,12.029,12.029,0,0,1-4.641,4.48q-3,1.671-10.4,1.672H112.523V26.3h11.8q8.064,0,10.838,1.156a8.624,8.624,0,0,1,4.17,3.426,9.391,9.391,0,0,1,1.4,5.018,11.905,11.905,0,0,1-1.776,6.071q-1.778,3.023-6.451,5.408M118.3,45.633h5.568a14.063,14.063,0,0,0,6.427-1.144,8.654,8.654,0,0,0,3.414-3.288,8.484,8.484,0,0,0,1.273-4.389,5.527,5.527,0,0,0-1.994-4.273q-1.992-1.776-7.171-1.776H118.3Zm0,20.668h8.179q5.775,0,7.906-2.166a7.031,7.031,0,0,0,2.13-5.1,7.6,7.6,0,0,0-1.374-4.388,9.908,9.908,0,0,0-4.078-3.278q-2.7-1.271-8.454-1.271H118.3Z" transform="translate(36.186 8.457)" fill="#475469"/>
          <path id="Path_53264" data-name="Path 53264" d="M146.54,70.746h-5.774V26.3h13.747q5.065,0,7.619,1.455a10.384,10.384,0,0,1,4.043,4.226,12.481,12.481,0,0,1,1.489,6,12.741,12.741,0,0,1-1.006,5,14.539,14.539,0,0,1-2.832,4.318,15.545,15.545,0,0,1-5.625,3.449,9.616,9.616,0,0,1,2.154,1.522,15.2,15.2,0,0,1,1.741,2.326q1.033,1.606,1.812,3l7.078,13.152h-6.621L158.2,59.059a25.956,25.956,0,0,0-5.819-7.423H146.54Zm0-23.555H152.2a10.752,10.752,0,0,0,5.421-1.1,7.769,7.769,0,0,0,2.931-3.209,9.69,9.69,0,0,0,1.089-4.513,7.954,7.954,0,0,0-.859-3.735,7.435,7.435,0,0,0-2.522-2.761q-1.661-1.11-5.647-1.111H146.54Z" transform="translate(45.269 8.457)" fill="#475469"/>
          <path id="Path_53265" data-name="Path 53265" d="M170.5,70.748h-5.362L183.359,26.3H189.2l16.819,44.452h-6.256l-4.606-12.237H175.546Zm6.781-16.681h16.154l-7.791-20.645Z" transform="translate(53.108 8.457)" fill="#475469"/>
          <path id="Path_53266" data-name="Path 53266" d="M205.694,70.746H199.92V26.3h13.747q5.065,0,7.62,1.455a10.364,10.364,0,0,1,4.041,4.226,12.481,12.481,0,0,1,1.49,6,12.74,12.74,0,0,1-1.006,5,14.582,14.582,0,0,1-2.829,4.318,15.57,15.57,0,0,1-5.627,3.449,9.66,9.66,0,0,1,2.156,1.522,15.2,15.2,0,0,1,1.739,2.326c.69,1.07,1.291,2.07,1.813,3l7.08,13.152H223.52l-6.164-11.687a25.952,25.952,0,0,0-5.818-7.423h-5.844Zm0-23.555h5.66a10.738,10.738,0,0,0,5.419-1.1,7.772,7.772,0,0,0,2.933-3.209,9.707,9.707,0,0,0,1.089-4.513,7.954,7.954,0,0,0-.86-3.735,7.428,7.428,0,0,0-2.519-2.761q-1.665-1.11-5.65-1.111h-6.071Z" transform="translate(64.292 8.457)" fill="#475469"/>
          <path id="Path_53267" data-name="Path 53267" d="M244.285,70.747h-5.752V49.8L224.123,26.3h6.735L241.972,44.26,252.924,26.3h5.614L244.285,49.8Z" transform="translate(72.075 8.457)" fill="#475469"/>
          <path id="Path_53268" data-name="Path 53268" d="M68.617,62.933c.1-.019.206-.026.309-.038,6.258-1.052,14.7-11.425,12.76-22.976L42.673,48.548A37.34,37.34,0,0,0,68.617,62.933" transform="translate(13.723 12.838)" fill="#7b8495"/>
          <path id="Path_53269" data-name="Path 53269" d="M52.464,40.154A60.69,60.69,0,0,0,48.671,67.52c8.712,2.478,16.306,5.1,16.306,5.1-4.228-24.439.611-39.593,18.029-59.4C74.086,10.9,45.8,2.434,33.33,0,26.764,7.221,18.8,18.73,16.518,29.828c15.423,4.713,27.268,7.631,35.946,10.326" transform="translate(5.312 0.001)" fill="#579e98"/>
          <path id="Path_53270" data-name="Path 53270" d="M45.48,47.937A60.668,60.668,0,0,0,52.8,74.577c8.983-1.162,17-1.751,17-1.751-13.533-20.787-16.39-36.62-8.2-61.693-9.108,1.394-38.441,4.778-50.86,7.463C7.546,27.821,6.094,41.537,8.378,52.637c16.031-1.756,28.065-3.751,37.1-4.7" transform="translate(2.336 3.581)" fill="#bedaa0"/>
          <path id="Path_53271" data-name="Path 53271" d="M81.847,66.724c-3.583-.263-15.7-1.853-25.451-14.174-4.556-5.758-8.485-13.809-10.567-25.076L0,38.388S10.879,79.989,42.393,74.7c25.9-4.343,41.393-8.051,41.393-8.051a16.722,16.722,0,0,1-1.939.075" transform="translate(0 8.836)" fill="#475469"/>
        </g>
      </g>
    </g>
  </g>
</svg>
