<?xml version="1.0" encoding="UTF-8"?> <!-- Generator: Adobe Illustrator 25.4.1, SVG Export Plug-In . SVG Version: 6.00 Build 0) --> <svg xmlns="http://www.w3.org/2000/svg" xmlns:xlink="http://www.w3.org/1999/xlink" version="1.1" id="Layer_1" x="0px" y="0px" viewBox="0 0 683.2 531.1" style="enable-background:new 0 0 683.2 531.1;" xml:space="preserve"> <style type="text/css"> .st0{fill:#EBA525;} .st1{fill:#1B365D;} </style> <path class="st0" d="M234.9,51.4l176.3,108.2c0.7,0.4,1.1,1.2,1.1,2v39.8c0,0.8-0.9,1.3-1.6,0.9L233.9,93.7c-0.1-0.1-0.3-0.1-0.4,0 L55.2,203.1c-0.7,0.4-1.6-0.1-1.6-0.9v-39.8c0-0.8,0.4-1.5,1.1-2L232.5,51.4C233.2,50.9,234.1,50.9,234.9,51.4z M152.5,479.4h9.2 v-9.7h9c12.6,0,19.2-7.4,19.2-16.5s-6.6-16.5-19.1-16.5h-18.3V479.4z M161.8,461.7v-17.1h9.5c5.4,0,9,3.8,9,8.6c0,4.7-3.6,8.6-9,8.6 H161.8z M209.6,480c3.8,0,8-1.4,10.3-4.6v4h8.6v-32.9h-8.6v4c-2.4-3.2-6.5-4.7-10.3-4.7c-9.1,0-14.9,7.6-14.9,17.1 C194.8,472.4,200.6,480,209.6,480z M211.9,471.9c-4.7,0-8.2-3.8-8.2-9c0-5.1,3.4-9,8.2-9c4.5,0,7.8,3.8,7.8,9 C219.7,468.2,216.4,471.9,211.9,471.9z M235.3,479.4h8.8v-12.6c0-7.8,3.8-11.3,11.4-11.3v-9.6c-7.2,0-10.6,4.3-11.5,7v-6.3h-8.7 V479.4z M264.6,442.4c2.9,0,5.3-2.4,5.3-5.2c0-2.9-2.4-5.3-5.3-5.3c-2.8,0-5.2,2.4-5.2,5.3C259.4,440.1,261.8,442.4,264.6,442.4z M260.3,479.4h8.8v-32.9h-8.8V479.4z M287.5,480c6.1,0,14.4-2.7,14.4-10.8c0-6.7-6.1-9.2-11.7-10.5c-3-0.7-5.8-1.3-5.8-3.1 c0-1.4,1.9-2.3,4-2.3c2.9,0,5.9,0.7,9.2,2.3l3-6.6c-3.4-2-6.8-3.3-12.2-3.3c-6.2,0-12.8,3.6-12.8,10.3c0,6.3,5.3,8.5,11.9,10.2 c2.8,0.8,5.7,1.3,5.7,3.2s-3.4,2.8-5.4,2.8c-4.9,0-8-1.8-10.3-3.5l-3.2,6.8C275.9,477.3,280.5,480,287.5,480z M307.2,479.4h8.8 v-16.7c0-4.7,2.6-8.5,7.2-8.5c4.3,0,5.8,2.6,5.8,7.4v17.8h8.8v-19c0-9.2-3.2-14.6-11.7-14.6c-4,0-7.6,1.4-10.1,4.8V436h-8.8V479.4z M356,479.4h9.4l2.9-6.8h21.7l2.9,6.8h9.4l-18.6-42.7h-9.1L356,479.4z M371.1,465.4l4.9-12.2c1.3-3.2,3-7.5,3-7.6 c0.1,0.1,1.7,4.4,3,7.6l4.9,12.2H371.1z M417.9,480c6.1,0,14.4-2.7,14.4-10.8c0-6.7-6.1-9.2-11.7-10.5c-3-0.7-5.8-1.3-5.8-3.1 c0-1.4,1.9-2.3,4-2.3c2.9,0,5.9,0.7,9.2,2.3l3-6.6c-3.4-2-6.8-3.3-12.2-3.3c-6.2,0-12.8,3.6-12.8,10.3c0,6.3,5.3,8.5,11.9,10.2 c2.8,0.8,5.7,1.3,5.7,3.2s-3.4,2.8-5.4,2.8c-4.9,0-8-1.8-10.3-3.5l-3.2,6.8C406.3,477.3,410.9,480,417.9,480z M449.3,480 c6.1,0,14.4-2.7,14.4-10.8c0-6.7-6.1-9.2-11.7-10.5c-3-0.7-5.8-1.3-5.8-3.1c0-1.4,1.9-2.3,4-2.3c2.9,0,5.9,0.7,9.2,2.3l3-6.6 c-3.4-2-6.8-3.3-12.2-3.3c-6.2,0-12.8,3.6-12.8,10.3c0,6.3,5.3,8.5,11.9,10.2c2.8,0.8,5.7,1.3,5.7,3.2s-3.4,2.8-5.4,2.8 c-4.9,0-8-1.8-10.3-3.5l-3.2,6.8C437.7,477.3,442.2,480,449.3,480z M485.9,480c4.3,0,8.6-1.2,12.2-3.6l-3.3-6.3 c-2.4,1.6-5.7,2.6-8.9,2.6c-4.3,0-8.1-2.2-9.2-6.7h23.9c0,0,0.2-1.6,0.2-3.2c0-9.4-7-17-16-17c-9.7,0-17.1,7.6-17.1,17.1 C467.9,473.8,476.3,480,485.9,480z M476.7,460.1c0.9-4.1,4.1-6.9,8-6.9c4,0,7.3,2.8,8,6.9H476.7z M518.5,480 c6.1,0,14.4-2.7,14.4-10.8c0-6.7-6.1-9.2-11.7-10.5c-3-0.7-5.8-1.3-5.8-3.1c0-1.4,1.9-2.3,4-2.3c2.9,0,5.9,0.7,9.2,2.3l3-6.6 c-3.4-2-6.8-3.3-12.2-3.3c-6.2,0-12.8,3.6-12.8,10.3c0,6.3,5.3,8.5,11.9,10.2c2.8,0.8,5.7,1.3,5.7,3.2s-3.4,2.8-5.4,2.8 c-4.9,0-8-1.8-10.3-3.5l-3.2,6.8C506.9,477.3,511.4,480,518.5,480z M549.8,480c6.1,0,14.4-2.7,14.4-10.8c0-6.7-6.1-9.2-11.7-10.5 c-3-0.7-5.8-1.3-5.8-3.1c0-1.4,1.9-2.3,4-2.3c2.9,0,5.9,0.7,9.2,2.3l3-6.6c-3.4-2-6.8-3.3-12.2-3.3c-6.2,0-12.8,3.6-12.8,10.3 c0,6.3,5.3,8.5,11.9,10.2c2.8,0.8,5.7,1.3,5.7,3.2s-3.4,2.8-5.4,2.8c-4.9,0-8-1.8-10.3-3.5l-3.2,6.8 C538.2,477.3,542.8,480,549.8,480z M586,480c9.9,0,17.6-7.6,17.6-17.1c0-9.5-7.8-17.1-17.6-17.1c-9.8,0-17.6,7.6-17.6,17.1 C568.4,472.5,576.2,480,586,480z M586,471.9c-4.9,0-8.6-3.8-8.6-9c0-5.1,3.7-9,8.6-9c4.9,0,8.6,3.8,8.6,9 C594.7,468.1,591,471.9,586,471.9z M609.4,479.4h8.8v-12.6c0-7.8,3.8-11.3,11.4-11.3v-9.6c-7.2,0-10.6,4.3-11.5,7v-6.3h-8.7V479.4z"></path> <path class="st1" d="M162.9,292.3c6.9-11.8,16.5-21.1,28.8-27.8c12.3-6.7,26.2-10,41.9-10s29.6,3.4,41.7,10 c12.2,6.7,21.5,15.9,28.1,27.6c6.6,11.7,9.9,24.8,9.9,39.4c0,14.5-3.3,27.7-9.9,39.4c-6.6,11.7-16,21-28.1,27.8 c-12.2,6.8-26.2,10.2-42.1,10.2c-15.5,0-29.3-3.1-41.6-9.4c-12.3-6.2-21.9-15.2-28.8-26.9c-6.9-11.7-10.4-25.4-10.4-41.1 C152.5,317.2,156,304.1,162.9,292.3z M203,364.4c7.9,8.7,17.8,13.1,29.6,13.1c12.3,0,22.3-4.3,30.2-12.9 c7.8-8.6,11.8-19.5,11.8-32.7c0-13.2-3.9-24.1-11.8-32.9c-7.8-8.7-17.9-13.1-30.2-13.1c-11.8,0-21.7,4.5-29.6,13.5 c-8,9-11.9,19.8-11.9,32.5C191,344.8,195,355.6,203,364.4z M615.8,266.9c9,8.1,13.6,18.5,13.8,31.2v104.7c0,1.3-1,2.3-2.3,2.3h-33.6 c-1.3,0-2.3-1-2.3-2.3v-91.1c-0.5-7.5-2.7-13.4-6.6-17.7c-4-4.3-9.9-6.6-17.9-6.8c-11.8,0-21.5,5.1-29.1,15.2 c-7.6,10.1-11.4,23-11.4,38.7v61.8c0,1.3-1,2.3-2.3,2.3h-33.6c-1.3,0-2.3-1-2.3-2.3V263.3c0-1.3,1-2.3,2.3-2.3h30.1 c1.2,0,2.2,0.9,2.3,2.1l2.5,23.5c5.2-10,12.8-17.8,22.7-23.3c9.9-5.6,21.3-8.4,34.2-8.4C595.7,254.8,606.8,258.9,615.8,266.9z M455.8,266.9c-9-8.1-20.2-12.1-33.6-12.1c-12.9,0-24.3,2.8-33.9,8.4c-9.7,5.6-17.2,13-22.7,22.3v-79.1c0-1.3-1-2.3-2.3-2.3h-32.9 c-1.3,0-2.3,1-2.3,2.3v196.4c0,1.3,1,2.3,2.3,2.3h33.6c1.3,0,2.3-1,2.3-2.3V341c0-15.4,3.8-28.3,11.4-38.5 c7.6-10.2,17.3-15.3,29.1-15.3c7.9,0.2,13.9,2.5,17.9,6.8c4,4.3,6.2,10.2,6.6,17.7v91.1c0,1.3,1,2.3,2.3,2.3h33.6 c1.3,0,2.3-1,2.3-2.3V298.1C469.4,285.4,464.8,275,455.8,266.9z M102.5,204.1c-1.3,0-2.3,1-2.3,2.3V356c0,20.2-4.8,35.4-14.5,45.5 c-7.6,7.9-17.4,13-29.3,15.3c-1.1,0.2-1.9,1.1-1.9,2.2v34.4c0,1.4,1.2,2.5,2.6,2.3c14-1.7,26.7-5.7,37.9-12.1 c14.1-8,25.1-19.3,33.1-34.1c7.9-14.8,11.9-32.3,11.9-52.5V206.4c0-1.3-1-2.3-2.3-2.3H102.5z M167.6,202.6h16.5c0.5,0,0.9,0.4,1,0.9 c0.7,8.3,5.4,14.9,19,14.9c11.1,0,15.7-4.4,15.7-9.9c0-18.1-51.3-5.1-51.3-36.2c0-12.8,8.8-24.1,33.6-24.1 c25.8,0,34.1,12.2,34.7,28.3c0,0.6-0.4,1-1,1l-16.4,0c-0.5,0-0.9-0.4-1-0.8c-1.1-8-4.2-13.2-16.7-13.2c-12.1,0-14.9,4.4-14.9,8.4 c0,17,51.1,3.5,51.1,35.4c0,12.1-7.3,25.9-35,25.9c-25.3,0-35.8-11.6-36.2-29.7C166.6,203,167.1,202.6,167.6,202.6z M296.3,233.3 c5.5,0,10-4.5,10-10c0-5.5-4.5-10-10-10c-5.5,0-10,4.5-10,10C286.2,228.9,290.7,233.3,296.3,233.3z M279.1,219.5 c0-0.5-0.4-0.9-0.9-1c-6.4-0.5-8.9-2.9-8.9-8.4v-29.7h16c0.5,0,1-0.4,1-1v-12.6c0-0.5-0.4-1-1-1h-16.5v-15.6c0-0.5-0.4-1-1-1h-15.3 c-0.5,0-1,0.4-1,1v15.9l-9.2,5.2c-0.3,0.2-0.5,0.5-0.5,0.9v7.3c0,0.5,0.4,1,1,1h8.7v29.8c0,18,8.6,23.4,26.7,23.1c0.5,0,1-0.4,1-1 L279.1,219.5z"></path> </svg> 