<svg xmlns="http://www.w3.org/2000/svg" width="470" height="104" fill="none" viewBox="0 0 470 104"><path fill="#16388D" d="M154.987 16.53q2.513-.407 4.569-.408 3.837 0 6.649 1.833t3.358 5.598c.093.638.139 1.268.139 1.906 0 1.813-.351 3.554-1.053 5.21-2.589-1.695-6.245-2.687-10.967-2.99q-2.193-.137-4.616-.137c-3.536 0-7.371.21-11.516.637q1.143 1.677 1.145 4.35c0 1.629-.337 3.567-1.006 5.801l-13.066 42.754c-3.292-1.058-5.649-2.51-7.087-4.35q-1.053-1.358-1.053-3.81c0-1.755.398-3.897 1.186-6.44.55-1.695 1.53-4.796 2.947-9.316a931 931 0 0 0 4.43-14.574c1.537-5.197 2.782-9.671 3.722-13.416-1.947.243-3.9.512-5.847.814-1.736.395-3.338.592-4.795.592q-4.114.002-6.808-2.037c-1.49-1.15-2.239-2.661-2.239-4.534 0-1.51.491-3.265 1.464-5.256.609 2.057 2.589 3.173 5.94 3.357q1.005.048 2.06.046c2.954 0 6.636-.387 11.033-1.156 4.404-.769 9.166-1.748 14.278-2.924a959 959 0 0 1 7.126-1.544z"/><path fill="#16388D" d="M169.106 47.818q-9.276 2.544-15.285 9.79-6.007 7.252-6.424 15.145c0 .722.166 1.15.504 1.268s.576.184.728.184q.457 0 .914-.454 6.578-8.11 15.172-21.899 4.204 1.863 5.716 3.942 1.509 2.09 1.509 3.943-.002 1.497-.728 3.311L165 81.091l-2.927-1.722a6 6 0 0 1-.503-.361c-1.067-.664-1.894-1.367-2.49-2.11q-.894-1.111-.894-2.785c0-.27.013-.546.046-.815.185-1.511.987-3.66 2.424-6.44l-5.576 9.705q-2.832 4.258-5.027 4.376a97 97 0 0 1-2.377.112q-5.116-.001-7.312-4.488c-1.099-2.266-1.642-4.73-1.642-7.391 0-2.963.669-6.163 2.013-9.613q3.797-9.885 11.696-15.099 4.113-2.356 8.039-2.358c.576 0 1.159.046 1.735.138 3.166.453 5.471 2.312 6.901 5.578M182.636 81.09c-3.292-.696-5.662-1.879-7.106-3.56-1.444-1.676-2.172-3.496-2.172-5.46q.001-1.903.688-4.219l8.226-25.703q5.117 1.634 6.788 3.653c1.112 1.347 1.669 2.74 1.669 4.192q.001 2.63-1.557 6.708l7.497-12.648q1.55-1.95 3.656-1.951.913.002 1.966.407 3.29 1.224 6.173 4.803c.549.874.821 1.997.821 3.357 0 1.091-.166 2.326-.503 3.72-.795 3.173-1.888 6.616-3.292 10.335-1.159 3.081-2.119 5.926-2.881 8.521-.761 2.602-1.139 4.803-1.139 6.617q-.001.5.047.953-5.853-1.223-7.881-3.765c-1.358-1.695-2.033-3.397-2.033-5.125q0-2.405 1.232-5.579l6.304-17.95-13.298 21.039c-.152.814-.536 2.194-1.139 4.126q-.645 1.99-1.232 4.06-.594 2.06-.821 3.47zM210.695 97.411q.546.048 1.1.046c4.324 0 8.013-1.524 11.059-4.58 3.259-3.265 5.861-7.233 7.815-11.898q2.922-7.006 4.046-12.425c.749-3.614 1.119-6.051 1.119-7.32q.002-.362-.046-.637l-2.146 4.265c-2.132 4.651-4.384 8.554-6.761 11.695q-3.288 4.082-8.225 4.35-5.025.224-7.358-4.488c-1.033-2.149-1.556-4.5-1.556-7.07 0-3.114.761-6.511 2.284-10.204q4.155-10.062 12.153-15.276c2.165-1.242 4.324-1.86 6.49-1.86 1.126 0 2.271.185 3.424.546q4.887 1.499 6.854 7.707c-1.371-.42-2.709-.637-4.02-.637q-5.62.002-10.695 5.256-6.853 7.116-7.954 17.681c.033.999.192 1.675.477 2.043q.436.544.894.546h.139a1.32 1.32 0 0 0 .96-.5q4.52-5.124 7.312-12.556c1.185-2.838 2.37-5.23 3.543-7.161 1.172-1.932 2.563-2.904 4.178-2.904 5.087 0 7.696 4.218 7.815 12.647q-.002 8.21-5.119 22.576-6.17 16.184-16.768 16.321c-3.716 0-7.391-2.056-11.014-6.163M247.159 66.452l3.106-9.206c2.132-5.624 3.199-10.38 3.199-14.284v-.768q5.392 1.18 7.357 3.515 1.967 2.334 1.967 4.737.002 2.178-1.099 4.987l-7.815 25.664q-4.75-1.587-6.331-3.647-1.578-2.06-1.576-4.468.001-2.63 1.185-6.53zm20.563-36.545c.795.788 1.185 1.695 1.185 2.72s-.351 2.103-1.053 3.312q-2.237 2.946-4.662 4.533c-.973.545-1.861.815-2.649.815q-2.511 0-3.841-3.627a12.5 12.5 0 0 1-.457-3.311q.002-1.767.55-3.443c.702-2.149 2.039-3.312 4.02-3.49h.364c2.377 0 4.556.835 6.536 2.49zM295.828 46.504c1.252 1.754 1.887 4.58 1.92 8.476q-.002 3.99-2.238 11.196c-1.49 4.803-4.828 8.948-10.007 12.424q-3.835 2.405-6.808 2.405c-3.079 0-5.45-1.918-7.125-5.756 6-1.695 10.351-4.954 13.046-9.79s4.093-9.868 4.179-15.098c0-.756-.258-1.222-.775-1.406a1.2 1.2 0 0 0-.411-.092q-.504 0-.96.453-6.08 7.53-13.848 19.81a891 891 0 0 0-6.258 21.104c-2.013 7.09-3.079 11.629-3.199 13.627q-8.73-1.32-8.728-8.798c0-1.662.318-3.555.96-5.67l14.351-47.425c2.775.94 4.934 2.056 6.49 3.357q1.876 1.588 1.874 4.626c0 .545-.046 1.13-.139 1.767l2.928-5.21q2.878-4.26 7.039-4.488h.365q4.021.002 7.357 4.488zM329.457 47.818q-9.276 2.544-15.285 9.79-6.009 7.252-6.417 15.145c0 .722.166 1.15.503 1.268.338.118.577.184.729.184q.457 0 .914-.454c4.384-5.407 9.444-12.707 15.172-21.899 2.801 1.242 4.709 2.556 5.715 3.942q1.51 2.09 1.51 3.943-.002 1.497-.728 3.311l-6.212 18.043-2.927-1.722a7 7 0 0 1-.504-.361q-1.597-.996-2.49-2.11-.894-1.111-.894-2.785c0-.27.013-.546.047-.815.185-1.511.986-3.66 2.423-6.44l-5.576 9.705q-2.831 4.258-5.026 4.376a97 97 0 0 1-2.378.112q-5.115-.001-7.311-4.488c-1.099-2.266-1.642-4.73-1.642-7.391 0-2.963.668-6.163 2.013-9.613q3.796-9.885 11.695-15.099 4.115-2.356 8.04-2.358c.576 0 1.159.046 1.735.138 3.166.453 5.47 2.312 6.901 5.578zM369.08 47.273q.822 1.31.821 3.311-.002 1.677-.868 5.099-.865 3.42-2.973 9.047a118 118 0 0 0-2.974 8.844c-.669 2.326-1.006 4.37-1.006 6.117 0 .394.013.769.046 1.137-3.927-.848-6.795-2.386-8.589-4.626q-1.371-1.723-1.371-4.264 0-2.405 1.232-5.578l5.94-16.006-13.709 17.589-4.02 13.147c-3.165-1.057-5.47-2.51-6.9-4.35q-1.005-1.359-1.007-3.764c0-1.754.398-3.916 1.186-6.485q1.094-3.45 4.503-14.507a1118 1118 0 0 0 6.51-21.946c2.073-7.253 3.165-11.866 3.291-13.83q8.73 1.313 8.729 8.843.002 2.496-.961 5.67l-6.854 22.577 7.126-9.252q1.598-1.95 3.702-1.951c3.291.06 6 1.78 8.132 5.17zM374.239 76.557q-2.603-4.081-2.603-9.475c0-.94.059-1.905.185-2.904a30.84 30.84 0 0 1 4.755-13.331q.777 4.987 6.49 8.476-1.28 4.807-1.278 8.797.002 1.817.272 3.443.916 3.58 3.013 3.581h.139c.185.033.364.046.55.046q1.233-.001 2.556-1.314c1.947-2.234 3.43-5.29 4.43-9.159q1.51-5.806 1.51-9.79-.002-1.725-.231-3.311-.913-3.627-3.106-3.627h-.093a2.4 2.4 0 0 0-.503-.046q-1.233 0-2.603 1.36c-.576.512-.868.999-.868 1.452q-.001.09.047.23c.152.512.523.992 1.119 1.426.596.44 1.238.84 1.94 1.202q1.051.59 1.557 1.045 1.053.956 1.053 2.128c0 .184-.014.362-.047.546q-.318 1.589-1.351 2.516c-.688.618-1.331.927-1.94.927q-.367 0-.775-.138-2.971-1.271-4.98-2.858c-3.318-2.688-4.98-5.217-4.98-7.57 0-1.057.338-2.082 1.006-3.081a21 21 0 0 1 3.292-2.674c2.497-1.57 5.059-2.359 7.675-2.359.272 0 .55.013.822.046q.686-.048 1.324-.046c3.689 0 6.762 1.498 9.232 4.488q2.602 4.354 2.602 9.704.002 3.49-1.099 7.346-2.74 9.885-10.099 15.099c-2.557 1.544-5.153 2.312-7.768 2.312h-.729q-.645.048-1.232.046-5.622 0-9.278-4.533zM437.391 47.818c-6.186 1.695-11.278 4.96-15.285 9.79q-6.01 7.252-6.417 15.145c0 .722.165 1.15.503 1.268s.576.184.729.184q.456 0 .914-.454 6.577-8.11 15.172-21.899 4.203 1.863 5.715 3.942 1.51 2.09 1.51 3.943-.002 1.497-.728 3.311l-6.212 18.043-2.928-1.722a7 7 0 0 1-.503-.361q-1.598-.996-2.49-2.11-.894-1.111-.894-2.785c0-.27.013-.546.046-.815.186-1.511.987-3.66 2.424-6.44l-5.576 9.705q-2.831 4.258-5.026 4.376a97 97 0 0 1-2.378.112q-5.116-.001-7.311-4.488c-1.1-2.266-1.643-4.73-1.643-7.391 0-2.963.669-6.163 2.014-9.613 2.529-6.59 6.43-11.623 11.695-15.099q4.115-2.356 8.04-2.358c.576 0 1.159.046 1.735.138 3.165.453 5.47 2.312 6.901 5.578z"/><path fill="#2EA241" d="m470 100.946-3.007-4.211c.12-.04.239-.08.351-.132q1.173-.522 1.808-1.498.636-.977.636-2.339c0-.907-.212-1.695-.636-2.352-.423-.657-1.026-1.163-1.808-1.505q-1.172-.52-2.841-.519h-4.94v12.563h1.808v-3.824h3.126q.416-.002.801-.033l2.722 3.857h1.973zm-5.55-5.341h-3.072v-5.651h3.072q1.737-.002 2.63.736c.596.493.894 1.183.894 2.083q0 1.35-.894 2.089c-.596.493-1.477.743-2.63.743M301.02 88.39l-5.735 12.563h1.861l1.39-3.14h6.729l1.391 3.14h1.9l-5.748-12.563zm-1.841 7.983 2.728-6.163 2.729 6.163zM291.656 88.91q-1.173-.522-2.841-.52h-4.941v12.563h1.808v-3.805h3.126q1.659 0 2.841-.532c.788-.355 1.384-.854 1.808-1.504s.636-1.433.636-2.34-.212-1.695-.636-2.352-1.026-1.163-1.808-1.504zm-.265 5.939c-.596.493-1.477.736-2.629.736h-3.073v-5.638h3.073q1.737-.002 2.629.736c.596.493.894 1.183.894 2.083s-.298 1.59-.894 2.083M453.815 90.066a6.3 6.3 0 0 0-2.133-1.347 7.4 7.4 0 0 0-2.675-.473 7.4 7.4 0 0 0-2.696.486 6.4 6.4 0 0 0-2.132 1.353 6.3 6.3 0 0 0-1.411 2.037c-.337.775-.503 1.63-.503 2.55s.166 1.767.503 2.549a6.2 6.2 0 0 0 1.411 2.037 6.4 6.4 0 0 0 2.146 1.353 7.4 7.4 0 0 0 2.688.486c.967 0 1.855-.157 2.676-.473a6.2 6.2 0 0 0 2.132-1.347 6.2 6.2 0 0 0 1.404-2.037q.498-1.161.497-2.568c0-.94-.165-1.775-.497-2.556a6.1 6.1 0 0 0-1.404-2.044zm-.278 6.524a4.7 4.7 0 0 1-1.033 1.537q-.665.659-1.557 1.012a5.3 5.3 0 0 1-1.96.362 5.1 5.1 0 0 1-1.947-.362 4.7 4.7 0 0 1-1.563-1.011 4.6 4.6 0 0 1-1.04-1.538 4.9 4.9 0 0 1-.371-1.919 4.9 4.9 0 0 1 .371-1.912 4.8 4.8 0 0 1 1.04-1.537 4.6 4.6 0 0 1 1.563-1.025 5.2 5.2 0 0 1 1.947-.361c.702 0 1.364.118 1.96.361a4.5 4.5 0 0 1 1.557 1.025q.655.66 1.033 1.538c.251.584.371 1.215.371 1.911 0 .697-.126 1.334-.371 1.919M370.311 88.39l-5.735 12.563h1.861l1.391-3.14h6.728l1.391 3.14h1.901l-5.749-12.563zm-1.841 7.983 2.729-6.163 2.728 6.163zM400.219 94.901a7.2 7.2 0 0 0-1.504-.61 31 31 0 0 0-1.635-.421 14 14 0 0 1-1.49-.42q-.678-.238-1.106-.631-.426-.396-.424-1.058 0-.552.318-1.005c.212-.296.543-.54 1.006-.717.457-.177 1.04-.27 1.755-.27q.854-.001 1.755.244c.603.164 1.179.42 1.715.782l.597-1.432q-.796-.543-1.881-.828a8.6 8.6 0 0 0-2.192-.29c-1.113 0-2.02.165-2.742.493-.715.329-1.245.77-1.589 1.308a3.27 3.27 0 0 0-.517 1.787c0 .65.139 1.216.417 1.643a3.04 3.04 0 0 0 1.093 1.011c.45.25.954.46 1.503.618q.823.245 1.636.42c.543.119 1.04.263 1.49.421q.677.245 1.106.638.426.395.424 1.038.002.554-.325.998t-1.013.69c-.457.171-1.053.25-1.788.25a6.7 6.7 0 0 1-2.331-.414q-1.122-.415-1.848-1.038l-.669 1.4q.757.7 2.08 1.136c.881.296 1.801.44 2.768.44q1.661 0 2.755-.493c.728-.328 1.272-.762 1.616-1.307a3.2 3.2 0 0 0 .523-1.768c0-.637-.139-1.195-.417-1.616a3.1 3.1 0 0 0-1.093-1.005zM387.901 94.901a7.2 7.2 0 0 0-1.504-.61 31 31 0 0 0-1.635-.421 14 14 0 0 1-1.491-.42c-.45-.158-.821-.369-1.105-.631q-.426-.396-.424-1.058 0-.552.318-1.005c.212-.296.543-.54 1.006-.717.457-.177 1.04-.27 1.755-.27.57 0 1.152.08 1.755.244s1.179.42 1.715.782l.596-1.432c-.529-.362-1.159-.638-1.88-.828a8.6 8.6 0 0 0-2.192-.29c-1.113 0-2.02.165-2.742.493-.715.329-1.245.77-1.59 1.308a3.27 3.27 0 0 0-.516 1.787c0 .65.139 1.216.417 1.643q.417.639 1.093 1.011c.45.25.953.46 1.503.618q.823.245 1.636.42c.543.119 1.04.263 1.49.421q.677.245 1.106.638.426.395.424 1.038.002.554-.325.998t-1.013.69c-.457.171-1.053.25-1.788.25a6.7 6.7 0 0 1-2.331-.414q-1.123-.415-1.848-1.038l-.669 1.4q.757.7 2.08 1.136c.88.296 1.801.44 2.768.44q1.66 0 2.755-.493c.728-.328 1.271-.762 1.616-1.307a3.2 3.2 0 0 0 .523-1.768c0-.637-.139-1.195-.417-1.616a3.1 3.1 0 0 0-1.093-1.005zM438.053 94.901a7.2 7.2 0 0 0-1.503-.61 32 32 0 0 0-1.636-.421 14 14 0 0 1-1.49-.42q-.677-.238-1.106-.631-.426-.396-.424-1.058 0-.552.318-1.005c.212-.296.543-.54 1.007-.717.457-.177 1.04-.27 1.755-.27a6.7 6.7 0 0 1 1.755.244 5.8 5.8 0 0 1 1.715.782l.596-1.432q-.796-.543-1.881-.828a8.6 8.6 0 0 0-2.192-.29c-1.112 0-2.02.165-2.742.493-.715.329-1.245.77-1.589 1.308a3.28 3.28 0 0 0-.517 1.787c0 .65.14 1.216.418 1.643q.417.639 1.092 1.011c.451.25.954.46 1.504.618q.822.245 1.635.42c.543.119 1.04.263 1.491.421.45.164.821.375 1.105.638q.426.395.424 1.038.002.554-.324.998-.328.444-1.013.69c-.457.171-1.053.25-1.788.25a6.7 6.7 0 0 1-2.332-.414q-1.122-.415-1.847-1.038l-.669 1.4c.503.466 1.199.847 2.079 1.136.881.296 1.802.44 2.769.44 1.105 0 2.026-.164 2.754-.493s1.272-.762 1.616-1.307c.351-.545.524-1.13.524-1.768 0-.637-.14-1.195-.418-1.616a3.1 3.1 0 0 0-1.092-1.005zM425.735 94.901a7.2 7.2 0 0 0-1.503-.61 32 32 0 0 0-1.636-.421 14 14 0 0 1-1.49-.42q-.677-.238-1.106-.631-.426-.396-.424-1.058 0-.552.318-1.005c.212-.296.543-.54 1.007-.717.457-.177 1.04-.27 1.755-.27a6.7 6.7 0 0 1 1.755.244 5.8 5.8 0 0 1 1.715.782l.596-1.432q-.797-.543-1.881-.828a8.6 8.6 0 0 0-2.192-.29c-1.112 0-2.02.165-2.742.493-.715.329-1.245.77-1.589 1.308a3.28 3.28 0 0 0-.517 1.787c0 .65.14 1.216.418 1.643q.417.639 1.092 1.011c.451.25.954.46 1.504.618q.822.245 1.635.42c.544.119 1.04.263 1.491.421q.677.245 1.106.638.424.395.423 1.038.002.554-.324.998-.328.444-1.013.69c-.457.171-1.053.25-1.788.25a6.7 6.7 0 0 1-2.332-.414q-1.122-.415-1.847-1.038l-.669 1.4c.503.466 1.199.847 2.079 1.136.881.296 1.802.44 2.769.44q1.66 0 2.755-.493c.728-.328 1.271-.762 1.615-1.307.351-.545.524-1.13.524-1.768 0-.637-.14-1.195-.418-1.616a3.1 3.1 0 0 0-1.092-1.005zM319.311 96.603q1.173-.522 1.808-1.498.636-.977.636-2.339c0-.907-.212-1.695-.636-2.352s-1.026-1.163-1.808-1.505q-1.171-.52-2.841-.519h-4.94v12.563h1.808v-3.824h3.126q.416-.002.801-.033l2.722 3.857h1.973l-3.006-4.212c.119-.04.238-.079.351-.131zm-2.894-.998h-3.073v-5.651h3.073q1.737-.002 2.629.736c.596.493.895 1.183.895 2.083q0 1.35-.895 2.089c-.596.493-1.476.743-2.629.743M407.265 95.335h6.345v-1.53h-6.345v-3.858h7.126V88.39h-8.94v12.556h9.192v-1.557h-7.378zM327.576 88.39h-1.808v12.563h1.808zM339.537 94.901a7.2 7.2 0 0 0-1.504-.61 31 31 0 0 0-1.636-.421 14 14 0 0 1-1.49-.42q-.677-.238-1.106-.631-.424-.396-.423-1.058 0-.552.317-1.005c.212-.296.544-.54 1.007-.717.457-.177 1.04-.27 1.755-.27.57 0 1.152.08 1.755.244s1.179.42 1.715.782l.596-1.432q-.796-.543-1.881-.828a8.5 8.5 0 0 0-2.192-.29c-1.112 0-2.019.165-2.741.493-.716.329-1.245.77-1.59 1.308a3.27 3.27 0 0 0-.516 1.787c0 .65.139 1.216.417 1.643q.417.639 1.093 1.011c.45.25.953.46 1.503.618q.823.245 1.636.42c.543.119 1.039.263 1.49.421q.677.245 1.106.638.426.395.424 1.038.002.554-.325.998t-1.013.69c-.457.171-1.053.25-1.788.25a6.7 6.7 0 0 1-2.331-.414q-1.124-.415-1.848-1.038l-.669 1.4c.503.466 1.199.847 2.08 1.136.88.296 1.801.44 2.768.44q1.66 0 2.755-.493c.728-.328 1.271-.762 1.616-1.307a3.2 3.2 0 0 0 .523-1.768c0-.637-.139-1.195-.417-1.616a3.1 3.1 0 0 0-1.093-1.005zM353.855 93.791h-7.272v-5.4h-1.808v12.555h1.808v-5.598h7.272v5.598h1.807V88.39h-1.807zM51.35.15C71.96.32 90.815 13.277 98.63 32.147c8.49 20.5 2.702 45.02-14.378 59.417-16.337 13.778-40.788 15.953-59.139 4.776C6.682 85.118-3.133 62.97 1.032 41.885 5.053 21.575 21.882 4.742 42.445.965A49 49 0 0 1 51.35.15m5.24 11.347c.02.039-.014.039-.014.02 0-.066-.04.006.033-.007 0 .066 0 .138.086.144-.053.907 2.312 1.15 2.815 1.34.761.296 2.252 1.427 2.357 2.248.153 1.17-1.072.828-1.662 1.465-.06.06-1.172 1.951-1.225 1.78q-.04.05-.08 0c.027-.026.053-.02.073.007.53-.302 1.252-.243 1.623-.782.278-.4.106-.65.543-1.012.9-.749 1.98-1.38 3.02-1.872.49-.23.768-.355 1.033-.913.258-.54.046-1.196.305-1.69.225-.42.867-.702 1.245-1.004.523-.42.993-.914 1.543-1.308-.782.06-1.305.63-1.954.986-.08-.342.02-.644-.1-1.006-.125.217-.364.52-.436.77-.047.144.125.354.072.479-.205.493-.794.723-.9 1.274-.623-.886-.623-1.747-.749-2.799-.37.217-.53 1.42-.41 1.788.126.387.563.775.708 1.228.192.605.106 1.354-.417 1.86-.212.203-1.252.762-1.55.762-.165-.73-.47-1.432-.264-2.182.198-.722.88-1.241.271-1.99-.145.387-.238.782-.496 1.15-.239-.382-.404-.756-.775-.953.35 1.104.715 1.564.324 2.707-1.298-.408-2.291-2.116-3.093-3.115l-.033.027.047-.02c-.272.348.496 1.34.649 1.61-.881.17-1.749-1.006-2.504-.835.007-.079-.066-.105-.106-.157zm1.503 7.385c-.1 0 .013-.013.013-.013-.047.006-.047 0-.013-.02zm-35.59 57.084c.066 0 .133 0 .14-.092.681-.204.98-1.183 1.171-1.761.259-.776.524-1.19 1.087-1.794 1.251-1.34 1.483-2.727 2.02-4.422.589-1.853 1.397-3.555 1.754-5.48.351-1.86 1.053-3.35 2.133-4.908 1.112-1.596 2.463-3.075 3.404-4.783.444-.802.655-1.662 1.013-2.497.232-.532.709-1.044.828-1.61.179-.867-.292-1.695-.285-2.51 0-.61.351-.932.146-1.649-.192-.663-.729-1.4-1.126-1.931-.384-.513-.556-.546-1.291-.763-.007.855.02 1.663-.153 2.471-.132-.118-.106-.296-.251-.394-.08 1.09.125 2.135.178 3.265-.258-.433-.172-.88-.397-1.333-.02.36-.033.637-.053.906-.344-1.702-.325-3.43-.397-5.23-1.265.953-.98 2.405-.914 3.83.04.861.106 1.722.126 2.583.013.545.245 1.616-.073 2.116-.1-.835-.172-1.676-.325-2.615-.08.446-.132.775-.192 1.11-.033 0-.073 0-.106-.007 0-.591.146-1.412 0-1.984-.066-.25-.232-.394-.271-.572-.146-.617.324-2.477-.192-2.89-1.239.335-1.067.499-1.113 1.74-.046 1.144-.086 2.294-.132 3.437-.2-.762-.153-1.55-.345-2.405 0 1.314.086 2.622.08 3.936 0 .361.145 3.338-.192 3.456a1.5 1.5 0 0 1-.219-.079c-.033 1.492-.073 2.99-.265 4.474-.33-2.477-.39-4.973-.669-7.45-.132 1.011-.112 2.043-.139 3.062h-.08q-.09-.552-.171-1.104h-.053l-.06.94c-.331-2.51-.199-5.034-.278-7.616-.073.118-.106.17-.146.237-.112-.243-.026-.513-.126-.822-.377.23-.755.394-1.053.67.332.868.557 1.729.49 2.694-.205-.15-.198-.387-.397-.466-.199.289-.245.663-.576.907-.318-.42-.623-.822-.92-1.223-.524.421-.378.822-.345 1.393.04.75-.053 1.413-.192 2.156-.278-.355-.378-.736-.689-1.039-.066.414.08.77.033 1.117-.152.06-.139-.15-.284-.111-.1 1.3-.192 2.608-.292 3.916-.152-.27-.159-.559-.304-.841-.053.315.013.598-.1.985-.159-1.334-.304-2.543-.457-3.863-.185.361-.046.677-.278.94-.205-.914-.324-1.781-.046-2.662.06.027.08.013.053-.052a1 1 0 0 0-.04.066c-.45.026-.815.348-1.265.42-.179-.5.013-.986-.06-1.505-.576.19-1.105.395-1.596.703l.014-.013c-.199-.302.364-.61.357-.907-.145.007-1.178.336-1.231.184-.04-.164.212-.25.072-.4-.609.25-1.086.69-1.582 1.13.966.657 1.231 1.327.993 2.43-.291.014-.543-.216-.848-.157-.112.526.12.966.252 1.433-.278-.04-.41-.27-.656-.329-.152.532-.145 1.078-.152 1.675-.378-.36-.424-.801-.709-1.195-.099 1.09-.165 2.096-.04 3.193-.37-.381-.423-.835-.701-1.229-.226.927-.199 1.86-.61 2.747-.39-.506-.476-1.065-.702-1.617-.31.454-.523.92-.973 1.255-.106-.578-.166-1.117-.404-1.616-.338.158-.537.486-.92.578a3.12 3.12 0 0 1 .297-2.359c-.377-.026-.668.237-1.04.197.08-.427.365-.683.67-.985-.497-.151-1-.138-1.418-.467.49-.236.96-.46 1.444-.69-.338-.328-.735-.545-.854-1.031.543-.013 1.033.184 1.576.099-.093-.296-.364-.487-.437-.802.437-.053.848.06 1.285-.046-.2-.394-.583-.434-.934-.565.291-.394.649-.65.993-.953-1.364-.84-2.046 1.774-2.88 1.971v-1.261c-.848.466-1.49 1.09-2.153 1.82-.1-1.15.133-2.129.517-3.108-1.398-.112-1.252-.27-.563-1.452-.583.02-1.106.217-1.696.138.18-.946.656-1.689 1.351-2.287-.231-.578-.649-1.011-.88-1.59.53-.052.96.19 1.443.283.014-.447-.172-.874-.026-1.327.556.309.927.814 1.503 1.117.04-.54.08-1.019.126-1.577.43.374.834.63 1.39.394-.165-.348-.549-.315-.78-.52.344-.21.78-.177 1.105-.492-.543-.276-1.093-.342-1.689-.335.192-.46.782-.493.418-.88-.325-.342-1.378.571-1.577.315-.02-.145.16-.256.087-.427-.411.02-.749.276-1.173.27.086-.342.285-.592.497-.92-.536.078-1 .144-1.536.216.516-.782 1.205-1.228 1.967-1.564-.073-.295-.239-.512-.272-.801.722-.296 1.523-.29 2.305-.467l-.41-1.136c.661.02 1.145.368 1.688.558.1-.282-.014-.571.145-.834.411.348.742.722 1.219.953.126-.414.12-.828.41-1.15.583.92.663 1.018 1.173 1.307.139-.4.172-.847.463-1.215.325.545.477 1.163 1.02 1.504.199-.203.126-.512.351-.696.172.453.199.946.576 1.288.305-.244.332-.65.616-.914.192.29.166.605.278.894.391-.138.577-.467.828-.723.232.138.219.44.477.605.013-.579.133-1.11.265-1.689-.775.02-1.384.414-2.033.657-.086-.276.066-.5-.033-.736-.404-.046-.808.171-1.245.06.218-.434.55-.77.622-1.242-.735-.093-1.417-.014-2.159.078.219-.4.557-.637.802-1.025-.682-.092-1.318-.04-1.947-.309.43-.499.96-.808 1.423-1.195-.218-.283-.503-.44-.655-.716.145-.29.437-.414.642-.644-.357-.395-.874-.611-1.245-1.032.576-.217 1.14-.282 1.702-.407-.192-.467-.596-.762-.848-1.157.404-.197.828-.125 1.272-.236-.477-.526-.98-.96-1.212-1.63.55-.026 1 .145 1.477.197.126-.295.033-.624.166-.933.476.25.933.5 1.476.598-.046-.926-.159-1.813-.02-2.74.477.29.98.69 1.544.789.052-.611-.14-1.176-.034-1.78.557.321 1.02.735 1.69.873-.094-.506-.266-.972-.153-1.478q.78.9 1.357 1.012c.067-.73.391-1.314 1.02-1.748.239.427.212.887.318 1.314.291-.053.258-.394.53-.473-.013.493.245.913.238 1.367-.145.079-.31-.04-.41.105.179.598.735 1.018.953 1.603-.556.052-.947.335-1.317.657-.332-.348-.464-.742-.716-1.078-.125.546.908 2.103.12 2.26-.65.132-1.378-1.635-2.424-1.543l-.02-.014h.026c.504.454 1.245.927 1.418 1.623-.802.106-1.279-.499-1.948-.749.524.966 1.02.88 1.848 1.334.583.322.292-.105.576.637.146.382.186.828.312 1.223-1.285.46-.749.243-1.43-.506-.153 2.812-1.299-1.709-2.849-.94 1.464.88 2.093 2.201 2.418 3.765-.444-.06-3.55-2.937-3.735-2.234.377.138 1.635.887 1.483 1.432-.192.67-2.1.454-2.596.42.1.566 1.86.546 2.212.494.761-.112.669-.165 1.364.092.914.335 2.39.335 2.45 1.485-1.119.092-1.755-.973-2.887-.158.523-.013 1.046-.06 1.57.243-.219.256-.358.519-.603.696.013 0 .02.014.033.02-.013-.006-.02-.02-.033-.026.311.23.702-.204 1.007-.256.47-.086.947.118 1.397.216-.285.552-.709.914-1.133 1.282.299.216.921-.447 1.166-.52.331-.105.245-.236.57-.105.072.027.092.145.198.112.06-.236.331-.92.239-1.19-.053-.15-.477-.176-.55-.321-.225-.486-.331-.237-.086-.65.04-.073.291-.152.238-.277-.39-.124-.828-.144-1.139-.48.199-.433.53-.748.881-1.077-.43-.216-.914-.223-1.218-.598.271-.223 1.41-.433 1.516-.703.146-.361-.397-1.471-.43-1.925.304-.072.615.053.927-.125-.543-1.156.172-1.162.98-1.116-.146-.244-.662-.46-.49-.75.159-.276 1.02-.144 1.285-.144.072-.795-.61-1.176-1.073-1.761.43.06.761.184 1.172.099-.63-.487-1.225-.927-1.04-1.82.424.131.795.335 1.219.348.106-.29-.133-.52-.073-.782.238-.033.47.125.702.02-.12-.29-.404-.42-.503-.73l1.211-.21c-.317-.388-.695-.65-.973-1.064a3.2 3.2 0 0 1 1.37.013c.02-.27-.204-.467-.145-.743.537.112 1.04.224 1.563.335.06-.367-.086-.696 0-1.05.57.21 1.02.531 1.523.242.45-.262.782-.933 1.245-1.248.053.434-.185.795-.073 1.15.153.046.239-.125.365-.046.092.17-.014.394.178.558.318-.453.63-.913 1.18-1.123.072.21-.067.433.099.644.225-.237 1.053-.96 1.463-.756.45.23.113 1.038.252 1.446.304-.1.914-.388 1.225-.204.536.322-.027.387.053.815.298.25.563-.08.636.394.06.394-.689.644-.61.966.371 0 .722-.125 1.166-.198-.377.566-.497 1.157-.715 1.781.602-.164 1.093-.532 1.708-.381-.033.46-.304.841-.318 1.294.405.027.789-.032 1.292-.092-.96-.88-.437-.591-.484-1.576-.483-.119-.953.013-1.43-.053.046-.506.45-.815.576-1.248-.755-.65-1.046.111-.649-1.137-.225-.099-.49-.046-.675-.184.026-.171.225-.164.218-.316-.689-.86-1.947-.315-1.364-1.61-.444-.256-.874-.17-1.311.047.02-.828-2.066.683-2.424.525 0-.354.192-.657.172-.998-.556-.086-1.106.046-1.689.04.212-.5.576-.783.967-1.072-.291-.25-.636-.328-.867-.585.318-.335.768-.446 1.112-.735-.53-.454-.987-.927-1.198-1.584.476-.158.933-.151 1.417-.197-.206-.578-.391-1.13-.298-1.787.596.276 1.126.624 1.801.736-.205-.585-.503-1.104-.384-1.742.523.244 1.205.684 1.814.618.113-.177.027-.355.166-.506.676.309 1.37.618 2.14.86-.027-.866-.047-1.675.264-2.522.444.663.927 1.143 1.695 1.334.033-.513.04-.993.245-1.479.53.303 1.087.46 1.656.657.053-.598.086-1.136.457-1.61.305.323.464.717.815.973.218-.355.337-.736.708-.96.199.631.245 1.275.63 1.86.278-1.018.708-1.537 1.33-1.623v1.912c.557-.289 1.047-.545 1.65-.453-.087.328-.305.578-.318.926.404-.006.768-.203 1.139-.085.02.21-.192.328-.106.552.364.079.788.033 1.159.309-.47.256-.947.453-1.225.94.635.216 1.284.308 1.807.755-.357.309-1.615.361-1.8.769-.266.597.317.368.688.59-.311.205-.583.389-.854.566.072.17.298.145.337.348-.112.316-.477.473-.59.808-.039 0-.098-.02-.045.06a.3.3 0 0 0 .033-.066c.304.026.49-.25.788-.303.086.204.172.408.278.664.424-.447.656-.972 1.06-1.38.152.21.132.427.29.565.412-.131.77-.407 1.252-.4-.046.499-.185.965-.04 1.432.22-.053.272-.27.464-.302.14.328.106.722.45 1.011.517-.729.63-1.649 1.24-2.332.284.368.45.808.86 1.084.397-.506.576-1.163 1.14-1.505.304.132.423.421.728.546.55-.946.112-1.728-.398-2.49.391-.092.709.092 1.027.085.198-.394-.192-.9.145-1.34.504-.644.656-.053 1.232.177.146-.388.152-.801.404-1.15.325.171.576.46.927.592.239-1.045.351-1.282.795-1.67.291.612.53 1.256 1.1 1.696.337-.322.622-.67 1.026-.933.205.4.377.782.755 1.051.179-.552.238-1.097.656-1.472.35.204.576.54.953.664.325-.999 1.047-1.78 1.801-1.984.087.282-.079.578.04.906.636-.427 1.285-.768 2.113-.762-.172.381-.424.65-.398 1.058.623-.223 1.212-.387 1.881-.374-.205.44-.47.814-.523 1.314.523-.04 1-.158 1.51-.092-.06.361-.298.644-.298 1.031.417-.046.781-.282 1.212-.17-.086.413-.298.781-.285 1.228.954-.006 1.874-.013 2.762.4a4.4 4.4 0 0 1-1.014 1.374c.318.316.736.4 1.034.664-.087.164-.166.309-.259.473.702.25 1.364.512 1.855 1.097-.55.348-1.093.591-1.656.86.338.336.808.356 1.165.612-.443.526-1.158.821-1.158 1.675.563-.407 1.072-.828 1.702-1.025.119.165 0 .368.152.5.43-.178.828-.434 1.291-.506.06.23-.112.407.013.604.49-.131.96-.328 1.477-.315-.026.256-.198.44-.145.716.443-.085.808-.388 1.271-.48.232.98.046.986.934 1.4 1.02.48.417.664.351 1.623.576.204 1.159.079 1.748.046-.066.591-.344 1.058-.543 1.577.782.348 1.596.164 2.398.23-.06.269-.279.394-.365.591 1.192 1.19 1.365 1.446 1.325 1.945-.477-.204-.92-.486-1.583-.552.801.782 1.497 1.511 1.715 2.595-.516-.118-.953-.328-1.47-.407.318.447.768.736.874 1.288-.523.131-1.02.184-1.496.085-.173.237.119.427-.02.644-.43-.06-.623-.572-.974-.618-.304-.04-.497.329-.775.362-.642.079-1.192-.762-1.86-.986 0 .565-1.2.48-1.59.532.013.355.37.434.477.723-.662.118-1.59-1.012-1.967-.23-.278.572 1.225 1.544 1.344 2.274-.702-.046-1.364-.184-2.106-.014.504.427 1.06.362 1.57.493-.08.296-.152 1.413.404 1.38.245-.013.781-1.13 1.086-1.314.159.19.04.414.225.585.404-.401.815-.789 1.325-1.032.212.197.053.48.245.664.682-.349 1.404-.54 2.152-.434.126.17-.086.315 0 .466.219.027.404-.203.63-.118.012.355-.206.631-.213.986.312.013.596-.145.907-.033-.026.256-.556.9.04.907.258 0 .914-.966 1.219-1.104.033.368.033.696.152 1.018.278-.144.424-.407.715-.519.192.368.318.743.557 1.084.49-.545.953-1.11 1.602-1.478.053.48-.033.9.067 1.34.45-.223.854-.466 1.384-.519-.12.388-.325.703-.331 1.078.768.052 1.695 0 2.403.368-.139.361-.496.584-.602.953 1.37.722 1.993 1.32 2.119 2.043-.848-.158-1.682-.513-2.53-.06a4.5 4.5 0 0 1 1.682.428c-.324.341-.748.526-.973.926.761.368 1.43.795 1.821 1.59-.675.119-1.338.086-2 .303.219.295.55.44.656.781-.47.112-.967.033-1.351.382.185.354.516.551.741.854-.291.21-.629.072-.966.19.304.559.748.94 1.245 1.38-.947.138-1.762-.04-2.557-.453 0 .315.16.532.12.801-.371.086-.755-.085-1.146-.006-.007.506.046 1.011-.225 1.491-.358-.263-.583-.578-.822-.808-.205-.026-.132.23-.324.197-.305-.243-.596-.539-.96-.742-.14.341-.153.703-.464.979q-.46-.6-.887-1.15c-.225.059-.133.315-.338.368-.205-.165-.245-.486-.484-.605-.145.033-.125.23-.31.217a4 4 0 0 0-.796-.92c-.099-.105-.185-.21-.125-.42.629.052 1.112.532 1.761.683-.119-.348-.556-.519-.59-.907.59-.092 1.53-.052 2.014.335.47.381.543.947 1.152 1.255-.013-.308-.476-1.307-.278-1.563.206-.27 1.206.131 1.464.216-.444-1.103-1.325-.295-2.12-.532-.9-.27-1.549-1.432-2.463-1.833-.967-.42-1.848.033-2.801-.328-1.086-.414-1.96-1.249-3.206-.657-.635.302-1.35 1.346-.788 1.852.444.395 2.45.73 3.007.723.61 0 1.04-.368 1.616-.407.08 0 .642.138.795.15.278.027 3.013-.19 2.88.467-1-.111-1.986-.157-2.834.526.12.21.225.585.53.414.046.217.139.42.086.644-.45.157-.715-.611-1.325-.434q.29.347.59.684.1.414.212.82c-.43.053-.729-.236-1.08-.295-.1.283.192.513.046.776-.483-.125-.569-.618-.86-.94-.265.815-1.391-.907-2.014-.94.855-.27 1.093.782 1.716.5-.815-1.15-1.444-1.978-3.02-1.663-.755.151-.762.165-1.47-.065-.517-.171-1.093-.204-1.643-.303-.583-.105-1.185-.052-1.742-.157-.172-.033-.523-.296-.748-.355-.596-.145-.61-.125-1.232.263-.503.308-1.026.736-1.616.86-.218-.295-.523-1.471-.715-1.622-.271-.217-1.536.315-1.92.4-1.543.349-3.537.349-4.954 1.058.358.178.86.362 1.172.631.199.17.305.506.517.657.616.427 1.443.197 2.125.427.557.19.835.624 1.358.828.656.256 1.364.467 2.033.742.914.368 1.305-.046 2.199-.184.728-.111 1.523.066 2.252.184.463.073 4.112 1.058 4.212.566-.755-.618-1.722-.75-2.736-1.058.543-.224.96-.388 1.384-.565-.688-.782-2.006.59-2.735.335.126-.427.47-.73.563-1.176-.794.236-1.397.801-2.258.952.179-.407.325-.749.543-1.058-.013 0-.026-.013-.04-.02.014.007.027.02.04.027-.278-.204-1.026.434-1.278.552-.55.256-.88.322-1.484.276-.086.112.067.27-.079.388-.47-.04-.867-.329-1.338-.493.047.256.331.322.305.604-.55-.072-1.046-.236-1.59-.473.497-.322 1.484-.565 1.987-.591-.066 0 .749-.02.51.046.199-.053.45-.19.61-.217.364-.06.55.053.933-.085.331-.119.616-.408.927-.572.855-.453 1.901-.756 2.861-.486.053.282-.218.492-.119.775.47-.105 1.636-.48 2.093-.27.45.21.132.704.47 1 .755-.158 1.325-.007 2.08.289-.212.348-.504.565-.656.972 1.357-.44 2.907.026 4.298.131-.285.414-.689.638-.974.98.226.13.464.085.65.242-.279.31-.67.46-.901.815.735.237 1.304.65 1.821 1.21-.709.498-1.47.728-1.225 1.668.53-.552 1.728-1.156 2.543-.953.821.21.49.861.794 1.65.504-.605.08-1.334.438-1.972.139-.243 1.053-1.222 1.377-1.005.027.591.02 1.202.41 1.741.233-.131.292-.414.55-.506.166.165.232.42.464.572.238-.407.477-.775.887-1.005.332.433.65.86.98 1.3a10 10 0 0 1 1.875-1.169c.218.44.212.927.364 1.393.695-.23 1.344-.558 2.12-.473-.127.374-.431.63-.478 1.025.57.085 1.16.026 1.689.335-.305.506-.649.94-1.06 1.34.53.5 1.212.381 1.788.572-.105.329-.384.5-.496.815 1 .27 1.94.598 2.576 1.537-.47.046-.894 0-1.325.19.55.454 1.053.894 1.279 1.624h-1.682c.271.335.582.558.715.92-.265.072-.47-.125-.715-.033.099.236.536 1.038.33 1.287-.244.303-.98-.078-1.324.02-.106.29.033.598-.199.854-.35-.315-.695-.63-1.06-.959-.23.407-.337.867-.734 1.143-.298-.295-.457-.677-.749-.926-.159.085-.099.256-.218.342-.245-.093-1.166-.25-1.503-.106.198.506.523.966.609 1.557-.371-.032-.689-.065-1.027-.098-.033.315.172.559.126.854-.265-.026-.37-.322-.622-.335-1.007 1.078 1.324 1.544 1.781 1.682-.112.29-.404.375-.536.611.629.473 1.192.972 1.377 1.787-.49 0-.907-.17-1.377-.125.238.54.543.993.503 1.564-.351.013-.649-.217-1.026-.118.403.736.84 1.432.781 2.346-.61-.263-1.14-.552-1.735-.73.053.539.205 1.176-.04 1.695-.616-.44-1.165-.906-1.854-1.261-.02.61.298 1.018.483 1.498-.516.085-.907-.197-1.324-.335-.12.236.04.493-.1.755-.384-.4-.735-.775-1.086-1.15-.245.178-.271.46-.503.598-.331-.36-.497-.82-.755-1.235-.265.184-.238.532-.497.697-.324-.684-.251-1.367-.086-2.057-.291.06-.318.394-.602.467a8.6 8.6 0 0 1-.027-1.544c-.205-.007-.285.315-.47.243-.086-.552.046-1.084.238-1.623-.232.033-.251.282-.457.309-.132-.486.16-.927.166-1.459-.318.283-.55.578-.894.742q-.033-1.149-.298-1.452c-.338.487-.689.966-1.205 1.34-.378-.742-.371-1.49-.226-2.253-.271-.04-.377.283-.635.217h.013c.146-2.372 2.636-.605 3.543-.079a.75.75 0 0 1 .325-.177c.92 1.248 1.8 2.53 1.589 4.179.218.118.338-.139.536-.047-.384.868-.119 1.61.418 2.412.092-.946.125-1.814.589-2.582.556.394.695 1.465 1.338 1.944-.007.02.073.073-.014.007.093-.4-.291-1.242-.39-1.669-.172-.736-.424-1.196-1.033-1.688-.994.67-.928-.487-1.391-1.242-.63-1.012-1.603-1.807-2.656-2.352-1.199-.611-2.443-.52-3.655-.933-.378-.132-.53-.506-.815-.618-.305-.125-1.166.125-1.503.177.092.868-.133 3.443-.365 4.1-.33-1.038.226-2.556-.37-3.482.053 2.116.119 4.225.013 6.34-.073-.243-.113-.486-.258-.808.125 2.425 0 4.797-.166 7.215 4.417-.467 8.834-.966 13.265-1.321 2.225-.177 4.556-.105 6.755-.394 1.49-.197 2.106-3.325 2.55-4.586 2.808-8.102 3.47-16.952 1.847-25.375C96.404 28.927 87.59 16.51 75.45 9.387c-13.1-7.74-29.516-8.79-43.457-2.496C19.391 12.58 9.616 23.507 5.225 36.517c-2.437 7.227-3.066 15.013-1.947 22.55a50 50 0 0 0 2.92 10.985c.206.52.524 2.05 1.053 2.34.43.236 1.47-.132 1.974-.178 1.9-.171 3.775-.138 5.669.02-.802.328-1.63.532-2.404 1.117.92.144 2.1-.401 2.96-.644q1.65-.464 3.298-.907a130 130 0 0 1 3.596-.907c.907-.217 2.258-.782 3.199-.663.238.683-1.682 2.102-1.994 2.68-.609 1.137-1 1.584-2.231 2.044-.484.177-1.186.716-1.623.571-.616-.21-.629-.729-1.437-.657-.636.053-1.165.434-1.808.48-.675.046-1.331-.322-1.914.197.96-.17 1.914.072 2.861-.092.894-.158.841.007 1.576.381.643.329 1.093.013 1.815-.19.417-.119 1.973-.802 2.318-.631-.1.315-.41.519-.444.867-.08 0-.106.066-.152.105.033-.013.033.02.013.013-.066-.02 0 .04 0-.026zm9.855-9.041q-.01-.061.02-.013h-.027c-.007-.093 0 .02.007.013m1.105-9.587.226-.039c-.007-.112-.02-.217-.027-.329.364-.085.742-.545.702-.913-.026-.23-.053-.44.146-.61l.02-.35c0-.038.026-.052.046-.025.02.032 0 .052-.04.039-.06.105-.033.223-.026.335-.318.17-.656.67-.676 1.012-.006.19.033.388-.172.506.007.105.02.217.027.322l-.232.059q.06-.038.02.013-.002-.02-.014-.04zm-10.404-22.3c.02.033.02.04-.013.02l.033-.013q.039.13.166.092c-.205.256.212.374.126.624-1.073.112-2.08.414-2.94 1.137.383.427.94.545 1.397.893-.345.217-.729.119-1.093.224.41.295.88.295 1.245.552-.238.486-1.258.466-1.709.578-.404.098-.463.098-.894.368-.172.112-.774.703-.92.756-1.417.525-1.762-2.083-3.16-2.162 1.014 1.058 1.034 1.084 1.133 1.544-2.145.63-2.622-3.41-4.688-2.484 1 .362 1.602.861 1.986 1.67-.927.13-1.854.176-2.887.032.61.532 1.278.585 1.993.657-.245.335-1.424 1.13-1.43 1.55-.027.027-.033.02-.027-.006q.002.01.014.02c.9-.44 1.794-1.59 2.761-1.577s2.954.907 3.729 1.478c-.391.605-1.67 1.025-2.312 1.314-.808.362-1.066.335-1.86.263-.789-.072-3.802.434-3.914 1.518-.034.006-.106-.013-.04.059l.033-.072c.404.092 1.265-.526 1.649-.657.622-.217 1.417-.48 2.093-.329-.742.578-1.616.88-1.874 1.656-.093.282-.093.578-.252.88-.166.329-.702.776-.742 1.137 1.37-.618 1.252-2.05 2.298-2.825 1.132-.841 2.57-1.301 3.801-1.978.656-.361 1.279-.775 1.901-1.196.477-.322 1.232-1.077 1.828-1.182.45-.086.497.25 1.06 0 .629-.29.755-.907 1.158-1.4-.185-.27-.35-.657-.609-.874-.291-.236-.675-.177-.967-.407.994-.427 1.815-.71 2.881-.848-.205-.387-.57-.578-.762-.906a.25.25 0 0 1-.172-.106zm7.808 24.41c-.092.078 0 .184-.04.269-.079-.04-.152-.02-.231-.007-.192.841-.854 1.63-1.066 2.53-.1.434-.113.913-.259 1.34-.172.513-.622.927-.741 1.446-.126.552.172.9.172 1.412 0 .427-.278.559-.378.953-.265.98.53 1.965.914 2.806.186-.94-.854-1.788-.437-2.734.12-.262.583-.46.623-.742.046-.322-.378-.73-.418-1.078-.099-.847.53-1.872.696-2.753.1-.532 1.066-2.884.894-3.18.073.053.152.027.232 0q.032-.127.053-.256c-.014-.04.013-.046.02-.013 0 .066.04-.013-.027.006zm-17.755-6.63.02-.296c.173-.026.232-.131.225-.289.411-.256.663-.69 1.06-.96.252-.17.185-.321 0-.485-.007-.092-.08-.178-.04-.276h-.232c.014-.099.08-.197-.02-.283-.026-.079-.052-.15-.079-.23-.894-1.603.63-2.773 1.755-3.692.57-.467 1.285-.94 1.57-1.643.278-.677.178-1.557.218-2.273-1.543.578-2.794 1.412-3.675 2.74.986-.513 1.92-1.104 2.973-1.505.252 1.012-1.265 2.51-1.907 3.128-.563.545-1.272 1.15-1.37 1.97-.027.191.059 1.433.45 1.262-.06.105-.1.204.079.224-.053.098.02.19.026.289h.226c.072.078-.126.21.053.262.02.237-.12.375-.279.526-.298.283-.649.526-.788.94-.152.039-.192.164-.225.295-.126.08-.033.184-.033.276a.08.08 0 0 1-.066-.013c.02 0 .04.013.06.02zM53.881 28.1c.08-.033.165-.06.245-.092.013-.046.033-.04.006 0-.092 0-.212-.06-.238.099-.1-.046-.199-.027-.285.04-.675.268-1.199.84-1.88 1.09.383-1.413 1.145-2.596 2.377-3.417.424-.282 3.496-1.715 3.08-2.392.026.02.059.073.085 0-.026 0-.046.014-.072.014-2.404 2.01-5.497 2.799-6.298 6.17.562.111 2.94-.986 2.701-1.48.107.067.193.02.279-.039zM42.31 51.241h.338c.026-.085.112-.092.165-.145 0-.026.1-.026.02-.078 0 .026 0 .059-.006.085-.126-.04-.153.046-.18.131-.105-.052-.218-.026-.324.007-.046.066-.053.138 0 .21-.45-.184-.59.572-.96.618-.457.06-.761-.683-1.179-.887.437 1.051-.384.775-.794 1.57 0 .178.02.348.046.526-.1.256-.238.493-.417.703-.245.381-.835.907-.868 1.386-.145.046-.185.171-.212.303-.006.013-.013.02-.02.032 0-.013 0-.032.007-.046.14-.052.218-.144.212-.302.285.013 1.066-1.196 1.192-1.386.252-.388.291-1.176.583-1.465.57-.572.761.105 1.337-.033.47-.112.557-.96 1.067-1.025.013-.072.046-.145 0-.217zm-6.815-15.953c.298.026.524-.125.749-.289-.291-.02-.576 0-.735.296-.033.006-.113.006-.027.059.02.013.04-.033.014-.066m44.252 8.003c-.285.092-.61.04-.934.236.603.467.967 1.222 1.921 1.163-.258-.433-.927-.913-.993-1.412.198.295.662.361.702-.04-.252-.026-.47.02-.696.053m8.92 17.398v.033s-.013-.013-.013-.02h.027c-.755-.676-2.318-1.077-3.02-.795.656.828 1.517 1.4 2.523 1.853-.225-.683-.788-1.058-1.278-1.544.523.04 1.285.532 1.755.467zm-51.88 10.112c-.02-.04-.013-.02-.02 0-.106-.453-.536-.723-.728-1.136-.245-.54-.206-1.11-.391-1.676-.371-1.137-.848-2.162-1.126-3.338-.06 1.216.43 2.221.649 3.384.086.46-.026 1.13.192 1.538.258.492 1.053.814 1.437 1.235zM57.695 19.02c-.53.63-1.199.946-1.788 1.478-.708.637-1.046 1.643-1.397 2.517.669.276 1.47-2.004 1.814-2.34.537-.512 1.868-.433 1.358-1.662.033 0 .046.092.093.02a.4.4 0 0 1-.086-.013zM32.08 66.603s0 .046-.013.065c0-.02.013-.039.013-.059-.695-.25-.702-.486-.708-1.163 0-.992-.027-.703.622-.788-.463-.546-.662-.841-.013-1.11-.384-.612-.02-.592.165-1.144.12-.355.186-1.202.146-1.583-.192.519-.179 1.412-.94 1.38.788.157-.007 1.07-.272 1.346-.04 0-.046 0-.013.027v-.033c.179.079.245.204.205.407-.066.329-.318.414-.589.48.02.04.12.158 0 0 .139.118.344.013.503.17-.033.31.027.888-.119 1.17-.033.073-.397.316-.404.408-.338-.198.013.295-.006-.014.503.086.688.605.503 1.104-.523.04-1.292.027-1.643.48-.033.007-.099-.046-.086.046a1 1 0 0 0 .073-.06c1.795-.19 2.345.185 3.007 1.834 0-.046.026-.053.02-.02-.014.066.033 0-.04.013.377-1.058-1.106-1.846-.967-2.845.199-.085.39.014.543-.092zm14.073-40.415c.742.256 2.63-2.09 3.166-2.483 1.053-.77 2.695-.625 3.424-1.781-.464.105-.808.427-1.285.361.205-.374.53-.683.808-1.005-.769.151-1.232.65-1.815 1.11-.563.447-1.318.677-1.854 1.124s-.782 1.025-1.384 1.465c-.457.335-1.067.546-1.053 1.216-.053 0-.1 0-.033.052.013.013.046-.033.026-.066zM15.536 48.41c1.106-.427 1.45-1.051 2.053-1.984.497-.769 1.206-.992 1.457-1.932.232-.88.239-1.669.907-2.372.457-.48 1.914-1.537 2.438-.657.172-.17.37-.27.364-.538-1.225-.375-2.477.23-3.345 1.143-.774.808-.476 1.63-.808 2.575-.145.427-.304.598-.655.861-.596.453-.364-.046-.755.736-.252.506-.39.96-.801 1.38-.133.138-.934.545-.841.782-.034 0-.067-.014-.093-.014l.086.02zm62.722-26.163c-.742-.29-1.463.42-2.033.742-.457.256-1.47.29-1.801.644.947 1.78 4.57.532 6.053.44-.583-.88-3.351-.006-4.272-.138.643-.716 1.292-1.287 2.06-1.715-.04.033-.06 0-.027 0 .067-.026-.02-.026.027.027zM63.92 36.293l.014-.013-.709.86c.404.507 2.437-.978 2.636-1.504-.258.138-1.073.762-1.384.697-.709-.145-.172-.782-.391-1.183-.55.815-1.185 1.906-2.285 2.03.04-.394.073-.729.113-1.17-.305.316-.371.71-.735.829-.113-.125.033-.316-.146-.447-.166.158-.146.427-.331.565-.133.04-.16-.177-.325-.118-.033.289-.172.5-.496.492-.053.184.198.355.112.52-.39.295-.357.827.06 1.15.364-.809.894-1.492 1.503-2.116 0 .506-.311.9-.483 1.419.437-.23 2.642-2.122 2.834-2.017zM93.96 58.87c.007.04-.02.04-.013.02.007-.066-.04.013.026-.007-1.06-.86-2.404-1.182-3.715-1.452-.682-.144-3.291-1.465-3.675-.4-.265.729.417.354.748.38.576.04.974.21 1.497.487 1.06.572 1.808 1.367 2.973 1.899-.41-.697-.953-1.137-1.51-1.689.735.092 1.484.178 2.206.368.264.066 1.178.591 1.47.4zM29.887 71.623c.047-.086-.086-.191.014-.014.205.94.562 2.727-.12 3.581-.417.52-1.344.92-2.013 1.249 1.026.913-.669 1.176-1.172 1.55-.113.086-1.695 1.676-1.709 1.623.815-.131 1.278-.604 1.835-1.15.437-.42.92-.565 1.364-.913.477-.375.424-1.163 1.02-1.386.496-.19 1.02.302 1.51.197-.073-.217-.318-.263-.384-.493.39-.23 1.33-.04 1.622-.348-.583-.335-2.318-.033-1.35-.868.906-.781 2.668.243 3.701.191-.642-.296-1.377-.657-2.08-.782-.264-.046-1.476.25-1.582.145.311-.42.709-.723 1.218-.894-.04-.013-.026-.033-.006-.02.06.04 0-.04 0 .033-.49-.236-.854.401-1.325.362 0-.204-.04-2.149-.55-2.057zM70.04 13.915c-1.14.092-2.16-.572-3.305-.368a11.4 11.4 0 0 1 1.775-1.564c-.729.111-1.802.414-2.192 1.136-.166.316-.027.658-.199.98-.185.354-.603.63-.9.88-1.703 1.406-3.616 2.339-4.769 4.27 1.742-.446 2.907-2.45 4.358-3.429.761-.513 1.88-1.42 2.768-1.623.397-.092 2.311.322 2.457-.296.026.007.053.02.08.027-.027-.007-.047-.014-.073-.02zm-30.014 1.938.755.926c.192.401 1.18 2.26 1.808 2.182.841-1.196.358-3.088 1.126-4.271.318-.493.874-.591 1.152-1.21.318-.702.272-1.523.18-2.266-.127.407-.683 3.37-1.093 2.017-.186-.624.092-1.307-.146-1.964-.186-.513-.517-.98-.874-1.393.37 1.104.708 2.2.258 3.416-.47-.604-.437-1.386-.801-2.036-.338-.592-.921-1.019-1.51-1.34.483.65 1.212 1.13 1.337 2.05-1.073.065-1.9-.474-2.788-.908.106.572 1.265 1.15 1.762 1.308.96.302 1.238.105 1.775 1.058.728 1.288 0 3.68-.583 5.02-.457-.322-1.1-1.538-1.616-1.65-.556-1.195.623-2.28-.55-3.423-.271.414.822 2.116-.172 2.464-.093-.381-.649-.834-.88-1.163-.305-.44-.49-.94-.775-1.386-.755-1.196-1.663-1.071-2.947-1.42.49.493 1.907.54 2.033 1.34-.855.205-1.312-.229-2.02-.577.477.696.96.854 1.728 1.07.894.257 1.47.592 2.047 1.354-1.504.578-2.51-.197-3.881-.723-.311-.118-3.073-1.255-3.219-.637.63.302 1.384.283 1.994.73-.265.282-.563.433-.874.663.576.138 1.211-.204 1.781-.256.821-.079.98.059 1.636.552-.265.328-.662.427-.927.762 1.39-.223 2.907-.703 4.284-.29M21.69 47.733c.43.177 1.159-.77 1.357-1.058.437-.611.556-1.084 1.338-1.321-.086.611-.537 1.15-.583 1.754-.112-.02-.02.197-.013-.006.709-.473.907-1.57 1.344-2.247.252-.388 1.616-1.472 1.61-1.893-.305-.236-1.292-.092-1.755-.302-.616-.276-1.126-.73-1.808-.27.98.132 1.662.67 2.443 1.091-.278.29-.45.598-.748.815-.291-.17-.543-.414-.914-.473.053.29.325.467.199.782-.94-.473-2.258-1.064-3.219-.23 2.06.42 2.192.473 2.503 1.018-1.052.29-2.112.434-3.29.487.847.67 1.721.387 2.569.322-.146.61-.755 1.018-1.033 1.55-.04.007-.126 0-.034.066.02.02.053-.033.027-.072zm48.496 2.523c.808-.152 1.92.413 2.749.473-1.047-1.025-2.762-.88-3.868-1.748-.59-.46-.543-.782-1.37-.697-.663.073-1.365.77-2.027.362.218-.263.45-.48.582-.795-.794-.145-1.695 1.136-2.278 1.55.788 0 1.67.132 2.438.053.655-.072 2.165-.73 2.483.243-.9.013-1.775-.04-2.556.453.37.46 1.682.06 2.185.119.768.085 1.41.867 2.179.683-.073-.315-.444-.407-.497-.71l-.013.014zM27.444 39.855c.33.184 1.37-.408 1.721-.467-.04.644-.278 1.163-.582 1.675 1.457-.847.496-2.398 1.04-3.6.476-1.058 1.854-1.669 1.304-3.075-.325.558-.417 1.215-.854 1.76-.192-.551-.351-1.03-.517-1.517-.298.473 0 1.032-.013 1.538-.013.565-.232 1.097-.417 1.622-.325-.361-.298-.808-.517-1.182-.45.933.444 1.274.49 2.096-1.84.854-2.1-3.075-3.013-2.504.305.506 1.642 2.734.073 2.202-.444-.152-.815-.809-1.258-1.045-.517-.27-1.107-.394-1.663-.171.821.263 1.576.585 2.232 1.196-.854.25-1.603.512-2.199 1.104.947-.125 1.868-.638 2.881-.151-.457.683-1.026 1.215-1.61 1.747.829-.23 1.458-.736 1.981-1.393.464-.578.695-1.051 1.45-.374l-.536.552c.04-.014.053-.007.02.02a.1.1 0 0 0-.014-.04zm44.119-4.35c-.841-.092-1.258 1.36-2.073.742-.212.158-1 .841-1.331.559-.338-.29.192-.762.013-1.078-.43.316-.53.986-.854 1.374-.318.38-.848.965-1.311 1.182-.1-.256.132-.48.013-.722-.682.906-1 1.064-1.65.808.418-.533.862-1.045 1.153-1.768-1.311.677-2.682 1.255-4.02 1.886-.86.407-1.344.926-1.053 1.997.596-.092 1.053-.414 1.616-.584.642-.198 1.179-.066 1.828-.125.953-.086 2.02-.52 2.748-1.117.43-.355.702-.841 1.225-1.078.325-.144.702-.105 1.033-.25.504-.223 2.703-1.182 2.663-1.84.046 0 .106 0 .04-.058-.014-.014-.04.032-.027.065zm7.251-8.87c.047 0 .014.046.053 0l-.06.02c.074-.31-.363-.349-.344-.644 1.034-.23 2.06-.112 3.146.072-1.801-1.702-3.894-.256-5.987-.736-1.35-.309-2.013-.506-3.364-.4-.947.078-1.874-.204-2.821-.073a5.24 5.24 0 0 0-2.49 1.045c-.749.565-1.291 1.36-2.199 1.695-.92.341-1.967.243-2.92.512-.59.165-2.113 1.052-2.755.756.675-.802 1.57-1.163 2.496-1.478-1.258-.408-2.278.486-3.278 1.123-1.231.782-.126.96.9.828 1.147-.145 2.246-.578 3.385-.782 1.325-.23 2.265-.138 3.358-1.018.933-.756 1.775-1.636 2.927-2.063 1.185-.44 2.145-.033 3.344-.092.616-.033 1.08-.283 1.689-.165.45.086.894.329 1.35.427 1.286.276 2.332.48 3.57.993zM30.14 21.898q-.051-.06-.033 0 .02-.002.04-.014c-.08.198 1.317 2.09 1.417 2.537-1.868-.125-2.166-3.279-4.318-2.72.602.36 1.159.676 1.622 1.208-.768.48-1.596.395-2.37.5.099.598 2.642-.112 3.006.046.404.177.92.84 1.298 1.117.457.335.9.65 1.311 1.051-.536.315-1.02.591-1.496.874-.914-1.196-1.08-1.308-1.768-1.196.755.4 2.185 2.267.29 1.899-1.357-.263-2.026-2.07-3.648-1.465 1.053.15 1.695.716 2.192 1.445-.12.414-1.907.992-2.384 1.143-.735.237-2.106.02-2.16 1.124 1.014-.611 2.22-.742 3.345-1.071.47-.138.934-.381 1.41-.493.643-.15 1.08.086 1.69.04.8-.06 1.662-1.144 2.37-1.59.345-.217.656-.42 1.073-.473.325-.04 1.027.269 1.292.046-.219-1.69-.729-2.714-1.543-3.016.424.775.583 1.596.794 2.43-2.172 0-1.417-2.982-3.424-3.442zm57.086 13.68c-.622.413-1.715 1.484-2.45 1.655a6.5 6.5 0 0 1 .205-1.669c.066-.25.49-.986.364-1.242.027.026.047.026.047 0-.014 0-.027.013-.04.02-.835.361-1 1.406-1.219 2.175-.291-.243-.324-.618-.556-.887-.245.696-.225.874.212 2.175-1.073.216-2.113.565-3.331.663a12.9 12.9 0 0 0 1.583-2.851c-.828.604-1.563 1.485-2.464 1.984.39-.835.675-1.676.669-2.615-.775 0-1.212 2.937-1.656.992-.722.539-.596 2.26-.033 2.806 1.013.979 2.371.676 3.537.256a84 84 0 0 1 2.172-.73c.47-.157 1.198-.676 1.649-.722.755-.072 1.45.683 2.159-.151-.603 0-1.166-.125-1.749-.303.166-.236 1.067-1.228.888-1.544h.04l-.034-.013zm-40.88-13.733c-.332.434-.895 2.51-1.524 2.431-.086-.243.033-.493-.1-.71-.536.06-.681.65-.873-.315-.053-.282.099-1.721.688-1.498-.318-1.005 1.047-1.32 1.709-1.866.51-.414 1.94-1.826 1.675-2.595a.05.05 0 0 1 .014-.027l.02.02h-.027c-.656.637-1.232 1.354-2.073 1.978 0-1.117.06-2.103.437-3.062-.993.591-1.126 1.616-1.337 2.668-.318-.401-.345-.88-.703-1.301.438 2.063-1.04 4.027-1.39 5.999-.192 1.09-.146 2.082.669 2.858.185.177 1.112 1.287 1.278 1.274.543-.295.285-1.918.755-2.424.238-.256.556-.178.84-.316.504-.243.882-.545 1.266-.952-.67-1.4-1.066.21-1.914.4-.504-.729.887-1.912.563-2.555 0 0 .013 0 .013-.007zm22.344-4.967c-1.371.604-3.146 1.077-4.08 2.326-.377.506-.39 1.07-.642 1.603-.318.664-.835.795-1.537 1.025-1.49.486-3.02.21-3.854 1.65-.775 1.326-1.51 2.791-2.649 3.856 1.245-.263 2.675-.158 3.821-.743.543-.275.96-.71 1.543-.92.576-.21 1.239-.236 1.841-.315 2.113-.263 5.232-.322 6.331-2.464-1.317-.775-1.437.684-2.145 1.308-.861.755-2.02.585-3.06.61-2.39.053-4.172 1.512-6.516 1.532.377-.98.682-2.254 1.39-3.062.676-.769 1.563-.703 2.517-.887 1.046-.204 2.033-.94 3.053-.723 1.198.256 1.987.808 3.298.467.887-.237.993-.9 1.907-.506.192.079.04.552.378.473.589-.138.099-.743-.186-.907-.934-.558-1.543.394-2.298.69-.98.388-2.159-.105-2.973-.637.291-.506 2.046-.927 2.649-.855.404.046.662.31 1.092.237.457-.079.94-.348 1.444-.427-.775-.368-1.576-.204-2.437-.315.186-.138 1.43-.848 1.318-1.15.04 0 .046 0 .02.02v-.033c-.477.236-3.49 2.168-3.927 1.767.251-.913.84-1.432 1.596-1.945.397-.27 2.099-1.058 2.112-1.662l.04-.013-.026.013zM57.96 40.735c-.45-.125-.854.177-1.35-.026-.498-.204-.623-.717-1.074-.933-.867-.42-2.45-.178-3.337-.046-2.259.335-3.623.972-4.345 3.259 1.126.25 2.517-1.255 3.556-.92.676.217.563 1.163 1.378 1.202.384.02.954-.388 1.324-.493.524-.157 1.226-.085 1.702-.315.232-.112 2.133-1.577 2.14-1.728.053.026.099.007.139-.026q-.06-.121-.14.026zm31.994 10.71c-.537-.276-1.404 1.708-1.914 1.84-.45-.585-.517-1.729-1.04-2.162-.947 1.544 1.84 2.372.1 3.614-.61.433-1.776 1.327-2.391 1.064-.153-.066-.822-.92-.815-1.13.013-.434.867-1.124 1.132-1.432-1.086.256-1.483 1.53-2.702.847.663-1.288.663-1.623-.02-2.11-.132.487-.251.98-.655 1.361-.371-.664-1.02-.644-1.623-.756.543.526 1.736 1.21.722 1.834-.132.078-1.344.4-1.477.341-.37-.177-.45-.821-.57-1.176-.416.532-.304 1.065-.098 1.616-1.212-.111-1.61-1.222-3.02-.578.96.243 1.808 1.104 2.761 1.235.914.125 1.682-.63 2.537-.847.668-.17 1.728-.335 2.37.046.663.394.57 1.229 1.246 1.53.947.428 1.596-.584 2.31-.965 1.107-.585 1.663.131 2.524.73.868.597 1.675.558 2.695.387.312-.053 2.563-.23 2.67-.434-1.272-.755-2.2-.276-3.497-.223-.676.026-2.173-.545-2.47-1.203.357-.25.88-.532 1.31-.617.47-.092.96.118 1.424-.033-.271-.44-.735-.48-1.132-.67.437-.526 1.152-.703 1.596-1.196-.834.105-1.285.217-1.848.848-.543.604-1.04.808-1.781 1.136 0-.979 1.159-2.09 1.656-2.924-.04.007-.04-.02-.02-.02.066.02 0-.032.006.034zM72.98 38.25l-.013.027.026-.014c-.198.21-.073.835-.073 1.098-.364-.322-.635-.684-1.139-.828.06.44.285.821.12 1.294-.517-.335-1.053-.565-1.59-.821.212-.361.55-.585.735-.979-.755.138-1.39.572-2.152.519.9-.506 1.947-.644 2.814-1.137-.55-.111-1.013.014-1.51-.078.391-.336.828-.487 1.186-.75-.133-.21-3.59 1.597-3.815 2.064.477.335.596 1.386 1.014 1.59.443.216 1.43-.631 1.94-.65.821-.027 1.02.617 1.695.847.696.236 1.365-.217 1.908.545.642-.282.59-.565.92-1.064.311-.473.523-.565 1.053-.795 1.424-.618 1.39-.973 1.517-2.49.08-.986.119-.664.761-1.183.351-.283.504-.703.855-.98.192-.15 2.324-1.366 1.748-1.846-.351.263-1 .947-1.457 1.006-.649.079-.384-.342-.245-.854-.576.361-.656.92-.821 1.491-.12-.361-.14-.696-.417-.992-.027.099-.47 1.695-.57 1.583a1.4 1.4 0 0 0-.106-.387c-.338.578-.536 1.209-.801 1.912-.225-.769-.424-1.433-.65-2.188-.423.887-.211 1.728-.178 2.648-.39-.46-.715-.841-1.04-1.216-.1 1.104.583 1.86 1.172 2.707-.49 0-.642.007-1.033-.23-.49-.295-.675-.749-1.344-.834.35.368 1.205 1.472.622 1.997-.49.44-.887-.617-1.145-1.012zm-44.808-6.997c.583.407 1.94-2.372 2.649-1.761-.1.092-.132.23-.192.355-.212.414-.364.854-.656 1.222.04.006.034.033.014.02-.053-.04 0 .039 0-.033.437.243 1.788-2.359 2.437-2.444.086.84-.285 1.57-.477 2.385.384-.276.523-.71.867-.966.206.447.272.926.616 1.268.298-.138.457-.454.762-.546.12.191 0 .408.139.566.298.072.576-.138.914-.066-.232.473.238.572.424.801-.053.244-.305.31-.371.493.04.178.291.164.278.375-.146.105-.291.217-.437.322 0-.007.377.44.331.407.715-.328.735-1.708 1.152-2.332.53-.796.934-.657.106-1.288-1.08-.822-2.225-3.877-3.834-3.2-.768.322-1.424 1.235-2.245 1.623-.358.17-.947.532-1.358.565-.602.053-.37-.145-.821-.23-.762-.145-1.563-.026-2.364.322-.298.131-2.232 1.183-1.808 1.741l-.04-.02s.027.02.04.027c.867-.782 1.92-1.157 3.159-1.426-.722 1.202-1.729 1.866-2.92 2.352.76.348 2.02-.5 2.549-.953.318-.276.649-.867 1.026-1.031.252-.112.934 0 1.246-.026-.431.538-.676 1.11-1.186 1.478.02.013.026.033.026.059l-.02-.06zm30.311 4.777c-.602.15-1.119-.007-1.596-.388.318-.4 1.398-1.11 1.537-1.032.08.138-.027.316.126.46.847-.5 1.755-.407 2.682-.144-.093-.454-.252-.848-.14-1.328.424.237.755.552 1.186.73.133-.526.08-1.065.325-1.564.496.23.92.552 1.456.644.08-.348-.02-.723.226-.999.185-.033.198.21.37.171.12-.118-.046-.309.126-.44.325.033 2.398 1.57 2.523 1.353.325-.571-1.297-1.189-1.642-1.432-1.066-.736-1.344-.506-2.649-.532-1.159-.027-1.94-.224-3.046.282-.49.224-.914.5-1.272.88-.238.25-.073.421-.437.658-.887.585-2.523.125-3.43.84-.914.724-.027 1.354-.497 2.222-.192.348-.815.676-1.086 1.011-.384.467-.689 1-.98 1.525 1.06-.053 1.887-.73 2.384-1.63.146-.269.179-.801.364-1.018.278-.315 1.066-.565 1.457-.762-.033.374-.344.558-.424.926.556-.263 2.126.053 2.437-.427l.033-.013-.02.02zM41.781 19.532l-.02.02.027-.013c-.378.46.728 2.004-.053 2.359-.536-.75-1.39-2.392-2.576-1.939.013.204.993.67 1.185.861.331.335.9.986.855 1.498-.252 0-.365-.348-.69-.263.55.69 1.266 1.741.24 2.484-.796.578-.478-.736-1.034-1.255.046.368.285 2.74-.364 2.668-.225-.77-.292-1.577-.603-2.405-.457.906-.258 1.78-.258 2.68-1.192-.328-1.63-1.583-2.192-2.536.159 1.071.536 2.044 1.225 2.885l.013-.013c-.377.138-.251.749-.583.965-1.344-.61-1.404-2.266-1.953-3.337.02.033-.239-.033-.291-.145a4.1 4.1 0 0 1-.352-1.058c-.139-.775.007-1.59.08-2.365-.272.204-.225.545-.45.762-.484-.808-.98-2.102-2.12-2.142.265.29 2 2.22.51 1.768-.457-.138-.775-.776-1.165-1.045a2.7 2.7 0 0 0-1.59-.447c.41.283.908.454 1.14.94-.47.584-1.477-.197-2.047-.014q.029-.058.027 0c-.007-.006-.02-.013-.027-.02 1.172.79 2.424.612 3.65 1.078.482.184.953.21 1.284.592.35.407.483 1.32.682 1.833 1.073 2.78 2.298 4.875 5.073 6.248-.265 1.183-.788 2.215-1.49 3.174.404.374.82.736 1.198 1.136.245.257.769.566.947.815-.417.92-.192 1.748.173 2.609.761-.329 1.304-.841 1.477-1.656.079-.361-.04-.736.046-1.09.132-.526.57-1.026.808-1.512.49-1.032.854-2.149.702-3.298-.06-.454-.371-.92-.391-1.36-.013-.395.325-.67.258-1.052-.125-.696-1.245-.302-1.735-.854-.781-.88-.57-1.931-.086-2.832.404-.755.834-1.537 1.1-2.358.423-1.282-.153-1.308-.63-2.379zm-8.364 46.512c-.046-.033-.132-.052.013-.013-.258.802.497 2.405.65 3.272.185 1.065.37 1.925 1.152 2.72 1.523 1.55 3.55 2.727 5.37 3.89 1.954 1.242 3.073 2.365 5.464 2.576.603.052 6.47.59 6.086 1.537-1.94-.072-3.86-.414-5.801-.48-1.801-.059-3.225.303-4.934.717-.914.223-1.867-.092-2.788-.178a26 26 0 0 0-2.854-.111c-.954.013-1.908.072-2.855.15-.748.066-1.993-.013-2.655.421 3.563.67 7.424.19 11.006-.066 4.014-.282 7.967.125 11.954.533-1.378.367-3.179.059-4.603.065-1.649 0-3.298.027-4.94.053-3.1.052-6.205.144-9.305.256-3.152.112-6.31.17-9.457.362-1.55.091-3.086.269-4.602.61-.888.198-3.067.408-3.603 1.23.338 0 .623-.126.927-.1.014.178 0 .467-.132.605.013 0 .02.013.033.02l-.027-.026c.391.275 2.239-.467 2.762-.506.576-.04 2.245-.224 2.596.328-1.954.125-3.867.296-5.682 1.005.477.112.967.007 1.43.178-.748.197-1.536.256-2.298.624 1.18.71 2.391 1.183 3.709 1.597-.642.269-1.245.394-1.782.742.954.848 1.908 1.708 2.987 2.398.298.19 2.464 1.005 2.477 1.137-.205.072-.41.144-.649.23.417.683 1.748 1.268 2.424 1.695q1.29.806 2.622 1.544a50 50 0 0 0 5.63 2.641 47 47 0 0 0 11.94 2.957c4.463.506 9 .407 13.43-.309a45 45 0 0 0 6.265-1.465 44 44 0 0 0 3.272-1.17c.596-.242 2.251-.663 2.59-1.267h-2.325c-.007-.046-.02-.086-.027-.132 5.14-.723 9.53-3.029 13.55-6.176-3.073-.375-6.152-.414-9.239-.486 1.828-.65 3.908-.598 5.822-.513.98.04 1.953.118 2.927.204.993.085 1.179.02 1.86-.67-.708-.31-1.529-.19-2.25-.46-.73-.276-1.292-.835-2.02-1.13-1.802-.723-3.835-.9-5.756-1.019-2.165-.131-4.337-.157-6.503-.15-.947 0-1.887.012-2.834.025-.908.014-2.073-.19-2.934.138 3.748.204 7.437.408 11.199.618-2.272.887-14.809-.23-17.49-1.518.185-.289 3.191.04 3.655.046q1.906.039 3.821.06c1.272.013 2.55.026 3.821.02.616 0 2.596.242 3.073-.139-.768-1.557-3.642.329-4.457-.802 2.576-.617 5.133-.48 7.696-.46-.47-.321-1.04-.36-1.557-.571.795-.204 1.94-.125 2.517-.795-2.185.184-4.331.4-6.53 0 .556-.283 1.504-.105 2.1-.158a14.6 14.6 0 0 0 1.993-.282c.742-.165 1.457-.5 2.212-.579.669-.072 1.51.329 2.132.093 0-.75-1.053-1.104-1.583-1.413 2.96-.178 6.093-.329 8.868-1.485 1.179-.493 2.291-1.42.563-2.004-1.331-.447-2.914-.407-4.305-.532 1.086-.145 2.186-.08 3.331-.342-.523-.296-1.476-.105-2.046-.118q-1.072-.02-2.146-.079c-1.284-.072-3.185 0-4.304-.683q.278-.263.212-.73c-.166.007-.067.276-.252.263 0-.96.046-1.925.046-2.884 0-.506.232-1.886-.159-2.293-.08.506-.139.965-.324 1.4-.291-1.663.02-3.654-.007-5.356-.006-.486.133-4.402-.02-4.382-.145 2.398-.476 4.684-.913 7.05.006 0-.405-.132-.385-.118.014-1.998.252-4.002.067-6.019l-.18 1.09c-.231-.59-.052-1.294-.092-1.905-.053-.906-.185-.84-1.093-1.195-.615 1.176.073 2.22-.304 3.515-.086-.303-.113-.618-.239-.973-.165.67.172 1.4-.119 2.044-.536-1.82.51-4.337-.358-6.019-.178-.341-.609-.48-.688-.874-.053-.243.185-.519.132-.729-.152-.611-1.675-.966-2.251-1.202-.153.48-.06.985-.146 1.498-.205-.197-.12-.473-.404-.71v2.418h-.08c-.06-.276-.112-.552-.172-.834-.013 2.004.033 4.008-.238 5.998l-.179-.755q-.02-.002-.04.006c-.053 1.11-.112 2.221-.172 3.397-.205-.328-.112-.65-.238-1.005-.06.48-.113.867-.166 1.261-.364-3.534-.285-7.161-.298-10.71 0-.387.166-1.254-.172-1.563-.291-.263-.96-.026-1.331-.21-1.113-.552-1.073-2.3-2.126-2.707-.1 1.708-.192 3.357-.291 5.013h-.126c-.066-.513-.007-1.045-.093-1.557-.278 1.524-.192 3.108-.212 4.652-1.132-1.23-.695-4.324-.616-5.835.066-1.202.689-2.76-.788-3.042-.066.473-.126.94-.192 1.393-.159.033-.12-.151-.252-.105-.053 1.215.014 2.437.06 3.706-.291-.342-.066-.77-.344-1.098-.08.316-.033.624-.232.933-.053-.834-.1-1.669-.12-2.503-.006-.44.226-2.03-.118-2.359-.226-.21-.921-.236-1.12-.02-.284.31-.08 1.814-.073 2.228.014 1.754.596 3.91.245 5.63-.231 1.137-.483 2.49-.808 3.7-.192-1.702-.105-3.285-.185-4.862-.166.676-.179 1.38-.457 2.03-.218-1.524.013-3.147-.04-4.685l-.159.237c-.046-1.196.033-2.366 0-3.575-.53.099-1.079.263-1.616.303-.543.04-1.092-.138-1.629-.027.636.684.702.815 1.577.559.476-.138 1.238-.572 1.251.289l.014.013c-.12-.282-1.272.132-1.603.204-.729.157-.63.197-1.206-.099-.437-.223-.78-1.104-1.086-1.222-.33-.125-1.582 1.065-1.84 1.275-.756.617-1.564 1.288-2.213 2.017-.635.71-.49 1.465-.53 2.418-.032.795-.178.65-.304 1.202-.12.526.179 2.195-.258 2.523-.822.013 0-2.608-.67-2.805-.026.25-.052.48-.079.71h-.053c-.046-.67-.099-1.335-.152-2.09-.066.151-.093.21-.12.276-.642-.789.312-1.21-.774-1.446-.775-.17-1.093.06-1.245.763-.218 1.005-.066 2.22-.133 3.258-.026.46.133 2.267-.284 2.517-.1-1.518-.16-3.016-.603-4.461.066 2.97-.12 5.887-.47 8.837-.185-.105-.066-.283-.232-.342-.013.276-.033.552-.046.822-.285-1.058-.312-2.136-.417-3.312-.106.315-.08.565-.239.815a13.7 13.7 0 0 1-.02-3.818c.106-.834.391-2.477-.106-3.239-1.43.907-2.874 1.735-3.556 3.358.026-1.8.96-3.233 2.457-4.192-3.152.998-2.735 4.468-3.51 6.958-.278-.868-.503-1.768-.477-2.681.02-.71.418-1.669.179-2.365-.291.992-.656 2.01-.53 3.042.133 1.104.45 2.227.676 3.318.205.992.337 2.102.775 3.022.397.848 1.092 1.301 1.642 2.024.583.762.854 1.662 1.583 2.332.59.546 1.278.756 1.761 1.4.61.815 1.206 1.616 1.848 2.418.172.217 1.37 1.38 1.285 1.656-1.63-.02-2.186-1.834-3.45-2.53-.603-.335-1.312-.283-1.895-.664-.51-.335-.867-.867-1.318-1.261-.986-.861-2.39-1.275-2.953-2.53-.676-1.504-.742-3.232-1.464-4.763zm7.305-18.338c.45-.236.51-.808.854-1.143.37-.355.947-.611 1.397-.86.947-.52 1.504-.783 2.04-1.768.55-1.006.775-2.05 1.563-2.91.755-.829 1.503-1.814 2.417-2.445.424-.296.808-.375 1.146-.808s.503-.992.841-1.433c.192-.256.775-.604.894-.88.219-.539-.325-.677-.325-1.203.02-2.168 4.424-1.011 5.418-2.148-.523-.933.57-.828.523-1.57-.046-.77-1.682-.835-2.08-1.249.1-.223.385-.216.504-.433-1.331.118-2.57 1.432-3.762 1.97-1.212.546-2.404.323-3.636.677-1.172.342-2.033 1.394-3.198 1.61-.676.125-.722-.098-1.153.434-.337.42-.642 1.202-.8 1.715-.226.742-.127 1.393-.094 2.142.033.722.073.61-.424 1.15-.715.775-1.642 1.373-2.046 2.365-.404 1.005-1.159 2.09-1.132 3.167.026 1.36.563 2.405 1.04 3.627zm20.033.578c-.437-.906-.543-1.99-.967-2.877-.424-.874-1.702-1.315-2.682-1-1.53.5-2.318 2.8-4.093 1.88-1.563-.808-3.112-1.8-4.867-.966-1.047.5-1.252 1.308-1.875 2.155-.55.75-1.066.559-1.82.933-.822.408-.782 1.505-.829 2.333-.046.992.06 1.117.914.9.576-.145.795-.322 1.404-.184.523.118.65.368 1.186.256.927-.197 1.629-1.426 2.337-1.997 1.921-1.544 3.497.322 5.464-.224 1.007-.282 1.709-1.222 2.775-1.104.437.046.709.191 1.172.132.649-.079 1.192-.296 1.868-.243zm-25.39-10.27c-.398.02-.908-.269-1.292-.091-.047.315.205.506.298.788-.272-.052-.418-.27-.603-.368-.172.119-.106.335-.205.454-.172-.066-.232-.44-.437-.381-.126.506-.245.992.192 1.36.483.407 1.132.026 1.636.21.258.099.37.361.602.48.318.164.457-.02.742.23.37.322.41 1.09.834 1.485.272-.52.682-1.23.769-1.814.092-.63-.252-1.058-.279-1.63-.026-.578.206-1.195.292-1.76.1-.67-.08-.992-.384-1.61-.265.105-.51.217-.736.381.133.256.444.361.53.664-.284.17-.563.335-.828.499.08.243.305.374.351.644-.516.066-1 0-1.463-.026-.113.177.06.295-.02.486M79.35 60.02l-.02.105c2.046.71 3.662 1.597 5.026 3.318.557.703.894 1.308 1.55 1.853.47.394.9 1.525 1.344 1.754.583-.374 1.385.868 1.67 1.19-.18-1.019-.875-1.518-1.55-2.201.311-.184.622-.033.96-.145-.517-.473-1.238-.447-1.828-.854-.576-.407-1.033-.782-1.172-1.511 1.245-.033 2.437.15 3.51.86-.49-1.274-2.358-1.274-3.444-1.55-.51-.132-3.033-1.676-2.828-2.267.736 0 2.007-.27 2.682.099.636.348.749 1.386 1.411 1.767-.199-3.24-5.106-2.714-7.305-2.411zm-7.477-3.206c.782.67 1.12.309 2.013.63.98.355 1.192.704 2.338.664 1.106-.033 2.093.033 3.066-.578.868-.545 1.457-1.426 2.285-2.017-1.152.098-1.49.946-2.45 1.307-.755.29-1.67.04-2.391-.282-1.662-.743-3.318-.96-4.861.27zM49.742 27.095c-.967-.316-2.895-.913-3.755-.08-.65.638-.881 2.452-.378 3.207 1.133 1.715 3.662-2.2 4.133-3.127m4.125-11.288c-.384.847.16 1.097.252 1.833.073.539 0 .394-.344.788-1.232 1.42.159 1.985.424 3.535.278-.276 1.33-2.2 1.145-2.45-.781.078-.642.762-.781 1.261-1.967-1.367.53-2.129 1.662-2.569 1.695-.664 2.675-1.445 3.848-2.766-1.007-.132-1.881 1.261-2.742 1.649.212-.71.437-1.367.47-2.063-.55.749-.96 1.76-1.735 2.32 0-.888.106-1.683-.166-2.583-.304 1.078-.456 2.083-.807 3.082-.643-.565-.987-1.216-1.232-2.024zm-2.337 7.45c-.106-.045-1.967.835-2.16.947-.363.21-.741.703-1.085.979-.292.23-.987.532-1.133.907.729.197 1.583.19 2.344.23.789.039.868-.08 1.424-.598 1.014-.94 2.391-1.82 2.583-3.305-.602.847-1.298 1.563-2.404 1.885.16-.38.292-.696.43-1.038zm30.728 16.519c.636.328 1.278.657 1.841 1.103.563.454.868 1.137 1.616 1.177.735.039 1.616-.506 2.219-.848.317-.177 1.655-.703 1.741-1.09-1.119.078-2.066.775-3.178.814-.994.033-1.875-.46-2.603-1.09 1.51-.69 3.278-.75 4.907-.953-2.265-.579-4.37-.046-6.536.88zM72.033 21.313c.245 1.077.165 1.4-.484 2.227 1.12.913.762.138 1.391-.453.63-.591 1.729-.02 2.477-.427.212-.112.94-.644 1.06-.848.092-.158.08-.637.159-.73.543-.656 1.582-.223 2.053-1.201-.583.243-1.014.703-1.67.551.08-.361.332-.637.332-.998-.861.834-1.265 2.273-2.43 2.746 0-.821.297-1.616.172-2.55-.477.835-.729 1.637-.94 2.537-.418-.565-.166-1.262-.696-1.78.112.814-.371 1.36-.59 2.108-.258-.499-.41-.933-.834-1.182m7.821 28.069c-1.993.236-3.682-.08-5.662-.316a17 17 0 0 1-2.88-.585c-.365-.111-1.736-.926-2.007-.768.403 1.051.84 1.327 1.973 1.537.132-.157-.093-.289.053-.427.61.092 3.867.578 4.093 1.242-.457.118-.934.079-1.418.394 1.073-.02 2.2.874 3.252.526-.39-.342-.821-.565-1.02-1.019.9-.354 2.49 1.032 3.311 1.433-.47-.868-1.033-.861-1.688-1.459.788.053 1.444-.059 1.993-.558m-11.119 2.556c-.397-.217-.841-.276-1.272-.493.338-.243.736-.322 1.034-.67-.928-.06-1.67 0-2.51-.322-.596-.224-2.173-.723-2.722-.145.688.27.742.802 1.08 1.347.357.585.695.605 1.27.992.2-.328.252-.683.497-.985.477.59 1.047 1.386 1.934 1.255-.318-.408-.708-.664-.973-1.104.583.072 1.1.374 1.662.111zm.682-5.395c.616.394.974 1.051 1.603 1.373.801.414 1.96.559 2.84.67.98.119 1.901.21 2.862.382.98.17 1.801-.08 2.761-.349-.437-.184-3 .237-3.112-.111.781-.605 1.483-.94 2.477-1.025-.597-1.058-3.245.696-4.047.755-.742.053-1.715.125-2.417-.17-.265-.112-1.272-.657-1.166-1 .888 0 1.788.047 2.67-.039-.762-.308-3.59-.61-4.478-.486zM60.914 30.94c.596-.086 1.145.02 1.735.046.616.026 1.159-.21 1.755-.119 1.212.184 1.973.743 3.285.381-.822-.48-1.934.25-2.696-.624 1.464-.217 2.192-.532 3.278.48.795.742 2.126 1.334 3.239.9-.755-.204-1.477-.316-2.232-.69.543-.177 1.007-.164 1.457-.256-.616-.21-1.166-.105-1.762-.237-.417-.092-.615-.42-.986-.624-.802-.44-1.656-.453-2.55-.263s-1.457.73-2.351.67c-.795-.052-1.543-.394-2.152.335zM51.656 17.79c-1.027.164-.809 1.275-1.212 1.932-.365.591-1.212 1.183-1.875 1.097-.08-.434.08-.834.106-1.288-.437.349-.423 1.268-.55 1.768-.138.545-.569 1.307-.35 1.885 1.172-.341 1.178-1.432 1.86-2.24.762-.907 2.524-1.012 2.954-2.149-.543.138-.96.395-1.444.565.014-.558.18-1.038.517-1.57zm14.099 29.074-.02-.052c-1.113.216-1.57.17-2.649-.06-.073-1.13-1.265-.742-2.02-.538.1.446.457 1.478.88 1.715.133.072.431-.152.57-.086.087.04.186.375.245.388.69.144 2.279-.933 2.98-1.373zm-7.576-15.112c.808.611 2.192-1.031 2.761-1.34.391-.21 2.987-.092 2.822-.723-.226-.854-3.16.223-3.603.375-.378.131-1.497.289-1.729.551-.145.171-.172.887-.251 1.137m14.364-2.707c-.656-.335-1.292 0-1.994-.19-.986-.276-1.596-.533-2.622-.106.748 1.085.993 1.69 2.377 1.696.378 0 3.166.184 3.245-.053-.98-.414-1.86-.42-2.9-.348-1.033.072-1.186-.296-1.861-1.051 1.324.177 2.536.466 3.755.052m-18.331 9.692c1.1.598 3.265-.125 4.013-1.36-.715.15-1.404.367-2.192.23.483-.474 1.12-.546 1.662-.927-1.934-.256-2.285.92-3.483 2.057m31.437 19.074c-.113-.276-2.106-.388-2.563-.349-1 .08-2.338.71-2.974 1.479 1.2.124 2.332.216 3.47.262-.317-.322-.734-.46-1.185-.729.967-.355 2.55.007 3.252-.663M31.523 35.275c-.152.775.278.821.457 1.445.132.46.053.42-.172.894-.166.348-1.113 1.59-.384 1.794.662.184.9-1.584 1.112-1.932.457-.742 1.954-.664 2.258-1.3-.251-.132-.503-.008-.754-.106.092-.4.37-.802.132-1.288-.616 1.373-.781 1.577-1.377 1.65-.02-.467.013-.934-.08-1.505-.258.519-.192 1.012-.437 1.445-.325-.302-.49-.67-.748-1.104zM75.927 52.66c-.656.559-1.245.65-2.046.986-.749.309-2.742.847-3.126 1.603.682.315 1.37-.342 1.967-.578.583-.237 1.198-.329 1.814-.454 1.623-.328 2.06-.59 2.65-2.18-.47.269-.73.604-1 .9-.146-.04-.1-.185-.252-.277zm-4.324-25.657c-1.292-.263-2.133.315-3.192.847-1.047.526-2.45-.059-3.325.77 1.311.321 2.775-.389 4.053-.56 1.152-.157 2.086 1.072 3.126.066-.775.158-1.484.145-2.133-.466.537-.19 1.047-.322 1.47-.657m-1.186 27.596c1.45-.789 3.126-1.393 3.132-3.286-.55.65-1.02 1.288-1.748 1.761-.735.473-1.384.539-1.384 1.531zM27.543 75.985c-.722.053-1.384-.046-1.88.44-.193.184-.166.48-.418.664-.265.19-.715.151-1.02.217-.775.164-1.212.742-1.974.887-.523.098-1.437-.329-1.84.052.88.138 1.854.44 2.675-.032.59-.335.669-.611 1.43-.67.855-.06.755.118 1.298-.553.206-.256.259-.505.563-.683.351-.204.802-.105 1.16-.322zm40.954-22.379c.788.723 1.251.342 1.708-.341.1-.151.96-1.288.934-1.4-.219.033-1.12.75-1.126.743-.06-.105.04-.243-.073-.342-.165 0-.655.67-.781.795-.172.164-.537.263-.662.545M51.9 20.531c-1.683-.118-1.736 1.104-2.577 2.135 1.272-.256 1.537-1.51 2.577-2.135m34.344 38.588c-.113-.217.12-.328.112-.532-.251.105-.589.676-.907.538-.199-.085.06-.433-.199-.446-.31.164-1.052.394-1.278.617 1.067.119 2.087.467 3.173-.026-.338-.17-.656-.059-.908-.164zm-29.848-19.79c.841.394 1.788.144 2.378-.618-.484.013-.954.552-1.384-.013-.331.21-.636.407-.994.63m19.378-12.385c-.365-.099-1.325-.578-1.682-.454-.186.066-.59.493-.404.69.669.02 1.37-.072 2.086-.236M59.404 39.4c-.848.335-1.729.486-2.676.585.563.723 2.265.072 2.676-.585m21.298 17.556c.775-.46 1.603-.394 2.39-.67-.834-.473-1.688-.243-2.39.67m7.642 6.13c-.093-.788-.57-1.254-1.417-1.386.318.322.987 1.268 1.417 1.386M73.437 26.136c-.523-.139-1.285-.106-1.662.065.57.243 1.119.408 1.662-.066M60.914 20.07c-.755.177-1.338.664-1.464 1.222.523-.368.954-.795 1.464-1.222m14.37 54.383c-.052 0-.655-.078-.635.112.026.256.616-.085.636-.112M27.9 75.933s.047.013.047-.014q-.039-.028-.046.014"/><path fill="#2EA241" d="M20.324 29.486c.08.066.788.506.556.717-.238.223-.556-.572-.536-.71h-.02zM78.748 62.779s.159-.631.37-.493c.28.184-.211.5-.37.493"/><path fill="#2EA241" d="M20.344 29.493c-.066.032-.04-.052-.033.013 0 .026.033.013.006-.02h.02zM78.933 63.626s-.065.065.013.007h-.013zM18.257 49.04s-.006-.02-.012-.026q.007.002.025.012zM63.298 79.606c3.278-.349 6.457-.625 9.516-1.702-2.377-.46-4.894.085-7.298.138 1.696-.355 3.424-.42 5.153-.52-2.676-.742-5.404-.8-8.16-.604 1.054-.874 2.61-1.077 3.895-1.412-2.192-.086-5.504.696-6.543 1.793.477.112 2.596-.04 2.828.362.39.676-1.96 1.156-2.45 1.28-1.22.303-2.471.487-3.723.599-1.02.092-2.629.44-3.602.079-.02-.178 7.675-1.19 8.516-1.63-2.576-.282-5.145-.105-7.728-.184-1.04-.033-2.18.072-3.073-.545-.888-.618-1.424-1.327-2.537-1.65-1.132-.328-2.304-.019-3.43-.295-1.152-.282-1.543-1.104-2.146-2.004-.55-.821-1.145-1.084-1.986-1.537-1.04-.559-1.411-1.269-1.861-2.32 1.245.664 2.602.552 3.887 1.012 1.245.447 1.94 1.538 3.027 2.208 1.145.716 2.377.736 3.688.749 1.417.013 2.722.525 4.146.276-.265-.677-3.027-.75-3.61-.769-1.251-.053-2.635.04-3.629-.874.299-.519 4.623.118 5.292.17 1.815.152 3.543.421 5.291.875 1.663.427 3.583.289 5.305.388.967.059 1.927.118 2.894.197.457.032 2.331-.086 2.556.321-.708.29-1.516.316-2.198.763.615.788 3.728-.046 3.94.722-.821.178-1.642.362-2.437.868.715.394 1.788.289 2.576.355.98.078 1.954.236 2.934.302.602.04 1.775-.296 2.311-.02.821.414.126 1.071-.404 1.367-1.556.874-3.695 1.031-5.437 1.209q-1.392.136-2.795.164c-.722.013-2.08.263-2.708-.151zM67.775 80.519c-2.1 0-4.193.118-6.292.157-2.073.04-4.516.355-6.536-.157 5.218-.27 10.443-.375 15.722-.388-.43.953-3.411.999-4.305 1.11a74 74 0 0 1-4.993.421c-3.404.19-6.855.145-10.245.5-3.206.341-6.398.886-9.61 1.228-3.35.355-6.695.769-10.006 1.393-.027.657 3.211 1.117 3.662 1.19a29 29 0 0 0 2.132.236c.457.04 1.358-.086 1.755.184-1.265.223-2.53.23-3.768.5 2.285.61 4.63.715 6.98.866-5.636.723-11.662-1.084-16.973-2.818 2.622-1.36 6.198-1.479 9.086-1.748 3.225-.302 6.463-.434 9.695-.677-.311-.38-1.642-.144-2.112-.144a124 124 0 0 0-3.126 0c-1.967.026-3.947.072-5.914.256-1.748.158-3.424.532-5.1 1.045-.503.15-4.774 1.4-4.993.788a9 9 0 0 1 2.133-.94c.364-.105.874-.124 1.218-.302.225-.118.345-.387.576-.512.656-.348 1.656-.256 2.371-.296 1.046-.06 2.093-.151 3.14-.223 3.907-.283 7.78-.54 11.701-.552 7.947-.02 15.868-.414 23.788-1.071v-.053z"/><path fill="#2EA241" d="M19.284 86.261c1.815-.453 3.643-.335 5.603-.105-.55-.578-1.192-.755-1.768-1.051 2.854-.145 5.788 1.524 8.497 2.24a64 64 0 0 0 8.57 1.643c-.676.407-1.451.526-2.206.75 1.02.834 3.165.656 4.39.656-.29.486-1.82.407-2.297.414-.96.007-1.921-.138-2.815-.486-.993-.388-1.729-.828-2.815-.887-1-.053-1.907-.27-2.867-.572-2-.637-3.768-1.511-5.868-1.833-2.126-.328-4.278-.545-6.424-.769M49.304 84.152c-.708-.19-1.437-.197-2.152-.315 1.503-.454 15.08-.868 17.1-.151-4.047 0-8.087.079-12.093.703-2.027.315-4.007.598-6.067.624-1.828.026-4.178-.46-5.92.17 1.033.802 3.43.77 4.689.934 1.728.223 3.47.341 5.205.5-5.047.446-10.53-.382-15.457-1.492 2.41-.401 4.9-.467 7.331-.598 2.404-.132 4.993.072 7.358-.381zM37.774 94.54c-.41.263-1.913-.322-2.384-.342 1.02.625 2.014 1.058 2.901 1.807-.722.06-1.788-.768-2.43-1.044a16.5 16.5 0 0 0-3.206-1.025c-1.556-.329-4.397-.184-5.655-1.282 1.132.138 2.278.342 3.423.217-.622-.801-2.284-1.031-3.218-1.248-1.179-.276-2.364-.467-3.563-.631.974-.585 2.987-.237 4.066-.164 1.41.098 2.788.355 4.172.604 1.345.237 2.716.408 4.027.776.86.243 2.536.637 2.96 1.55h.013c-.562.138-1.722-.5-2.291-.624-.596-.131-1.748-.5-2.318-.158 1.252.42 2.424.887 3.497 1.57v-.013zM63.443 94.389c-4.238.164-8.33 1.064-12.543 1.472a40.5 40.5 0 0 1-6.119.144c-1.86-.105-4.57-.131-6.185-1.163.218-.282 2.172.073 2.583.06 1.125-.04 2.244-.139 3.377-.171 2.219-.066 4.43.052 6.649-.053 1.199-.06 12.185-1.491 12.238-.27v-.019M41.993 89.527c.709-.532 2.371-.52 3.219-.611a46 46 0 0 1 3.556-.217c2.384-.072 4.834.151 7.205-.092-3.986-.52-8.066-.434-12.08-.644 3.2-.73 6.935-.236 10.193-.204 3.556.033 7.112.08 10.669.08l.02.124c-3.656.992-7.537 1.281-11.312 1.229-3.847-.053-7.649.065-11.483.341z"/><path fill="#2EA241" d="M39.53 96.15c2.357.098 4.708 1.058 7.092 1.235 2.45.184 4.914.151 7.364.053 2.424-.099 4.848-.276 7.265-.54 1.239-.13 2.47-.288 3.702-.472 1.027-.151 2.232-.52 3.265-.44-4.636 1.616-10.006 2.096-14.887 2.306-2.464.105-4.954.065-7.404-.276a24 24 0 0 1-3.543-.756c-.523-.15-2.769-.61-2.841-1.123v.013zM37.437 92.142c-2.007-.605-4.172-.664-6.212-1.21a60 60 0 0 1-3.053-.906c-.543-.177-1.954-.394-2.285-.893 2.073.197 4.046.61 5.987 1.202h.08-.094c-.013-.558-2.761-1.34-3.245-1.511-1.185-.414-2.774-.48-3.86-1.078 2.668-.079 4.947 1.104 7.384 1.985q1.757.64 3.596.965c.477.086 2.662.19 2.847.71-.741.026-1.483-.033-2.225.118.14.053 1.252.329 1.08.605zM42.933 91.938c3.298-1.255 7.225-.834 10.643-.578 1.847.138 3.695.17 5.543.151 1.9-.02 3.927-.315 5.821-.085-3.622.447-7.311.801-10.96.67-1.881-.072-3.755-.138-5.636-.145-.947 0-1.9 0-2.848.007-.695.007-1.9.243-2.57-.02zM53.768 78.443c-.49.394-2.113.236-2.715.177-1.06-.112-2.113-.506-3.166-.71-.9-.17-2.04-.138-2.874-.532-.689-.322-.967-.953-1.344-1.57.337-.217 1.907.27 2.344.302 1 .079 1.867.21 2.755.723.755.433 1.318.985 2.192 1.202.94.237 1.867.092 2.814.407zM28.265 93.949c1.748.335 3.51.617 5.231 1.058.749.19 4.04.854 4.265 1.74-.437-.085-.86-.17-1.285-.255 1.06.88 2.391 1.143 3.643 1.603-1.715-.092-3.378-.493-5.106-.559.338-.296.715-.328.98-.585-.689-1.143-2.927-1.018-4.073-1.241-.622-.119-1.02-.303-1.523-.677-.709-.532-1.298-.71-2.172-.986.013-.033.026-.072.04-.105zM67.013 90.151c-5.523.867-11.225.276-16.768-.092 1.708-.256 15.808-.19 16.768.092M66.463 95.388c1.484-1.564 3.716-1.57 5.67-2.116-1.226-.381-2.385-.486-3.544-.637 1.046-.316 2.291-.106 3.378-.25 1.159-.158 2.291-.559 3.457-.624-.504.374-1.04.5-1.424.795-.053.276.238.217.271.394-.987.86-2.854.88-4.08 1.17q-.942.227-1.847.565c-.338.124-1.497.887-1.867.69h-.014zM67.337 91.445c1.087-1.077 2.881-.703 4.245-.676 1.57.032 3.14-.092 4.709-.092-.437.61-3.364.552-4.086.578-1.623.066-3.265-.204-4.861.184zM78.37 88.311c-3.37-.217-6.721-.026-10.066.434 1.954-.894 7.735-1.301 10.067-.434M81.695 77.076c-.781.486-1.868.112-2.682 0-1.073-.158-2.212-.046-3.298-.079 1.907-.486 4.033.02 5.98.085zM66.556 82.917c-1.291.138-2.57.033-3.848-.112 1.285-.065 2.57-.04 3.848.112M77.073 76.09l-3.504-.256c1.186-.112 2.358-.079 3.523.158 0 .033-.013.072-.02.105zM79.443 78.232c-1.066.178-2.132.151-3.192.224a10.3 10.3 0 0 1 3.192-.224M72.37 75.716c-.774.118-1.55.23-2.35.355.609-.31 1.317-.434 2.35-.355M69.51 74.467c-.603.165-1.212.184-1.934.29.536-.263 1.258-.362 1.934-.29M72.417 74.783c-.735.098-1.39.111-2.086.013.377-.099 1.477-.112 2.086-.013M39.536 96.137h-.139c0-.08.04-.073.126.006v-.013z"/><path fill="#2EA241" d="M37.43 92.135s.06-.006.092-.013l-.085.02zM55.053 52.706h.032c-.013-.026-.02-.026-.026.013l-.013-.013zM38.874 93.758l.065.04c-.065.032-.078.012-.052-.046h-.013zM63.437 94.402c.052-.046-.046-.04.02-.013.02.006.006.026-.014 0v.013zM37.78 94.553c-.071 0 .008-.059-.025 0-.014.02.013.026.02-.013v.013zM66.476 95.381v.038l-.013-.031zM37.523 26.589c.503.4 1.53 1.045 1 1.872-.954.263-.855-1.406-.987-1.892l-.013.013zM39.298 29.066c-.106-.743.192-1.301.57-1.88.29.848.085 1.532-.57 1.88M41.198 22.325c-.192.243.279-.105 0 0M30.82 29.492l-.02-.025.02.019zM70.197 50.242c-.031-.02-.025-.032-.012.013zM30.265 75.506c.231-.066.37-.06.536 0-.172.046-.318.078-.536 0M63.92 36.293l-.013-.02.026.014z"/></svg>